<svg version="1.1" xmlns="http://www.w3.org/2000/svg" x="0px" y="0px" width="152px" height="152px" viewBox="0 0 152 152">
<style type="text/css">
	.st0{fill:none;stroke:#000000;stroke-width:0.5524;stroke-linecap:round;stroke-miterlimit:10;}
	.st1{fill:#FFFFFF;stroke:#000000;stroke-width:0.5524;stroke-linecap:round;stroke-miterlimit:10;}
</style>
<g>
	<path class="st1" d="M105.82,153.25c1.69-4.19,8.86-23.99,8.86-23.99c6.72-3.6,18.67-25.34,9.04-47.97
		c-6.28-14.77-12.77-18.07-13.26-28.2c-0.35-7.12-6.92-13.63-13.67-21.42c-4.63-5.34-20.88-18.4-21.57-21.04
		C74.54,7.99,75.9,3.88,77,1.98c0.48-0.83,1.2-0.98,1.45-1.9c0.29-1.03,0.14-2.18,0.54-3.17c1.66-4.12,6.02-5.14,8.27-4.88
		l-40.13-1.2C49.18-4.71,47.11,4.88,43.44,11c-2.14,3.56-4.27,7.12-6.01,12.51c-5.4,16.74-1.97,31.97,0,40.48
		c1.92,8.28,2.86,12.92,5.36,24.81c2.34,11.13-0.24,32.78-0.24,32.78"/>
	<path class="st1" d="M67.63,92.9c7.13,8.53,18.4,28.62,21.8,39.66c4.11,13.33,6.13,15.74,11.58,28.58
		c1.28,3.01,8.7,12.51,9.11,15.75c0.14,1.11-1.77,10.28-3.23,12.48c-3.24,4.88-7.8,4.6-10.38,4.63s-6.7-1.81-6.5-2.72
		c0.11-0.52,3.94-5.39,1.55-9.34c-2.39-3.95-4.19-8.37-3.98-14.52c0,0,0.32-2.37-1.77-6.28c-2.93-5.51-25.02-35.78-25.02-35.78
		S47.8,106.34,47.68,99.23c-0.1-6.33-3.92-22.69-4.56-25.52c-1.72-9.55-6.66-26.35-5.99-31.4"/>
	<path class="st1" d="M74.79,44.22c-2,0-2.4,3.37-2.4,3.37c-3.98,14.55,3.59,20.33-3.42,46.85"/>
	<path class="st0" d="M46.58,19.11c-3.66,2.69-5.52,4.84-7.57,9.78"/>
	<path class="st0" d="M110.62,54.19c-0.28,4.23-3.11,7.94-6.91,7.8"/>
	<path d="M42.58,119.75l-5.52,17.41c-6.33,22.63,1.85,35.99,8.45,40.5c14.68,1.12,32.42,2.05,46.81,6.78
		c0-1.04-5.66-7.19-4.75-17.02c0.29-3.13-2.21-7-3.96-9.81c-7.53-12.18-16.01-22.77-17.21-24.49c-3.58-5.12-9.02-13-9.02-13
		L42.58,119.75z"/>
	<path class="st0" d="M42.58,119.75l-5.52,17.41c-6.33,22.63,1.85,35.99,8.45,40.5c14.68,1.12,32.42,2.05,46.81,6.78
		c0-1.04-5.66-7.19-4.75-17.02c0.29-3.13-2.21-7-3.96-9.81c-7.53-12.18-16.01-22.77-17.21-24.49c-3.58-5.12-9.02-13-9.02-13
		L42.58,119.75z"/>
	<path class="st0" d="M52.4,102.4c-0.28,2.55,1.54,5.16,4.03,5.78"/>
	<path class="st0" d="M57.97,115.9c0.85,2.06,13.3,19.9,19.32,27.99"/>
	<path d="M103.7,165.61l10.98-36.57c0,0-27.51-6.15-29.21-6.41l10.18,26.49L103.7,165.61z"/>
	<path class="st0" d="M103.7,165.61l10.98-36.57c0,0-27.51-6.15-29.21-6.41l10.18,26.49L103.7,165.61z"/>
</g>
</svg>
