<svg version="1.1" xmlns="http://www.w3.org/2000/svg" x="0px" y="0px" width="152px" height="152px" viewBox="0 0 152 152">
<style type="text/css">
	.st0{fill:none;stroke:#000000;stroke-width:0.5524;stroke-linecap:round;stroke-miterlimit:10;}
	.st1{fill:#FFFFFF;stroke:#000000;stroke-width:0.5524;stroke-linecap:round;stroke-miterlimit:10;}
</style>
<g>
	<path class="st1" d="M102.25,135.14c2.32-12.83,8.43-20,4.57-44.48c-2.51-15.89-10.29-19.57-11.19-29.68
		c-0.42-4.72,3.25-14.1-1.75-23.08c-1.96-3.51-4.97-8.75-7.7-12.27c-4.24-5.48-8.99-14.69-9.52-15.52
		c-0.29-0.46-0.37-1.01-0.44-1.55c-0.29-2.18-0.54-4.54,0.55-6.44c0.48-0.83,1.2-1.53,1.45-2.45c0.29-1.03-0.06-2.13-0.01-3.2
		c0.13-2.26,2.12-4.07,4.29-4.72c2.17-0.65,4.5-0.39,6.74-0.13L51.34-10.3c2.05,4.46-0.01,14.05-3.69,20.17
		c-2.13,3.56-4.27,7.12-6.01,12.51c-5.4,16.74-1.97,31.97,0,40.48c1.92,8.28,2.86,12.92,5.36,24.81
		c2.34,11.13-0.24,32.78-0.24,32.78"/>
	<path class="st1" d="M71.83,91.77c7.14,8.53,18.4,28.62,21.8,39.66c4.1,13.33,6.13,15.74,11.58,28.58
		c1.28,3.01,8.7,12.51,9.11,15.76c0.14,1.11-1.77,10.28-3.23,12.48c-3.24,4.88-7.8,4.61-10.38,4.63s-6.7-1.81-6.5-2.72
		c0.11-0.53,3.94-5.39,1.55-9.34c-2.39-3.95-4.19-8.37-3.98-14.53c0,0,0.31-2.37-1.77-6.28c-2.93-5.5-25.03-35.78-25.03-35.78
		S52,105.22,51.89,98.1c-0.1-6.33-3.92-22.69-4.56-25.52c-1.72-9.55-6.66-26.35-5.99-31.4"/>
	<path class="st1" d="M79,43.09c-2,0-2.4,3.37-2.4,3.37c-3.98,14.55,3.59,20.33-3.42,46.85"/>
	<path class="st0" d="M51.34,17.98c-3.66,2.69-5.52,4.84-7.57,9.78"/>
	<path class="st0" d="M96.18,53.06c-0.28,4.23-3.11,7.94-6.91,7.8"/>
	<path d="M46.79,117.63c0,0-3.12,13.01-5.06,21.78c-4.29,19.42,2.63,28.82,6.04,38.14c14.68,1.12,34.53,2.84,48.92,7.56
		c0.97-1.84-2.05-5.48-2.54-7.91c-0.84-4.16-1.23-8.64-1.97-12.83c-0.49-2.82-2.09-5.3-3.65-7.7c-1.61-2.48-6.6-8.56-12.69-17.58
		c-2.44-3.61-14.91-21.46-14.91-21.46L46.79,117.63L46.79,117.63z"/>
	<path class="st0" d="M46.79,117.63c0,0-3.12,13.01-5.06,21.78c-4.29,19.42,2.63,28.82,6.04,38.14
		c14.68,1.12,34.53,2.84,48.92,7.56c0.97-1.84-2.05-5.48-2.54-7.91c-0.84-4.16-1.23-8.64-1.97-12.83c-0.49-2.82-2.09-5.3-3.65-7.7
		c-1.61-2.48-6.6-8.56-12.69-17.58c-2.44-3.61-14.91-21.46-14.91-21.46L46.79,117.63L46.79,117.63z"/>
	<path d="M90.52,123.38c1.7,0.26,12.1,4.08,13.24,5.37c-0.12,0.34-1.33,5.42-1.86,10.57c-0.54,5.33-0.4,10.72-0.4,10.72l-4.36-8.4
		L90.52,123.38z"/>
	<path class="st0" d="M90.52,123.38c1.7,0.26,12.1,4.08,13.24,5.37c-0.12,0.34-1.33,5.42-1.86,10.57
		c-0.54,5.33-0.4,10.72-0.4,10.72l-4.36-8.4L90.52,123.38z"/>
	<path class="st0" d="M57.16,101.27c-0.28,2.55,1.54,5.16,4.03,5.78"/>
	<path class="st0" d="M62.73,114.78c0.85,2.06,13.3,19.9,19.32,27.99"/>
</g>
</svg>
