<svg version="1.1" xmlns="http://www.w3.org/2000/svg" x="0px" y="0px" width="152px" height="152px" viewBox="0 0 152 152">
<style type="text/css">
	.st0{fill:none;stroke:#000000;stroke-width:0.5524;stroke-linecap:round;stroke-miterlimit:10;}
	.st1{fill:#FFFFFF;stroke:#000000;stroke-width:0.5524;stroke-linecap:round;stroke-miterlimit:10;}
</style>
<g>
	<path class="st1" d="M98.99,129.53c0.09-8.76,1.49-12.92,0.68-28.96c-0.71-14.01,0.17-29.61-0.57-39.73
		c-0.32-4.35,3.25-12.61-1.74-23.08C95.62,34.14,75.3,10.58,75.17,9.98c-0.39-1.77-1.82-3.7,0.11-7.99
		c0.39-0.87,1.2-1.53,1.45-2.45c0.29-1.03-0.06-2.13-0.01-3.2c0.12-2.26,2.11-4.07,4.28-4.72c2.17-0.65,4.5-0.39,6.75-0.13
		L50.93-11c2.05,4.46-0.01,14.05-3.69,20.17c-2.13,3.56-4.27,7.12-6.01,12.51c-5.4,16.74-1.97,31.97,0,40.48
		c1.92,8.28,2.86,12.92,5.36,24.81c2.34,11.13-0.24,32.78-0.24,32.78"/>
	<path class="st1" d="M70.88,91.07c7.14,8.53,18.4,28.62,21.8,39.66c4.1,13.33,6.13,15.74,11.58,28.58
		c1.28,3.01,8.7,12.51,9.11,15.76c0.14,1.11-1.77,10.28-3.23,12.48c-3.24,4.88-7.8,4.61-10.38,4.63c-2.58,0.03-6.7-1.81-6.5-2.72
		c0.11-0.53,3.94-5.39,1.55-9.34s-4.19-8.37-3.98-14.53c0,0,0.32-2.37-1.77-6.28c-2.93-5.5-25.03-35.78-25.03-35.78
		s-12.99-19.01-13.1-26.13c-0.1-6.33-3.93-22.69-4.56-25.52c-1.72-9.55-6.66-26.35-5.99-31.4"/>
	<path class="st0" d="M99.67,52.92c-0.28,4.23-3.13,7.94-6.94,7.8"/>
	<path class="st1" d="M78.04,42.39c-2,0-2.4,3.36-2.4,3.36c-3.98,14.55,3.59,20.33-3.42,46.85"/>
	<path d="M46.75,118.27c0,0-4.33,15.85-5.9,24.69c-1.58,8.84-0.68,15.24,4.27,24.68c2.14,4.08,3.69,4.57,5.04,11.56
		c14.68,1.12,30.11,1.63,44.5,6.35c0.92-2.96-0.95-6.46-1.99-8.71c-2.01-4.37-1.58-9.08-2.32-13.26c-0.49-2.81-1.38-4.1-2.94-6.5
		C85.8,154.61,79.23,145,76,140.33c-3.51-5.07-15.71-22.06-15.71-22.06H46.75z"/>
	<path class="st0" d="M46.75,118.27c0,0-4.33,15.85-5.9,24.69c-1.58,8.84-0.68,15.24,4.27,24.68c2.14,4.08,3.69,4.57,5.04,11.56
		c14.68,1.12,30.11,1.63,44.5,6.35c0.92-2.96-0.95-6.46-1.99-8.71c-2.01-4.37-1.58-9.08-2.32-13.26c-0.49-2.81-1.6-3.87-3.16-6.27
		c-1.61-2.48-8.51-12.04-11.74-16.71c-3.51-5.07-15.16-22.34-15.16-22.34H46.75z"/>
	<path d="M88.56,120.3c2.37,0.16,10.49,1.86,10.49,1.86s-0.23,23.83,0,25.46C98.48,144.41,88.56,120.3,88.56,120.3"/>
	<path class="st0" d="M88.56,120.3c2.37,0.16,10.49,1.86,10.49,1.86s-0.23,23.83,0,25.46C98.48,144.41,88.56,120.3,88.56,120.3z"/>
	<path class="st0" d="M55.65,100.57c-0.28,2.55,1.54,5.16,4.03,5.78"/>
	<path class="st0" d="M61.22,114.07c0.85,2.06,13.3,19.9,19.32,27.99"/>
	<path class="st0" d="M50.93,17.28c-3.66,2.69-5.52,4.84-7.57,9.78"/>
</g>
</svg>
