<svg version="1.1" xmlns="http://www.w3.org/2000/svg" x="0px" y="0px" width="152px" height="152px" viewBox="0 0 152 152">
<style type="text/css">
	.st0{fill:none;stroke:#000000;stroke-width:0.5524;stroke-linecap:round;stroke-miterlimit:10;}
	.st1{fill:#FFFFFF;stroke:#000000;stroke-width:0.5524;stroke-linecap:round;stroke-miterlimit:10;}
</style>
	<g>
		<path class="st1" d="M91.42,123.36c-0.48-5.04,8.74-46.88,9.29-55.7c0.28-4.5,0.35-6.8-0.88-12.5c0,0,3.31-3.94,1.35-14.51
			c-1.51-8.17-9.38-17.03-15.68-22.26c-5.34-4.43-10.94-6.86-11.48-7.69c-0.29-0.46-0.37-1.01-0.44-1.55
			c-0.29-2.18-0.54-4.54,0.55-6.44c0.48-0.83,1.19-1.53,1.45-2.45c0.29-1.03-0.06-2.13-0.01-3.2c0.12-2.26,2.11-4.07,4.29-4.72
			c2.17-0.65,4.49-0.39,6.74-0.13L52-10.84c2.05,4.46-0.01,14.05-3.69,20.17c-2.13,3.56-4.27,7.12-6.01,12.51
			c-5.4,16.74-1.97,31.97,0,40.48c1.92,8.28,2.86,12.92,5.36,24.81c2.34,11.13-0.24,32.78-0.24,32.78"/>
		<path class="st1" d="M72.5,91.23c7.14,8.53,18.4,28.62,21.8,39.66c4.1,13.33,6.13,15.74,11.58,28.58
			c1.28,3.01,8.7,12.51,9.11,15.76c0.14,1.11-1.77,10.28-3.23,12.48c-3.24,4.88-7.8,4.6-10.38,4.63c-2.58,0.03-6.7-1.81-6.5-2.72
			c0.11-0.52,3.94-5.39,1.55-9.34c-2.39-3.95-4.19-8.37-3.98-14.52c0,0,0.31-2.37-1.77-6.28c-2.93-5.51-25.03-35.78-25.03-35.78
			s-12.99-19.01-13.1-26.13c-0.1-6.33-3.93-22.69-4.56-25.52c-1.72-9.55-6.66-26.35-5.99-31.4"/>
		<path class="st0" d="M99.68,55.64c-0.67,1.27-2.98,3.24-4.82,3.79"/>
		<path class="st1" d="M80.22,42.55c-2,0-2.4,3.37-2.4,3.37c-3.98,14.55,3.59,20.33-3.42,46.85"/>
		<path d="M47.59,118.43c0,0-4.32,15.85-5.9,24.69c-1.58,8.84-0.68,15.24,4.27,24.69c2.14,4.07,3.69,4.57,5.04,11.56
			c14.68,1.12,31.38,1.63,45.77,6.36c0.92-2.96-1.05-6.46-2.09-8.72c-2.01-4.36-1.61-8.79-2.34-12.97
			c-0.49-2.81-1.41-4.36-2.97-6.75c-1.61-2.48-8.83-12.76-12.06-17.43c-3.51-5.07-15.06-21.42-15.06-21.42H47.59z"/>
		<path class="st0" d="M47.59,118.43c0,0-4.32,15.85-5.9,24.69c-1.58,8.84-0.68,15.24,4.27,24.69c2.14,4.07,3.69,4.57,5.04,11.56
			c14.68,1.12,31.38,1.63,45.77,6.36c0.92-2.96-1.05-6.46-2.09-8.72c-2.01-4.36-1.61-8.79-2.34-12.97
			c-0.49-2.81-1.41-4.36-2.97-6.75c-1.61-2.48-8.83-12.76-12.06-17.43c-3.51-5.07-15.06-21.42-15.06-21.42H47.59z"/>
		<path class="st0" d="M52.56,17.44c-3.66,2.69-5.52,4.84-7.57,9.78"/>
		<path class="st0" d="M57.03,99.84c-0.28,2.55,1.55,5.16,4.03,5.78"/>
		<path class="st0" d="M62.6,113.34c0.85,2.06,13.29,19.9,19.32,27.99"/>
	</g>
</svg>
