<svg version="1.1" xmlns="http://www.w3.org/2000/svg" x="0px" y="0px" width="1000px" height="1000px" viewBox="0 0 1000 1000">
<style type="text/css">
	.st0{fill:#BCBEC0;stroke:#6D6E70;stroke-width:3;stroke-miterlimit:10;}
	.st1{fill:#FFFFFF;stroke:#999999;stroke-width:4;stroke-miterlimit:10;}
	.st2{fill:none;stroke:#999999;stroke-width:4;stroke-miterlimit:10;}
</style>
<g>
	<path class="st1" d="M387,506c0,0-1.4,19.1,1.7,28.4c0,0,4.1,3.6,5.3,10.4c0,0,3.4,12.4-1.7,21.6c0,0-1,2.9-0.1,10.1
		c0,0,1.6,8.3,1.2,15.4c0,0,6.5,5,4.9,8.4c0,0,2.6,8.1-2.9,8.4c0,0-1.3,5.3-4.9,3c0,0-18.8-10-22-17c0,0-6.9-9.4-8-14.8
		c0,0-4.6-3.4-3.6-8.6c0,0-2.1-2.9-1-7.4c0,0,4.9-32,4-40.1l-2.7-20.7l12.7-1.4L387,506z"/>
	<path class="st1" d="M390.3,515.4c0,0-13.7,22.1-37.7,2.8c0,0-5.1-112.3,1.8-137.5c0,0-1.5-20.2,1.5-27.4c0,0-3.4-4.6,0.4-11.8
		c0,0-3.6-121.8,20.3-154.5c0,0,11.3-9.9,17.8-14.5l18.5,3.8l11.2,134.7l-22.5,99.7l-5.3,60.1L390.3,515.4z"/>
	<path class="st1" d="M468.7,843.6c0,0-22.4,24.8-27,29.1c0,0-11.3,7.3-30.3,31.5c0,0-4.6,4.3-8.6,12.7c0,0-7.4,8.7,1.6,15.1
		c0,0,15,15.3,43.5-1.9c0,0,59.5-38.1,62.9-42.2l1.9,1c0,0,16.8-5.9,23.5-19.8c0,0-1-29.5-9.7-36.4h-1.3l-4-9.3l-44.5,10.8
		L468.7,843.6z"/>
	<path class="st1" d="M582.6,875.5c0,0,1.9,16,0,22.8l0.8,2.1c0,0,0.7,13.1-17.8,39.3c0,0-10.8,38-53.8,55.7c0,0-16.7,7.6-26.1-3.3
		c0,0-9.6-11.3,2.6-26.3c0,0,4-16.4,11.8-26.1c0,0,10.1-16,10.1-17c0,0,8.3-26.8,12.4-31.5c0,0,6-18.7,10.1-23.8
		C532.7,867.4,578.9,868.6,582.6,875.5z"/>
	<path class="st1" d="M393.5,460.6c0,0-2.7,83,24,164.4c0,0,11.8,27.4,27,58.6c0,0-1.1,7.6,4.2,12.9c0,0-4.9,4.6,0,11.8
		c0,0,1.5,7.6,4.6,11.8c0,0,9.1,41.1,9.1,48.3c0,0-4.9,25.1,2.3,43.4l1.9,34.3c0,0,42.6,13.3,63.9-24.4v46.4c0,0,23.2,35,68.5,8
		c0,0,18.3-132.8,0-181.9c0,0,9.3-60,1.8-191.2L393.5,460.6z"/>
	<path class="st1" d="M627.9,228.1c0,0,17.1,17.1,27,57.5c0,0,8.8,60.9-29.3,117.2L607,493c0,0-0.8,7.6-11.4,14.1
		c0,0-126.7,69.7-197.9-28.2c0,0-9.1-11.4-9.9-33.9c0,0-1.1-54.4-8.4-97.8c0,0-11.8-95.9-14.5-107.3c0,0-2.7-28.2,6.5-43.8
		c0,0,7.2-18.6,17.1-25.9c0,0,72-26.3,154.5-6.9C543,163.4,575,174,627.9,228.1z"/>
	<path class="st1" d="M468.8,197.6c0,0-17.5,0-28.2,9.5l2.7-28.5h20.2v8L468.8,197.6z"/>
	<path class="st1" d="M566.6,624.7l-3.8,11c0,0-20.2,12.2-19.8,27c0,0-1.5,19.8-3,20.9c0,0-5.2,3.6-4.5,9.2c0,0,0.4,6.6,6.4,2.7
		c0,0,7.3-4.3,8-8.4c0,0,0.9,6.8-0.7,9.6c0,0-3.6,0.4-3,5.1c0,0-2.7,12,2.3,13.1c0,0,11.8,3.9,14.8,0c0,0,7.4,7,13.4-0.3
		c0,0,10,4.1,14.6-9.3l2-6.4c0,0,7.1,1,9.6-6.6c0,0,4.9-21.6,1.3-41.4c0,0-1.9-8.8,4.9-21.1L566.6,624.7z"/>
	<path class="st1" d="M658.7,325.1c0,0,7.2-81.1-56.3-76.5c0,0-53.7,8-49.9,65.8c0,0,16.4,106.2,32,138.5c0,0-0.8,15.6,4.9,17.9
		c0,0-11.8,29.7-11,73.8c0,0,0,24-3.4,41.1L564,627c0,0,17.9,22.5,45.3,5.7l11.8-33.9c0,0,4.6-3.8,13.3-28.9
		c0,0,29.3-89.8,26.6-107.3c0,0,10.3-12.9,5.3-40c0,0-1.9-13.3-8.4-28.9C658,393.6,659.5,360.9,658.7,325.1z"/>
	<path class="st1" d="M423.9,72.8C425.2,33.7,457.1,2,498.1,2c1.4,0,2.8,0,4.2,0.1c0,0,48.7,2.9,52.5,61.5c0,0,3.8,27.4-7.6,43.8
		c0,0,0.1,17.8-6.5,35l2.3,12.2l-55.2,44.5l-12-4.2c0,0-8.6,5.3-10.1,0l-8.1-11.8c0,0-22.8,0-27.3-16c0,0-1.1-8-4.9-12.6
		c0,0-2.7-6.5-1.5-15.2c0,0-6.5-7.2-1.9-26.6c0,0,3.4-8,3.4-15.2c0,0-10.5-6.1-5.1-17.5C420.4,80,423.8,77,423.9,72.8z"/>
	<path class="st1" d="M468.8,197.6l35,33.5c0,0,45.2-43.7,46.2-64.7l-8.9-21.4C541.1,145.1,543.4,170.2,468.8,197.6z"/>
	<path class="st1" d="M527.8,109.3c0,0,17.3-26.8,22.2,0c0,0,0.9,9.8-4.2,13.3c0,0-6.4,25.3-19.6,16.4"/>
	<path class="st2" d="M534.7,112c0,0,12-1.1,3.5,7.3c0,0-7.3,6-9.6,12.9"/>
	<path class="st2" d="M530.5,821.8c0,0-8-48.3-4.9-57.9c0,0-3.8-13.7-2.3-20.9c0,0-21.3-58.2-24.7-78c0,0-13.8-25.1-16.4-33.9
		c0,0-9.1-5.7-24.3-26.3"/>
	<path class="st2" d="M393.4,591.9c0,0,0.2,7.3-5.9,8.6c0,0-5.1,0.1-4.9-7c0,0-1.9-17.8-5.3-23.4"/>
	<path class="st2" d="M395.5,608.8c0,0-0.7-5.8-5.2-9.5"/>
	<path class="st2" d="M398.3,600.4c0,0-2.8-4.6-5.5-6"/>
	<path class="st2" d="M378.1,571.5c0,0-2.7,7.4-0.7,12.1c0,0,2.6,4.3,2,6.3l2.4,2.3"/>
	<path class="st2" d="M562.5,715.7c1.7-2.4,3.5-7,3.5-14.2"/>
	<path class="st2" d="M575.9,715.6c0,0,4.2-3.1,5.9-15.4"/>
	<path class="st2" d="M593.3,699c0,0,1.3-4,1.1-5.6"/>
	<path class="st2" d="M443.1,180.5c0,0,37.1,13,60.3-18.2"/>
	<path class="st2" d="M468.8,197.6c0,0-61.7,98.4-21.9,322.4"/>
	
		<ellipse transform="matrix(0.9711 0.2388 -0.2388 0.9711 62.8859 -106.1141)" class="st2" cx="469.4" cy="206.5" rx="1.5" ry="2.8"/>
	
		<ellipse transform="matrix(0.9771 0.2128 -0.2128 0.9771 64.7057 -90.7841)" class="st2" cx="454.1" cy="255.2" rx="1.5" ry="2.8"/>
	<ellipse transform="matrix(0.9877 0.1562 -0.1562 0.9877 52.8388 -65.9542)" class="st2" cx="446" cy="303.1" rx="1.5" ry="2.8"/>
	
		<ellipse transform="matrix(0.996 8.928343e-002 -8.928343e-002 0.996 33.2667 -38.0452)" class="st2" cx="441.9" cy="352.8" rx="1.5" ry="2.8"/>
	
		<ellipse transform="matrix(0.9985 5.424265e-002 -5.424265e-002 0.9985 22.4244 -23.2851)" class="st2" cx="440.2" cy="401.5" rx="1.5" ry="2.8"/>
	
		<ellipse transform="matrix(0.9995 3.092498e-002 -3.092498e-002 0.9995 14.1351 -13.5205)" class="st2" cx="444.2" cy="450.2" rx="1.5" ry="2.8"/>
	
		<ellipse transform="matrix(0.9991 -4.234609e-002 4.234609e-002 0.9991 -20.7251 19.5075)" class="st2" cx="450.1" cy="499" rx="1.5" ry="2.8"/>
	<path class="st2" d="M621.1,598.8c0,0-20.9,10.6-45.8-14.2"/>
	<path class="st2" d="M351.4,472.4c-1.8-0.7,22.3,9.2,42,5.9"/>
	<line class="st2" x1="602.4" y1="248.6" x2="538.2" y2="191.8"/>
	<line class="st2" x1="430.8" y1="168.4" x2="388.5" y2="170.2"/>
</g>
<g>
	<path class="st1" d="M914.6,918.5c0,0,11.3,11.8,4.4,24.4c0,0-8.7,11.8-20.5,13.3c0,0-29.1,38.7-80.4,36.6c0,0-48.4-5-16.9-30.5
		l38.7-26.2c0,0,30.5-28.3,38.7-27.3C878.7,908.8,903.8,898.4,914.6,918.5z"/>
	<path class="st1" d="M848.6,888c0,0-22.2,14.7-29.8,18.1c0,0-28,13.8-32.6,19.9c0,0-25.7,19.4-2.6,28.3c0,0,19.1,7.5,38.5,0
		l62.1-37.3l5.7-24.8l-11.5-8.6L848.6,888z"/>
	<path class="st1" d="M764.8,564.3c0,0-14,30.4-14.3,43.9c0,0-2.2,5,1.3,7.4c0,0,2.4,19.6,12.2,24.8c0,0,15.9,11.8,18.7,8.2
		c0,0,2-3-2.8-5.9c0,0-4.3-3.1-5.2-4.8c0,0,15.3,4.7,14.5-1.9c0,0,0.9-2.8-2.3-4.4c0,0,0.5-7.5-5.2-9.8c0,0,11.7-22.2,5.2-47.9
		C787,573.7,773.2,562.6,764.8,564.3z"/>
	<path class="st1" d="M765.2,603.5c0,0,6.7,7.9,5.7,18c0,0-2.6,14.4,3,15.9c0,0,7.7,4.4,7.7-6.5c0,0,2.1-14.8,3.1-26.5"/>
	<path class="st1" d="M799.8,325.1c0,0-26.5,107.1-20.4,147.4c0,0-12.9,33-11.3,56.6l-8.1,36c0,0,9.7,16.9,26.9,8.6l34.8-74.3
		l-3-135.1L799.8,325.1z"/>
	<path class="st1" d="M785.2,541.4c0,0-8.4,83.3,12.1,139.2c0,0,19.7,59.2,33,118c0,0,10.4,47,11.5,91.8c0,0,5,18.3,23.3,10.4
		l-2.5,15.8c0,0-3.6,20.8,33.4,17.6c0,0,24-0.7,26.9-7.2c0,0,16.5-111.2,2.5-133.1c0,0-2.5-10.4-1.1-16.9c0,0,2.9-10-6.8-28.3
		c0,0,10.8-21.9,9.3-46.3c0,0,38.4-83.9,19-130.2L785.2,541.4z"/>
	<path class="st1" d="M901.7,273.2L921,293c59.2,56.9,57.9,95.2,54.5,112.5c-4.3,65.3-28,174.7-28,174.7
		c-40.9,16.1-83.9,10.4-83.9,10.4c-38-0.7-69.2-35.2-78.9-41.6s0-84.7,0-84.7c-0.7-56,10-139.9,10-139.9c0.3-22.2,7.8-36.1,16-44.8
		c6.1,1.6,18.5,11.8,21,26.8C831.8,306.5,882.1,312.6,901.7,273.2z"/>
	<path class="st1" d="M900.7,273c0,0-9.3-28.3-0.6-47.1c0,0,21.5-15.8,13.8-72.6c0,0-3.3-29.1-28-32.7c0,0,7-1.5,13.1,0
		c0,0-22.8-21.5-63.1,1.5c0,0-31-11.8-37.7,11.2c0,0-22.6,21.6-10.2,38.1c0,0-4.1,23.9-5.6,25.9c0,0-2.6,1.3,5.6,13.7l-11.3,24.2
		c0,0-4.1,7.6,3.1,8.7h7.2c0,0-5.1,6.6-0.5,12.8c0,0-0.6,8.7,7.4,8.2c0,0-6.4,18.4,15.6,15.3c0,0,5.6-5.2,24,22.2l3.7,6.1l53-26.3
		L900.7,273z"/>
	<path class="st2" d="M873.3,206.1c0,0,9.5-7.4,18.5-2.1c0,0,14.7,8.1,0,25.3c0,0-11.1,19.9-23.1,10.2"/>
	<path class="st2" d="M878.1,213.6c0,0-6.8,4.6-4.4,8.5c0,0,9.5,3,4.4,9.1c0,0-2.5,5.1-7.6,0c0,0-3.6-1.5-2,4.1"/>
	<path class="st2" d="M800.9,563c0,0-2.2-191.2,32.6-254.3"/>
	<path class="st2" d="M814.8,628.2c0,0,5.3,42.9,17,65.5c0,0,49,49,33.2,207.2"/>
	<path class="st1" d="M896.1,700.3c0,0,0.4,11.3-3.1,16.5c0,0,2.4,11.4-6.2,23.1c0,0-1.9,5.2-4,8.6c0,0,2.4,6.9-3,8.1
		c0,0-7.8,3.4-8.9-2.6c0,0-0.1,6.6-4.5,7.7c-0.2,0.1-0.4,0.1-0.6,0.1c-5.1,0.6-7.4-1.9-7.7-5c0,0-15.2,6.6-14.1-8.3
		c0,0-12.2,4.7-10.6-12.2c0,0,2.3-27.6,26-46.1C859.4,690.3,894.3,688,896.1,700.3z"/>
	<path class="st2" d="M871.5,747c0,0-0.8,3.2-0.5,7.1"/>
	<path class="st2" d="M858.6,747c0,0-1.3,8.7,0,12"/>
	<path class="st2" d="M844,750.6c0,0,0.2-5.7,1.7-8.6"/>
	<path class="st1" d="M873.7,434.6c0,0-4.3-63.5,50.9-82.2c0,0,47.4-13.1,53.8,30.4c0,0,5,65.2-16.5,143.7c0,0,5,29-2.2,60.5
		c0,0-9.3,43.8-39.5,86.8l-17.9,28.7c0,0-26.5,24.1-45.2-10.9l15.8-37.2c0,0,14.4-54.5,25.1-81.1c0,0-2.2-16.5,2.9-24.4
		c0,0-16.4-51.6-16.4-88.2C884.5,460.8,876.5,452.9,873.7,434.6z"/>
	<path class="st2" d="M873,654.5c0,0,25.5,24.4,47.4,19.4"/>
	<path class="st2" d="M769.7,625.4c0,0-3.8-13.7-2.3-18.7"/>
	<path class="st1" d="M897.4,258C897.3,257.7,897.4,257.7,897.4,258c-0.3,4.6-5.7,6.3-19.8,18.7c0,0-34.1,28-44.1,31.9l28,30.5
		c0,0,9.3-14,20.8-24.8c0,0,22.9-19,28.3-32L897.4,258z"/>
	<polygon class="st1" points="835.8,305.9 818.8,314.4 821.8,287.8 	"/>
	<ellipse transform="matrix(0.977 0.213 -0.213 0.977 87.5034 -169.9649)" class="st2" cx="832.5" cy="321.1" rx="1.4" ry="2.7"/>
	<ellipse transform="matrix(0.977 0.213 -0.213 0.977 95.0759 -166.0783)" class="st2" cx="818.2" cy="358.1" rx="1.4" ry="2.7"/>
	
		<ellipse transform="matrix(0.9951 9.898242e-002 -9.898242e-002 0.9951 43.1101 -78.4647)" class="st2" cx="812.3" cy="395.2" rx="1.4" ry="2.7"/>
	
		<ellipse transform="matrix(0.9951 9.894785e-002 -9.894785e-002 0.9951 46.7378 -77.7506)" class="st2" cx="807.2" cy="432.3" rx="1.4" ry="2.7"/>
	
		<ellipse transform="matrix(0.9951 9.894785e-002 -9.894785e-002 0.9951 50.4001 -77.4291)" class="st2" cx="805.8" cy="469.4" rx="1.4" ry="2.7"/>
	
		<ellipse transform="matrix(0.9979 -6.491204e-002 6.491204e-002 0.9979 -31.1801 53.283)" class="st2" cx="804.4" cy="506.5" rx="1.4" ry="2.7"/>
	
		<ellipse transform="matrix(0.9996 2.877011e-002 -2.877011e-002 0.9996 15.9714 -22.9271)" class="st2" cx="804.7" cy="543.6" rx="1.4" ry="2.7"/>
	<line class="st2" x1="901.4" y1="295.8" x2="932.9" y2="350"/>
</g>
<g>
	<path class="st1" d="M36.9,571.5c0,0-18.4,28.8-14.3,33.2c0,0-2.4,16.3,3.4,22.2c0,0,17.7,24.2,13.3,9.3l-0.8-6.2
		c0,0,8.3,11.7,12.4,8.1c0,0,2.4-2.8,0-8.1c0,0,10.2,5.3,5.5-6l-5.8-17.7c0,0,8.9,16,11.6,14c0,0,3.4-4.2-3.1-15.6l-4.6-8.3
		c0,0,7.4-7.8,4.3-20.8C55.7,562.7,36.9,571.5,36.9,571.5z"/>
	<path class="st1" d="M30.6,601.2c0,0,2.9,5.7,1.9,16.5c0,0-5.4,15.7-0.8,16.5c0,0,6.6,3.5,10.9-14.2c0,0,2.2-9.2,4.3-11.2
		c0,0,5.2-2.7,8.9-14"/>
	<path class="st1" d="M74.1,560.3l-9.9,21.2c0,0-20.1,11.5-30.3-7.2l9.9-24.2c0,0,0.7-1.9,1.9-5.1c5.2-13.5,19.5-49.4,25-52.2
		l3.4-19.8l41.6,45.3L74.1,560.3z"/>
	<path class="st2" d="M45.7,545c0,0,12.4,17.9,40,10.2"/>
	<path class="st1" d="M139,913.4c0,0-9.6,4.8-21.2,22.8c0,0-44.3,44.3-30,55.2c0,0,11.6,8.2,26.6,1.4c0,0,40.2-14.7,39.5-33.1
		c0,0,23.5-19.1,24.2-33.7l-1.7-24.9h-17L139,913.4z"/>
	<path class="st1" d="M91.3,840.8c0,0-75.3,15-65.8,35.4c0,0,2,8.5,18.4,9.5c0,0,34.8,6.5,52.8-9.9c0,0,32.7-0.3,42.3-10.2
		l-3.8-32.7l-32.4,3.1L91.3,840.8z"/>
	<path class="st1" d="M65.1,574.9c0,0-5.8,16.6-3.1,91.3c0,0,7.2,124.4,18.1,179.3c0,0,16.4,21.3,46.7,7.6v-7.6l13.3,43.6
		c0,0-7.5,12.3-7.5,23.2l-1.7,5.1c0,0,23.2,33.4,49.8-4.1c0,0,16.7-66.1,0-138.4c0,0,6.8-38.9-3.7-56.1l32.4-109.6l-3.4-13.6
		l-43.6-8.9l-53.5-7.8L65.1,574.9z"/>
	<path class="st2" d="M128.1,849.9c0,0-41.2-142-45.6-189"/>
	<path class="st1" d="M96.8,402.6v-31.1c0,0-33.4,5.5-30.7-18.4c0,0,0.3-3.5,1.5-5.2c0,0-6-5.4-2.3-8.4c0,0-4.9-5.2-2.4-7.8
		l-1.9-2.6c0,0-7.3,1.5-8.9-3.6c0,0-0.1-5.6,7.7-13.7c0,0,6.9-7.2,7.3-9.7c0,0-1.7-3.6,0.9-5.5c0,0-2.4-7.5-4.7-8.3
		c0,0-2.4-2.2-0.3-8.6c0,0,0.4-10.4,6.3-19.2c0,0-17.4-26.5,1.8-38.9c0,0-3.6,5.4-2.2,7c0,0,10.2-9.3,17.4-10c0,0,4.9-10.2,40.6-4.2
		c0,0,27.9-4,44.5,15.3c0,0-4.9-1.9-6.6-1.3c0,0,13.5,10.7,14.4,19c0,0,15,23.8,6,42.9c0,0-3.3,17.5-15.8,38.2c0,0,4.3,8.3,1.9,17.8
		l-28.5,49.2l-40.9,8.7L96.8,402.6z"/>
	<path class="st2" d="M145.7,316.8c0,0,24.5-14.8,23.9,9.3c0,0-2.3,12.3-11.1,14.6c0,0-7.2,15.2-16.9,10.2c0,0-8.8-4.1-4.6-11.1"/>
	<path class="st2" d="M159.2,319.9c0,0-7.9-1.3-8.3,4.1c0,0,12.1,10.5-7.2,12.8"/>
	<path class="st1" d="M171.7,353.1c-4.6-1.7,29.9,21.2,56.7,94.3c0,0,20.4,34.8-3.8,83.2c0,0-31.1,54.9-30.1,86.3
		c0,0-86.2,33.1-132.6-31.4c0,0-13.3-53.2-7.8-102.6c0,0-12.8-51.2,6.5-95.7c0,0,8.2-22,8.9-21.4C74.7,370.2,87,372,87,372
		l-0.8,32.6l3.6-4.4l8.4-10.4l42.5-5L171.7,353.1z"/>
	<path class="st2" d="M86.2,404.5c0,0-28.9,84-17.4,189.5"/>
	<path class="st2" d="M137.4,721.3c0,0-16.4,8.9-17.4,15.3c0,0-4.6,6-11.9,9.6c0,0-6.1,3.5,0,5.7c0,0,7.6,2.3,11-0.4
		c0,0-3.2,9.2-5.2,13.3c0,0-2,16.7,9.5,9.9c0,0,8.9,9.4,15.3,1.6c0,0,8.2,6.5,11.2-1.6c0,0,9.5,7.2,10.9-4.4c0,0,14.3-21.8,6.1-36.8
		L137.4,721.3z"/>
	<line class="st2" x1="123.4" y1="774.8" x2="126.5" y2="766"/>
	<line class="st2" x1="137.4" y1="777.8" x2="140" y2="770.4"/>
	<path class="st1" d="M236.6,477.5c0,0-5.8-48.3-53.2-38.1c0,0-39.9,14.4-25.9,66.5c0,0,11.2,53.1,11.2,60.3c0,0,1.6,9.5,10.3,22.2
		c0,0-4.9,19.4-22.9,92c0,0-2.4,7.8-4.4,9.9l-16,30.7c0,0-4.8,12.6,13.3,21.1c0,0,15.3,4.2,22.8-2.2l10.9-20.7
		c0,0,13.3-9.9,11.6-19.8c0,0,20.1-34.6,22.5-49c0,0,19.8-25.6,8.9-63.5c0,0,7.5-13,2-34.1C227.7,552.9,238.3,507.7,236.6,477.5z"/>
	<path class="st2" d="M152.9,688.6c0,0,2.9,30.9,33.1,27.9"/>
	<path class="st1" d="M171.4,338.4c0,0-12.3,16-47.4,38.5c0,0-20.1,12-23.5,12.8c0,0,18.7,22,31.7,26.9c0,0,46.9-45.7,47.8-55.4
		C180,361.2,177.2,342.8,171.4,338.4z"/>
	<path class="st2" d="M86.2,374.4c0,0-13.6,11.8-10.1,15.4c0,0-6.1-4.1,3.6-18.7C79.7,371.1,85.5,370.8,86.2,374.4z"/>
	<ellipse transform="matrix(0.977 0.2133 -0.2133 0.977 91.4952 -9.428)" class="st2" cx="89.4" cy="419.4" rx="1.5" ry="2.8"/>
	<ellipse transform="matrix(0.9771 0.213 -0.213 0.9771 97.9195 -6.7354)" class="st2" cx="80.2" cy="451.1" rx="1.5" ry="2.8"/>
	<ellipse transform="matrix(0.977 0.2133 -0.2133 0.977 104.7279 -5.1322)" class="st2" cx="76.1" cy="482.7" rx="1.5" ry="2.8"/>
	
		<ellipse transform="matrix(-0.9923 -0.1238 0.1238 -0.9923 84.196 1034.0032)" class="st2" cx="74.2" cy="514.4" rx="1.6" ry="2.8"/>
	
		<ellipse transform="matrix(-0.9907 -0.1358 0.1358 -0.9907 70.3936 1096.8961)" class="st2" cx="72.6" cy="546" rx="1.6" ry="2.8"/>
	
		<ellipse transform="matrix(-0.9978 -6.645657e-002 6.645657e-002 -0.9978 109.913 1159.0771)" class="st2" cx="74.2" cy="577.7" rx="1.6" ry="2.8"/>
	<line class="st2" x1="189.4" y1="438.4" x2="166.8" y2="380.4"/>
</g>
<g>
	<path class="st0" d="M278.3,572.1c1.2-17.9,1.5-35.6,0.9-53l32.1-4.5l-59.5-76.1L215.6,528l31.4-4.4c0.5,15.2,0.1,30.6-0.9,46.2
		c-2.6,36.9-9.2,72.3-19.5,103.3l-27.7-14.7l3.4,96.5l81.9-51.2l-28.7-15.2C267.5,653.6,275.4,613.7,278.3,572.1"/>
	<path class="st0" d="M518.9,214.2c-16,33.4-24.9,77.4-24.9,124c0,1.7,0,3.5,0.1,5.2l-26.3-6.6l35.7,85.4l48.9-64l-25.7-6.5
		c-0.2-4.4-0.3-8.9-0.3-13.4c0-41.8,7.7-80.9,21.7-110c12-25,27.2-39.3,41.6-39.3c3.1,0,6.2,0.6,9.2,1.9l-34.1-28.4
		C547,170.9,531.2,188.6,518.9,214.2"/>
	<polygon class="st0" points="780.8,502 785.3,433.2 795.8,473.7 	"/>
	<path class="st0" d="M890.1,510.2c-2.3-12-3.9-26-4.7-33.2c-7.7-1.1-15.5-2.7-23.2-4.6c-6-1.5-6.1-0.9-8.7-1.5l1.5-22.5l-48.3,29.8
		l42.9,48.6l1.5-22.5C864.1,506.7,880.4,509.1,890.1,510.2"/>
</g>
</svg>
