<?xml version="1.0" encoding="utf-8"?>
<!-- Generator: Adobe Illustrator 19.1.0, SVG Export Plug-In . SVG Version: 6.00 Build 0)  -->
<svg version="1.1" id="Layer_1" xmlns="http://www.w3.org/2000/svg" xmlns:xlink="http://www.w3.org/1999/xlink" x="0px" y="0px"
	 viewBox="0 0 100 100" style="enable-background:new 0 0 100 100;" xml:space="preserve">
<style type="text/css">
	.st0{fill:#FFFFFF;}
	.st1{fill:#FFFFFF;stroke:#010101;stroke-width:0.25;stroke-miterlimit:10;}
	.st2{fill:none;stroke:#010101;stroke-width:0.25;stroke-miterlimit:10;}
</style>
<path class="st0" d="M82.9,69.4L84,0H15.7l-0.8,69.8c-0.6,0.3-1.1,0.8-1.1,1.6v0.1v17.1c0,4.2,20.9,7.5,35,7.5
	c14.2,0,34.6-2.8,35.1-8.3v-5.2V70.7C83.9,70.1,83.5,69.7,82.9,69.4z"/>
<g id="_x30_1-trouserbott-cuffed_1_">
	<g>
		<path class="st1" d="M83.9,70.7"/>
		<path class="st1" d="M71.9,80.9"/>
		<path class="st1" d="M15.9-13"/>
		<path class="st1" d="M83.9,70.7c-0.2,4-19,6.6-35.6,6.6c-17.5,0-34.5-2.8-34.5-5.8"/>
		<line class="st2" x1="47.2" y1="96.1" x2="47.2" y2="77.5"/>
		<line class="st2" x1="49.8" y1="0" x2="48.3" y2="77.2"/>
		<path class="st1" d="M19.8-13.6"/>
	</g>
</g>
<path class="st2" d="M15.7,0l-0.8,69.8c-0.6,0.3-1.1,0.8-1.1,1.6v0.1v17.1c0,4.2,20.9,7.5,35,7.5c14.2,0,34.6-2.8,35.1-8.3v-5.2
	V70.7c0-0.6-0.4-1-1-1.3L84,0"/>
<line class="st1" x1="14.9" y1="72.8" x2="14.9" y2="69.8"/>
<path class="st1" d="M14.9,72.8"/>
<path class="st1" d="M82.8,72.3"/>
<line class="st1" x1="82.9" y1="69.4" x2="82.8" y2="72.3"/>
</svg>
