<?xml version="1.0" encoding="utf-8"?>
<!-- Generator: Adobe Illustrator 19.1.0, SVG Export Plug-In . SVG Version: 6.00 Build 0)  -->
<svg version="1.1" id="Layer_1" xmlns="http://www.w3.org/2000/svg" xmlns:xlink="http://www.w3.org/1999/xlink" x="0px" y="0px"
	 viewBox="0 0 100 100" style="enable-background:new 0 0 100 100;" xml:space="preserve">
<style type="text/css">
	.st0{fill:#FFFFFF;stroke:#010101;stroke-width:0.25;stroke-miterlimit:10;}
	.st1{fill:none;stroke:#010101;stroke-width:0.25;stroke-miterlimit:10;}
</style>
<path class="st0" d="M83.6,0l-1.1,88.9c-0.4,0.9-0.9,2.1-1.4,3c-0.8-0.4-1.6-0.8-2.5-1.2c-0.4,0.8-0.8,1.6-1.3,2.4
	c-0.8-0.4-1.6-0.8-2.4-1.3c-0.5,0.8-0.9,1.6-1.4,2.3c-0.8-0.4-1.6-0.9-2.3-1.3c-0.5,0.8-1,1.5-1.5,2.3c-0.8-0.5-1.6-0.9-2.3-1.4
	c-0.5,0.7-1.1,1.5-1.6,2.2c-0.8-0.5-1.5-1-2.2-1.5c-0.5,0.7-1.1,1.4-1.6,2.1c-0.7-0.5-1.5-1.1-2.2-1.6c-0.6,0.7-1.2,1.4-1.8,2.1
	c-0.7-0.5-1.4-1.1-2.1-1.7c-0.6,0.7-1.2,1.3-1.8,2c-0.7-0.6-1.4-1.2-2-1.8c-0.6,0.7-1.2,1.3-1.9,1.9c-0.7-0.6-1.3-1.2-2-1.9
	c-0.6,0.6-1.3,1.2-2,1.9c-0.6-0.6-1.3-1.3-1.9-1.9c-0.7,0.6-1.3,1.2-2,1.8c-0.6-0.7-1.2-1.3-1.8-2c-0.7,0.6-1.4,1.1-2.1,1.7
	c-0.6-0.7-1.2-1.4-1.7-2.1c-0.7,0.6-1.3,1.1-1.9,1.7c-0.6-0.7-1.1-1.4-1.7-2.2c-0.7,0.5-1.5,1-2.2,1.5c-0.5-0.7-1.1-1.5-1.6-2.2
	c-0.7,0.5-1.5,1-2.2,1.5c-0.5-0.8-1-1.5-1.5-2.3c-0.8,0.5-1.6,0.9-2.4,1.4c-0.5-0.8-1-1.5-1.4-2.3c-0.8,0.4-1.6,0.9-2.4,1.3
	c-0.5-0.8-0.9-1.6-1.3-2.4c-0.8,0.4-1.6,0.8-2.5,1.2c-0.5-0.9-0.7-2.3-1.1-3.1l0,0l1-89"/>
<line class="st1" x1="49.8" y1="0" x2="49.4" y2="96.1"/>
</svg>
