<?xml version="1.0" encoding="utf-8"?>
<!-- Generator: Adobe Illustrator 19.1.0, SVG Export Plug-In . SVG Version: 6.00 Build 0)  -->
<svg version="1.1" id="Layer_1" xmlns="http://www.w3.org/2000/svg" xmlns:xlink="http://www.w3.org/1999/xlink" x="0px" y="0px"
	 viewBox="0 0 100 100" style="enable-background:new 0 0 100 100;" xml:space="preserve">
<style type="text/css">
	.st0{fill:#FFFFFF;}
	.st1{fill:#FFFFFF;stroke:#010101;stroke-width:0.25;stroke-miterlimit:10;}
	.st2{fill:none;stroke:#010101;stroke-width:0.25;stroke-miterlimit:2.613;}
	.st3{fill:none;stroke:#010101;stroke-width:0.25;stroke-linejoin:bevel;stroke-miterlimit:10;}
	.st4{fill:none;stroke:#010101;stroke-width:0.25;stroke-linecap:round;stroke-miterlimit:10;}
	.st5{fill:#FFFFFF;stroke:#010101;stroke-width:0.25;stroke-linejoin:round;stroke-miterlimit:10;}
	.st6{fill:none;stroke:#010101;stroke-width:0.25;stroke-miterlimit:10;}
</style>
<path class="st0" d="M66.6,71.5l0,0.2c0.1-6.3,0.2-13.4,0.2-21.2c0-13.9,1-24.2,0.5-32.6c0,0-0.6-7.3-1-10.9l-0.1-3.7
	C65.1,2.8,59.2,2,50.7,2c-0.1,0.1-0.6,0.8-0.6,0.8S49.6,2.2,49.4,2c-8.6,0.1-15,1-15.5,1.3v0.1l-0.2,3.7c-0.2,3.3-1,10.8-1,10.8
	c-0.5,8.4,0.5,18.8,0.5,32.6c0,8.1,0.1,15.5,0.1,21.9v2.4l-0.2,19.8l-0.1,0v2.8c0,0.9,4.5,1.6,7.5,1.6c3-0.1,7.4-0.7,7.5-1.8v-2.8
	l-0.3,0l0.2-20.1l0-1.5l0,0c0.1-5.3,0.3-10.8,0.5-16.1c0,0,0.3-14,1.6-23c1.3,8.9,1.6,23,1.6,23c0.2,4.9,0.3,10,0.4,15.1v2.9
	l-0.1,19.9l-0.2,0v2.8c0,0.9,4.5,1.6,7.5,1.6c3-0.1,7.4-0.7,7.5-1.8v-2.8l-0.2,0l0.1-20V71.5z"/>
<g id="_x30_1-trouserfit-classic_1_">
	<g>
		<path class="st1" d="M66.3,7.3"/>
		<path class="st2" d="M50,33.5"/>
		<path class="st2" d="M52.9,8.2v15.6c0,1.5-1.3,2.7-2.8,2.7"/>
		<line class="st2" x1="50" y1="26.5" x2="50" y2="33.6"/>
		<path class="st3" d="M40.1,7.8C38,7.6,35.8,7.4,33.7,7"/>
		<path class="st3" d="M59.6,7.8c-5.5,0.5-12,0.7-18.6,0.1"/>
		<path class="st3" d="M66.3,7c-1.7,0.3-3.7,0.5-5.9,0.7"/>
		<path class="st2" d="M60.2,4.2h-0.6c-0.1,0-0.1,0.1-0.1,0.1l0.2,3.5c0,0.1,0.1,0.1,0.1,0.1h0.6c0.1,0,0.1-0.1,0.1-0.1L60.2,4.2
			C60.3,4.2,60.2,4.2,60.2,4.2"/>
		<path class="st2" d="M40.9,4.3h-0.6c-0.1,0-0.1,0.1-0.1,0.1v3.5c0,0.1,0,0.1,0.1,0.1h0.6L41,7.9L40.9,4.3
			C41,4.3,40.9,4.3,40.9,4.3"/>
		<path class="st3" d="M46,8.2l-1.1-1.8L46,4.6"/>
		<path class="st3" d="M50,26.5c0,0,0-11.8,0-13.7c0-1.2,0-3.5,0-4.6"/>
		<path class="st4" d="M66.2,3.3C64.7,3.6,58.9,4.6,50,4.6s-15.6-1-16.1-1.3"/>
		<path class="st5" d="M47.5,97.3"/>
		<path class="st5" d="M33.3,97.5"/>
		<path class="st5" d="M66.2,97.3"/>
		<path class="st5" d="M52.1,97.5"/>
		<g>
			<path class="st1" d="M32.9,94.5"/>
			<path class="st1" d="M48,94.4c0,0.9-4.1,1.4-7.6,1.4c-3.8,0-7.4-0.6-7.4-1.2"/>
			<line class="st6" x1="39.9" y1="98.9" x2="39.9" y2="95.7"/>
			<path class="st1" d="M34.2,75.4"/>
		</g>
		<g>
			<path class="st1" d="M66.7,94.4"/>
			<path class="st1" d="M52,74.7"/>
			<path class="st1" d="M51.9,96.3"/>
			<path class="st1" d="M66.5,96.4"/>
			<path class="st1" d="M66.7,94.4c0,0.9-4.1,1.4-7.6,1.4c-3.8,0-7.4-0.6-7.4-1.2"/>
			<line class="st6" x1="59.7" y1="98.9" x2="59.7" y2="95.7"/>
			<path class="st1" d="M53,75.4"/>
		</g>
		<path class="st2" d="M40.2,95.8l0.9-67.3"/>
		<path class="st2" d="M58.9,28.5l0.6,67.2"/>
		<line class="st6" x1="32.7" y1="17.9" x2="36.3" y2="7.5"/>
		<line class="st6" x1="67.3" y1="17.9" x2="63.7" y2="7.4"/>
	</g>
</g>
<path class="st6" d="M66.6,71.5l0,0.2c0.1-6.3,0.2-13.4,0.2-21.2c0-13.9,1-24.2,0.5-32.6c0,0-0.6-7.3-1-10.9l-0.1-3.7
	C65.1,2.8,59.2,2,50.7,2c-0.1,0.1-0.6,0.8-0.6,0.8S49.6,2.2,49.4,2c-8.6,0.1-15,1-15.5,1.3v0.1l-0.2,3.7c-0.2,3.3-1,10.8-1,10.8
	c-0.5,8.4,0.5,18.8,0.5,32.6c0,8.1,0.1,15.5,0.1,21.9v2.4l-0.2,19.8l-0.1,0v2.8c0,0.9,4.5,1.6,7.5,1.6c3-0.1,7.4-0.7,7.5-1.8v-2.8
	l-0.3,0l0.2-20.1l0-1.5l0,0c0.1-5.3,0.3-10.8,0.5-16.1c0,0,0.3-14,1.6-23c1.3,8.9,1.6,23,1.6,23c0.2,4.9,0.3,10,0.4,15.1v2.9
	l-0.1,19.9l-0.2,0v2.8c0,0.9,4.5,1.6,7.5,1.6c3-0.1,7.4-0.7,7.5-1.8v-2.8l-0.2,0l0.1-20V71.5z"/>
</svg>
