<?xml version="1.0" encoding="utf-8"?>
<!-- Generator: Adobe Illustrator 19.1.0, SVG Export Plug-In . SVG Version: 6.00 Build 0)  -->
<svg version="1.1" id="Layer_1" xmlns="http://www.w3.org/2000/svg" xmlns:xlink="http://www.w3.org/1999/xlink" x="0px" y="0px"
	 viewBox="0 0 100 100" style="enable-background:new 0 0 100 100;" xml:space="preserve">
<style type="text/css">
	.st0{fill:#B4975A;}
	.st1{fill:#FFFFFF;}
	.st2{fill:#FFFFFF;stroke:#010101;stroke-width:0.25;stroke-miterlimit:10;}
	.st3{fill:none;stroke:#010101;stroke-width:0.25;stroke-miterlimit:2.613;}
	.st4{fill:none;stroke:#010101;stroke-width:0.25;stroke-linejoin:bevel;stroke-miterlimit:10;}
	.st5{fill:none;stroke:#010101;stroke-width:0.25;stroke-linecap:square;stroke-miterlimit:10;}
	.st6{fill:none;stroke:#B4975A;stroke-width:0.25;stroke-miterlimit:10;}
	.st7{fill:none;stroke:#010101;stroke-width:0.25;stroke-miterlimit:10;}
	.st8{fill:none;stroke:#010101;stroke-width:0.25;stroke-linejoin:round;stroke-miterlimit:10;}
</style>
<path class="st0" d="M65.6,97.6c0-8.4-0.3-13.8-0.3-34.1c0-13.3,1.5-36.9,1.1-45l0.1-0.7c0.5,8.4,0.1,18.6,0.2,32.4
	c0.2,12.2,0.1,37.4,0.1,46.2"/>
<path class="st0" d="M34.5,97.2c0-9.3-0.7-19.1-1.1-40.1c-0.2-13.7-0.5-30.1-0.1-38.4l0,0c-0.4,8,1.5,30.5,1.8,44.6
	C35.5,83.6,35.5,89,35.5,98"/>
<path class="st0" d="M34.6,3.2C35.1,2.8,41.1,2,50,2s14.1,0.6,15.2,1.1l0.3,2.6c-1-0.4-6.7-1.3-14.8-1.3c-0.2,0-0.5,0.7-0.7,0.7
	s-0.4-0.7-0.6-0.7c-8.2,0-14.4,0.9-15,1.3L34.6,3.2z"/>
<path class="st1" d="M65.2,77.1c0-3.6,0-8,0-13.6c0-13.3,1.5-36.9,1.1-45l-0.2-0.1c-0.2-3.7-0.2-5.8-0.6-9.2l0-0.1c0,0,0,0,0,0l0,0
	l-0.1-3.5c-1.1-0.5-6.6-1.2-14.8-1.2l-0.7,0.8l-0.6-0.8c-7.4,0-13.1,0.7-14.5,1.1l-0.3,0l-0.1,3.6c0,0,0,0,0,0l-0.2,0
	c0.1,0,0.1,0,0.2,0c-0.2,3.2-0.4,5.6-0.6,9.4l-0.2,0.1c-0.5,8.1,1.5,30.5,1.8,44.6c0.1,5.7,0.2,10.1,0.3,13.7v20.8
	c0.1,0.7,3.4,1.2,5.7,1.2c2.3,0,5.7-0.5,5.7-1.4l0.4-20.3l-0.1,0.1c0.1-6.9,0.1-14.1,0.3-20.6c0,0,1-19.3,2.3-27.9
	c1.8,9.4,2.9,28.3,2.9,28.3c0.3,6.3,0.5,13.2,0.6,19.8v-0.1l0.2,21c0.1,0.7,3.4,1.1,5.6,1.2c2.4,0.1,6.2-0.7,6.2-1.6l0.1-0.1
	L65.2,77.1L65.2,77.1z"/>
<path class="st2" d="M65.5,9.4"/>
<path class="st3" d="M41.7,98.8l-0.2-72.5"/>
<path class="st3" d="M58.7,26.3L59.9,99"/>
<path class="st3" d="M49.9,34.5"/>
<path class="st3" d="M52.6,10.3v10.5c0,1.4-1.3,2.6-2.7,2.6"/>
<path class="st4" d="M40.4,9.9c-2.1-0.2-4.1-0.5-6.2-0.8"/>
<path class="st4" d="M59.1,9.9c-5.3,0.5-11.5,0.6-17.9,0.1"/>
<path class="st4" d="M65.5,9.1c-1.6,0.3-3.5,0.5-5.6,0.7"/>
<path class="st3" d="M59.6,6.4H59c-0.1,0-0.1,0.1-0.1,0.1l0.2,3.3c0,0.1,0.1,0.1,0.1,0.1h0.6c0.1,0,0.1-0.1,0.1-0.1L59.6,6.4
	C59.7,6.5,59.7,6.4,59.6,6.4"/>
<path class="st3" d="M41.2,6.5h-0.6c-0.1,0-0.1,0.1-0.1,0.1V10c0,0.1,0,0.1,0.1,0.1h0.6c0.1,0,0.1-0.1,0.1-0.1L41.2,6.5L41.2,6.5"/>
<path class="st4" d="M50,28.8c0,0-0.1-12.3-0.1-14.2c0-1.1,0-3.3-0.1-4.3l-3.8,0l-1-1.7l1-1.8c0,0,7.4,0.2,10.6-0.2"/>
<path class="st4" d="M65.4,5.6"/>
<path class="st5" d="M65.4,5.6c-1.4,0.3-7,1.2-15.5,1.2S35,5.9,34.5,5.6"/>
<path class="st6" d="M66.1,7.3"/>
<path class="st6" d="M50,33.4"/>
<line class="st7" x1="33.7" y1="18.6" x2="36.3" y2="9.4"/>
<line class="st7" x1="63.6" y1="9.4" x2="66.2" y2="18.6"/>
<path class="st8" d="M35.7,97.7"/>
<path class="st8" d="M35.7,76.9"/>
<path class="st7" d="M50,28.5c1.8,9.4,2.9,28.6,2.9,28.6c0.3,6.3,0.5,13.2,0.6,19.8v-0.1l0.2,21c0.1,0.7,3.4,1.1,5.6,1.2
	c2.4,0.1,6.2-0.7,6.2-1.6l0.1-0.1L65.3,77l-0.1,0.1c0-3.6,0-8,0-13.6c0-13.3,1.5-36.9,1.1-45l-0.2-0.1c-0.2-3.7-0.2-5.8-0.6-9.2
	l0-0.1c0,0,0,0,0,0l0,0l-0.1-3.5c-1.1-0.5-6.6-1.2-14.8-1.2l-0.7,0.8l-0.6-0.8c-7.4,0-13.1,0.7-14.5,1.1l-0.3,0l-0.1,3.6
	c0,0,0,0,0,0l-0.2,0c0.1,0,0.1,0,0.2,0c-0.2,3.2-0.4,5.6-0.6,9.4l-0.2,0.1c-0.5,8.1,1.5,30.5,1.8,44.6c0.1,5.7,0.2,10.1,0.3,13.7
	v20.8c0.1,0.7,3.4,1.2,5.7,1.2c2.3,0,5.7-0.5,5.7-1.4l0.4-20.3l-0.1,0.1c0.1-6.9,0.1-14.1,0.3-20.6c0,0,1-19.8,2.3-28.4"/>
</svg>
