<?xml version="1.0" encoding="utf-8"?>
<!-- Generator: Adobe Illustrator 19.1.0, SVG Export Plug-In . SVG Version: 6.00 Build 0)  -->
<svg version="1.1" id="Layer_1" xmlns="http://www.w3.org/2000/svg" xmlns:xlink="http://www.w3.org/1999/xlink" x="0px" y="0px"
	 viewBox="0 0 100 100" style="enable-background:new 0 0 100 100;" xml:space="preserve">
<style type="text/css">
	.st0{fill:#B4975A;}
	.st1{fill:#FFFFFF;}
	.st2{fill:#FFFFFF;stroke:#010101;stroke-width:0.25;stroke-miterlimit:10;}
	.st3{fill:none;stroke:#010101;stroke-width:0.25;stroke-miterlimit:2.613;}
	.st4{fill:none;stroke:#010101;stroke-width:0.25;stroke-linejoin:bevel;stroke-miterlimit:10;}
	.st5{fill:none;stroke:#010101;stroke-width:0.25;stroke-miterlimit:10;}
	.st6{fill:none;stroke:#B4975A;stroke-width:0.25;stroke-miterlimit:10;}
	.st7{fill:none;stroke:#010101;stroke-width:0.25;stroke-linejoin:round;stroke-miterlimit:10;}
</style>
<path class="st0" d="M66.4,3.3C65.3,2.9,59.2,2,49.9,2c-9.2,0-16,1-16.5,1.4l-0.1,1.9C33.9,5,40.4,4,49.2,4c0.2,0,0.5,0.7,0.8,0.7
	S50.6,4,50.8,4c8.7,0.1,14.8,1,15.9,1.4L66.4,3.3z"/>
<path class="st0" d="M64,97.7c0-9.3,0.8-21.6,1.2-43.8c0.3-14.3,1.2-23.8,1.3-33.1l-0.2-0.2l0.2-15.3c0,0,0.7,8.8,0.9,12.8l0.2,0.2
	c0.5,8.7-0.3,19.6-0.3,34c0,22-0.3,35.2-0.3,44.3"/>
<path class="st0" d="M33.6,95.9c0-9.7-0.5-21.5-0.5-43.5c0-14.3-1.3-25.2-0.9-33.9l0.2-0.1c0.2-4.1,0.8-13.1,0.8-13.1l0.2,15.9
	l-0.2,0.1c0.4,6,2.4,25.1,2.4,39.3c0,21.8,0.7,27.5,0.7,37.1"/>
<path class="st1" d="M66.7,11.1c0-0.7,0-1.3,0-2l-0.2-3.8V5.2C65.4,4.8,59.4,4,50.6,3.9l-0.7,0.9l-0.7-0.9c-8.8,0-15.3,1-15.9,1.3
	L33.2,9c0,4.3,0.3,7.9,0.4,12.1l-0.2,0.1c0.4,6,2.4,25.1,2.4,39.3c0,7.4,0.1,12.8,0.2,17v0.4v17.2l-0.1,0v2.3c0,0.7,3.6,1.3,6,1.3
	c2.4,0,5.9-0.5,6-1.4V95l-0.2,0l0.2-17.1c0.1-5.5,0.1-11.2,0.3-17.8c0,0,0.3-22.9,1.7-32.1c1.4,9.2,2.5,32.3,2.5,32.3
	c0.3,6.9,0.5,11.5,0.6,16.5l0,0.2l-0.1,18.1v0l-0.1,0v2.3c0,0.7,3.6,1.3,6,1.3c2.4,0,5.9-0.5,6-1.4v-0.1v-2.1V95
	c0,0-0.1-0.1-0.2-0.1l0.1-17l0-0.4l0-0.2h0.1l0.3-13.6c0.1-3,0.1-6.3,0.2-9.9c0-2.3,0.1-4.4,0.1-6.4l0,1.1
	c0.3-11.3,1.1-19.5,1.2-27.6l0,0c0-0.1,0-0.2,0-0.2l-0.2-0.2C66.5,18.8,66.7,15.1,66.7,11.1z"/>
<g id="_x30_3-trouserfit-european">
	<g>
		<path class="st2" d="M66.6,9.4"/>
		<path class="st3" d="M49.9,36.4"/>
		<path class="st3" d="M52.3,10.3l-0.1,11.1c0,1.5-0.7,2.8-2.3,2.8"/>
		<path class="st4" d="M39.8,9.9c-2.2-0.2-4.4-0.5-6.6-0.9"/>
		<path class="st4" d="M59.8,9.9c-5.6,0.5-12.4,0.7-19.2,0.1"/>
		<path class="st4" d="M66.7,9c-1.8,0.3-3.8,0.5-6,0.7"/>
		<path class="st3" d="M60.4,6.1h-0.6c-0.1,0-0.1,0.1-0.1,0.1l0.2,3.6c0,0.1,0.1,0.1,0.1,0.1h0.6c0.1,0,0.1-0.1,0.1-0.1L60.4,6.1
			L60.4,6.1"/>
		<path class="st3" d="M40.5,6.3h-0.6c-0.1,0-0.1,0.1-0.1,0.1V10c0,0.1,0,0.1,0.1,0.1h0.6c0.1,0,0.1-0.1,0.1-0.1L40.5,6.3
			C40.6,6.3,40.6,6.3,40.5,6.3"/>
		<path class="st4" d="M45.7,10.3l-1.1-1.8l1.1-1.9"/>
		<path class="st4" d="M49.9,28c0,0,0-11,0-13c0-1.2,0-3.6-0.1-4.6"/>
		<path class="st5" d="M33.4,21.3"/>
		<path class="st5" d="M66.5,20.7"/>
		<path class="st5" d="M66.5,5.2C65,5.6,59,6.5,49.9,6.5c-9.2,0-16-1-16.6-1.3"/>
		<path class="st6" d="M66.8,7.5"/>
		<path class="st6" d="M49.9,34.7"/>
		<line class="st5" x1="33.6" y1="21.1" x2="36.7" y2="9.7"/>
		<line class="st5" x1="63.4" y1="9.6" x2="66.4" y2="20.6"/>
		<path class="st7" d="M47.4,97.5"/>
		<path class="st7" d="M36.4,97.6"/>
		<g>
			<path class="st2" d="M47.9,95c0,0.7-3.2,1.1-6.1,1.1c-3,0-5.9-0.5-5.9-1"/>
			<path class="st2" d="M41.9,98.7"/>
			<line class="st5" x1="41.8" y1="98.7" x2="41.8" y2="96.1"/>
			<path class="st2" d="M36.9,79.9"/>
		</g>
		<g>
			<path class="st2" d="M64.8,95c0,0.7-3.2,1.1-6.1,1.1c-3,0-5.9-0.5-5.9-1"/>
			<line class="st5" x1="59.2" y1="98.7" x2="59.2" y2="96.1"/>
			<path class="st2" d="M53.8,79.9"/>
		</g>
		<path class="st3" d="M42.1,96.1l-0.8-64.6"/>
		<path class="st3" d="M58.2,31.2L59,96"/>
	</g>
</g>
<path class="st2" d="M66.6,9.4"/>
<path class="st3" d="M49.9,36.4"/>
<path class="st4" d="M66.7,9c-1.8,0.3-3.8,0.5-6,0.7"/>
<path class="st4" d="M45.7,10.3l-1.1-1.8l1.1-1.9"/>
<path class="st5" d="M33.4,21.3"/>
<path class="st5" d="M66.5,20.7"/>
<path class="st4" d="M65.3,53.9"/>
<path class="st4" d="M66.6,20.8"/>
<path class="st5" d="M33.3,5.2"/>
<path class="st5" d="M66.5,5.2"/>
<path class="st6" d="M66.8,7.5"/>
<path class="st6" d="M49.9,34.7"/>
<path class="st5" d="M36.7,9.7"/>
<path class="st5" d="M33.6,21.1"/>
<path class="st5" d="M66.4,20.6"/>
<path class="st5" d="M63.4,9.6"/>
<path class="st7" d="M64.1,97.5"/>
<path class="st2" d="M35.9,95.2"/>
<path class="st2" d="M47.9,95.1"/>
<line class="st5" x1="41.8" y1="98.7" x2="41.8" y2="96.1"/>
<path class="st2" d="M36.9,79.9"/>
<path class="st2" d="M54,96.6"/>
<path class="st2" d="M54.9,96.2"/>
<path class="st2" d="M52.8,95.2"/>
<path class="st2" d="M64.8,95.1"/>
<path class="st2" d="M64.8,95c0,0.7-3.2,1.1-6.1,1.1c-3,0-5.9-0.5-5.9-1"/>
<line class="st5" x1="59.2" y1="98.7" x2="59.2" y2="96.1"/>
<path class="st2" d="M53.8,79.9"/>
<path class="st5" d="M66.7,11.1c0-0.7,0-1.3,0-2l-0.2-3.8V5.2C65.4,4.8,59.4,4,50.6,3.9l-0.7,0.9l-0.7-0.9c-8.8,0-15.3,1-15.9,1.3
	L33.2,9c0,4.3,0.3,7.9,0.4,12.1l-0.2,0.1c0.4,6,2.4,25.1,2.4,39.3c0,7.4,0.1,12.8,0.2,17v0.4v17.2l-0.1,0v2.3c0,0.7,3.6,1.3,6,1.3
	c2.4,0,5.9-0.5,6-1.4V95l-0.2,0l0.2-17.1c0.1-5.5,0.1-11.2,0.3-17.8c0,0,0.3-22.9,1.7-32.1c1.4,9.2,2.5,32.3,2.5,32.3
	c0.3,6.9,0.5,11.5,0.6,16.5l0,0.2l-0.1,18.1v0l-0.1,0v2.3c0,0.7,3.6,1.3,6,1.3c2.4,0,5.9-0.5,6-1.4v-0.1v-2.1V95
	c0,0-0.1-0.1-0.2-0.1l0.1-17l0-0.4l0-0.2h0.1l0.3-13.6c0.1-3,0.1-6.3,0.2-9.9c0-2.3,0.1-4.4,0.1-6.4l0,1.1
	c0.3-11.3,1.1-19.5,1.2-27.6l0,0c0-0.1,0-0.2,0-0.2l-0.2-0.2C66.5,18.8,66.7,15.1,66.7,11.1z"/>
</svg>
