<?xml version="1.0" encoding="utf-8"?>
<!-- Generator: Adobe Illustrator 19.1.0, SVG Export Plug-In . SVG Version: 6.00 Build 0)  -->
<svg version="1.1" id="Layer_1" xmlns="http://www.w3.org/2000/svg" xmlns:xlink="http://www.w3.org/1999/xlink" x="0px" y="0px"
	 viewBox="0 0 100 100" style="enable-background:new 0 0 100 100;" xml:space="preserve">
<style type="text/css">
	.st0{fill:#B4975A;}
	.st1{fill:#FFFFFF;}
	.st2{fill:#FFFFFF;stroke:#010101;stroke-width:0.25;stroke-miterlimit:10;}
	.st3{fill:none;stroke:#010101;stroke-width:0.25;stroke-miterlimit:2.613;}
	.st4{fill:none;stroke:#010101;stroke-width:0.25;stroke-linejoin:bevel;stroke-miterlimit:10;}
	.st5{fill:none;stroke:#010101;stroke-width:0.25;stroke-miterlimit:10;}
	.st6{fill:none;stroke:#B4975A;stroke-width:0.25;stroke-miterlimit:10;}
</style>
<path class="st0" d="M66.6,5.3l-0.2-2C65.2,2.9,59.2,2,49.9,2c-9.2,0-16,1-16.5,1.4l-0.1,1.9"/>
<path class="st0" d="M66.6,5.3c0,0,0.7,8.8,0.9,12.8l0.2,0.2c0.5,8.7-0.3,19.6-0.3,34c0,22-0.3,35.1-0.3,44.2l-2.9,0.7l0.5-75.9
	l0.5-4.3L66.6,5.3z"/>
<path class="st0" d="M33.2,5.3c0,0-0.6,8.9-0.8,13l-0.2,0.1c-0.4,8.7,0.9,19.6,0.9,33.8c0,22,0.5,33.8,0.5,43.5
	c1.1,0.7,2.8,1.5,2.8,1.5l1-71.4l-2.8-11.3L33.2,5.3z"/>
<path class="st1" d="M66.7,9l-0.2-3.8h-0.2C65.2,4.8,59.4,4,50.7,3.9L50,4.8l-0.7-0.9c-8.9,0-15.3,1-15.9,1.3v0.1L33.2,9l0,0
	c0,0,0,0,0,0l0,0.1c0,4.4,0.3,7.9,0.4,12.1l-0.2,0.1c0.4,6,2.4,25,2.4,39.2l0.7,16.9l0.1,17.4c-0.1,0-0.1,0.1-0.1,0.2c0,0,0,0,0-0.1
	v2.3c0,0.1,0,0.2,0.1,0.2c0.2,0.6,3.3,1.2,5.5,1.2c1.7,0,3.9-0.2,4.9-0.7c0.6-0.2,1-0.5,1-0.8V97v-2.1v-0.1c0,0,0,0,0,0.1
	c0-0.1-0.1-0.1-0.2-0.2l0.2-16.9l0.6-28.4l1.5-22l0.6,5.2L52,52.4l0,0l0,0.4l0.8,20.8l0.2,5.6l-0.1,15.6c-0.1,0.1-0.1,0.1-0.1,0.2
	l0.1,0.1v0c-0.1-0.1-0.2-0.2-0.2-0.2v2.3c0,0.2,0.4,0.4,1,0.6c1,0.4,3.3,0.8,4.9,0.8c2.1,0,5.1-0.4,5.5-1.2c0.1-0.1,0.1-0.2,0.1-0.3
	v-2.3c0,0,0,0,0,0.1c0-0.1-0.1-0.2-0.1-0.2l0.6-17.5l0.6-23.5c0.2-14.2,1.2-23.7,1.3-33l-0.2-0.2C66.5,18.6,66.8,13.8,66.7,9z
	 M64.1,94.9L64.1,94.9c0.1,0,0,0.1,0,0.1V94.9z M48,69.3L48,69.3C48,69.3,48,69.3,48,69.3L48,69.3z"/>
<g id="_x30_4-trouserfit-europeanslim_1_">
	<g>
		<path class="st2" d="M66.3,5.2C64.8,5.6,59,6.5,49.9,6.5c-9.2,0-16-1-16.5-1.3"/>
		<path class="st2" d="M66.6,9.3"/>
		<path class="st3" d="M49.9,36.3"/>
		<path class="st3" d="M52.3,10.3l-0.1,11.1c0,1.5-0.7,2.8-2.3,2.8"/>
		<path class="st4" d="M59.8,9.9c-5.6,0.5-12.4,0.7-19.2,0.1"/>
		<path class="st3" d="M60.3,6.1h-0.6c-0.1,0-0.1,0.1-0.1,0.1l0.2,3.6c0,0.1,0.1,0.1,0.1,0.1h0.6c0.1,0,0.1-0.1,0.1-0.1L60.3,6.1
			C60.5,6.2,60.4,6.1,60.3,6.1"/>
		<path class="st3" d="M40.5,6.3h-0.6c-0.1,0-0.1,0.1-0.1,0.1V10c0,0.1,0,0.1,0.1,0.1h0.6c0.1,0,0.1-0.1,0.1-0.1L40.5,6.3
			C40.6,6.3,40.6,6.3,40.5,6.3"/>
		<path class="st4" d="M45.7,10.3l-1.1-1.8l1.1-1.9"/>
		<path class="st4" d="M49.9,28c0,0,0-11,0-13c0-1.2,0-3.6-0.1-4.6"/>
		<path class="st5" d="M33.4,21.2"/>
		<path class="st5" d="M66.5,20.7"/>
		<path class="st4" d="M53,76.7"/>
		<path class="st6" d="M66.8,7.5"/>
		<path class="st6" d="M49.9,34.7"/>
		<g>
			<path class="st2" d="M33.4,5.3"/>
			<line class="st5" x1="41.9" y1="98.5" x2="41.9" y2="96"/>
			<path class="st2" d="M36.9,79.8"/>
		</g>
		<g>
			<path class="st2" d="M66.4,20.5"/>
			<path class="st2" d="M66.5,5.2L66.7,9"/>
			<line class="st5" x1="59.2" y1="98.5" x2="59.2" y2="96"/>
			<path class="st2" d="M53.8,79.8"/>
		</g>
		<path class="st3" d="M42.1,96l-0.8-64.6"/>
		<path class="st3" d="M58.2,31.1L59,95.9"/>
		<line class="st5" x1="33.6" y1="21" x2="36.7" y2="9.6"/>
		<line class="st5" x1="63.3" y1="9.5" x2="66.3" y2="20.5"/>
		<path class="st4" d="M66.7,9c-1.8,0.3-3.8,0.5-6,0.7"/>
		<path class="st4" d="M39.8,9.9c-2.2-0.2-4.4-0.5-6.6-0.9"/>
	</g>
</g>
<path class="st2" d="M64.2,94.8c0,0.7-2.7,1.1-5.6,1.1c-3,0-5.9-0.5-5.9-1"/>
<path class="st2" d="M47.9,94.8c0,0.7-3.2,1.1-6.1,1.1c-3,0-5.4-0.5-5.4-1"/>
<path class="st5" d="M66.7,9l-0.2-3.8h-0.2C65.2,4.8,59.4,4,50.7,3.9L50,4.8l-0.7-0.9c-8.9,0-15.3,1-15.9,1.3v0.1L33.2,9l0,0
	c0,0,0,0,0,0l0,0.1c0,4.4,0.3,7.9,0.4,12.1l-0.2,0.1c0.4,6,2.4,25,2.4,39.2l0.7,16.9l0.1,17.4c-0.1,0-0.1,0.1-0.1,0.2c0,0,0,0,0-0.1
	v2.3c0,0.1,0,0.2,0.1,0.2c0.2,0.6,3.3,1.2,5.5,1.2c1.7,0,3.9-0.2,4.9-0.7c0.6-0.2,1-0.5,1-0.8V97v-2.1v-0.1c0,0,0,0,0,0.1
	c0-0.1-0.1-0.1-0.2-0.2l0.2-16.9l0.6-28.4l1.5-22l0.6,5.2L52,52.4l0,0l0,0.4l0.8,20.8l0.2,5.6l-0.1,15.6c-0.1,0.1-0.1,0.1-0.1,0.2
	l0.1,0.1v0c-0.1-0.1-0.2-0.2-0.2-0.2v2.3c0,0.2,0.4,0.4,1,0.6c1,0.4,3.3,0.8,4.9,0.8c2.1,0,5.1-0.4,5.5-1.2c0.1-0.1,0.1-0.2,0.1-0.3
	v-2.3c0,0,0,0,0,0.1c0-0.1-0.1-0.2-0.1-0.2l0.6-17.5l0.6-23.5c0.2-14.2,1.2-23.7,1.3-33l-0.2-0.2C66.5,18.6,66.8,13.8,66.7,9z
	 M64.1,94.9L64.1,94.9c0.1,0,0,0.1,0,0.1V94.9z M48,69.3L48,69.3C48,69.3,48,69.3,48,69.3L48,69.3z"/>
</svg>
