<?xml version="1.0" encoding="utf-8"?>
<!-- Generator: Adobe Illustrator 19.1.0, SVG Export Plug-In . SVG Version: 6.00 Build 0)  -->
<svg version="1.1" id="Layer_1" xmlns="http://www.w3.org/2000/svg" xmlns:xlink="http://www.w3.org/1999/xlink" x="0px" y="0px"
	 viewBox="0 0 100 100" style="enable-background:new 0 0 100 100;" xml:space="preserve">
<style type="text/css">
	.st0{fill:#C7C8C9;}
	.st1{fill:#FFFFFF;}
	.st2{fill:none;stroke:#010101;stroke-width:0.25;stroke-miterlimit:10;}
	.st3{fill:none;stroke:#010101;stroke-width:0.25;stroke-miterlimit:10;stroke-dasharray:1.816;}
	.st4{fill:#FFFFFF;stroke:#010101;stroke-width:0.25;stroke-miterlimit:10;}
</style>
<path class="st0" d="M20.6,16.2c5.8-5.8,17.5-7.3,27.5-7.3s21.7,1.5,27.5,7.3s7.2,15.4,7.2,15.4l-1.2,14.6c0,0-1.4-3-5.9-11.3
	c-4.5-8.2-16.9-10.2-27.6-10.2c-10.8,0-23.1,2-27.6,10.2s-7.3,11.3-7.3,11.3l2.6-13.8C15.8,32.4,14.8,22,20.6,16.2z"/>
<path class="st1" d="M81.9,18c-1.2-1.9-3.8-5.1-10.4-7.8c0.5,0.2,0.9,0.4,1.4,0.6C66.5,7.9,57.8,7,50,7c-7.3,0-15.4,0.8-21.6,3.3
	c0.1,0,0.2-0.1,0.2-0.1c-0.2,0.1-0.3,0.1-0.5,0.2c-0.9,0.4-1.7,0.8-2.5,1.2c-4.3,2.3-6.3,4.8-7.5,6.4c-3.6,5.6-4.6,19.6-4.8,27.6
	c-0.3,10.7,13.4,47,13.4,47c0.1,0.4,0.6,0.5,0.9,0.2L40.8,76c1.7,0.5,3.5,0.9,5.3,1.2c0,0,0,0,0,0.1c1.4,0.2,2.7,0.4,3.9,0.4
	c2.8,0,6.3-0.7,9.3-1.6l13.1,16.7c0.3,0.3,0.8,0.2,0.9-0.2c0,0,13.7-36.3,13.4-47C86.5,37.6,85.5,23.6,81.9,18z M22.2,32.3
	c5-7.6,17.1-9.5,27.8-9.5c10.7,0,22.9,1.9,27.8,9.7c-6.1,13.5-19.7,30-25.9,33.6c-0.7,0.1-1.3,0.1-2,0.1c-0.5,0-0.9,0-1.4-0.1l0,0
	C42.6,63.1,28.4,46.1,22.2,32.3z"/>
<polygon class="st0" points="72.1,92.8 54.8,77.2 70.3,61.3 73.3,77.3 "/>
<path class="st0" d="M73.2,71.8l-15.8-5.7L52,66.4L54.7,77c0,0,2.2-0.5,2.7-0.6C58,76.3,73.2,71.8,73.2,71.8z"/>
<polygon class="st0" points="27.7,92.8 42.6,76.7 31,73.3 "/>
<polygon class="st0" points="46.9,66.2 42.7,76.4 31.4,73.5 36.6,63.2 "/>
<g>
	<path class="st2" d="M22.2,32.3c5-7.6,17.1-9.5,27.8-9.5c10.7,0,22.9,1.9,27.8,9.7"/>
	<path class="st2" d="M72.9,10.8C66.5,7.9,57.8,7,50,7c-7.3,0-15.4,0.8-21.6,3.3"/>
</g>
<path class="st3" d="M76.9,15.5C72.3,11.1,62.8,8.6,50,8.6S27.7,11,23.1,15.4c-5,4.9-6.6,13-6.8,14.3l0.7,8.5c0.9-1.6,2-3.6,3.3-6
	c4.1-7.3,14.3-11.1,29.7-11.1c15.3,0,25.6,3.8,29.7,11.1c1.4,2.5,2.5,4.4,3.3,6l0.7-8.5C83.5,28.5,81.9,20.4,76.9,15.5z"/>
<path class="st2" d="M34.2,73.5c1.3,1,9.9,4.1,15.8,4.1s14.5-3.1,15.8-4.1V61.8c-1.3,1-9.9,4.4-15.8,4.4s-14.5-3.4-15.8-4.4
	C34.2,61.8,34.2,73.5,34.2,73.5z"/>
<path class="st2" d="M65.8,73.6V61.8l-14,4.4c0,0-3.5,2.5-4.5,3.2c-1.3,0.8-1.2,2.2-1.2,3.9c0,1.2,0,3.6,0,4"/>
<path class="st3" d="M48,77.5v-4.4c0-1.4,0.1-1.9,0.4-2.1c0.9-0.6,3.5-2.5,4.4-3.1L64,64.4v8"/>
<circle class="st4" cx="51" cy="73" r="2.1"/>
<path class="st4" d="M77.8,14.4c2.5,2.7,3.7,6.2,2.6,10.9c-3.4,14.2-21.7,37.3-28.8,41l20.8,26.5c0.3,0.3,0.8,0.2,0.9-0.2
	c0,0,13.7-36.3,13.4-47c-0.2-8-1.2-22-4.8-27.6c-1.1-1.8-3.4-4.6-9-7.2"/>
<path class="st3" d="M81.4,17.3c0,0,1.9,4.7,0.7,8.4c-2.1,6.4-6,16-13,25.3c-5.3,7.1-10.4,13.2-14.2,16l17.6,22.5
	c2.8-7.1,13.9-33.9,13.8-48.2"/>
<path class="st4" d="M21.9,14.7c-2.3,2.6-3.3,6.1-2.2,10.6c3.4,14.2,21.8,37.3,28.9,40.8l-21,26.7c-0.3,0.3-0.8,0.2-0.9-0.2
	c0,0-13.7-36.3-13.4-47c0.2-8,1.2-22,4.8-27.6c1.4-1.9,4-5.1,10.5-7.8"/>
<path class="st3" d="M18.8,17.3c0,0-1.9,4.7-0.7,8.4c2.1,6.4,6,16,13,25.3c5.3,7.1,10.4,13.2,14.2,16L27.6,89.5
	c-2.8-7.1-13.9-33.9-13.8-48.2"/>
</svg>
