<?xml version="1.0" encoding="utf-8"?>
<!-- Generator: Adobe Illustrator 19.1.0, SVG Export Plug-In . SVG Version: 6.00 Build 0)  -->
<svg version="1.1" id="Layer_1" xmlns="http://www.w3.org/2000/svg" xmlns:xlink="http://www.w3.org/1999/xlink" x="0px" y="0px"
	 viewBox="0 0 100 100" style="enable-background:new 0 0 100 100;" xml:space="preserve">
<style type="text/css">
	.st0{fill:#C7C8C9;}
	.st1{fill:#FFFFFF;}
	.st2{fill:none;stroke:#010101;stroke-width:0.2512;stroke-miterlimit:10;}
	.st3{fill:none;stroke:#010101;stroke-width:0.2512;stroke-miterlimit:10;stroke-dasharray:1.9165;}
	.st4{fill:#FFFFFF;stroke:#010101;stroke-width:0.2512;stroke-miterlimit:10;}
</style>
<path class="st0" d="M20.6,16.6C26.4,10.8,38,9.3,48,9.3s21.6,1.5,27.4,7.3s7.2,15.3,7.2,15.3l-1.2,14.6c0,0-1.4-3-5.9-11.2
	S58.7,25.1,48,25.1s-23,2-27.5,10.2s-5.9,11.2-5.9,11.2l0.2-14.9C14.8,31.6,14.8,22.4,20.6,16.6z"/>
<path class="st1" d="M88,45.8c-0.9-7.9-2.6-22-6.2-27.5c-1.3-1.8-3.9-5-10.4-7.7c0.8,0.3,1.5,0.7,2.3,1.1C67.3,8.4,58,7.4,49.9,7.4
	c-8.7,0-18.7,1.1-25.1,5.1c-3.8,2.2-5.6,4.5-6.6,5.9c-3,4.6-4.7,15.1-5.7,23.1v0.1c0,0.1,0,0.2,0,0.3c-0.2,1.5-0.3,2.8-0.5,4
	c-1.1,10.5,1.1,15.5,6.6,44.4c0.1,0.4,0.6,0.5,0.9,0.2l18.2-15.1c3.3,1.2,8.3,2.5,12.1,2.5c0,0,0,0,0.1,0l0,0c3.9,0,9-1.4,12.4-2.6
	l18.2,15.1c0.3,0.3,0.8,0.2,0.9-0.2C86.9,61.3,89.1,56.3,88,45.8z M22.3,32.7c4.9-7.6,17.1-9.5,27.6-9.5c10.7,0,22.9,1.9,27.8,9.7
	c-6.3,13.7-20.3,30.6-26.3,33.4l0.1,0.1c-0.6,0.1-1.2,0.1-1.7,0.1c-0.4,0-0.9,0-1.4-0.1l0.2-0.1C42.6,63.4,28.5,46.4,22.3,32.7z"/>
<path class="st0" d="M80.1,90.5l-1.5-13l-8.4-15.9l-6.7,7l-6.1-2.3L52,66.6l2.9,10.6c0,0,0.1,0,0.2-0.1l-0.2,0.3L80.1,90.5z"/>
<g>
	<polygon class="st0" points="19.5,90.5 42.5,76.9 31,73.6 	"/>
	<path class="st0" d="M36.6,63.4L31.7,73c0,0,5.9,2,7.1,2.6c1.2,0.5,3.9,1,3.9,1l4.1-10.2L36.6,63.4z"/>
</g>
<path class="st2" d="M34.1,73.8c1.3,1,9.8,4.1,15.7,4.1s14.4-3.1,15.7-4.1V62.1c-1.3,1-9.8,4.4-15.7,4.4s-14.4-3.4-15.7-4.4V73.8z"
	/>
<path class="st2" d="M65.6,73.8V62.1l-13.9,4.3c0,0-3.4,2.5-4.5,3.2C46,70.4,46,71.9,46,73.5c0,1.2,0,3.6,0,4"/>
<path class="st3" d="M52.3,67.9c-0.8,0.6-3.4,2.5-4.4,3.1c-0.4,0.3-0.5,0.8-0.5,2.3v0.1v4.3"/>
<circle class="st4" cx="50.6" cy="73" r="2.1"/>
<path class="st3" d="M21.4,30.8c4.7-6.1,14.4-9.4,28.5-9.4c14.2,0,24,3.3,28.6,9.6"/>
<path class="st3" d="M80.7,21.5c-1-2-2.3-3.9-4-5.6C72.2,11.5,62.7,9,49.9,9s-22.3,2.4-26.8,6.8c-1.6,1.5-2.8,3.4-3.7,5.2"/>
<path class="st2" d="M22.3,32.7c4.9-7.6,17.1-9.5,27.6-9.5c10.7,0,22.9,1.9,27.8,9.7"/>
<path class="st2" d="M28.6,10.6"/>
<path class="st2" d="M73.7,11.7C67.3,8.4,58,7.4,49.9,7.4c-7,0-15.2,0.9-21.3,3.2"/>
<path class="st4" d="M21.9,14.4c-2.7,2.7-3.3,6.4-2.2,11.2c3.4,14.1,21.8,37.3,28.9,40.7L19.5,90.5c-0.3,0.3-0.8,0.2-0.9-0.2
	c-5.5-28.9-7.7-33.9-6.6-44.4c0.9-7.9,2.6-22,6.2-27.5c1.3-1.9,3.9-5.1,10.4-7.8"/>
<path class="st3" d="M12.5,47.9c0.5,7.2,2.7,16.6,5.7,32.4c0.5,2.6,1.1,4.5,1.7,7.6l26-21.2c-3.8-2.8-9.2-8.6-14.5-15.6
	c-6.9-9.3-11.7-18.4-13.3-25c-0.7-2.7,0.1-7.7,0.1-7.7"/>
<path class="st3" d="M12.5,41.6"/>
<path class="st4" d="M77.7,14.1c2.9,2.7,3.8,6.6,2.6,11.5c-3.4,14.1-21.8,37.3-28.9,40.7l29.1,24.1c0.3,0.3,0.8,0.2,0.9-0.2
	c5.5-28.9,7.7-33.9,6.6-44.4c-0.9-7.9-2.6-22-6.2-27.5c-1.3-1.8-3.9-5-10.4-7.7"/>
<path class="st3" d="M87.6,47.2C87.2,54.5,85,64,81.8,80.3c-0.5,2.6-1.1,4.5-1.7,7.6l-26-21.2c3.8-2.8,9.2-8.6,14.5-15.6
	c6.9-9.3,11.7-18.4,13.3-25c0.7-2.7-0.1-7.7-0.1-7.7"/>
</svg>
