<?xml version="1.0" encoding="utf-8"?>
<!-- Generator: Adobe Illustrator 19.1.0, SVG Export Plug-In . SVG Version: 6.00 Build 0)  -->
<svg version="1.1" id="Layer_1" xmlns="http://www.w3.org/2000/svg" xmlns:xlink="http://www.w3.org/1999/xlink" x="0px" y="0px"
	 viewBox="0 0 100 100" style="enable-background:new 0 0 100 100;" xml:space="preserve">
<style type="text/css">
	.st0{fill:#C7C8C9;}
	.st1{fill:#FFFFFF;}
	.st2{fill:none;stroke:#010101;stroke-width:0.2295;stroke-miterlimit:10;stroke-dasharray:1.7579;}
	.st3{fill:none;stroke:#010101;stroke-width:0.2295;stroke-miterlimit:10;}
	.st4{fill:#FFFFFF;stroke:#010101;stroke-width:0.2295;stroke-miterlimit:10;}
</style>
<path class="st0" d="M21.7,16.9c5.7-6,16.3-8.1,26.3-8.1s21.7,1.5,27.6,7.4c5.9,5.8,7.2,15.4,7.2,15.4l-1.2,14.6c0,0-1.4-3-5.9-11.3
	C71.1,26.7,58.8,24.7,48,24.7s-23.1,2-27.7,10.3s-4.8,9.8-4.8,9.8l-0.4-13.5C15.1,31.3,17.9,20.9,21.7,16.9z"/>
<path class="st1" d="M85.3,32c0,0,0-0.1,0-0.1l0-0.1c-0.5-4.3-1.5-8.1-2.8-11.4c-0.2-1.2-0.7-2.1-1.2-2.7l0,0.1
	c-1.4-2.3-4.6-5.5-9.8-7.6c0.3,0.1,0.5,0.2,0.8,0.4C66,7.8,57.5,6.9,50,6.9c-9.8,0-21.2,1.4-27.4,6.7c-1.9,1.5-3.2,3-3.9,4.2l0-0.1
	c-0.5,0.6-1,1.4-1.2,2.7c-1.3,3.3-2.2,7.1-2.8,11.4l0,0.1c0,0,0,0.1,0,0.1c-0.3,2.2-0.4,4.6-0.4,7.1c0,9.9,3.8,16.9,15.8,44.1
	c0.2,0.4,0.6,0.5,0.9,0.2l7.9-7.8c2.1,0.7,4.6,1.3,7.1,1.7c0,0,0,0,0,0.1c0.5,0.1,0.9,0.1,1.4,0.2v0l0,0c0.9,0.1,1.7,0.2,2.5,0.2
	c3.5,0,7.9-1.1,11.2-2.2l7.9,7.8c0.3,0.3,0.7,0.2,0.9-0.2C81.9,56,85.7,49,85.7,39.1C85.7,36.6,85.5,34.3,85.3,32z M22.1,32.5
	c5-7.8,17.1-9.7,27.8-9.7c10.8,0,23,1.9,27.9,9.8c-6.3,13.7-20.4,30.7-26.4,33.6l0,0c-0.5,0-1,0.1-1.5,0.1c-0.5,0-0.9,0-1.4-0.1l0,0
	C42.5,63.2,28.4,46.3,22.1,32.5z"/>
<polygon class="st0" points="69,83.4 57.4,76.4 70.3,61.4 69.8,71.2 "/>
<polygon class="st0" points="72.7,72.1 57.4,66.2 52,66.5 57.8,76.4 "/>
<polygon class="st0" points="31,83.4 40.8,76.3 30.8,73.4 "/>
<polygon class="st0" points="46.8,66.3 40.9,76.1 31.4,73.1 36.5,63.3 "/>
<path class="st2" d="M76.9,15.4c-4.6-4.4-14.2-6.8-27-6.8S27.5,11,23,15.4c-5.1,4.9-6.6,13-6.8,14.3l0.7,8.5c0.9-1.6,2-3.6,3.3-6.1
	C24.3,24.8,34.6,21,49.9,21c15.4,0,25.6,3.8,29.7,11.1c1.4,2.5,2.5,4.5,3.3,6.1l0.7-8.5C83.5,28.5,81.9,20.4,76.9,15.4z"/>
<path class="st3" d="M34.1,73.6c1.3,1,9.9,4.1,15.8,4.1s14.5-3.1,15.8-4.1V61.9c-1.3,1-9.9,4.4-15.8,4.4s-14.7-3.6-16-4.6L34.1,73.6
	z"/>
<path class="st3" d="M65.7,73.7V61.9l-14,4.4c0,0-3.5,2.6-4.5,3.2c-1.3,0.8-1.2,2.2-1.2,3.9c0,1.2,0,3.7,0,4"/>
<path class="st2" d="M52.3,67.8c-0.8,0.6-3.4,2.5-4.4,3.1c-0.4,0.3-0.5,0.8-0.5,2.3v0.1v4.3"/>
<circle class="st4" cx="50.6" cy="72.9" r="2.1"/>
<path class="st3" d="M28.5,10.2"/>
<path class="st3" d="M72.3,10.6C66,7.8,57.5,6.9,50,6.9c-7.1,0-15.3,0.9-21.5,3.3"/>
<path class="st3" d="M22.1,32.5c5-7.8,17.1-9.7,27.8-9.7c10.8,0,23,1.9,27.9,9.8"/>
<path class="st4" d="M77.5,14c2.8,2.7,4.1,6.4,2.9,11.3c-3.4,14.2-21.9,37.4-29,40.9L69,83.4c0.3,0.3,0.7,0.2,0.9-0.2
	C81.9,56,85.7,49,85.7,39.1c0-8-1.4-14.5-3.6-19.8c-0.8-2.1-4.1-6.5-10.6-9.1"/>
<path class="st2" d="M85.3,31.9"/>
<path class="st2" d="M82.5,23.1c-0.1,0.8-0.3,1.7-0.6,2.7c-2.2,6.4-6.3,15.6-13.2,25C63.3,58,57.8,63.9,53.9,66.6L69,81.4
	c10.4-24.5,14.8-30,16.1-45.7"/>
<path class="st4" d="M21.3,15.5c-2,2.6-2.8,5.6-1.8,9.8c3.4,14.2,21.9,37.4,29,40.9L31,83.4c-0.3,0.3-0.7,0.2-0.9-0.2
	C18.1,56,14.3,49,14.3,39.1c0-8,1.4-14.5,3.6-19.8c0.5-1.3,2-3.5,4.6-5.6c1.6-1.3,3.6-2.5,6-3.5"/>
<path class="st4" d="M23.6,12.9"/>
<path class="st2" d="M17.5,23.1c0.1,0.8,0.3,1.7,0.6,2.7c2.2,6.4,6.3,15.6,13.2,25C36.6,58,42.1,63.9,46,66.6L30.9,81.4
	C19.8,55,15.6,50.7,14.7,31.9"/>
</svg>
