<?xml version="1.0" encoding="utf-8"?>
<!-- Generator: Adobe Illustrator 19.1.0, SVG Export Plug-In . SVG Version: 6.00 Build 0)  -->
<svg version="1.1" id="Layer_1" xmlns="http://www.w3.org/2000/svg" xmlns:xlink="http://www.w3.org/1999/xlink" x="0px" y="0px"
	 viewBox="0 0 100 100" style="enable-background:new 0 0 100 100;" xml:space="preserve">
<style type="text/css">
	.st0{fill:#C7C8CA;}
	.st1{fill:#FFFFFF;}
	.st2{fill:none;}
	.st3{fill:none;stroke:#010101;stroke-width:0.2469;stroke-miterlimit:10;}
	.st4{fill:none;stroke:#010101;stroke-width:0.2469;stroke-miterlimit:10;stroke-dasharray:1.8849;}
	.st5{fill:#FFFFFF;stroke:#010101;stroke-width:0.2469;stroke-miterlimit:10;}
</style>
<path class="st0" d="M20.9,16.5c5.8-5.8,17.5-7.3,27.5-7.3s21.7,1.5,27.5,7.3c5.8,5.8,7.2,15.3,7.2,15.3l-1.2,14.6
	c0,0-1.4-3-5.9-11.2S59.2,25,48.4,25c-10.7,0-23,2-27.6,10.2c-4.5,8.2-5.9,11.2-5.9,11.2l0.9-14.7C15.8,31.7,15,22.3,20.9,16.5z"/>
<path class="st1" d="M88,45.8c-0.3-8-2.8-21.4-6.4-27c-1.3-1.9-3.5-4.4-5-5.4C70.3,8.6,59.4,7.3,50,7.3s-20.3,1.3-26.6,6.1
	c-1.5,1-3.8,3.5-5,5.4c-3.6,5.6-6.1,19-6.4,27c-0.4,9.6,1,10.5,9.7,37.7c0.1,0.4,0.5,0.5,0.9,0.2l13.3-9.1c2.5,1.1,7.2,2.6,11.5,3.1
	v0.1v-0.1c0.9,0.1,1.8,0.2,2.6,0.2c4.7,0,10.9-1.9,14.1-3.2l13.3,9.1c0.4,0.3,0.8,0.2,0.9-0.2C87,56.3,88.4,55.4,88,45.8z
	 M22.3,32.7c4.9-7.8,17-9.7,27.7-9.7s22.9,1.9,27.7,9.6C71.8,45,59,60.7,52.2,66.2c-0.7,0.1-1.4,0.1-2.1,0.1c-0.7,0-1.5-0.1-2.3-0.2
	C41,60.6,28.2,45,22.3,32.7z"/>
<g>
	<path class="st0" d="M69.5,60.4l-5.1,7.5l-7.8-3.3L52.8,66l5.6,10.4c0,0,0.1,0,0.2-0.1l-0.2,0.3L77.1,84l2.2-17.3L69.5,60.4z"/>
	<path class="st0" d="M33.2,61.4l-3,5.8L28,65.3l-5.8,18.4l17.2-7.9c0,0,0.1,0,0.1,0l0.1-0.1l0,0l0,0l7.6-9.4L33.2,61.4z"/>
</g>
<polygon class="st2" points="22.2,83.7 39.6,75.7 28,65.3 "/>
<polygon class="st2" points="77.1,84 58.4,76.6 69.5,60.4 79.3,66.7 "/>
<path class="st2" d="M20.9,16.5c5.8-5.8,17.5-7.3,27.5-7.3s21.7,1.5,27.5,7.3c5.8,5.8,7.2,15.3,7.2,15.3l-1.2,14.6
	c0,0-1.4-3-5.9-11.2S59.2,25,48.4,25c-10.7,0-23,2-27.6,10.2c-4.5,8.2-5.9,11.2-5.9,11.2l0.9-14.7C15.8,31.7,15,22.3,20.9,16.5z"/>
<path class="st3" d="M34.2,73.7c1.3,1,9.8,4.1,15.8,4.1c5.9,0,14.4-3.1,15.8-4.1V61.8c-1.3,1-9.8,4.5-15.7,4.5s-14.5-3.6-15.8-4.5
	v11.9C34.3,73.7,34.2,73.7,34.2,73.7z"/>
<path class="st3" d="M65.7,73.6V62l-13.9,4.4c0,0-3.5,2.5-4.5,3.2C46,70.4,46,71.8,46,73.4c0,1.2,0,3.6,0,4"/>
<path class="st4" d="M50,9.3c-12.7,0-22.2,2.4-26.6,6.8c-4.9,4.8-6.5,12.6-6.7,14l0.6,7.4c0.8-1.4,1.7-3.2,2.9-5.2
	c4.1-7.3,14.5-11.2,29.9-11.2S75.8,25,80,32.3c1.1,2,2.1,3.7,2.9,5.2l0.6-7.4c-0.2-1.4-1.8-9.2-6.7-14C72.1,11.7,62.7,9.3,50,9.3z"
	/>
<circle class="st3" cx="50.6" cy="73" r="2.1"/>
<path class="st4" d="M52.3,67.9c-0.8,0.6-3.4,2.5-4.4,3.1c-0.4,0.3-0.5,0.8-0.5,2.3v0.1v4.3"/>
<path class="st2" d="M73,71.5l-16.4-6.9L52.8,66l5.6,10.4c0,0,2.3-0.7,2.8-0.8C61.6,75.4,73,71.5,73,71.5z"/>
<path class="st2" d="M47.2,66.3l-7.7,9.5c0,0-0.7-0.2-1.7-0.6s-9.9-3.6-9.9-3.6l5.3-10.2L47.2,66.3z"/>
<path class="st3" d="M76.1,13.1C69.7,9.3,58.6,7.3,50,7.3c-8.7,0-19.7,1.9-26.1,5.8"/>
<path class="st3" d="M76.1,13.1"/>
<path class="st3" d="M22.3,32.7c4.9-7.8,17-9.7,27.7-9.7s22.9,1.9,27.7,9.6"/>
<path class="st5" d="M76.1,13.1c1.5,0.7,4.1,3.6,5.5,5.7c3.6,5.6,6.1,19,6.4,27c0.4,9.6-1,10.5-9.7,37.7c-0.1,0.4-0.5,0.5-0.9,0.2
	L52,66.3c8.2-6.5,25.4-28.2,28.4-40.8c0.8-3.6,0.3-6.5-1.1-8.9"/>
<path class="st4" d="M82.4,20.3c0,0,0.3,3.1,0.1,4.5c-0.1,0.4-0.1,0.7-0.2,1.1c-3,12.4-18.3,32.2-27,40.1l21.5,14.7
	c8.8-24.3,9.9-28.6,11-37.7"/>
<path class="st5" d="M23.9,13.1c-1.5,0.7-4.1,3.6-5.5,5.7c-3.6,5.6-6.1,19-6.4,27c-0.4,9.6,1,10.5,9.7,37.7c0.1,0.4,0.5,0.5,0.9,0.2
	L48,66.3c-8.2-6.5-25.4-28.2-28.4-40.8c-0.9-4-0.2-7.1,1.6-9.6"/>
<path class="st4" d="M17.6,20.3c0,0-0.3,3.1-0.1,4.5c0.1,0.4,0.1,0.7,0.2,1.1c3,12.4,18.3,32.2,27,40.1L23.2,80.8
	c-8.8-24.3-9.9-28.6-11-37.7"/>
</svg>
