<?xml version="1.0" encoding="utf-8"?>
<!-- Generator: Adobe Illustrator 19.1.0, SVG Export Plug-In . SVG Version: 6.00 Build 0)  -->
<svg version="1.1" id="Layer_1" xmlns="http://www.w3.org/2000/svg" xmlns:xlink="http://www.w3.org/1999/xlink" x="0px" y="0px"
	 viewBox="0 0 100 100" style="enable-background:new 0 0 100 100;" xml:space="preserve">
<style type="text/css">
	.st0{fill:#C7C8C9;}
	.st1{fill:#FFFFFF;stroke:#010101;stroke-width:0.25;stroke-miterlimit:10;}
	.st2{fill:#FFFFFF;}
	.st3{fill:none;stroke:#010101;stroke-width:0.25;stroke-miterlimit:10;stroke-dasharray:1.9088;}
	.st4{fill:none;stroke:#010101;stroke-width:0.25;stroke-miterlimit:10;}
</style>
<path class="st0" d="M23,15.7c5.9-5.9,14.8-7.2,25-7.2c10.1,0,22,1.6,27.9,7.4c5.9,5.9,7.3,15.6,7.3,15.6L82,46.3
	c0,0-1.4-3.1-6-11.4S58.9,24.5,48,24.5s-23.4,2-28,10.4c-4.6,8.3-6,11.4-6,11.4l3.2-16.1C17.2,30.2,17.1,21.5,23,15.7z"/>
<path class="st0" d="M70.4,72.8l-12.3-7.7l-4.6,2.1l8.7,8.5c0,0,2.9-0.4,4.3-0.9C67.9,74.2,70.4,72.8,70.4,72.8z"/>
<path class="st0" d="M47,66.8l-12.5,8.4c0,0-1.7-0.8-2.2-1c-0.6-0.3-4.7-2.6-4.7-2.6l5.3-9.8L47,66.8z"/>
<path class="st1" d="M47.6,66.8L13.5,80.1"/>
<path class="st2" d="M88.4,45.7C88.2,40,87,32.1,85,25.9c-0.9-3.2-2.8-7.8-6.1-11.3c-0.8-0.9-1.5-1.6-2.3-2c0.1,0.1,0.2,0.2,0.3,0.2
	c-6.4-4.8-17.3-6-26.8-6c-10.2,0-22.2,1.6-28.3,7.3c0.5-0.5,1-1,1.6-1.5c-0.5,0.3-1.1,0.9-1.7,1.6c-1,1-1.9,2.2-2.7,3.3
	c-0.5,0.6-0.9,1.2-1.1,1.5c-1.9,3-3.4,7.8-4.5,13l-0.3,0.8c0,0.2,0,0.5,0,0.8c-0.8,4.3-1.3,8.6-1.5,12c-0.4,9.7-0.5,15.6,1,34.2
	c0.1,0.4,0.6,0.5,0.9,0.2l17.2-6.7v0.1c1.1,0.9,7.2,3.9,15.7,4.6c1.3,0.2,2.4,0.3,3.6,0.2c8-0.5,17.4-4.3,19.3-4.8v-0.1L86.5,80
	c0.3,0.3,0.8,0.2,0.9-0.2C88.9,61.3,88.8,55.4,88.4,45.7z M22.1,32.5c5-7.7,17.3-9.7,28-9.7s22.8,1.9,27.9,9.4
	c-6,12.7-19.2,28.9-26.1,34.4H52l-0.2,0.1c0,0-0.2,0.1-0.4,0.3c-0.5,0-0.9,0.1-1.4,0.1c-0.8,0-1.7-0.1-2.6-0.2l0.2-0.1
	C40.7,61.3,28,45.1,22.1,32.5z"/>
<polygon class="st0" points="13.2,80.5 34.2,75.4 27.6,65.8 "/>
<polygon class="st0" points="87.5,80 62.2,75.7 71.1,60.2 81.1,66.6 "/>
<path class="st0" d="M70.4,72.8l-12.3-7.7l-4.6,2.1l8.7,8.5c0,0,2.9-0.4,4.3-0.9C67.9,74.2,70.4,72.8,70.4,72.8z"/>
<path class="st3" d="M52.4,68.2c-0.8,0.6-3.5,2.6-4.4,3.2c-0.4,0.3-0.5,0.8-0.5,2.4v0.1v4.3"/>
<path class="st0" d="M47,66.8l-12.5,8.4c0,0-1.7-0.8-2.2-1c-0.6-0.3-4.7-2.6-4.7-2.6l5.3-9.8L47,66.8z"/>
<path class="st4" d="M30.7,73.5c1.3,1,9,4.8,19.3,4.8c7.3,0,17.7-4.6,19.1-5.6L66,62.3c-1.3,1-10,4.8-16,4.8s-14.6-3.8-16-4.8
	L30.7,73.5z"/>
<path class="st4" d="M69.3,73.5L66,62.3l-14.2,4.4c0,0-3.4,2.6-4.5,3.3C46,70.8,46,72.2,46,73.9c0,1.2,0,3.8,0,4.2"/>
<circle class="st4" cx="50.7" cy="73.4" r="2.1"/>
<g>
	<path class="st1" d="M76.9,12.8c-6.4-4.8-17.3-6-26.8-6c-9.3,0-20,1.3-26.4,5.8"/>
	<path class="st4" d="M22.1,32.5c5-7.7,17.3-9.7,28-9.7s22.8,1.9,27.9,9.4"/>
</g>
<path class="st3" d="M50,8.8c-12.9,0-22.5,2.4-27,6.8c-5,4.9-6.6,12.8-6.8,14.2l0.6,7.6c0.8-1.5,1.8-3.2,2.9-5.3
	C24,24.7,34.4,20.8,50,20.8s26.1,3.9,30.3,11.4c1.2,2.1,2.1,3.8,2.9,5.3l0.6-7.6c-0.2-1.4-1.8-9.3-6.8-14.2
	C72.5,11.2,62.9,8.8,50,8.8z"/>
<path class="st1" d="M79.3,15.6c1.6,2.5,2.2,5.7,1.3,9.5C77.6,38,60.2,60,51.9,66.6l34.6,13.5c0.3,0.3,0.8,0.2,0.9-0.2
	c1.5-18.6,1.4-24.5,1-34.2c-0.3-8.1-2.7-20.9-6.3-26.6c-0.8-1.3-2.5-4.6-5.2-6.3"/>
<path class="st3" d="M86.9,35.8c0.2,9.6-0.1,26.2-1.4,41.8L55.7,65.9c8.9-8.4,24-27.9,26.9-40.2c0.1-0.4,0.2-0.8,0.2-1.1
	c0.1-2.8-0.7-5.4-0.7-5.4"/>
<path class="st1" d="M20.4,16.7c-1.2,2.4-1.8,5-1,8.4c3,12.8,19.9,35.1,28.2,41.7L13.5,80.1c-0.3,0.3-0.8,0.2-0.9-0.2
	c-1.5-18.6-1.4-24.5-1-34.2c0.3-8.1,2.7-20.9,6.3-26.6c0.8-1.3,4.2-5.4,5.8-6.5"/>
<path class="st3" d="M13,37.2c-0.1,9.8,0.3,25.6,1.5,40.4l29.8-11.7c-8.9-8.4-24-27.9-26.9-40.2c-0.1-0.4-0.2-0.8-0.2-1.1
	c-0.1-2.8,0.7-5.4,0.7-5.4"/>
<path class="st3" d="M13.1,32.9"/>
</svg>
