<?xml version="1.0" encoding="utf-8"?>
<!-- Generator: Adobe Illustrator 19.1.0, SVG Export Plug-In . SVG Version: 6.00 Build 0)  -->
<svg version="1.1" id="Layer_2" xmlns="http://www.w3.org/2000/svg" xmlns:xlink="http://www.w3.org/1999/xlink" x="0px" y="0px"
	 viewBox="-165 167 100 100" style="enable-background:new -165 167 100 100;" xml:space="preserve">
<style type="text/css">
	.st0{fill:#C9CACA;}
	.st1{fill:#FFFFFF;stroke:#1C1C1A;stroke-width:0.246;stroke-linejoin:round;stroke-miterlimit:10;}
	.st2{fill:none;stroke:#1C1C1A;stroke-width:0.246;stroke-miterlimit:10;stroke-dasharray:1.8554;}
	.st3{fill:#FFFFFF;}
	.st4{fill:none;stroke:#1C1C1A;stroke-width:0.246;stroke-miterlimit:10;}
	.st5{fill:#FFFFFF;stroke:#1C1C1A;stroke-width:0.246;stroke-miterlimit:10;}
</style>
<g>
	<path class="st0" d="M-90.9,222.5l-23.2,12.9c0,0-0.2,0.1-0.4,0.3l-6.3-0.6l-17.6-17.3l-14.2,6.3c0,8.8,20,23.1,34.3,23.1h3.5
		c14.3,0,34.9-14.2,34.9-23.1L-90.9,222.5z"/>
	<path class="st0" d="M-121.5,239.6l-30.1-1.9c-0.3,0-0.8-0.3-0.8-0.7c0.9-10.5,1.1-13.8,2.2-19.6L-121.5,239.6z"/>
	<path class="st0" d="M-108.9,239.7l30.1-1.9c0.3,0,0.8-0.3,0.8-0.7c-0.9-10.5-1.1-13.8-2.2-19.6L-108.9,239.7z"/>
	<path class="st0" d="M-141.6,183.4c5.9-5.8,14.6-7.4,24.7-7.4c10.1,0,21.9,1.6,27.8,7.4c5.9,5.8,7.3,15.5,7.3,15.5l-1.2,14.7
		c0,0-1.4-3.1-6-11.4c-4.6-8.3-17-10.3-27.9-10.3c-10.8,0-23.3,2-27.9,10.3c-4.6,8.3-6,11.4-6,11.4l2.8-14.7
		C-147.9,199-147.4,189.3-141.6,183.4z"/>
	<path class="st1" d="M-153.2,223c0,8.9,21.3,23.1,35.5,23.1l5.9-0.3l0.4-11.6l-8.7-0.3l-17.6-17.3"/>
	<path class="st2" d="M-117.6,244l4.8-0.2v-7.4c0,0-3,0.1-7.4-0.3c-4.4-0.5-14-3.1-14.1-3.2"/>
	<path class="st3" d="M-86.8,182c-6-5.8-18-7.4-28.3-7.4c-10.3,0-22.3,1.6-28.3,7.4c-6,5.8-7.4,15.5-7.4,15.5l1.2,14.7
		c0,0,1.4-3.1,6.1-11.4c4.7-8.3,17.3-10.3,28.4-10.3c11.1,0,23.7,2,28.4,10.3c4.7,8.3,6.1,11.4,6.1,11.4l1.2-14.7
		C-79.4,197.5-80.8,187.8-86.8,182z"/>
	<path class="st4" d="M-90.1,179.5c-6.5-3.6-16.6-4.9-25-4.9c-8.1,0-18,1.4-24.5,4.6"/>
	<path class="st4" d="M-142.9,199.8c5.2-7.2,17.3-9.2,27.7-9.2c10.5,0,22.7,2.2,27.9,9.5"/>
	<path class="st2" d="M-115.2,176.5c-12.8,0-22.4,2.4-26.9,6.8c-5,4.8-6.5,9.4-6.8,10.8l0.6,10.9c0.8-1.4,1.7-3.2,2.9-5.2
		c4.2-7.4,14.6-11.3,30.2-11.3c15.6,0,26,3.9,30.2,11.3c1.2,2.1,2.1,3.8,2.9,5.2l0.6-10.9c-0.2-1.4-1.8-6-6.8-10.8
		C-92.8,178.9-102.3,176.5-115.2,176.5z"/>
	<path class="st5" d="M-90.1,221.5l-23.2,12.9c0,0-3.5,2.6-4.5,3.2c-1.3,0.8-1.3,2.2-1.3,3.9c0,1.2,0,4.1,0,4.5l5,0.1
		c14.3,0,34.9-14.2,34.9-23.1L-90.1,221.5z"/>
	<path class="st2" d="M-81.6,224.4l-8.2-1.2l-22.5,12.5c-0.7,0.5-3.5,2.6-4.6,3.2c-0.3,0.2-0.3,0.7-0.3,2.1v0.1v4.9"/>
	<polygon class="st0" points="-88.3,235.7 -108.7,231.9 -113.3,233.9 -92.4,238.5 	"/>
	<polygon class="st0" points="-146.2,234.2 -122.2,232.3 -117.6,234.3 -139.8,238.4 	"/>
	<circle class="st4" cx="-113.9" cy="241.1" r="2.1"/>
	<path class="st5" d="M-76.9,213.4c-0.5-8.1-2.5-21-6.1-26.6c-1.2-1.8-3.9-5.7-7.2-7.3c4.5,2.9,7,7.2,5.5,13.4
		c-3,12.8-20.4,34.7-28.7,41.2l34.8,2.7c0.4,0,0.9-0.2,1-0.6C-76.8,224.1-76.5,220.1-76.9,213.4z"/>
	<path class="st2" d="M-77.7,204.4c0.2,3.6-0.6,17.6-1.6,30l-29.1-2.2c8.9-8.8,23-27.3,25.8-39.1c0.4-1.8,0.1-4.7,0.1-5.4"/>
	<path class="st5" d="M-153.1,213.4c0.5-8.1,2.5-21,6.1-26.6c1.2-1.8,2.9-5.5,7.4-7.6c-4.5,2.9-7.2,7.5-5.8,13.7
		c3,12.8,20.4,34.7,28.7,41.2l-34.8,2.7c-0.4,0-0.9-0.2-1-0.6C-153.2,224.1-153.5,220.1-153.1,213.4z"/>
	<path class="st2" d="M-152.3,204.4c-0.2,3.6,0.6,17.6,1.6,30l29.1-2.2c-8.9-8.8-23-27.3-25.8-39.1c-0.4-1.8-0.1-4.7-0.1-5.4"/>
</g>
</svg>
