<?xml version="1.0" encoding="utf-8"?>
<!-- Generator: Adobe Illustrator 19.1.0, SVG Export Plug-In . SVG Version: 6.00 Build 0)  -->
<svg version="1.1" id="Layer_1" xmlns="http://www.w3.org/2000/svg" xmlns:xlink="http://www.w3.org/1999/xlink" x="0px" y="0px"
	 viewBox="0 0 100 100" style="enable-background:new 0 0 100 100;" xml:space="preserve">
<style type="text/css">
	.st0{fill:#C7C8C9;}
	.st1{fill:#FFFFFF;}
	.st2{fill:none;stroke:#010101;stroke-width:0.246;stroke-miterlimit:10;stroke-dasharray:1.8637;}
	.st3{fill:none;stroke:#010101;stroke-width:0.246;stroke-miterlimit:10;}
	.st4{fill:#FFFFFF;stroke:#010101;stroke-width:0.246;stroke-miterlimit:10;}
</style>
<path class="st0" d="M20.5,16.8c5.8-5.8,17.4-7.3,27.3-7.3s21.5,1.5,27.3,7.3c5.8,5.8,7.1,15.3,7.1,15.3L81,46.6c0,0-1.4-3-5.9-11.2
	S58.4,25.2,47.7,25.2s-22.9,2-27.4,10.2s-5.9,11.2-5.9,11.2l-1.2-14.5C13.3,32.1,14.7,22.6,20.5,16.8z"/>
<path class="st1" d="M87.5,43.7c0-9.7-2.1-19-5.7-24.5c-0.9-1.4-2.6-3.7-5.8-5.8c0.1,0.1,0.2,0.1,0.3,0.2c-6.2-4.7-17-6-26.3-6
	c-9.6,0-20.8,1.4-27,6.5c-2.6,1.9-4,3.9-4.8,5.1c-3.6,5.5-5.7,16.2-5.7,24.5c0,12.4-0.8,13.3,1,40.2c0.1,0.3,0.6,0.3,0.9,0.3
	c10.2-1.8,18-5.6,23.5-9.2c2.3,0.8,5.3,1.7,8.2,2.1c0,0.1,0,0.1,0,0.2c1.3,0.2,2.7,0.3,3.9,0.3c3.7,0,8.4-1.2,11.7-2.4
	c5.5,3.8,13.4,7.6,23.9,9c0.3,0,0.8,0,0.9-0.3C88.3,57,87.5,56.1,87.5,43.7z M50,66.5c-0.6,0-1.3,0-2-0.1c0,0,0.1-0.1,0.1-0.1
	C41.3,61,28.4,45.1,22.5,32.6c4.9-7.5,17-9.4,27.5-9.4c10.5,0,22.5,1.9,27.5,9.4C71.6,45,58.7,60.8,51.9,66.2c0,0,0,0,0,0.1l-0.1,0
	c0,0-0.1,0-0.1,0.1C51.1,66.5,50.5,66.5,50,66.5z M77.3,14.5c-0.1-0.1-0.3-0.2-0.4-0.3C77.1,14.3,77.2,14.4,77.3,14.5z"/>
<g>
	<path class="st0" d="M75.7,71.3L66,65.1c0,0-0.8,0.9-2,2.3l-7.3-3c0,0-4.6,1-4.5,2c0.1,1,4.3,9.3,5.2,9.9c0,0.1,0,0.2,0,0.3
		c0.8,1.2,19,8.6,24.7,8.1L75.7,71.3z"/>
	<path class="st0" d="M43.3,64.4l-7.8,3.2c-0.9-1.4-1.6-2.4-1.6-2.4l-9.7,6.2l-6.3,13.1c5.7,0.5,21.5-7.4,22.2-8.5
		c0.1-0.1,0.1-0.2,0-0.4c0.2,0,0.3,0,0.4,0c1.2-0.7,6-7.5,6.6-8.5C47.6,66.2,43.3,64.4,43.3,64.4z"/>
</g>
<path class="st2" d="M50,9.7c-12.6,0-22,2.4-26.5,6.7C18.6,21.2,17,29,16.8,30.3l0.6,7.4c0.8-1.4,1.7-3.1,2.9-5.2
	c4.1-7.3,14.4-11.2,29.7-11.2s25.6,3.9,29.7,11.2c1.1,2,2.1,3.7,2.9,5.2l0.6-7.4c-0.2-1.4-1.8-9.2-6.7-13.9C72,12.1,62.6,9.7,50,9.7
	z"/>
<path class="st3" d="M34.3,73.4c1.3,1,9.8,4.1,15.7,4.1s14.4-3.1,15.7-4.1V61.8c-1.3,1-9.8,4.7-15.7,4.7s-14.4-3.7-15.7-4.7
	C34.3,61.8,34.3,73.4,34.3,73.4z"/>
<path class="st3" d="M65.7,73.5V61.9l-13.9,4.4c0,0-3.4,2.5-4.5,3.2c-1.3,0.8-1.2,2.2-1.2,3.8c0,1.2,0,3.6,0,4"/>
<circle class="st3" cx="50.6" cy="72.8" r="2.1"/>
<path class="st2" d="M52.3,67.7c-0.8,0.6-3.4,2.5-4.3,3.1c-0.4,0.3-0.5,0.8-0.5,2.3v0.1v4.2"/>
<path class="st3" d="M22.5,32.6c4.9-7.5,17-9.4,27.5-9.4c10.5,0,22.5,1.9,27.5,9.4"/>
<path class="st3" d="M77.3,14.5c-0.1-0.1-0.3-0.2-0.4-0.3c-0.2-0.2-0.4-0.4-0.6-0.5c-6.2-4.7-17-6-26.3-6c-9.6,0-20.8,1.4-27,6.5
	c0.3-0.2,0.6-0.5,1-0.7"/>
<path class="st4" d="M79.2,16.8c1.3,2.3,1.7,5.3,0.9,8.8c-3,12.6-20,34.1-28.2,40.6c0,0,10.7,15,33.7,18c0.3,0,0.8,0,0.9-0.3
	c1.8-26.9,1-27.8,1-40.2c0-9.7-2.1-19-5.7-24.5c-0.9-1.4-2.6-3.7-5.8-5.8"/>
<path class="st2" d="M81.7,19.5c0,0,0.9,4,0.5,5.6c-0.1,0.4-0.2,0.9-0.3,1.3c-3,12.5-18.5,32.4-27.1,40.2
	c4.3,3.6,15.1,13.7,29.7,15.7"/>
<path class="st4" d="M20.4,17.5c-1,2.2-1.3,4.9-0.5,8.1c3,12.6,20,34.3,28.2,40.7c0,0-10.9,13.8-33.7,17.9c-0.3,0-0.8,0-0.9-0.3
	c-1.8-26.9-1-27.8-1-40.2c0-8.3,2.1-19,5.7-24.5c0.7-1.2,2.6-3.3,4.8-5.1"/>
<path class="st2" d="M15.4,82.4c-1.8-26.9-1.3-27.8-1-40.2c0.2-10.9,4-22.7,4-22.7s-0.9,4-0.5,5.6c0.1,0.4,0.2,0.9,0.3,1.3
	c3,12.5,27.1,40.2,27.1,40.2C41,70.2,32.5,77.3,15.5,82.3"/>
</svg>
