<?xml version="1.0" encoding="utf-8"?>
<!-- Generator: Adobe Illustrator 19.1.0, SVG Export Plug-In . SVG Version: 6.00 Build 0)  -->
<svg version="1.1" id="Layer_1" xmlns="http://www.w3.org/2000/svg" xmlns:xlink="http://www.w3.org/1999/xlink" x="0px" y="0px"
	 viewBox="0 0 100 100" style="enable-background:new 0 0 100 100;" xml:space="preserve">
<style type="text/css">
	.st0{fill:#C7C8C9;}
	.st1{fill:#FFFFFF;}
	.st2{fill:#FFFFFF;stroke:#010101;stroke-width:0.2481;stroke-miterlimit:10;}
	.st3{fill:none;stroke:#010101;stroke-width:0.2481;stroke-miterlimit:10;}
	.st4{fill:none;stroke:#010101;stroke-width:0.2481;stroke-miterlimit:10;stroke-dasharray:1.8939;}
</style>
<path class="st0" d="M22.5,16.1c5.9-5.8,15.7-7,25.8-7c10,0,21.8,1.5,27.6,7.4c5.9,5.8,7.2,15.4,7.2,15.4L82,46.5
	c0,0-1.4-3-5.9-11.3c-4.6-8.3-16.9-10.3-27.7-10.3s-23.1,2-27.7,10.3s-5.9,11.3-5.9,11.3l1.3-14.8C15.9,31.6,16.7,21.9,22.5,16.1z"
	/>
<path class="st1" d="M88.2,45.8c-0.4-7.3-2.5-19.2-5.6-25.4l0-0.1c0,0,0,0,0,0c-0.3-0.6-0.6-1.2-0.9-1.6c-1.3-2.1-3.9-4.9-5.5-5.8
	c0.2,0.1,0.3,0.3,0.5,0.4c-6.3-4.8-17.2-6.2-26.8-6.2c-10.2,0-22.2,1.5-28.2,7.4c-0.7,0.6-1.3,1.3-1.8,2c-0.6,0.7-1.2,1.5-1.6,2.2
	c-0.3,0.5-0.6,1-0.9,1.6c0,0,0,0,0,0l0,0.1c-0.6,1.1-1.1,2.4-1.6,3.9c-0.4,1.1-0.7,2.2-0.9,3.1c-1.7,6.1-2.8,13.4-3.1,18.5
	c-0.4,9.6,1,10.5,9.7,37.9c0.1,0.4,0.5,0.5,0.9,0.2l9.8-6.7c1.4,1,8.4,3.4,15.1,3.9c0.9,0.1,1.7,0.2,2.5,0.2
	c6.6,0,16.5-3.1,17.8-4.1v-0.1l9.9,6.8c0.4,0.3,0.8,0.2,0.9-0.2C87.2,56.3,88.6,55.4,88.2,45.8z M22.1,32.4C27.2,24.9,39.4,23,50,23
	c10.7,0,22.8,1.9,27.8,9.6C71.9,45,59,60.9,52.1,66.3l-0.2,0.1c-0.7,0.1-1.4,0.1-2.1,0.1c-0.6,0-1.2,0-1.8-0.1l0,0
	C41.1,61,28,45,22.1,32.4z"/>
<polygon class="st0" points="77.2,84.3 61.9,79.4 69.6,60.6 79.4,66.8 "/>
<path class="st0" d="M74.7,74l-18-9.1l-3.9,1.4l9,13c0,0,2.6-0.7,3.8-1.2C66.5,77.7,74.7,74,74.7,74z"/>
<polygon class="st0" points="22,84.3 34.9,78.3 37.2,74.1 27.9,65.8 "/>
<path class="st0" d="M47.2,66.8L34.8,78.2c0,0-0.8-0.3-1.5-0.6c-0.7-0.3-1.8-0.8-1.8-0.8l1.7-15L47.2,66.8z"/>
<path class="st2" d="M76.7,13.3c-6.3-4.8-17.2-6.2-26.8-6.2c-10.2,0-22.2,1.5-28.2,7.4"/>
<path class="st3" d="M22.1,32.4C27.2,24.9,39.4,23,50,23c10.7,0,22.8,1.9,27.8,9.6"/>
<path class="st2" d="M23.8,12.9"/>
<path class="st3" d="M32.1,77.1c1.3,1,10.2,4.1,17.8,4.1c5.9,0,16.5-3.1,17.8-4.1V62c-1.3,1-11.9,4.5-17.9,4.5
	C44,66.5,33.4,63,32.1,62V77.1z"/>
<path class="st3" d="M67.7,77.2V62l-15.9,4.4c0,0-3.5,2.6-4.5,3.2C46,70.5,46,71.9,46,73.5c0,1.2,0,7,0,7.4"/>
<circle class="st2" cx="50.6" cy="73.2" r="2.1"/>
<circle class="st2" cx="50.6" cy="78.1" r="2.1"/>
<path class="st4" d="M52.4,67.9c-0.8,0.6-3.5,2.5-4.4,3.1c-0.4,0.3-0.5,0.8-0.5,2.3v0.1v6.9"/>
<path class="st4" d="M50,9.2c-12.8,0-22.3,2.4-26.8,6.8c-5,4.8-6.5,12.7-6.7,14.1l0.6,7.5c0.8-1.4,1.7-3.2,2.9-5.2
	C24.1,24.9,34.5,21,50,21s25.8,3.9,30,11.3c1.2,2,2.1,3.8,2.9,5.2l0.6-7.5c-0.2-1.4-1.8-9.3-6.7-14.1C72.2,11.6,62.7,9.2,50,9.2z"/>
<path class="st2" d="M76.2,12.9c1.6,0.9,4.2,3.7,5.5,5.8c3.6,5.6,6.1,19.1,6.5,27.1c0.4,9.6-1,10.5-9.7,37.9
	c-0.1,0.4-0.5,0.5-0.9,0.2L52,66.4c8.3-6.5,25.5-28.3,28.5-41c0.8-3.6,0.3-6.6-1.1-9"/>
<path class="st4" d="M82.6,20.3c0,0,0.3,3.1,0.1,4.5c-0.1,0.4-0.1,0.7-0.2,1.1c-3,12.5-18.4,32.3-27.1,40.3L76.9,81
	c8.9-24.5,10-28.7,11.1-37.9"/>
<path class="st2" d="M23.8,12.9c-1.6,0.9-4.2,3.7-5.5,5.8c-3.6,5.6-6.1,19.1-6.5,27.1c-0.4,9.6,1,10.5,9.7,37.9
	c0.1,0.4,0.5,0.5,0.9,0.2L48,66.4c-8.3-6.5-25.5-28.3-28.5-41c-0.9-3.7-0.3-6.7,1.2-9.1"/>
<path class="st4" d="M17.4,20.3c0,0-0.3,3.1-0.1,4.5c0.1,0.4,0.1,0.7,0.2,1.1c3,12.5,18.4,32.3,27.1,40.3L23.1,81
	c-8.9-24.5-10-28.7-11.1-37.9"/>
</svg>
