<?xml version="1.0" encoding="utf-8"?>
<!-- Generator: Adobe Illustrator 19.1.0, SVG Export Plug-In . SVG Version: 6.00 Build 0)  -->
<svg version="1.1" id="Layer_1" xmlns="http://www.w3.org/2000/svg" xmlns:xlink="http://www.w3.org/1999/xlink" x="0px" y="0px"
	 viewBox="0 0 100 100" style="enable-background:new 0 0 100 100;" xml:space="preserve">
<style type="text/css">
	.st0{fill:#C7C8C9;}
	.st1{fill:#FFFFFF;}
	.st2{fill:none;stroke:#010101;stroke-width:0.25;stroke-miterlimit:10;}
	.st3{fill:none;stroke:#010101;stroke-width:0.25;stroke-miterlimit:10;stroke-dasharray:1.9148;}
	.st4{fill:none;stroke:#010101;stroke-width:0.25;stroke-miterlimit:10;stroke-dasharray:1.9086;}
	.st5{fill:#FFFFFF;stroke:#010101;stroke-width:0.25;stroke-miterlimit:10;}
</style>
<path class="st0" d="M22.3,15.9c5.9-5.9,15.9-7.1,26-7.1s21.9,1.6,27.8,7.4c5.9,5.9,7.3,15.5,7.3,15.5l-1.2,14.8c0,0-1.4-3.1-6-11.4
	s-17-10.3-27.9-10.3s-23.3,2-27.9,10.3s-6,11.4-6,11.4l1.3-15C15.7,31.6,16.4,21.8,22.3,15.9z"/>
<path class="st1" d="M88.5,45.9c-0.3-8.1-2.9-21.7-6.5-27.3c-1.3-2.1-3.7-4.6-5.3-5.6C70.3,8.3,59.4,7,50,7
	c-9.3,0-20.1,1.3-26.5,5.9c-1.6,0.9-4.1,3.6-5.5,5.7c-3.6,5.6-6.2,19.2-6.5,27.3c-0.4,9.7,1.1,10.6,9.8,38.2
	c0.1,0.4,0.6,0.5,0.9,0.2l12-8.2c2.9,1.2,7.8,2.6,12,3.1v0.2l0.1-0.1c0.9,0.1,1.7,0.1,2.5,0.1c0,0,0,0,0.1,0c0,0,0,0,0,0
	c5.5,0,13.1-2.5,16.1-3.9l12.8,8.8c0.4,0.3,0.8,0.2,0.9-0.2C87.4,56.5,88.9,55.6,88.5,45.9z M22,32.6c5-7.7,17.3-9.6,28-9.6
	s23,1.9,28,9.6C72.1,45,59.3,60.8,52.3,66.5l-0.8,0.3c-0.9,0.1-1.8,0.2-2.7,0.2c-0.3,0-0.7,0-1,0l0.2-0.2C41.1,61.2,28,45.2,22,32.6
	z"/>
<polygon class="st0" points="21.8,84.7 35.8,76.8 25.8,66.1 "/>
<polygon class="st0" points="78.4,84.6 63.8,76 69.7,60.8 79.6,67.1 "/>
<path class="st0" d="M74.9,74.2L56.7,65l-3.9,1.4l11,9.6c0,0,4.7,2.8,5.9,2.3C70.7,78,74.9,74.2,74.9,74.2z"/>
<path class="st0" d="M47.2,67l-11.4,9.8c0,0,0.7,0.3,0,0c-0.7-0.3-4.5,0.4-4.5,0.4L33,62L47.2,67z"/>
<path class="st2" d="M76.4,12.8c0.1,0,0.2,0.1,0.3,0.2C70.3,8.3,59.4,7,50,7c-9.3,0-20.1,1.3-26.5,5.9c0,0,0.1-0.1,0.1-0.1"/>
<path class="st2" d="M22,32.6c5-7.7,17.3-9.6,28-9.6s23,1.9,28,9.6"/>
<path class="st2" d="M31.6,74.9c1.4,1.1,10.8,4.5,17.2,4.5c6.5,0,15.8-3.4,17.2-4.5V62.1c-1.4,1.1-10.8,4.8-17.2,4.8
	c-6.5,0-15.8-3.7-17.2-4.8C31.6,62.1,31.6,74.9,31.6,74.9z"/>
<path class="st2" d="M66.1,74.9V62.1l-15.2,4.8c0,0-3.8,2.8-4.9,3.5c-1.4,0.9-1.4,2.4-1.4,4.2c0,1.3,0,4,0,4.4"/>
<path class="st3" d="M51.5,68.6c-0.9,0.6-3.8,2.8-4.8,3.4c-0.4,0.3-0.5,0.9-0.5,2.6v0.1v4.7"/>
<circle class="st2" cx="49.6" cy="74.1" r="2.3"/>
<path class="st4" d="M50,9c-12.9,0-22.4,2.4-27,6.8c-5,4.9-6.6,12.8-6.8,14.2l0.6,7.5c0.8-1.5,1.8-3.2,2.9-5.2
	c4.2-7.4,14.7-11.4,30.2-11.4c15.6,0,26,3.9,30.2,11.4c1.2,2.1,2.1,3.8,2.9,5.2l0.6-7.5c-0.2-1.4-1.8-9.3-6.8-14.2
	C72.4,11.4,62.8,9,50,9z"/>
<path class="st5" d="M76.4,12.8c1.6,0.8,4.2,3.6,5.6,5.8c3.6,5.6,6.2,19.2,6.5,27.3c0.4,9.7-1.1,10.6-9.8,38.2
	c-0.1,0.4-0.5,0.5-0.9,0.2L52,66.7c8.3-6.6,25.7-28.5,28.7-41.3c0.9-3.8,0.3-6.9-1.3-9.4"/>
<path class="st4" d="M82.8,20.1c0,0,0.3,3.1,0.1,4.5c-0.1,0.4-0.1,0.7-0.2,1.1c-3,12.6-18.6,32.6-27.4,40.6l21.8,14.9
	C86,56.6,87.2,52.2,88.3,43"/>
<path class="st5" d="M23.6,12.8c-1.6,0.8-4.2,3.6-5.6,5.8c-3.6,5.6-6.2,19.2-6.5,27.3c-0.4,9.7,1.1,10.6,9.8,38.2
	c0.1,0.4,0.6,0.5,0.9,0.2L48,66.7c-8.3-6.6-25.7-28.5-28.7-41.3c-0.9-3.8-0.4-6.9,1.2-9.3"/>
<path class="st4" d="M17.2,20.1c0,0-0.3,3.1-0.1,4.5c0.1,0.4,0.1,0.7,0.2,1.1c3,12.6,18.6,32.6,27.4,40.6L22.9,81.4
	c-8.9-24.6-10.1-29-11.1-38.2"/>
</svg>
