<?xml version="1.0" encoding="utf-8"?>
<!-- Generator: Adobe Illustrator 19.1.0, SVG Export Plug-In . SVG Version: 6.00 Build 0)  -->
<svg version="1.1" id="Layer_1" xmlns="http://www.w3.org/2000/svg" xmlns:xlink="http://www.w3.org/1999/xlink" x="0px" y="0px"
	 viewBox="0 0 100 100" style="enable-background:new 0 0 100 100;" xml:space="preserve">
<style type="text/css">
	.st0{fill:#C7C8C9;}
	.st1{fill:#FFFFFF;}
	.st2{fill:none;stroke:#010101;stroke-width:0.2387;stroke-miterlimit:10;stroke-dasharray:1.8253;}
	.st3{fill:none;stroke:#010101;stroke-width:0.2387;stroke-miterlimit:10;}
	.st4{fill:#FFFFFF;stroke:#010101;stroke-width:0.2387;stroke-miterlimit:10;}
</style>
<path class="st0" d="M20.4,16.6c5.9-5.8,17.6-7.4,27.7-7.4s21.8,1.5,27.7,7.4c5.9,5.8,7.2,15.5,7.2,15.5l-1.2,14.7
	c0,0-1.4-3.1-6-11.3C71.2,27.2,58.9,25.2,48,25.2c-10.8,0-23.2,2-27.8,10.3C15.8,43.7,13,46.7,13,46.7l2.6-13.9
	C15.6,32.9,14.6,22.4,20.4,16.6z"/>
<path class="st1" d="M82.2,18.4c-1.3-1.9-4-5.2-10.5-7.8c0.9,0.4,1.7,0.8,2.5,1.3C67.7,8.4,58.3,7.3,50,7.3c-8.5,0-18.1,1-24.6,4.7
	c-3.7,2-5.7,4.1-6.8,5.7l0,0c0,0,0,0,0,0.1c-0.2,0.3-0.3,0.5-0.5,0.7c-3.7,5.5-4.7,19.7-4.9,27.7C13,57,26.7,93.4,26.7,93.4
	c0.1,0.4,0.6,0.5,0.9,0.2l13.2-16.8c2.8,0.8,6,1.5,8.7,1.5c0.1,0,0.3,0,0.4,0c0,0,0,0,0,0c0,0,0,0,0.1,0c2.9,0,6.4-0.7,9.5-1.6
	l13.2,16.8c0.3,0.3,0.8,0.2,0.9-0.2c0,0,13.7-36.4,13.5-47.2C86.9,38.1,85.9,23.9,82.2,18.4z M22.1,32.9c5-7.8,17.2-9.7,27.9-9.7
	c10.8,0,23.1,1.9,28,9.9c-6.4,13.8-20.5,30.7-26.4,33.6l0,0c-0.6,0-1.1,0.1-1.6,0.1c-0.5,0-0.9,0-1.4-0.1l0,0
	C42.6,63.7,28.4,46.7,22.1,32.9z"/>
<polygon class="st0" points="72.3,93.6 54.8,77.9 70.4,61.9 73.4,78 "/>
<path class="st0" d="M73.4,73.3l-15.9-6.5L52.1,67l2.7,10.7c1.4-0.3,1.4-0.3,2.2-0.5C57.3,77.2,73.4,73.3,73.4,73.3z"/>
<polygon class="st0" points="27.6,93.6 42.5,77.4 30.9,74 "/>
<polygon class="st0" points="46.9,66.8 42.6,77.2 31.3,74.2 36.6,63.8 "/>
<path class="st2" d="M77,15.9C72.5,11.4,62.9,9,50,9s-22.4,2.4-27,6.9c-5.1,4.9-6.6,13.1-6.9,14.3l0.7,8.5c0.9-1.6,2-3.6,3.4-6.1
	c4.1-7.3,14.4-11.1,29.8-11.1s25.7,3.9,29.8,11.1c1.4,2.5,2.5,4.5,3.4,6.1l0.7-8.5C83.7,28.9,82.1,20.8,77,15.9z"/>
<path class="st3" d="M34.1,74.2c1.3,1,9.9,4.1,15.9,4.1c5.9,0,14.5-3.1,15.9-4.1V62.4c-1.3,1-9.9,4.4-15.9,4.4
	c-5.9,0-14.5-3.4-15.9-4.4V74.2z"/>
<path class="st3" d="M65.8,74.2V62.4l-14,4.4c0,0-3.5,2.6-4.5,3.2C46,70.8,46,72.2,46,73.9c0,1.2,0,3.7,0,4"/>
<path class="st2" d="M52.4,68.3c-0.8,0.6-3.5,2.5-4.4,3.1c-0.4,0.3-0.5,0.8-0.5,2.3v0.1v4.3"/>
<path class="st4" d="M52.8,73.5c0,1.2-1,2.1-2.1,2.1s-2.1-1-2.1-2.1c0-1.2,1-2.1,2.1-2.1S52.8,72.3,52.8,73.5z"/>
<path class="st3" d="M22.1,32.9c5-7.8,17.2-9.7,27.9-9.7c10.8,0,23.1,1.9,28,9.9"/>
<path class="st3" d="M74.2,11.9C67.7,8.4,58.3,7.3,50,7.3c-7.3,0-15.3,0.8-21.5,3.3"/>
<path class="st4" d="M77.8,14.5c2.8,2.7,4.1,6.4,2.9,11.2c-3.4,14.2-22,37.5-29.1,41l21.1,26.8c0.3,0.3,0.8,0.2,0.9-0.2
	c0,0,13.7-36.4,13.5-47.2c-0.2-8-1.2-22.2-4.9-27.7c-1.3-1.9-4-5.2-10.5-7.8"/>
<path class="st2" d="M81.6,17.7c0,0,1.9,4.7,0.7,8.4c-2.1,6.4-6.1,16.1-13,25.5C64,58.7,58.9,64.9,55,67.6l17.7,22.6
	c2.8-7.1,14-34.1,13.9-48.4"/>
<path class="st4" d="M22.1,14.8c-2.5,2.7-3.7,6.2-2.6,10.9c3.4,14.2,22,37.5,29.1,41l-21,26.9c-0.3,0.3-0.8,0.2-0.9-0.2
	c0,0-13.7-36.4-13.5-47.2c0.2-8,1.2-22.2,4.9-27.7c1.2-2,3.9-5.3,10.4-7.9"/>
<path class="st2" d="M18.6,17.7c0,0-1.9,4.7-0.7,8.4c2.1,6.4,6.1,16.1,13,25.5c5.3,7.1,10.4,13.3,14.3,16L27.5,90.2
	c-2.8-7.1-14-34.1-13.9-48.4"/>
<circle class="st4" cx="72.3" cy="88.2" r="2.1"/>
<circle class="st4" cx="27.8" cy="88.2" r="2.1"/>
</svg>
