<?xml version="1.0" encoding="utf-8"?>
<!-- Generator: Adobe Illustrator 19.1.0, SVG Export Plug-In . SVG Version: 6.00 Build 0)  -->
<svg version="1.1" id="Layer_1" xmlns="http://www.w3.org/2000/svg" xmlns:xlink="http://www.w3.org/1999/xlink" x="0px" y="0px"
	 viewBox="0 0 100 100" style="enable-background:new 0 0 100 100;" xml:space="preserve">
<style type="text/css">
	.st0{fill:#C7C8C9;}
	.st1{fill:#FFFFFF;}
	.st2{fill:#FFFFFF;stroke:#010101;stroke-width:0.2298;stroke-miterlimit:10;}
	.st3{fill:none;stroke:#010101;stroke-width:0.2298;stroke-miterlimit:10;}
	.st4{fill:none;stroke:#010101;stroke-width:0.2298;stroke-miterlimit:10;stroke-dasharray:1.7598;}
	.st5{fill:none;stroke:#010101;stroke-width:0.2298;stroke-miterlimit:10;stroke-dasharray:1.7285,1.7285;}
	.st6{fill:none;stroke:#010101;stroke-width:0.2298;stroke-miterlimit:10;stroke-dasharray:1.7622,1.7622;}
	.st7{fill:none;stroke:#010101;stroke-width:0.2298;stroke-miterlimit:10;stroke-dasharray:1.7022,1.7022;}
	.st8{fill:none;stroke:#010101;stroke-width:0.2298;stroke-miterlimit:10;stroke-dasharray:1.7533,1.7533;}
	.st9{fill:none;stroke:#010101;stroke-width:0.2298;stroke-miterlimit:10;stroke-dasharray:1.7558,1.7558;}
	.st10{fill:none;stroke:#010101;stroke-width:0.2298;stroke-miterlimit:10;stroke-dasharray:1.7334,1.7334;}
</style>
<path class="st0" d="M75.6,16.2C69.8,10.3,58,8.8,48,8.8s-20.6,2.1-26.3,8.1c-3.8,4-6,13.6-6,13.6l-0.2,14.3c0,0,0.2-1.5,4.8-9.8
	c4.5-8.3,16.9-10.3,27.7-10.3s23.2,2,27.6,10.3c4.6,8.3,6,11.3,6,11.3l1.2-14.7C82.8,31.6,81.5,22,75.6,16.2z"/>
<path class="st1" d="M85.4,32.6c0-0.2,0-0.5,0-0.7l-0.2-0.7c-0.5-4.1-1.5-7.8-2.7-11c-0.2-1.1-0.7-1.8-1.1-2.4c-0.9-1.5-2.5-3.3-5-5
	c-6.4-4.6-17.1-6-26.5-6c-10.2,0-22.2,1.5-28.2,7.4c-0.2,0.2-0.3,0.3-0.5,0.5c-1.2,1.1-2.1,2.2-2.6,3.1c-0.4,0.5-0.9,1.3-1.1,2.4
	c-0.2,0.4-0.3,0.9-0.5,1.3c-0.8,2.2-1.3,4.2-1.5,5.6c-0.3,1.3-0.5,2.6-0.7,4l-0.2,0.7c0,0.2,0,0.5,0,0.7c-0.2,2.1-0.3,4.2-0.3,6.5
	c0,9.9,3.8,16.9,15.8,44.2c0.2,0.4,0.6,0.5,0.9,0.2l7.9-7.8c3.3,1.1,7.5,2.1,10.9,2.1c0,0,0,0,0.1,0c0,0,0,0,0,0
	c3.5,0,7.8-1.1,11.1-2.1l8,7.8c0.3,0.3,0.7,0.2,0.9-0.2C81.9,56,85.7,49,85.7,39.1C85.7,36.8,85.6,34.7,85.4,32.6z M22,32.3
	c5-7.7,17.2-9.6,27.9-9.6c10.8,0,23.1,1.9,28,9.8C71.7,46.2,57.8,63,51.7,66.2c-0.7,0.1-1.3,0.1-1.9,0.1c-0.5,0-0.9,0-1.4-0.1
	C42.3,63.1,28.3,46.1,22,32.3z"/>
<polygon class="st0" points="69.9,71.4 69.9,71.3 70.3,61.4 63.9,68.9 57.4,66.2 52,66.5 57.6,76.2 57.4,76.5 69,83.5 69.8,73 
	72.2,72.3 "/>
<polygon class="st0" points="31,83.5 40.7,76.3 30.9,73.4 "/>
<polygon class="st0" points="31.3,73.3 40.8,76.2 46.8,66.3 36.5,63.3 "/>
<polygon class="st0" points="69,83.5 57.4,76.5 70.3,61.4 69.9,71.3 "/>
<path class="st2" d="M34,73.7c1.3,1,9.9,4.1,15.8,4.1s14.5-3.1,15.8-4.1V61.9c-1.3,1-9.9,4.4-15.8,4.4S35.3,62.9,34,61.9V73.7z"/>
<path class="st3" d="M65.7,73.7V61.9l-14,4.4c0,0-3.5,2.6-4.5,3.2c-1.3,0.8-1.2,2.2-1.2,3.9c0,1.2,0,3.7,0,4"/>
<polygon class="st0" points="72.2,72.3 57.4,66.2 52,66.5 57.8,76.5 "/>
<path class="st4" d="M52.3,67.8c-0.8,0.6-3.5,2.5-4.4,3.1c-0.4,0.3-0.5,0.8-0.5,2.3v0.1v4.3"/>
<polygon class="st0" points="46.8,66.3 40.8,76.2 31.3,73.3 36.5,63.3 "/>
<circle class="st2" cx="50.6" cy="73" r="2.1"/>
<g>
	<path class="st3" d="M22,32.3c5-7.7,17.2-9.6,27.9-9.6c10.8,0,23.1,1.9,28,9.8"/>
	<path class="st2" d="M72,10.4c-6.3-2.6-13.4-3.2-22.1-3.6c-14-0.6-23.5,4.1-23.5,4.1"/>
</g>
<path class="st4" d="M76.9,15.4c-4.6-4.4-14.1-6.9-27-6.9c-12.8,0-22.4,2.4-27,6.9c-5.1,4.9-6.6,13-6.9,14.3l0.7,8.5
	c0.9-1.6,2-3.6,3.4-6.1C24.2,24.8,34.5,21,49.9,21s25.7,3.9,29.8,11.1c1.4,2.5,2.5,4.5,3.4,6.1l0.7-8.5C83.5,28.5,82,20.4,76.9,15.4
	z"/>
<path class="st2" d="M78.6,15.2c2,2.6,2.9,5.9,1.9,10.1c-3.4,14.2-21.9,37.5-29,41L69,83.5c0.3,0.3,0.7,0.2,0.9-0.2
	C81.9,56,85.7,49,85.7,39.1c0-8-1.4-14.5-3.6-19.9c-0.8-2.1-4-6.4-10.6-9"/>
<path class="st4" d="M85.4,31.9"/>
<g>
	<g>
		<path class="st3" d="M82.4,24.1c-0.1,0.3-0.1,0.6-0.2,0.9"/>
		<path class="st5" d="M81.6,26.6c-2.3,6.4-6.3,15.2-12.9,24.2c-4.8,6.4-9.6,11.7-13.3,14.8"/>
		<path class="st3" d="M54.7,66.2c-0.2,0.2-0.5,0.4-0.7,0.5l0.6,0.6"/>
		<line class="st6" x1="55.9" y1="68.5" x2="67.8" y2="80.3"/>
		<path class="st3" d="M68.5,80.9l0.6,0.6c0.1-0.3,0.2-0.5,0.3-0.8"/>
		<path class="st7" d="M70.1,79.1c9-21.2,13.2-27.4,14.7-40.6"/>
		<path class="st3" d="M84.9,37.6c0-0.3,0.1-0.6,0.1-0.9"/>
	</g>
</g>
<path class="st4" d="M81.3,17.7"/>
<circle class="st2" cx="68.6" cy="78.2" r="2.1"/>
<path class="st2" d="M24.1,12.7c-3.9,2.8-5.9,6.9-4.6,12.6c3.4,14.2,21.9,37.5,29,41L31,83.5c-0.3,0.3-0.7,0.2-0.9-0.2
	C18.1,56,14.3,49,14.3,39.1c0-8,1.4-14.5,3.6-19.9c0.7-1.9,3.3-5.7,8.5-8.3"/>
<g>
	<g>
		<path class="st3" d="M17.5,23.4c0,0.3,0.1,0.6,0.2,0.9"/>
		<path class="st8" d="M18.1,25.9c2.2,6.4,6.3,15.6,13.2,24.9c4.8,6.4,9.6,11.7,13.3,14.8"/>
		<path class="st3" d="M45.3,66.2c0.2,0.2,0.5,0.4,0.7,0.5l-0.6,0.6"/>
		<line class="st9" x1="44.1" y1="68.5" x2="32.2" y2="80.2"/>
		<path class="st3" d="M31.5,80.8l-0.6,0.6c-0.1-0.3-0.2-0.5-0.3-0.8"/>
		<path class="st10" d="M29.9,79C20.7,57.4,16.5,51.4,15,37.6"/>
		<path class="st3" d="M15,36.7c0-0.3-0.1-0.6-0.1-0.9"/>
	</g>
</g>
<path class="st4" d="M18.7,17.7"/>
<circle class="st2" cx="31.5" cy="78.2" r="2.1"/>
</svg>
