<?xml version="1.0" encoding="utf-8"?>
<!-- Generator: Adobe Illustrator 19.1.0, SVG Export Plug-In . SVG Version: 6.00 Build 0)  -->
<svg version="1.1" id="Layer_1" xmlns="http://www.w3.org/2000/svg" xmlns:xlink="http://www.w3.org/1999/xlink" x="0px" y="0px"
	 viewBox="0 0 100 100" style="enable-background:new 0 0 100 100;" xml:space="preserve">
<style type="text/css">
	.st0{fill:#C7C8C9;}
	.st1{fill:#FFFFFF;}
	.st2{fill:none;stroke:#010101;stroke-width:0.2361;stroke-miterlimit:10;}
	.st3{fill:#FFFFFF;stroke:#010101;stroke-width:0.2361;stroke-miterlimit:10;}
	.st4{fill:none;stroke:#010101;stroke-width:0.2361;stroke-miterlimit:10;stroke-dasharray:1.8058;}
</style>
<path class="st0" d="M20.7,16.5c5.8-5.8,17.5-7.3,27.5-7.3s21.6,1.5,27.5,7.3c5.8,5.8,7.2,15.3,7.2,15.3l-1.2,14.6
	c0,0-1.4-3-5.9-11.2C71.1,27,58.8,25,48.1,25s-23,2-27.6,10.2c-4.5,8.2-7.3,11.2-7.3,11.2l2.6-13.8C15.9,32.6,14.8,22.3,20.7,16.5z"
	/>
<path class="st1" d="M81.9,18.3c-1.1-1.6-3.2-4.2-7.8-6.5c0,0,0,0-0.1,0c-0.1-0.1-0.3-0.1-0.4-0.2C67.2,8.3,58.1,7.3,50,7.3
	c-8.6,0-18.4,1.1-24.8,4.9c-4,2.3-6,4.6-7,6.1c-3.6,5.5-4.6,19.5-4.8,27.5c-0.2,10.7,13.4,46.9,13.4,46.9c0.1,0.4,0.6,0.5,0.9,0.2
	l13.1-16.6c2.9,0.8,6.3,1.5,9.1,1.5c2.9,0,6.4-0.7,9.4-1.6l5.5,7l0.3,0.3c0.5,0.8,1.2,1.1,1.8,0.8l1.7,0.1l0.1,2.5
	c0,0.2,0,0.4,0.1,0.7v0.1c0,1.2,0.9,2.1,2.1,2.1s2.1-0.9,2.1-2.1v-0.1c0.1-0.2,0.1-0.4,0.1-0.7l0.4-2.1l2.1,0.1
	c0.3,0.1,0.7-0.1,0.9-0.9l0.1-0.3c4-11.5,10.1-37.9,10.1-37.9C86.5,37.8,85.5,23.8,81.9,18.3z M22.4,32.6c4.9-7.7,17-9.6,27.6-9.6
	c10.7,0,23,1.9,27.8,9.8c-6.3,13.7-20.3,30.6-26.3,33.5l0,0c-0.6,0-1.1,0.1-1.6,0.1c-0.4,0-0.9,0-1.3-0.1l0.1-0.1
	C42.7,63.3,28.6,46.3,22.4,32.6z"/>
<path class="st0" d="M74.2,85.8c0.3,0.1,0.8-0.1,0.9-0.9c3.3-23.4,4.1-28.4,3.8-37.2L55.8,77l7.9,7.3c0.6,0.5,1.1,0.8,1.6,0.8l0,0
	L74.2,85.8z"/>
<path class="st0" d="M73.2,72l-15.7-5.7l-5.4,0.3L55.8,77c0,0,1.5-0.3,2.9-0.7C60,75.9,73.2,72,73.2,72z"/>
<polygon class="st0" points="27.7,92.9 42.6,76.8 31,73.7 "/>
<polygon class="st0" points="46.9,66.3 42.8,76.6 31.7,73.7 36.7,63.4 "/>
<path class="st2" d="M74,81.7l-0.9,5.2c0,1.2-1,2.2-2.2,2.2s-2.2-1-2.2-2.2l-0.3-6"/>
<circle class="st3" cx="70.9" cy="87.7" r="2.1"/>
<polygon class="st3" points="66.3,84.3 75.7,84.9 76.8,71.7 64.9,72.7 "/>
<path class="st4" d="M76.8,15.8C72.3,11.4,62.8,9,50,9s-22.3,2.4-26.8,6.8c-5,4.9-6.6,13-6.8,14.2l0.7,8.5c0.9-1.6,2-3.6,3.3-6
	c4.1-7.2,14.3-11.1,29.6-11.1s25.5,3.8,29.6,11.1c1.4,2.4,2.5,4.4,3.3,6l0.7-8.5C83.4,28.7,81.9,20.7,76.8,15.8z"/>
<path class="st2" d="M34.2,73.7c1.3,1,9.8,4.1,15.7,4.1s14.4-3.1,15.7-4.1"/>
<path class="st2" d="M65.6,62c-1.3,1-9.8,4.4-15.7,4.4S35.5,63,34.2,62"/>
<path class="st2" d="M50,77.7"/>
<path class="st2" d="M65.7,73.6V62l-13.9,4.3c0,0-3.4,2.5-4.5,3.2c-1.3,0.8-1.2,2.2-1.2,3.8c0,1.2,0,3.6,0,4"/>
<path class="st4" d="M52.4,67.8c-0.8,0.6-3.4,2.5-4.4,3.1c-0.4,0.3-0.5,0.8-0.5,2.3v0.1v4.3"/>
<circle class="st3" cx="50.7" cy="72.9" r="2.1"/>
<path class="st4" d="M74.9,83.4c4.2-10.9,9.2-29.1,11.6-40.7"/>
<path class="st2" d="M73.4,11.4c0.1,0,0.2,0.1,0.3,0.1C67.3,8.3,58.1,7.3,50,7.3c-7.6,0-16.1,0.8-22.4,3.6 M22.4,32.6
	c4.9-7.7,17-9.6,27.6-9.6c10.7,0,23,1.9,27.8,9.8 M26.9,11.3C26.9,11.3,26.8,11.3,26.9,11.3C26.8,11.3,26.9,11.3,26.9,11.3z"/>
<path class="st2" d="M73.5,84.8l-0.4,2.1c0,1.2-1,2.2-2.2,2.2s-2.2-1-2.2-2.2l-0.1-2.5"/>
<circle class="st3" cx="70.9" cy="87.7" r="2.1"/>
<path class="st3" d="M73.6,11.5c5,2.4,7.1,5.1,8.3,6.8c3.6,5.5,4.6,19.5,4.8,27.5c0,0-6.1,26.4-10.1,37.9L76.5,84
	c-0.4,1.2-1,1.1-1.3,0.5c-0.2-0.4-3-6.7-3-6.7c-0.2-0.4-0.6-0.4-0.9,0L67.4,84c-0.6,0.7-1.6,0.5-2.3-0.5l-0.3-0.3L51.5,66.3
	c7.1-3.5,25.5-26.6,28.9-40.7c1.2-5-0.2-8.8-3.2-11.5"/>
<path class="st4" d="M74.9,83.4c4.2-10.9,9.2-29.1,11.6-40.7"/>
<path class="st4" d="M81.3,17.6c0,0,1.9,4.7,0.7,8.4c-2.1,6.4-6,16-12.9,25.3c-5.2,7.1-10.3,13.2-14.2,15.9l12.6,16"/>
<path class="st3" d="M23.2,13.8c-3.1,2.8-4.6,6.5-3.4,11.7c3.4,14.1,21.8,37.3,28.9,40.7l-21,26.7c-0.3,0.3-0.8,0.2-0.9-0.2
	c0,0-13.6-36.2-13.4-46.9c0.2-8,1.2-22,4.8-27.5c1.2-1.8,3.7-4.7,9.4-7.3"/>
<path class="st4" d="M18.9,17.6c0,0-1.9,4.7-0.7,8.4c2.1,6.4,6,16,12.9,25.3c5.2,7.1,10.3,13.2,14.2,15.9L27.7,89.6
	c-2.8-7.1-13.9-33.8-13.8-48.1"/>
</svg>
