<?xml version="1.0" encoding="utf-8"?>
<!-- Generator: Adobe Illustrator 19.1.0, SVG Export Plug-In . SVG Version: 6.00 Build 0)  -->
<svg version="1.1" id="Layer_1" xmlns="http://www.w3.org/2000/svg" xmlns:xlink="http://www.w3.org/1999/xlink" x="0px" y="0px"
	 viewBox="0 0 100 100" style="enable-background:new 0 0 100 100;" xml:space="preserve">
<style type="text/css">
	.st0{fill:#C7C8C9;}
	.st1{fill:#FFFFFF;}
	.st2{fill:none;stroke:#010101;stroke-width:0.2385;stroke-miterlimit:10;stroke-dasharray:1.8238;}
	.st3{fill:none;stroke:#010101;stroke-width:0.2385;stroke-miterlimit:10;}
	.st4{fill:#FFFFFF;stroke:#010101;stroke-width:0.2385;stroke-miterlimit:10;}
</style>
<path class="st0" d="M20.5,16.4C26.4,10.6,38.1,9,48.1,9s21.8,1.5,27.6,7.4c5.9,5.8,7.2,15.4,7.2,15.4l-1.2,14.7c0,0-1.4-3-6-11.3
	C71.3,27,58.9,24.9,48.1,24.9s-23.2,2-27.7,10.3C15.8,43.5,13,46.5,13,46.5l2.6-13.9C15.6,32.7,14.6,22.3,20.5,16.4z"/>
<path class="st1" d="M82.2,18.2c-1.4-1.9-4-5.1-10.6-7.8c0.3,0.1,0.5,0.2,0.8,0.4C66.1,8,57.6,7.1,50,7.1c-8.9,0-19.2,1.1-25.6,5.4
	c-0.1,0.1-0.2,0.1-0.2,0.2c-3.5,2.1-5.2,4.2-6.1,5.6c-3.6,5.6-4.6,19.7-4.8,27.7C13,56.7,39,93.1,39,93.1c0.1,0.4,0.6,0.5,0.9,0.2
	l5.2-15.7c1.7,0.3,3.3,0.5,4.8,0.5c0,0,0,0,0.1,0c0,0,0,0,0,0c1.6,0,3.3-0.2,5.1-0.6l5.2,15.8c0.3,0.3,0.8,0.2,0.9-0.2
	c0,0,26-36.4,25.8-47.2C86.8,37.9,85.8,23.8,82.2,18.2z M22.2,32.6c5-7.7,17.2-9.6,27.8-9.6c10.8,0,23,1.9,28,9.8
	c-6.3,13.8-20.4,30.8-26.5,33.7l0,0c-0.5,0-1.1,0.1-1.6,0.1c-0.4,0-0.8,0-1.2,0l0-0.1C42.6,63.5,28.4,46.4,22.2,32.6z"/>
<polygon class="st0" points="39.7,93.3 46.3,78 29.6,61.7 30.3,77.7 "/>
<polygon class="st0" points="60.3,93.3 53.7,78 70.4,61.7 69.7,77.7 "/>
<polygon class="st0" points="73.7,74.3 57.5,66.5 52.1,66.8 53.7,77.7 "/>
<polygon class="st0" points="38.7,76.2 42.5,66.5 47.9,66.8 46.3,77.7 "/>
<path class="st2" d="M77,15.7c-4.6-4.4-14.1-6.9-27-6.9c-12.8,0-22.4,2.4-27,6.9c-5.1,4.9-6.6,13-6.9,14.3l-0.7,8.5
	c0.9-1.6,3.3-3.6,4.7-6.1c4.1-7.3,14.4-11.1,29.8-11.1s25.7,3.9,29.8,11.1c1.4,2.5,2.5,4.5,3.4,6.1l0.7-8.5
	C83.6,28.7,82.1,20.6,77,15.7z"/>
<path class="st3" d="M34.1,74c1.3,1,9.9,4.1,15.8,4.1S64.4,75,65.7,74V62.2c-1.3,1-9.9,4.4-15.8,4.4s-14.5-3.4-15.8-4.4V74z"/>
<path class="st3" d="M50,78.1"/>
<path class="st3" d="M65.8,74V62.2l-14,4.4c0,0-3.5,2.6-4.5,3.2c-1.3,0.8-1.2,2.2-1.2,3.9c0,1.2-0.2,3.6-0.2,4"/>
<path class="st2" d="M48,78v-4.4c0-1.4,0.1-2,0.4-2.2c0.9-0.6,3.5-2.5,4.4-3.1L64,64.8v8.1"/>
<circle class="st4" cx="50.6" cy="73.2" r="2.1"/>
<path class="st3" d="M22.9,13.9"/>
<path class="st3" d="M29.6,9.9"/>
<path class="st3" d="M71.6,10.4C65.4,7.9,57.3,7.1,50,7.1c-7.9,0-11.5,0.2-17.6,2c-0.7,0.2-1.6,0.5-2.7,0.8c0,0-5.3,2.3-6.7,3.5"/>
<path class="st3" d="M22.2,32.6c5-7.7,17.2-9.6,27.8-9.6c10.8,0,23,1.9,28,9.8"/>
<path class="st4" d="M77.8,14.4c2.7,2.7,4,6.3,2.8,11.1c-3.4,14.2-21.9,37.5-29.1,41l8.8,26.8c0.3,0.3,0.8,0.2,0.9-0.2
	c0,0,26-36.4,25.8-47.2c-0.2-8-1.2-22.1-4.8-27.7c-1.4-1.9-4-5.1-10.6-7.8"/>
<path class="st2" d="M82.2,18.5c0,0,0.8,5,0.1,7.7c-1.6,6.6-6.5,15.7-13.4,25.1c-5.3,7.1-11.2,13.5-15,16.3L61,90.3
	c3.9-7.3,25.7-34,25.6-48.4"/>
<path class="st4" d="M22,14.9c-2.4,2.6-3.4,6.1-2.4,10.6C23,39.7,41.5,63,48.7,66.5l-8.8,26.8c-0.3,0.3-0.8,0.2-0.9-0.2
	c0,0-26-36.4-25.8-47.2c0.2-8,1.2-22.1,4.8-27.7c0.8-1.2,2.3-3,4.9-4.8"/>
<path class="st2" d="M17.9,18.5c0,0-0.8,5-0.1,7.7c1.6,6.6,6.5,15.7,13.4,25.1c5.3,7.1,11.2,13.5,15,16.3l-7.1,22.6
	c-3.9-7.3-25.7-34-25.6-48.4"/>
</svg>
