<?xml version="1.0" encoding="utf-8"?>
<!-- Generator: Adobe Illustrator 19.1.0, SVG Export Plug-In . SVG Version: 6.00 Build 0)  -->
<svg version="1.1" id="Layer_1" xmlns="http://www.w3.org/2000/svg" xmlns:xlink="http://www.w3.org/1999/xlink" x="0px" y="0px"
	 viewBox="0 0 100 100" style="enable-background:new 0 0 100 100;" xml:space="preserve">
<style type="text/css">
	.st0{fill:#C7C8C9;}
	.st1{fill:#FFFFFF;}
	.st2{fill:none;stroke:#010101;stroke-width:0.23;stroke-miterlimit:10;stroke-dasharray:1.762;}
	.st3{fill:none;stroke:#010101;stroke-width:0.23;stroke-miterlimit:10;}
	.st4{fill:#FFFFFF;stroke:#010101;stroke-width:0.23;stroke-miterlimit:10;}
</style>
<path class="st0" d="M78.1,69.4c7.4-15.5,7.4-22.7,7.4-30.3c0-7.8-1.4-14-3.6-19.1c-0.9-2.1-4.1-6.3-10.7-8.8
	c6.5,2.7,10.8,7.2,9,14.6c-1.5,14.6-19.4,39.5-30.1,41l11,8.7C65.3,79.2,73.7,78.4,78.1,69.4z"/>
<path class="st0" d="M21.6,17.1C27.3,11.1,38,9,48,9s21.8,1.5,27.7,7.4c5.9,5.8,7.2,15.5,7.2,15.5l-1.2,14.7c0,0-1.4-3.1-6-11.3
	C71.2,26.9,58.8,24.9,48,24.9s-23.2,2-27.8,10.3s-6,11.3-6,11.3l0.8-15C15,31.5,17.9,21.1,21.6,17.1z"/>
<path class="st1" d="M82.4,19.9c-0.9-2.1-4.3-7-10.8-9.6c0.9,0.4,1.7,0.8,2.5,1.3C67.6,8.1,58.2,7,49.9,7c-10.3,0-22.2,1.5-28.2,7.4
	c-0.5,0.4-0.9,0.9-1.3,1.4c-1.5,1.6-2.4,3.2-2.8,4.1c-2.2,5.3-3.4,11.3-3.4,19.4c0,7.9,1.1,17.5,7.4,31.5c4.2,9.5,11.6,9.3,16.3,5.5
	c0.2-0.1,0.3-0.3,0.5-0.4c2.6,0.9,5.9,1.7,9,2.1V78l0-0.1c0.9,0.1,1.7,0.2,2.5,0.2c3.6,0,8.2-1.2,11.6-2.3c0.2,0.2,0.4,0.3,0.6,0.5
	c4.7,3.8,12.1,4,16.3-5.5c6.3-14,7.4-23.6,7.4-31.5C85.8,31.2,84.6,25.2,82.4,19.9z M22,32.6c5-7.7,17.2-9.6,27.9-9.6
	c10.8,0,23.1,1.9,28,9.8c-6.4,13.7-20.4,30.6-26.4,33.6c0,0,0,0,0.1,0.1c-0.6,0.1-1.2,0.1-1.7,0.1c-0.5,0-1,0-1.5-0.1
	c0.1-0.1,0.1-0.1,0.1-0.1C42.5,63.4,28.3,46.4,22,32.6z"/>
<polygon class="st0" points="72,72.5 57.4,66.5 52,66.8 59.7,76.2 "/>
<polygon class="st0" points="47.5,67.2 39.5,76.2 31.5,74 36.5,63.6 "/>
<path class="st0" d="M22.2,72.6c-6.9-14.6-6.9-21.3-6.9-28.5c0-7.3,1.3-13.2,3.4-18c0.2-0.4-1.2,4.8-1.3,5.5
	c-2.9,14.2,1.9,3.6,2.7,0.7c0.5-1.6-0.3-2.9,0.2-0.8c3.2,12.9,19.4,34,26.1,37.1l-8.2,9.6C34.2,81.8,26.3,81.1,22.2,72.6z"/>
<path class="st0" d="M61.3,77.5l-8.2-9.6c6.7-3.1,22.9-24.2,26.1-37.1c1.8-7,7.8,6.8,1.7,4.3c6.1,2.4-0.9-11.6-0.1-9.7
	c2.1,4.8,3.4,10.7,3.4,18c0,7.2,0,13.9-6.9,28.5C73.2,80.4,65.3,81.1,61.3,77.5z"/>
<path class="st2" d="M76.9,15.6c-4.6-4.4-14.1-6.9-27-6.9s-22.4,2.4-27,6.9c-5.1,4.9-6.6,13.1-6.9,14.3l0.7,8.5
	c0.9-1.6,2-3.6,3.4-6.1c4.1-7.3,14.4-11.1,29.8-11.1s25.7,3.9,29.8,11.1c1.4,2.5,2.5,4.5,3.4,6.1l0.7-8.5
	C83.6,28.7,82,20.6,76.9,15.6z"/>
<path class="st3" d="M34,74c1.3,1,9.9,4.1,15.9,4.1c5.9,0,14.5-3.1,15.9-4.1V62.2c-1.3,1-9.9,4.4-15.9,4.4c-5.9,0-14.5-3.4-15.9-4.4
	V74z"/>
<path class="st3" d="M51.7,66.6c0,0-3.5,2.6-4.5,3.2C45.9,70.6,46,72,46,73.7c0,1.2,0,3.7,0,4c1.4,0.2,2.7,0.4,3.9,0.4
	c5.9,0,14.5-3.1,15.9-4.1V62.2L51.7,66.6z"/>
<path class="st2" d="M52.3,68.1c-0.8,0.6-3.5,2.5-4.4,3.1c-0.4,0.3-0.5,0.8-0.5,2.3v0.1V78"/>
<circle class="st4" cx="50.6" cy="73.2" r="2.1"/>
<path class="st3" d="M74.1,11.6C67.6,8.1,58.2,7,49.9,7c-10.3,0-23.5,2.2-29.5,8.8"/>
<path class="st3" d="M22,32.6c5-7.7,17.2-9.6,27.9-9.6c10.8,0,23.1,1.9,28,9.8"/>
<path class="st4" d="M79.9,17.1c1.2,2.3,1.5,5,0.7,8.3c-3.4,14.2-22,37.5-29.1,41c0,0,5.9,6.1,10.6,9.9c4.7,3.8,12.1,4,16.3-5.5
	c6.3-14,7.4-23.6,7.4-31.5c0-8.1-1.2-14.1-3.4-19.4c-0.9-2.1-4.3-7-10.8-9.6"/>
<path class="st2" d="M80.6,17.1c-0.1,0.5,2.4,4.7,1.4,8.8c-1.7,6.5-6.4,15.7-13.4,25.1c-5.3,7.2-10.8,13.1-14.7,15.8
	c0,0,8.1,7.8,9.1,8.5c0.9,0.6,3.3,2,5.2,2c3.6,0,6.7-2.5,8.7-7.1c6.4-14.2,8.5-26.3,8.2-39"/>
<path class="st4" d="M20.1,17.1c-1.2,2.3-1.5,5-0.7,8.3c3.4,14.2,22,37.5,29.1,41c0,0-5.9,6.1-10.6,9.9c-4.7,3.8-12.1,4-16.3-5.5
	c-6.3-14-7.4-23.6-7.4-31.5c0-8.1,1.2-14.1,3.4-19.4c0.4-1,1.3-2.5,2.8-4.1"/>
<path class="st2" d="M19.4,17.1c0.1,0.5-2.4,4.7-1.4,8.8c1.7,6.5,6.4,15.7,13.4,25.1c5.3,7.2,10.8,13.1,14.7,15.8
	c0,0-8.1,7.8-9.1,8.5c-0.9,0.6-3.3,2-5.2,2c-3.6,0-6.7-2.5-8.7-7.1c-6.4-14.2-8.5-26.3-8.2-39"/>
</svg>
