<?xml version="1.0" encoding="utf-8"?>
<!-- Generator: Adobe Illustrator 19.1.0, SVG Export Plug-In . SVG Version: 6.00 Build 0)  -->
<svg version="1.1" id="Layer_1" xmlns="http://www.w3.org/2000/svg" xmlns:xlink="http://www.w3.org/1999/xlink" x="0px" y="0px"
	 viewBox="0 0 100 100" style="enable-background:new 0 0 100 100;" xml:space="preserve">
<style type="text/css">
	.st0{fill:#C7C8C9;}
	.st1{fill:#FFFFFF;}
	.st2{fill:none;stroke:#010101;stroke-width:0.2387;stroke-miterlimit:10;stroke-dasharray:1.8255;}
	.st3{fill:#FFFFFF;stroke:#010101;stroke-width:0.2387;stroke-miterlimit:10;}
	.st4{fill:none;stroke:#010101;stroke-width:0.2387;stroke-miterlimit:10;}
</style>
<path class="st0" d="M20.4,16.1c5.9-5.8,17.6-7.4,27.7-7.4s21.8,1.5,27.7,7.4C81.6,22,83,31.6,83,31.6l-1.2,14.7c0,0-1.4-3.1-6-11.3
	C71.2,26.7,58.9,24.7,48,24.7c-10.8,0-23.2,2-27.8,10.3C15.8,43.2,13,46.3,13,46.3l2.6-13.9C15.6,32.4,14.6,22,20.4,16.1z"/>
<path class="st1" d="M82.2,17.9c-1.3-1.9-4-5.1-10.5-7.8c0.9,0.4,1.7,0.8,2.5,1.3C67.7,7.9,58.3,6.8,50,6.8
	c-8.9,0-19.1,1.1-25.5,5.3c-3.7,2.2-5.5,4.4-6.5,5.8c-3.7,5.5-4.7,19.7-4.9,27.7c-0.3,10.8,25.8,47.2,25.8,47.2
	c0.1,0.4,0.6,0.5,0.9,0.2l3-9c2.4,0.3,5,0.5,7.2,0.5c2.3,0,5-0.2,7.4-0.5l3,9c0.3,0.3,0.8,0.2,0.9-0.2c0,0,26.1-36.4,25.8-47.2
	C86.9,37.6,85.9,23.4,82.2,17.9z M22.1,32.4c5-7.8,17.2-9.7,27.9-9.7c10.8,0,23.1,1.9,28,9.9c-6.4,13.8-20.5,30.7-26.4,33.6l0,0
	c-0.5,0-1.1,0.1-1.6,0.1c-0.5,0-0.9,0-1.4-0.1l0,0C42.6,63.2,28.4,46.2,22.1,32.4z M45,77.3c0.4,0.1,0.8,0.1,1.3,0.2
	c0.4,0.1,0.8,0.1,1.2,0.2v0.1l0-0.1c0.6,0.1,1.2,0.1,1.7,0.1c0.2,0,0.5,0,0.7,0c0,0,0,0,0,0c0,0,0,0,0.1,0c1.6,0,3.4-0.2,5.2-0.6
	l0.8,2.6c-2,0.2-4.2,0.4-6.1,0.4c-1.8,0-3.9-0.2-5.9-0.4L45,77.3z"/>
<polygon class="st0" points="60.3,93.1 53.7,77.7 70.4,61.4 69.7,77.5 "/>
<polygon class="st0" points="73.5,73.8 57.5,66.2 52.1,66.5 53.6,77.4 "/>
<polygon class="st0" points="43.9,84 46.6,77.7 43.9,77.3 42.6,83.9 "/>
<polygon class="st0" points="40.4,91.5 43.7,84.2 42.3,84.1 39.9,90.1 "/>
<polygon class="st0" points="43.7,77.1 42.7,66.2 48.2,66.5 46.6,77.4 "/>
<path class="st2" d="M77,15.4C72.4,11,62.8,8.5,50,8.5c-12.9,0-22.5,2.4-27,6.9c-5.1,4.9-6.6,13.1-6.9,14.3l-0.7,8.5
	c0.9-1.6,3.3-3.6,4.7-6.1C24.3,24.9,34.6,21,50,21s25.7,3.9,29.8,11.2c1.4,2.5,2.5,4.5,3.4,6.1l0.7-8.5C83.7,28.4,82.1,20.3,77,15.4
	z"/>
<path class="st3" d="M36.4,82.9c1.1,0.4,8.5,1.6,13.6,1.6s12.5-1.2,13.6-1.6v-4.4c-1.1,0.4-8.5,1.7-13.6,1.7s-12.5-1.3-13.6-1.7
	V82.9z"/>
<line class="st4" x1="48.4" y1="84.4" x2="48.4" y2="80.2"/>
<circle class="st3" cx="50.8" cy="82.3" r="1.5"/>
<path class="st4" d="M34.1,73.7c1.3,1,9.9,4.1,15.9,4.1c5.9,0,14.5-3.1,15.9-4.1V61.9c-1.3,1-9.9,4.4-15.9,4.4
	c-5.9,0-14.5-3.4-15.9-4.4V73.7z"/>
<path class="st4" d="M65.8,73.7V61.9l-14,4.4c0,0-3.5,2.6-4.5,3.2C46,70.4,46,71.8,46,73.4c0,1.2-1.1,3.5-1.1,3.9"/>
<path class="st2" d="M52.4,67.9c-0.8,0.6-3.5,2.5-4.4,3.1c-0.4,0.3-0.5,0.8-0.5,2.3v0.1v4.3"/>
<circle class="st3" cx="50.7" cy="73" r="2.1"/>
<path class="st4" d="M71.6,10.1C65.4,7.6,57.2,6.8,50,6.8c-7.2,0-15.2,0.7-21.4,3.2c-1.5,0.6-3,1.4-4.3,2.2"/>
<path class="st4" d="M22.1,32.4c5-7.8,17.2-9.7,27.9-9.7c10.8,0,23.1,1.9,28,9.9"/>
<path class="st3" d="M79,15.3c1.9,2.5,2.7,5.8,1.7,9.9c-3.4,14.2-22,37.5-29.1,41L60.4,93c0.3,0.3,0.8,0.2,0.9-0.2
	c0,0,26.1-36.4,25.8-47.2c-0.2-8-1.2-22.2-4.9-27.7c-1.3-1.9-4.1-5.1-10.6-7.8"/>
<path class="st2" d="M82.3,18.2c0,0,0.8,5,0.1,7.7c-1.6,6.6-6.5,15.8-13.4,25.2c-5.3,7.1-11.2,13.5-15,16.3L61.1,90
	c3.9-7.3,25.7-34.1,25.6-48.5"/>
<path class="st3" d="M21.7,14.8c-2.2,2.6-3.2,6-2.2,10.4c3.4,14.2,22,37.5,29.1,41L39.8,93c-0.3,0.3-0.8,0.2-0.9-0.2
	c0,0-26.1-36.4-25.8-47.2c0.2-8,1.2-22.2,4.9-27.7c1-1.4,2.8-3.6,6.4-5.7"/>
<path class="st2" d="M17.9,18.2c0,0-0.8,5-0.1,7.7c1.6,6.6,6.5,15.8,13.4,25.2c5.3,7.1,11.2,13.5,15,16.3L39.1,90
	c-3.8-7.2-25.7-34-25.6-48.4"/>
</svg>
