<?xml version="1.0" encoding="utf-8"?>
<!-- Generator: Adobe Illustrator 19.1.0, SVG Export Plug-In . SVG Version: 6.00 Build 0)  -->
<svg version="1.1" id="Layer_1" xmlns="http://www.w3.org/2000/svg" xmlns:xlink="http://www.w3.org/1999/xlink" x="0px" y="0px"
	 viewBox="0 0 100 100" style="enable-background:new 0 0 100 100;" xml:space="preserve">
<style type="text/css">
	.st0{fill:none;stroke:#010101;stroke-width:0.2073;stroke-miterlimit:10;stroke-dasharray:1.5905;}
	.st1{fill:#C7C8C9;}
	.st2{fill:#FFFFFF;}
	.st3{fill:none;stroke:#010101;stroke-width:0.2073;stroke-miterlimit:10;}
</style>
<path class="st0" d="M78.1,31c-1.7-3.8-3.2-5.8-6.6-9.5c-4.3-4.7-12.8-7.7-21.5-7.7s-17.2,3-21.5,7.7c-3.5,3.8-4.8,5.6-6.6,10.2"/>
<path class="st1" d="M72.3,22c-5-5.5-14.3-8.3-22.9-8.3S31.5,16.6,26.5,22c-5,5.5-7.1,19.5-7.1,19.5l1,6c0,0,0.3-3.3,5.1-10.6
	c5.4-8.2,14.6-12.3,23.8-12.3c9.3,0,18,4,23.8,12.3c5,7.1,5.1,10.6,5.1,10.6l1-6C79.3,41.5,77.3,27.5,72.3,22z"/>
<g>
	<path class="st2" d="M74.6,22c0.7,0.9,1.3,2,1.8,3.1c-0.9-1.7-2-3.3-3.5-4.9c-0.2-0.3-0.5-0.5-0.8-0.8C73,20.1,73.8,21,74.6,22
		c-2-2.8-4.8-5-7.9-6.5c1,0.5,2,1.2,2.9,1.8C64.4,13.6,57,11.8,50,11.8c-5.9,0-11.6,1.1-16.3,3.5c3.9-1.9,8.4-3.1,13.1-3.4
		c-5.6,0.3-10.3,1.7-14.2,4c0.3-0.2,0.7-0.4,1-0.5c-0.7,0.3-1.3,0.7-1.9,1.1c0.1-0.1,0.2-0.1,0.3-0.2c-2.2,1.3-4.1,2.9-5.7,4.7
		c0.2-0.3,0.5-0.5,0.7-0.7c-0.7,0.8-1.3,1.5-1.8,2.1c0.3-0.5,0.7-1,1.1-1.4c-5.9,6.6-8.5,16.2-8.5,26.9c0,14.6,12.8,26.6,27.8,29.3
		c0,0.2,0,0.4,0,0.5c1.3,0.2,2.6,0.2,3.7,0.1c16.5-1.7,33-13.6,33-29.8C82.3,37.7,79.9,28.6,74.6,22z M70.6,18c0,0-0.1-0.1-0.1-0.1
		C70.5,17.9,70.6,18,70.6,18z M50.9,68c-0.4,0.2-0.8,0.3-1.1,0.5c-0.4-0.3-0.7-0.5-0.7-0.5c-7.4-3.6-23.3-7.5-26.7-26.4
		c0.8-1.7,1.9-3.8,3.7-6.6c5.4-8.2,14.6-12.3,23.8-12.3c9.3,0,18,4,23.8,12.3c2,2.8,3.2,5,3.9,6.7C74.2,60.5,58.3,64.4,50.9,68z"/>
	<path class="st2" d="M66.7,15.4c-4-2.1-8.9-3.4-14.6-3.6C57,12,62.2,13.2,66.7,15.4z"/>
	<path class="st2" d="M52.1,11.8c-0.5,0-1.1,0-1.6,0C51,11.8,51.6,11.8,52.1,11.8z"/>
</g>
<path class="st0" d="M77.1,28.9c-1.4-2.6-2.9-4.5-5.6-7.4c-4.3-4.7-12.8-7.7-21.5-7.7s-17.2,3-21.5,7.7c-3.5,3.8-4.8,5.6-6.6,10.2"
	/>
<path class="st3" d="M78.3,33.9"/>
<path class="st3" d="M22.4,41.6c0.8-1.7,1.9-3.8,3.7-6.6c5.4-8.2,14.6-12.3,23.8-12.3c9.3,0,18,4,23.8,12.3c2,2.8,3.2,5,3.9,6.7"/>
<path class="st3" d="M50.9,68c8.3-4.1,27.4-8.5,27.4-34.1c0,0-0.2-4.7-1.9-8.9c-0.9-1.7-2-3.3-3.5-4.9c-0.2-0.3-0.5-0.5-0.8-0.8
	c-0.5-0.5-1-0.9-1.5-1.3c0,0-0.1-0.1-0.1-0.1c-0.3-0.2-0.6-0.4-0.9-0.6C64.4,13.6,57,11.8,50,11.8c-6.7,0-13.3,1.5-18.3,4.6
	c0,0,0,0-0.1,0c-0.3,0.2-0.7,0.4-1,0.7c-0.4,0.3-0.7,0.5-1.1,0.8c0,0-0.1,0-0.1,0.1c-0.3,0.2-0.5,0.5-0.8,0.7
	c-0.2,0.1-0.3,0.3-0.5,0.4c0,0,0,0,0,0c-0.3,0.3-0.7,0.7-1,1c-0.7,0.8-1.3,1.5-1.9,2.2c-2.2,3.2-3.5,7-3.5,11.6"/>
<path class="st3" d="M49.8,68.5c-0.4-0.3-0.7-0.5-0.7-0.5c-8.3-4.1-27.4-8.5-27.4-34.1"/>
<path class="st3" d="M24.8,23c-4.6,6.4-7,15.4-7,24.8c0,14.6,12.8,26.6,27.8,29.3"/>
<path class="st0" d="M20.1,31.3"/>
<path class="st0" d="M47.5,70c-0.1,0-0.2-0.1-0.3-0.1c-1-0.5-2.2-0.9-3.5-1.4c-8.7-3.3-21.4-10-23.7-28c-0.2-1.6-0.3-3.5-0.2-5.2"/>
<path class="st0" d="M52.3,75.9"/>
<path class="st0" d="M49.4,76.4"/>
<path class="st3" d="M75.5,23.3c6.9,8.1,6.8,24.6,6.8,24.6c0,16.2-16.5,28.1-33,29.8c-1.1,0.1-2.4,0.1-3.7-0.1c0-0.4,0-1.6,0-2.8
	c-0.1-2.2,1.4-5.3,5.3-6.8"/>
<path class="st0" d="M79.5,30.6"/>
<path class="st0" d="M47.4,77.4v-2c0-3.4,3-4.6,4.5-5.2c1.2-0.6,2.7-1.2,4.3-1.8c8.7-3.3,21.4-10,23.6-28c0-2.1,0.1-3.8,0.1-5.2"/>
<circle class="st3" cx="50.6" cy="73.1" r="2"/>
</svg>
