<?xml version="1.0" encoding="utf-8"?>
<!-- Generator: Adobe Illustrator 19.1.0, SVG Export Plug-In . SVG Version: 6.00 Build 0)  -->
<svg version="1.1" id="Layer_1" xmlns="http://www.w3.org/2000/svg" xmlns:xlink="http://www.w3.org/1999/xlink" x="0px" y="0px"
	 viewBox="0 0 100 100" style="enable-background:new 0 0 100 100;" xml:space="preserve">
<style type="text/css">
	.st0{fill:#C7C8C9;}
	.st1{fill:none;}
	.st2{fill:#FFFFFF;}
	.st3{fill:none;stroke:#010101;stroke-width:0.2084;stroke-linejoin:round;stroke-miterlimit:10;}
	.st4{fill:none;stroke:#010101;stroke-width:0.2084;stroke-miterlimit:10;}
	.st5{fill:none;stroke:#010101;stroke-width:0.2084;stroke-miterlimit:10;stroke-dasharray:1.6018;}
</style>
<path class="st0" d="M81.4,54.3C81.4,64.4,64,75,51.3,75h-2.2h-1c-0.8,0-1.5,0-2.3-0.1h-0.3l0,0c-12.4-1.3-28.5-9.6-28-20.5l12.8-5
	c2.8,1.6-2,17.2-2,17.2L46,65.9l4.4,0.4c1.3-0.2,2.5-0.4,3.1-0.4c1.5,0,17.6,0.5,17.6,0.5s-3.9-15.7-2-17.2L81.4,54.3z"/>
<path class="st0" d="M74.2,18.5c-5.3-5.2-16-7.8-25.1-7.8S29.4,13.3,24,18.5c-3.5,5.8-3.9,14.4-5.3,13.9l-0.1,13.2
	c0,0,1.4-4.8,5.4-10.2C29.1,28.6,39.3,25,49.1,25s20.3,3.4,25.1,10.5c2.7,3.9,5.4,10.2,5.4,10.2l-0.1-13.2
	C79.5,32.4,79.5,23.7,74.2,18.5z"/>
<path class="st1" d="M30.5,49.2c-7.1-4.3-9.9-9.4-10.7-13.6c-0.4-2.5-0.6-5.4-0.1-7.8"/>
<path class="st1" d="M52,71.8v-5.3l-5.8-0.6c-0.4,0-3.4-1-3.7-1.3"/>
<path class="st2" d="M77.3,19.2c0,0.1,0,0.1,0.1,0.2c-0.6-0.9-1.3-1.9-2.2-2.7c-5.3-5.2-16-7.8-25.1-7.8c-9.1,0-19.7,2.6-25.1,7.8
	c-2.5,2.5-3.8,5.7-4.5,8.4c-2.8,8.8-2.9,19.5-2.9,27.5c0,9.5,15.9,19.4,28.4,20.6v0l0.4,0c0.7,0.1,1.4,0.1,2.1,0.1l1,0l2.3,0
	c12.8,0,30.3-10.6,30.3-20.7C82.1,42.7,83.4,27.6,77.3,19.2z M69.9,47.5c0,0-0.1,0.1-0.1,0.1c0,0,0,0,0,0
	C68,48.5,55.2,62.9,54.1,64.2c-0.6,0-2,0.2-3.4,0.5l-4.4-0.4l0.2,0c0,0-12.3-14.7-15.8-16.7c-0.1,0-0.2,0-0.2,0
	c-3.2-2.4-6.3-5.4-8.2-9.6c0.7-1.4,1.7-2.9,2.8-4.4c5.1-6.8,15.4-10.5,25.1-10.5c9.8,0,20.3,3.4,25.1,10.5c0.9,1.3,1.8,2.9,2.6,4.4
	C75.8,42,72.6,44.8,69.9,47.5z"/>
<path class="st0" d="M30.8,48.4c0-0.3-0.1-0.6,0-0.5c0.4,0.5,0.5,1.6,0.5,1.6c0.4,4.6-2.9,15.4-2.9,15.4l17.2-0.6l-18.5,1.1
	C27.2,65.4,31.3,54.5,30.8,48.4z"/>
<path class="st0" d="M54.1,64.4l1.9,0.2c1.5,0,15,1.8,15,1.8s0-0.6-0.2-1.6C66.9,64.7,56,64.4,54.1,64.4z"/>
<path class="st3" d="M69.8,47.6C67.9,48.5,54,64.3,54,64.3l17.9,0.4"/>
<path class="st3" d="M28.4,64.8l18-0.5c0,0-12.3-14.7-15.8-16.7"/>
<path class="st4" d="M77.3,19.2C73,11.9,59.2,8.9,50.1,8.9S27.8,11.8,23,19.2"/>
<path class="st4" d="M22.2,38c0.7-1.4,1.7-2.8,2.8-4.4c5.1-6.8,15.4-10.5,25.1-10.5c9.8,0,20.3,3.4,25.1,10.5
	c0.9,1.2,1.7,2.7,2.5,4.2"/>
<path class="st3" d="M50.5,64.7l-4.3-0.4"/>
<path class="st3" d="M28.4,64.8c0,0,4.8-15.6,2-17.2c-6.7-5-13.6-13.1-7.4-28.4c-5.3,9.5-5.4,23.5-5.4,33.4
	c0,9.4,15.9,19.3,28.4,20.6"/>
<path class="st5" d="M30.5,49.2c-7.1-4.3-9.9-9.4-10.7-13.6c-0.4-2.5-0.6-5.4-0.1-7.8"/>
<path class="st5" d="M46,65.9c-0.4,0-3.2-1-3.5-1.3"/>
<path class="st3" d="M71.9,64.7c0,0-4-15.7-2-17.2c5.5-5.5,13.5-11.4,7.4-28.3c6.1,8.4,4.8,23.5,4.8,33.4
	c0,10.1-17.5,20.7-30.3,20.7L46,73.2v-7.5c0,0,6.6-1.5,8.1-1.5"/>
<circle class="st4" cx="50.8" cy="69.6" r="1.9"/>
<path class="st5" d="M70,49.3c6.1-4.3,9.4-9,10.3-13c0.3-3.1,0.8-6.1,0.1-10.1"/>
<path class="st5" d="M47.7,73.3v-6.2l6.6-1.2c0.4-0.1,1.5-1.2,1.8-1.5"/>
<path class="st5" d="M79.2,29.7c0.1-4.5-0.5-7.3-5.2-11.9c-5.1-5-15.6-7.3-23.8-7.3s-18.7,2.3-23.8,7.3c-3.5,3.4-4.7,8.2-5,10.4"/>
<path class="st5" d="M21.5,36.1c0.6-1,1.2-2.2,1.9-3.5c4.7-8.4,16.9-11.4,26.7-11.4c9.9,0,22.1,3,26.7,11.4c0.7,1.3,1.4,2.5,1.9,3.5
	"/>
<path class="st5" d="M56,62.2l13.6,0.6c-0.5-2.5-2.2-10-1.5-13.3"/>
<path class="st5" d="M32.3,49.4c1.3,4.8-1.1,10.9-1.5,13.3L44.2,62"/>
</svg>
