<?xml version="1.0" encoding="utf-8"?>
<!-- Generator: Adobe Illustrator 19.1.0, SVG Export Plug-In . SVG Version: 6.00 Build 0)  -->
<svg version="1.1" id="Layer_1" xmlns="http://www.w3.org/2000/svg" xmlns:xlink="http://www.w3.org/1999/xlink" x="0px" y="0px"
	 viewBox="0 0 100 100" style="enable-background:new 0 0 100 100;" xml:space="preserve">
<style type="text/css">
	.st0{fill:#C7C8C9;}
	.st1{fill:#FFFFFF;}
	.st2{fill:none;stroke:#010101;stroke-width:0.25;stroke-miterlimit:10;}
	.st3{fill:#FFFFFF;stroke:#010101;stroke-width:0.25;stroke-miterlimit:10;}
</style>
<path class="st0" d="M20.7,16.5c5.8-5.8,17.4-7.3,27.4-7.3s21.6,1.5,27.4,7.3s7.2,15.3,7.2,15.3l-1.2,14.5c0,0-1.4-3-5.9-11.2
	S58.8,24.9,48.1,24.9s-23,2-27.5,10.2s-7.3,11.2-7.3,11.2L16,32.6C16,32.6,14.9,22.2,20.7,16.5z"/>
<path class="st1" d="M81.9,18.2c-1.2-1.8-3.7-4.7-9.4-7.2c-0.2-0.1-0.4-0.1-0.5-0.2c-0.2-0.1-0.4-0.2-0.6-0.2c0,0,0,0,0,0
	C65.3,8,57.2,7.2,50,7.2c-8.9,0-19.1,1.2-25.4,5.3c-3.5,2.1-5.3,4.2-6.3,5.7c-3.6,5.6-4.6,19.5-4.8,27.5
	c-0.2,10.7,13.4,46.8,13.4,46.8c0.1,0.4,0.6,0.5,0.9,0.2l13-16.7c2.9,0.8,6.4,1.6,9.2,1.6c2.9,0,6.3-0.7,9.3-1.6l13.1,16.7
	c0.3,0.3,0.8,0.2,0.9-0.2c0,0,13.6-36.1,13.4-46.8C86.5,37.7,85.5,23.8,81.9,18.2z M52.1,66.1c-0.7,0.1-1.4,0.1-2.1,0.1
	c-0.5,0-0.9,0-1.4-0.1l0,0c-6-2.9-20-19.8-26.2-33.5c4.9-7.7,17-9.6,27.6-9.6c10.7,0,22.9,1.9,27.7,9.8
	C71.6,46.1,58.2,62.5,52.1,66.1z"/>
<polygon class="st0" points="72,92.7 54.7,77.2 70.2,61.3 73.2,77.2 "/>
<path class="st0" d="M73.1,71.8l-15.7-5.7L52,66.4l2.7,10.5c0,0,2.5-0.6,2.9-0.7C58.2,76.1,73.1,71.8,73.1,71.8z"/>
<polygon class="st0" points="27.8,92.7 42.6,76.7 39.6,73 "/>
<polygon class="st0" points="46.9,66.2 42.7,76.3 40.4,77.5 36.7,63.2 "/>
<path class="st2" d="M34.3,73.5c1.3,1,9.8,4.1,15.7,4.1s14.4-3.1,15.7-4.1V61.8c-1.3,1-9.8,4.4-15.7,4.4s-14.4-3.4-15.7-4.4
	C34.3,61.8,34.3,73.5,34.3,73.5z"/>
<path class="st2" d="M65.7,73.4V61.8l-13.9,4.4c0,0-3.4,2.5-4.5,3.2c-1.3,0.8-1.2,2.2-1.2,3.8c0,1.2,0,3.6,0,4"/>
<path class="st3" d="M50,77.5"/>
<circle class="st3" cx="51" cy="73" r="2.1"/>
<path class="st2" d="M20.7,66c7.2,0.7,21.9-0.8,23.8-0.8"/>
<path class="st2" d="M22.1,66.2c0.3,0.2,3.8,10.4,3.8,10.4c0.5,0,5.6,1,8.7,0.9c-2.6,0.1-5.7-2.1-7.2-3.6c-0.7-0.7-1-0.2-1,0.2
	c0,0-0.3,0.8-0.6,2.4"/>
<line class="st2" x1="44.3" y1="65.2" x2="34.5" y2="77.5"/>
<path class="st0" d="M25.8,76.7c0,0,4,0.7,8.9,1c-1.6,0-8,0.1-8,0.1L25.8,76.7z"/>
<path class="st0" d="M22.4,66.3c0,0,6.1,0.4,21.6-0.9c-1.6,0-19.5,3.6-19.5,3.6L22.4,66.3z"/>
<g>
	<path class="st3" d="M71.4,10.5C65.3,8,57.2,7.2,50,7.2c-8.9,0-19.1,1.2-25.4,5.3"/>
	<path class="st2" d="M22.4,32.6c4.9-7.7,17-9.6,27.6-9.6c10.7,0,22.9,1.9,27.7,9.8"/>
</g>
<path class="st3" d="M77.5,14.5c2.7,2.7,3.9,6.3,2.8,11C77,39.6,58.7,62.6,51.7,66.3l20.7,26.4c0.3,0.3,0.8,0.2,0.9-0.2
	c0,0,13.6-36.1,13.4-46.8c-0.2-8-1.2-21.9-4.8-27.5c-1.3-1.9-4-5.1-10.5-7.7"/>
<path class="st3" d="M23,14c-3,2.7-4.4,6.5-3.2,11.5c3.4,14.1,21.7,37.2,28.8,40.6L27.8,92.7c-0.3,0.3-0.8,0.2-0.9-0.2
	c0,0-13.6-36.1-13.4-46.8c0.2-8,1.2-21.9,4.8-27.5c1-1.4,2.7-3.6,6.3-5.7"/>
<path class="st2" d="M46.9,65c-3.4,1.8-14-3.8-23.2-11.2c-0.8-0.6-0.8-0.2-1,0.2c0,0-1.4,3.6-2,12"/>
<path class="st2" d="M20.7,66c7.2,0.7,21.9-0.8,23.8-0.8"/>
<path class="st2" d="M22.1,66.2c0.3,0.2,3.8,10.4,3.8,10.4c0.5,0,5.6,1,8.7,0.9c-2.6,0.1-5.7-2.1-7.2-3.6c-0.7-0.7-1-0.2-1,0.2
	c0,0-0.3,0.8-0.6,2.4"/>
<line class="st2" x1="44.3" y1="65.2" x2="34.5" y2="77.5"/>
<path class="st0" d="M25.8,76.7c0,0,4,0.7,8.9,1c-1.6,0-8,0.1-8,0.1L25.8,76.7z"/>
<path class="st0" d="M22.4,66.3c0,0,6.1,0.4,21.6-0.9c-1.6,0-19.5,3.6-19.5,3.6L22.4,66.3z"/>
</svg>
