<?xml version="1.0" encoding="utf-8"?>
<!-- Generator: Adobe Illustrator 19.1.0, SVG Export Plug-In . SVG Version: 6.00 Build 0)  -->
<svg version="1.1" id="Layer_1" xmlns="http://www.w3.org/2000/svg" xmlns:xlink="http://www.w3.org/1999/xlink" x="0px" y="0px"
	 viewBox="0 0 100 100" style="enable-background:new 0 0 100 100;" xml:space="preserve">
<style type="text/css">
	.st0{fill:#B4975A;}
	.st1{fill:#FFFFFF;}
	.st2{fill:#C7C8C9;}
	.st3{fill:none;stroke:#000000;stroke-width:0.25;stroke-miterlimit:10;}
</style>
<path class="st0" d="M59.8,95.9c6.4,1.7,13.8-1.3,13.8-1.3l0.1,2.6c0,0-12.1,1.9-23.6,1.7c-11.1-0.2-23.8-1.7-23.8-1.7l0.1-2.6
	c0,0,9,2.9,14.6,1"/>
<path class="st0" d="M71.8,59c-0.2-11.5-0.9-22.1-1.4-23.6c0,0-0.5,1.8-0.5,2c-0.6,2-1.6,8.4-0.9,25.7c0,5.9,1.9,13.1,2.1,14.6
	c0,0.4,0.3,1.1,0.3,1.1v-0.9l-0.9-14.6c-0.4-6.9-0.6-23.4-0.6-23.4L71.8,59L71.8,59z"/>
<path class="st0" d="M28.3,59c0.2-11.5,0.9-22.1,1.4-23.6c0,0,0.5,1.8,0.5,2c0.6,2,1.6,8.4,0.9,25.7c0,5.9-1.9,13.1-2.1,14.6
	c0,0.4-0.3,1.1-0.3,1.1v-0.9l0.9-14.6c0.4-6.9,0.6-23.4,0.6-23.4l-1.8,19L28.3,59z"/>
<path class="st1" d="M81.8,40.2c0,0-2.4-24.2-4.3-26.2c0,0-0.9-1-2.6-1.4c0,0-9.2-2.6-15.8-5.9c-0.3-0.3-4.4-3.9-4.4-3.9
	c-1.3-1-4.1-1-4.7-1c-0.6,0-3.4,0-4.7,1c0,0-4.1,3.5-4.4,3.9V6.6c-6.6,3.3-15.8,5.9-15.8,5.9C23.4,13,22.5,14,22.5,14
	c-1.9,1.9-4.3,26.2-4.3,26.2c-1,6.5-0.5,47.9-0.5,47.9c0.1,0,0.8,0.1,0.9,0.1l0,0l0,0.1c3.8,1.1,8.1-0.3,8.1-0.3l-0.3,6.7
	c0,0,7.5,2.8,13.9,1.3l0,0c0,0,5.4,0.4,9.9,0.4s9.9-0.3,9.9-0.3l0.2-0.1c6.1,1.3,13.1-1.3,13.1-1.3l0.2-0.1l-0.3-6.7
	c0,0,4.3,1.3,8.1,0.4c0.2-0.1,0.7-0.1,0.9-0.2C82.3,88.1,82.7,46.6,81.8,40.2z M31.1,62.8c0,5.9-1.9,13.1-2.1,14.6
	c0,0.4-0.3,1.1-0.3,1.1v-0.6c-0.9-15.5,0.2-40.5,1-42.8c0,0,0.5,1.8,0.5,2C30.8,39.1,31.8,45.5,31.1,62.8z M71.7,61l-0.3,16.6
	l-0.1,1.1c-0.1-1.5-2.4-10-2.4-15.9c-0.7-17.3,0.3-23.7,0.9-25.7c0-0.2,0.5-2,0.5-2C71.1,37.5,71.9,56.6,71.7,61z"/>
<path class="st2" d="M59.9,96c-1.7-0.4-3.6-1-6-3.6c0,0-2.9-4.5-3.9-12.6c-2.2,11.2-3.6,12.2-4.1,13c-1.6,2.1-4.6,3-5.8,3.3
	c0,0,8.1,0.4,9.9,0.3C51.8,96.4,59.9,96,59.9,96z"/>
<path class="st2" d="M45,5.3c-0.4,3.6-0.8,11.1,0.9,20.3l3.6,15.6l4.4-15.6c1.6-9.2,1.4-16.7,1.1-20.3c0,0-2.3-1.2-5.1-1.2
	C47.8,4.2,45,5.3,45,5.3z"/>
<path class="st3" d="M59.9,96c-1.7-0.4-3.6-1-6-3.6c0,0-2.9-4.5-3.9-12.6c-2.2,11.2-3.6,12.2-4.1,13c-1.6,2.1-4.6,3-5.8,3.3
	c0,0,8.1,0.4,9.9,0.3C51.8,96.4,59.9,96,59.9,96z"/>
<path class="st3" d="M45,5.3c-0.4,3.6-0.8,11.1,0.9,20.3l3.6,15.6l4.4-15.6c1.6-9.2,1.4-16.7,1.1-20.3c0,0-2.3-1.2-5.1-1.2
	C47.8,4.2,45,5.3,45,5.3z"/>
<path class="st3" d="M60.1,96.1"/>
<path class="st3" d="M50.2,96.4"/>
<path class="st3" d="M40.3,96"/>
<path class="st3" d="M55.5,35.7c5.7-0.4,10.2-1.4,10.2-1.4v-2.2c-1.9,0.3-3.7,0.6-5.3,0.7c-1.7,0.2-3.1,0.3-3.9,0.4"/>
<line class="st3" x1="50.8" y1="67.9" x2="52.6" y2="67.9"/>
<path class="st3" d="M51.8,54.8c0,0.5-0.4,0.8-0.8,0.8c-0.5,0-0.8-0.4-0.8-0.8c0-0.5,0.4-0.8,0.8-0.8C51.4,54,51.8,54.4,51.8,54.8"
	/>
<line class="st3" x1="51.8" y1="54.8" x2="52.9" y2="54.8"/>
<path class="st3" d="M20.7,80.9c0,0.4-0.3,0.7-0.7,0.7c-0.4,0-0.7-0.3-0.7-0.7c0-0.4,0.3-0.7,0.7-0.7C20.4,80.2,20.7,80.5,20.7,80.9
	"/>
<path class="st3" d="M20.7,82.6c0,0.4-0.3,0.7-0.7,0.7c-0.4,0-0.7-0.3-0.7-0.7s0.3-0.7,0.7-0.7C20.4,81.9,20.7,82.2,20.7,82.6"/>
<path class="st3" d="M20.7,84.3c0,0.4-0.3,0.7-0.7,0.7c-0.4,0-0.7-0.3-0.7-0.7c0-0.4,0.3-0.7,0.7-0.7C20.4,83.6,20.7,83.9,20.7,84.3
	"/>
<path class="st3" d="M20.7,86c0,0.4-0.3,0.7-0.7,0.7c-0.4,0-0.7-0.3-0.7-0.7c0-0.4,0.3-0.7,0.7-0.7C20.4,85.4,20.7,85.7,20.7,86"/>
<path class="st3" d="M38.6,38.6c0,0,0.6,13.5,0.2,31.7"/>
<path class="st3" d="M61.3,38.6c0,0-0.6,13.6-0.2,31.8"/>
<path class="st3" d="M26.7,88l1.9-0.6v-9.6 M24.1,13c4.5,15.1,5,16.7,5.6,22"/>
<path class="st3" d="M79.3,80.9c0,0.4,0.3,0.7,0.7,0.7c0.4,0,0.7-0.3,0.7-0.7c0-0.4-0.3-0.7-0.7-0.7C79.5,80.2,79.3,80.5,79.3,80.9"
	/>
<path class="st3" d="M79.3,82.6c0,0.4,0.3,0.7,0.7,0.7c0.4,0,0.7-0.3,0.7-0.7s-0.3-0.7-0.7-0.7C79.5,81.9,79.3,82.2,79.3,82.6"/>
<path class="st3" d="M79.3,84.3c0,0.4,0.3,0.7,0.7,0.7c0.4,0,0.7-0.3,0.7-0.7c0-0.4-0.3-0.7-0.7-0.7C79.5,83.6,79.3,83.9,79.3,84.3"
	/>
<path class="st3" d="M79.3,86c0,0.4,0.3,0.7,0.7,0.7c0.4,0,0.7-0.3,0.7-0.7c0-0.4-0.3-0.7-0.7-0.7C79.5,85.4,79.3,85.7,79.3,86"/>
<path class="st3" d="M75.9,13c0,0-4.4,12.9-5.5,22.2"/>
<path class="st3" d="M48.5,51.8C56.7,34,62.2,18.3,62.2,18.3l-2.7-3l3.2-2.4l-3.6-6.2c-0.3-0.3-4.4-3.9-4.4-3.9
	c-1.4-1.1-4.8-1-4.8-1h0.2c0,0-3.4-0.1-4.8,1c0,0-4.1,3.5-4.4,3.9l-3.6,6.2l3.2,2.4l-2.7,3c0,0,3.2,14.5,10.7,31L48.5,51.8z"/>
<line class="st3" x1="40.5" y1="15.3" x2="44.7" y2="11.1"/>
<path class="st3" d="M55.1,5.2"/>
<path class="st3" d="M45.4,2.7c0,0-0.2,1-0.3,2.6"/>
<path class="st3" d="M55.1,5.4c-0.1-1.6-0.3-2.6-0.3-2.6"/>
<path class="st3" d="M50.1,4.2"/>
<path class="st3" d="M55.1,5.4"/>
<path class="st3" d="M49.6,41.6"/>
<path class="st3" d="M45.9,25.8"/>
<path class="st3" d="M45,5.4"/>
<path class="st3" d="M50.1,4.2"/>
<line class="st3" x1="59.5" y1="15.3" x2="55.3" y2="11.2"/>
<path class="st3" d="M58.3,18.2l1.6,1.1 M49.5,41.4L49,44.6c0,0-0.9,2.4-0.3,23.1c0,0,0.8,7.6,1.6,13.2"/>
<path class="st3" d="M73.3,88c-0.8-0.3-1.9-0.8-1.9-0.8v-9.6L71.7,61c0.2-4.4-0.6-23.5-1.4-25.9c0,0-0.5,1.8-0.5,2
	c-0.6,2-1.6,8.4-0.9,25.7c0,5.9,2.3,14.4,2.4,15.9"/>
<path class="st3" d="M28.7,77.9c-0.9-15.5,0.2-40.5,1-42.8c0,0,0.5,1.8,0.5,2c0.6,2,1.6,8.4,0.9,25.7c0,5.9-1.9,13.1-2.1,14.6
	c0,0.4-0.3,1.1-0.3,1.1"/>
<line class="st3" x1="18.6" y1="88.4" x2="18.6" y2="75.5"/>
<path class="st3" d="M40.3,96c-6.3,1.6-13.9-1.3-13.9-1.3l0,0l0.3-6.7c0,0-4.3,1.4-8.1,0.3"/>
<path class="st3" d="M50,79.3"/>
<path class="st3" d="M81.4,88.3c-3.8,0.9-8.1-0.4-8.1-0.4l0.3,6.7l-0.2,0.1c0,0-7.4,2.8-13.6,1.2"/>
<line class="st3" x1="81.4" y1="75.5" x2="81.4" y2="88.5"/>
<path class="st3" d="M40.9,6.6c-6.6,3.3-15.8,5.9-15.8,5.9C23.4,13,22.5,14,22.5,14c-1.9,1.9-4.3,26.2-4.3,26.2
	c-1,6.5-0.5,47.9-0.5,47.9c0.1,0,0.8,0.1,0.9,0.1"/>
<path class="st3" d="M45.3,2.8"/>
<path class="st3" d="M81.4,88.3c0.2-0.1,0.7-0.1,0.9-0.2c0,0,0.4-41.5-0.5-47.9c0,0-2.4-24.2-4.3-26.2c0,0-0.9-1-2.6-1.4
	c0,0-9.2-2.6-15.8-5.9l-4.3-3.8"/>
<path class="st3" d="M29.5,74.8c0,0,0.9,0.1,4.2,0.1c3.2,0,6.7-0.1,6.7-0.1c0.1-1.2,0-4.1,0-4.1l0,0v-0.4H30.3"/>
<line class="st3" x1="40.5" y1="70.8" x2="30.2" y2="70.8"/>
<path class="st3" d="M70.6,74.8c0,0-1.1,0.1-4.3,0.1c-3.2,0-6.7-0.1-6.7-0.1c-0.1-1.2,0-4.1,0-4.1l0,0v-0.4h10.1"/>
<line class="st3" x1="59.5" y1="70.8" x2="69.7" y2="70.8"/>
</svg>
