<?xml version="1.0" encoding="utf-8"?>
<!-- Generator: Adobe Illustrator 19.1.0, SVG Export Plug-In . SVG Version: 6.00 Build 0)  -->
<svg version="1.1" id="Layer_1" xmlns="http://www.w3.org/2000/svg" xmlns:xlink="http://www.w3.org/1999/xlink" x="0px" y="0px"
	 viewBox="0 0 100 100" style="enable-background:new 0 0 100 100;" xml:space="preserve">
<style type="text/css">
	.st0{fill:#B4975A;}
	.st1{fill:#FFFFFF;stroke:#20AD4B;stroke-width:0.25;stroke-miterlimit:10;}
	.st2{fill:#FFFFFF;stroke:#010101;stroke-width:0.25;stroke-miterlimit:10;}
	.st3{fill:#C7C8C9;}
	.st4{fill:none;stroke:#010101;stroke-width:0.25;stroke-miterlimit:10;}
</style>
<path class="st0" d="M53.2,89.8c0,0,1.6,4.1,7.8,5.1c5.4,0.9,12.6-1.3,12.6-1.3l0.1,4.1c0,0-20.4,1-24.3,1c-3.8,0-22.8-1-22.8-1
	l0.1-4.3c0,0,4.7,1.7,8.3,1.7c3.5,0.1,5.1,0,8.8-1.8"/>
<path class="st0" d="M28.7,77.8c-0.9-15.5,0.2-40.2,1-42.6c0,0,0.4,0.8,1,2c0.9,1.9,2.2,3.2,1.5,20.5c0,5.8-3.3,19.5-3.5,21l0.2-1.3
	l0.7-14.3c0.4-6.9,0.6-23.3,0.6-23.3l-1.6,19c-0.6,5,0.1,17.2,0.2,18.8L28.7,77.8z"/>
<path class="st0" d="M71.3,77.8c0.9-15.5-0.2-40.2-1-42.6c0,0-0.6,0.7-0.7,1.5c-0.5,2-2.5,3.6-1.7,21c0,5.8,3.3,19.5,3.5,21
	l-0.2-1.3l-0.7-14.3c-0.4-6.9-0.6-23.3-0.6-23.3l1.6,19c0.6,5-0.1,17.2-0.2,18.8L71.3,77.8z"/>
<g>
	<path class="st1" d="M49.8,1.9C49.8,1.9,49.8,1.9,49.8,1.9c0.1,0,0.1,0,0.2,0H49.8z"/>
	<path class="st2" d="M81.7,40.1c0,0-2.4-24.2-4.3-26.1c0,0-0.9-1-2.6-1.4c0,0-9.2-2.6-15.8-5.9l-4.4-3.8c0,0-1.4-1-4.8-1
		c-3.5-0.1-4.6,1-4.6,1l-4.4,3.8C34.2,10,25,12.6,25,12.6C23.5,13,22.6,14,22.6,14c-1.9,1.9-4.3,26.1-4.3,26.1
		c-1,6.4-0.5,47.8-0.5,47.8c0.1,0,0.5,0.1,0.7,0.1v0.3c3.8,1,8.1-0.4,8.1-0.4l-0.3,5.6c0,0,7.5,2.8,13.8,1.3c0.7,0,5.6,0.4,9.8,0.4
		c4.5,0,10-0.4,10-0.4v0c6.3,1.4,13.6-1.3,13.6-1.3l-0.3-5.7c0,0,4.3,1.3,8.1,0.4v-0.1c0.2-0.1,0.7-0.1,0.9-0.2
		C82.2,87.9,82.6,46.5,81.7,40.1z M32.2,57.4c0,5.8-3.3,19.5-3.5,21v-0.8c-0.9-15.5,0.2-40.2,1-42.6c0,0,0.5,1,0.9,1.9
		C31.4,39,33,41.5,32.2,57.4z M71.7,60.9l-0.4,16.5v0.5c0,0.3,0.1,0.5,0.1,0.6l-0.1-0.6c-0.6-3-3.3-15.1-3.3-20.4
		c-0.7-15,1-18.7,1.6-20.7c0.3-1.1,0.7-1.8,0.7-1.8C71.1,37.4,71.9,56.5,71.7,60.9z"/>
</g>
<path class="st3" d="M59.8,94.7c-1.7-0.4-3.4-1.1-5.3-2.7c0,0-3.5-4-4.6-12.2c-1.7,8.5-3.1,10-3.4,10.6c-1.1,2.4-4.8,4.1-6.4,4.4
	c0,0,8,0.4,9.8,0.4C51.9,95.2,59.8,94.7,59.8,94.7z"/>
<path class="st3" d="M45,5.4c-0.4,3.6-0.8,11.2,0.9,20.4l3.6,15.7l4.4-15.7C55.5,16.6,55.3,9,55,5.4c0,0-2.3-1.2-5.1-1.2
	C47.8,4.2,45,5.4,45,5.4z"/>
<path class="st4" d="M59.9,94.8"/>
<path class="st4" d="M40,94.8"/>
<path class="st4" d="M55.5,35.6c5.7-0.4,10.1-1.4,10.1-1.4V32c-1.9,0.3-3.7,0.6-5.3,0.7c-1.7,0.2-3.1,0.3-3.9,0.4"/>
<line class="st4" x1="50.8" y1="67.8" x2="52.6" y2="67.8"/>
<path class="st4" d="M51.8,54.7c0,0.5-0.4,0.8-0.8,0.8c-0.5,0-0.8-0.4-0.8-0.8c0-0.5,0.4-0.8,0.8-0.8C51.4,53.9,51.8,54.3,51.8,54.7
	"/>
<line class="st4" x1="51.7" y1="54.7" x2="52.9" y2="54.7"/>
<path class="st4" d="M38.6,38.2c0,0,0.6,13.2,0.2,31.4"/>
<path class="st4" d="M61.2,38.2c0,0-0.6,13.4-0.2,31.6"/>
<path class="st4" d="M26.8,87.8l1.9-0.6v-9.6 M24.1,13c4.5,15,5,16.7,5.6,22"/>
<path class="st4" d="M79.2,80.7c0,0.4,0.3,0.7,0.7,0.7c0.4,0,0.7-0.3,0.7-0.7c0-0.4-0.3-0.7-0.7-0.7C79.5,80.1,79.2,80.4,79.2,80.7"
	/>
<path class="st4" d="M79.2,82.4c0,0.4,0.3,0.7,0.7,0.7c0.4,0,0.7-0.3,0.7-0.7c0-0.4-0.3-0.7-0.7-0.7C79.5,81.8,79.2,82.1,79.2,82.4"
	/>
<path class="st4" d="M79.2,84.2c0,0.4,0.3,0.7,0.7,0.7c0.4,0,0.7-0.3,0.7-0.7c0-0.4-0.3-0.7-0.7-0.7S79.2,83.8,79.2,84.2"/>
<path class="st4" d="M79.2,85.9c0,0.4,0.3,0.7,0.7,0.7c0.4,0,0.7-0.3,0.7-0.7c0-0.4-0.3-0.7-0.7-0.7C79.5,85.2,79.2,85.5,79.2,85.9"
	/>
<path class="st4" d="M19.5,80.7c0,0.4,0.3,0.7,0.7,0.7c0.4,0,0.7-0.3,0.7-0.7c0-0.4-0.3-0.7-0.7-0.7C19.8,80.1,19.5,80.4,19.5,80.7"
	/>
<path class="st4" d="M19.5,82.4c0,0.4,0.3,0.7,0.7,0.7c0.4,0,0.7-0.3,0.7-0.7c0-0.4-0.3-0.7-0.7-0.7C19.8,81.8,19.5,82.1,19.5,82.4"
	/>
<path class="st4" d="M19.5,84.2c0,0.4,0.3,0.7,0.7,0.7c0.4,0,0.7-0.3,0.7-0.7c0-0.4-0.3-0.7-0.7-0.7S19.5,83.8,19.5,84.2"/>
<path class="st4" d="M19.5,85.9c0,0.4,0.3,0.7,0.7,0.7c0.4,0,0.7-0.3,0.7-0.7c0-0.4-0.3-0.7-0.7-0.7C19.8,85.2,19.5,85.5,19.5,85.9"
	/>
<path class="st4" d="M75.9,13c0,0-4.3,12.8-5.5,22.2"/>
<path class="st4" d="M45.4,2.8"/>
<path class="st4" d="M54.8,2.8"/>
<path class="st4" d="M48.5,51.7c8.2-17.8,13.7-33.5,13.7-33.5l-2.6-3l3.2-2.4l-3.4-5.9"/>
<path class="st4" d="M41,6.6l-3.6,6.2l3.2,2.4l-2.6,3c0,0,3.1,14.3,10.6,30.7"/>
<line class="st4" x1="40.5" y1="15.3" x2="44.7" y2="11"/>
<path class="st4" d="M55.1,5.2"/>
<path class="st4" d="M45.4,2.8c0,0-0.2,1-0.3,2.6"/>
<path class="st4" d="M55.1,5.4c-0.1-1.5,0-1.3-0.2-2.3"/>
<path class="st4" d="M50.1,4.2c-2.3,0-4.2,0.8-5,1.2c-0.4,3.7-0.8,11.1,0.9,20.3l3.5,15.9L54,25.7c1.6-9.3,1.4-16.7,1.1-20.4
	C54.3,5,52.4,4.2,50.1,4.2"/>
<line class="st4" x1="59.5" y1="15.3" x2="55.2" y2="11.3"/>
<path class="st4" d="M58.3,18.1l1.6,1.1 M49.5,41.4L49,44.5c0,0-0.9,2.4-0.3,23.1c0,0,0.8,7.6,1.6,13.2"/>
<path class="st4" d="M71.4,78.5"/>
<path class="st4" d="M68,57.5"/>
<path class="st4" d="M73.2,87.8c-0.8-0.3-1.9-0.8-1.9-0.8v-9.6"/>
<line class="st4" x1="18.7" y1="88.3" x2="18.7" y2="75.4"/>
<path class="st4" d="M18.5,88.3"/>
<path class="st4" d="M59.9,94.8c-2.1-0.6-4.6-1.8-6.1-3.7L53.7,91c-1.5-2.7-3.1-5.7-3.8-11.7c-0.7,6.1-2.3,9.1-3.8,11.8L46,91.2
	c-1.6,2-3.6,3.1-5.9,3.6"/>
<line class="st4" x1="81.3" y1="75.4" x2="81.3" y2="88.3"/>
<path class="st4" d="M29.7,74.1c0,0,0.9,0.1,4.2,0.1c3.2,0,6.8-0.1,6.8-0.1c0.1-1.2,0-4.1,0-4.1l0,0v-0.4H30.4"/>
<line class="st4" x1="40.7" y1="70.1" x2="30.4" y2="70.1"/>
<path class="st4" d="M70.5,74.1c0,0-1.1,0.1-4.3,0.1c-3.2,0-6.8-0.1-6.8-0.1c-0.1-1.2,0-4.1,0-4.1l0,0v-0.4h10.2"/>
<line class="st4" x1="59.3" y1="70.1" x2="69.6" y2="70.1"/>
</svg>
