<?xml version="1.0" encoding="utf-8"?>
<!-- Generator: Adobe Illustrator 19.1.0, SVG Export Plug-In . SVG Version: 6.00 Build 0)  -->
<svg version="1.1" id="Layer_1" xmlns="http://www.w3.org/2000/svg" xmlns:xlink="http://www.w3.org/1999/xlink" x="0px" y="0px"
	 viewBox="0 0 100 100" style="enable-background:new 0 0 100 100;" xml:space="preserve">
<style type="text/css">
	.st0{fill:none;stroke:#010101;stroke-width:0.25;stroke-miterlimit:10;}
	.st1{fill:#FFFFFF;}
	.st2{fill:#C7C8C9;}
	.st3{fill:none;stroke:#030504;stroke-width:0.25;stroke-miterlimit:10;}
</style>
<path class="st0" d="M59.2,6.7"/>
<path class="st1" d="M81.7,40c0,0-2.4-24.2-4.3-26.1c0,0-0.9-1-2.6-1.4c0,0-9.2-2.6-15.8-5.9L54.9,3l-0.1-0.1
	c-1.3-1-4.2-1.1-4.7-1.1H50c-0.4,0-3.3,0-4.6,1c0,0-4.1,3.6-4.5,3.9L41,6.6c-6.6,3.3-15.8,5.9-15.8,5.9c-1.7,0.4-2.6,1.4-2.6,1.4
	C20.7,15.8,18.3,40,18.3,40c-0.9,6.4-0.5,47.9-0.5,47.9c3.9,1.3,8.4,0,9-0.2L26.4,97c0,0,8.5,2,13.7,0.7l0,0.1c0,0,5.4,0.4,9.9,0.4
	s10-0.4,10-0.4v-0.1C65.2,99,73.6,97,73.6,97l-0.4-9.3c-0.6-0.2,4.7,1.6,9,0.2C82.2,87.9,82.7,46.4,81.7,40z M29.6,62.9l-0.9,14.6
	c0,0-0.7-13.6-0.1-18.9l1.6-19.2C30.2,39.4,30,56,29.6,62.9z M71.3,77.5l-0.9-14.6C70,56,69.8,39.4,69.8,39.4l1.6,19.2
	C72,63.9,71.3,77.5,71.3,77.5z"/>
<path class="st2" d="M59.9,97.9c-1.2-0.3-2.3-0.8-3-1.5c0,0-5.5-4.2-7-17.2c-1.5,13-7,17.2-7,17.2c-0.7,0.7-1.7,1.2-2.9,1.5
	c0,0,8.3,0.4,10.2,0.4C52,98.2,59.9,97.9,59.9,97.9z"/>
<path class="st2" d="M45,5.3c-0.4,3.7-0.8,11.2,0.9,20.5l3.6,15.8l4.4-15.8C55.5,16.6,55.3,9,55,5.3c0,0-2.4-1.2-5.1-1.2
	C47.9,4.1,45,5.3,45,5.3z"/>
<path class="st0" d="M60,97.8"/>
<path class="st0" d="M50,98.2"/>
<path class="st0" d="M60,97.8c-1.2-0.3-2.3-0.8-3-1.5c0,0-5.5-4.2-7-17.2c-1.5,13-7,17.2-7,17.2c-0.7,0.7-1.7,1.2-2.9,1.5"/>
<path class="st0" d="M55.5,35.6c5.7-0.4,10.2-1.4,10.2-1.4V32c-1.9,0.3-3.7,0.6-5.3,0.7c-1.7,0.2-3.1,0.3-3.9,0.4"/>
<line class="st0" x1="50.8" y1="67.7" x2="52.6" y2="67.7"/>
<path class="st0" d="M51.8,54.7c0,0.5-0.4,0.8-0.8,0.8c-0.5,0-0.8-0.4-0.8-0.8c0-0.5,0.4-0.8,0.8-0.8C51.4,53.9,51.8,54.3,51.8,54.7
	"/>
<line class="st0" x1="51.7" y1="54.7" x2="52.9" y2="54.7"/>
<path class="st0" d="M20.8,80.7c0,0.4-0.3,0.7-0.7,0.7c-0.4,0-0.7-0.3-0.7-0.7c0-0.4,0.3-0.7,0.7-0.7S20.8,80.3,20.8,80.7"/>
<path class="st0" d="M20.8,82.4c0,0.4-0.3,0.7-0.7,0.7c-0.4,0-0.7-0.3-0.7-0.7c0-0.4,0.3-0.7,0.7-0.7C20.5,81.7,20.8,82,20.8,82.4"
	/>
<path class="st0" d="M20.8,84.1c0,0.4-0.3,0.7-0.7,0.7c-0.4,0-0.7-0.3-0.7-0.7c0-0.4,0.3-0.7,0.7-0.7C20.5,83.5,20.8,83.8,20.8,84.1
	"/>
<path class="st0" d="M20.8,85.9c0,0.4-0.3,0.7-0.7,0.7c-0.4,0-0.7-0.3-0.7-0.7c0-0.4,0.3-0.7,0.7-0.7C20.5,85.2,20.8,85.5,20.8,85.9
	"/>
<path class="st0" d="M38.6,38.5c0,0,0.6,13.8,0.2,31.9"/>
<path class="st0" d="M61.2,38.5c0,0-0.6,13.8-0.2,31.9"/>
<path class="st0" d="M26.8,87.8l1.9-0.6v-9.8 M24.2,13c0,0,5.3,15.9,6.1,26.7"/>
<path class="st0" d="M28.7,75.3c0,0,0.7,0.1,4.1,0.1c3.4,0,7-0.1,7-0.1c0.1-1.3,0-4.3,0-4.3l0,0v-0.4H29.2"/>
<line class="st0" x1="39.9" y1="71" x2="29.2" y2="71"/>
<path class="st0" d="M79.2,80.7c0,0.4,0.3,0.7,0.7,0.7c0.4,0,0.7-0.3,0.7-0.7c0-0.4-0.3-0.7-0.7-0.7S79.2,80.3,79.2,80.7"/>
<path class="st0" d="M79.2,82.4c0,0.4,0.3,0.7,0.7,0.7c0.4,0,0.7-0.3,0.7-0.7c0-0.4-0.3-0.7-0.7-0.7C79.5,81.7,79.2,82,79.2,82.4"/>
<path class="st0" d="M79.2,84.1c0,0.4,0.3,0.7,0.7,0.7c0.4,0,0.7-0.3,0.7-0.7c0-0.4-0.3-0.7-0.7-0.7C79.5,83.5,79.2,83.8,79.2,84.1"
	/>
<path class="st0" d="M79.2,85.9c0,0.4,0.3,0.7,0.7,0.7c0.4,0,0.7-0.3,0.7-0.7c0-0.4-0.3-0.7-0.7-0.7C79.5,85.2,79.2,85.5,79.2,85.9"
	/>
<path class="st0" d="M73.2,87.8c-0.8-0.3-1.9-0.8-1.9-0.8v-9.6 M75.8,13c0,0-5.3,15.9-6.1,26.7"/>
<path class="st0" d="M71.3,75.3c0,0-0.7,0.1-4.1,0.1s-7-0.1-7-0.1c-0.1-1.3,0-4.3,0-4.3l0,0v-0.4h10.6"/>
<line class="st0" x1="60.1" y1="71" x2="70.8" y2="71"/>
<path class="st0" d="M60,97.8"/>
<path class="st0" d="M40.1,97.8"/>
<path class="st0" d="M69.8,39.4c0,0,0.2,16.6,0.6,23.5l0.9,14.6c0,0,0.7-13.6,0.1-18.9L69.8,39.4z M30.2,39.4c0,0-0.2,16.6-0.6,23.5
	l-0.9,14.6c0,0-0.7-13.6-0.1-18.9L30.2,39.4z"/>
<path class="st0" d="M54.7,2.8"/>
<path class="st0" d="M40.9,6.7l-3.6,6.2l3.2,2.4l-2.6,3c0,0,3.2,14.5,10.7,30.9l-0.1,2.5c8.2-17.8,13.7-33.4,13.7-33.4l-2.6-3
	l3.2-2.4l-3.6-6.2"/>
<line class="st0" x1="40.5" y1="15.3" x2="44.7" y2="11.1"/>
<path class="st0" d="M45.4,2.8c0,0-0.2,0.9-0.3,2.5c0.8-0.4,2.7-1.2,5-1.2c2.4,0,4.3,0.8,5,1.2"/>
<path class="st0" d="M55.1,5.2c-0.1-1.6-0.3-2.4-0.3-2.4"/>
<path class="st0" d="M41,6.6"/>
<path class="st0" d="M26.8,87.7"/>
<path class="st0" d="M43,96.2c-0.7,0.7-1.7,1.2-2.9,1.5"/>
<path class="st0" d="M50,79"/>
<path class="st0" d="M60,97.7c-1.2-0.3-2.3-0.8-3-1.5"/>
<path class="st0" d="M73.6,97"/>
<path class="st0" d="M82.2,87.9"/>
<path class="st0" d="M55.1,5.2"/>
<path class="st0" d="M45,5.3"/>
<path class="st0" d="M45.4,2.8"/>
<line class="st0" x1="59.5" y1="15.3" x2="55.3" y2="11.2"/>
<path class="st0" d="M58.3,18.1l1.6,1.1 M49.5,41.3L49,44.5c0,0-0.9,2.4-0.3,23.1c0,0,0.8,7.6,1.6,13.2"/>
<line class="st0" x1="18.7" y1="88.2" x2="18.7" y2="75.4"/>
<path class="st0" d="M26.8,87.8"/>
<path class="st0" d="M40.1,97.8"/>
<path class="st0" d="M60,97.8"/>
<path class="st0" d="M73.2,87.8"/>
<line class="st0" x1="81.3" y1="75.4" x2="81.3" y2="88.3"/>
<path class="st0" d="M45,5.3c-0.4,3.7-0.8,11.2,0.9,20.5l3.6,15.8l4.4-15.8C55.5,16.6,55.3,9,55,5.3"/>
<path class="st3" d="M81.7,40c0,0-2.4-24.2-4.3-26.1c0,0-0.9-1-2.6-1.4c0,0-9.2-2.6-15.8-5.9L54.9,3l-0.1-0.1
	c-1.3-1-4.2-1.1-4.7-1.1H50c-0.4,0-3.3,0-4.6,1c0,0-4.1,3.6-4.5,3.9L41,6.6c-6.6,3.3-15.8,5.9-15.8,5.9c-1.7,0.4-2.6,1.4-2.6,1.4
	C20.7,15.8,18.3,40,18.3,40c-0.9,6.4-0.5,47.9-0.5,47.9c3.9,1.3,8.4,0,9-0.2L26.4,97c0,0,8.5,2,13.7,0.7l0,0.1c0,0,5.4,0.4,9.9,0.4
	s10-0.4,10-0.4v-0.1C65.2,99,73.6,97,73.6,97l-0.4-9.3c-0.6-0.2,4.7,1.6,9,0.2C82.2,87.9,82.7,46.4,81.7,40z M30.2,39.4 M28.6,58.6
	 M28.7,77.5 M29.6,62.9 M70.4,62.9 M71.3,77.5 M71.4,58.6 M69.8,39.4"/>
</svg>
