<?xml version="1.0" encoding="utf-8"?>
<!-- Generator: Adobe Illustrator 19.1.0, SVG Export Plug-In . SVG Version: 6.00 Build 0)  -->
<svg version="1.1" id="Layer_1" xmlns="http://www.w3.org/2000/svg" xmlns:xlink="http://www.w3.org/1999/xlink" x="0px" y="0px"
	 viewBox="0 0 100 100" style="enable-background:new 0 0 100 100;" xml:space="preserve">
<style type="text/css">
	.st0{fill:#FFFFFF;}
	.st1{fill:#C7C8C9;}
	.st2{fill:none;stroke:#010101;stroke-width:0.25;stroke-miterlimit:2.613;}
	.st3{fill:none;stroke:#010101;stroke-width:0.25;stroke-linejoin:bevel;stroke-miterlimit:10;}
	.st4{fill:#FFFFFF;stroke:#010101;stroke-width:0.25;stroke-miterlimit:2.613;}
	.st5{fill:#C7C8C9;stroke:#010101;stroke-width:0.25;stroke-miterlimit:10;}
	.st6{fill:none;stroke:#010101;stroke-width:0.25;stroke-miterlimit:10;}
	.st7{fill:#C7C8CA;}
	.st8{fill:none;stroke:#000000;stroke-width:0.1781;stroke-linejoin:bevel;stroke-miterlimit:10;}
</style>
<g>
	<path class="st0" d="M48.3,100c0.5-6,1.1-12.1,1.9-17.3C51,87.9,51.6,94,52.1,100h36.8c0.4-16.2,1.2-29.9,1.2-42
		c0-4-0.1-7.8-0.3-11.4l-0.4-0.3c0-0.1,0-0.1,0-0.1l0.4,0.3l-0.6-3.9c-0.4-7.3-0.9-13.9-1.7-20.9h0.1h-0.1l-0.3-8.5v-0.1v0.1
		c-2.6-1.1-16-2.9-35.7-2.9l-1.4,2.3l-1.4-2.3c-19.7,0.1-34.2,2.2-35.6,2.9v-0.1v0.1l-0.3,8.5h-0.1h0.1c-0.5,7.3-1.4,14.7-1.9,23.4
		l-0.2,1.2l0.1-0.1c0,0,0,0,0,0.1l-0.4,0.2c-0.2,3.6-0.3,7.4-0.3,11.4c0,12.1,0.7,26,1.2,42.1H48.3z M87.2,13.2
		C87.2,13.2,87.1,13.3,87.2,13.2l-0.4,0.1C86.9,13.3,87.1,13.2,87.2,13.2z M13.4,13.3h-0.2c0,0,0-0.1-0.1-0.1
		C13.2,13.2,13.3,13.3,13.4,13.3z"/>
</g>
<path class="st1" d="M87.2,13.2C84,14,70.6,16.1,50.1,16.1c-20.4,0-35.7-2.2-37-2.9c1.2-0.7,15.8-2.8,35.6-2.9l1.4,2.3l1.4-2.3
	C71.2,10.3,84.7,12.1,87.2,13.2z"/>
<path class="st0" d="M87.5,22.4"/>
<path class="st2" d="M29.2,100l0.4-29"/>
<path class="st2" d="M70.6,71.1l0.2,28.9"/>
<path class="st2" d="M50.2,82.6"/>
<path class="st2" d="M56.7,24.5v35.8c0,3.4-3.1,6.2-6.5,6.2"/>
<line class="st2" x1="50.1" y1="66.5" x2="50.1" y2="82.7"/>
<path class="st3" d="M87.6,21.7c-17.9,2.8-47.9,4.8-74.9,0"/>
<path class="st4" d="M73.5,15.2H72c-0.1,0-0.2,0.1-0.2,0.3l0.5,8c0,0.2,0.1,0.3,0.3,0.3l1.4-0.1c0.1,0,0.2-0.1,0.2-0.3l-0.5-8
	C73.7,15.3,73.6,15.2,73.5,15.2"/>
<path class="st4" d="M29.2,15.4h-1.4c-0.1,0-0.2,0.1-0.2,0.3v8c0,0.2,0.1,0.3,0.2,0.3h1.4c0.1,0,0.2-0.1,0.2-0.3v-8
	C29.4,15.6,29.3,15.4,29.2,15.4"/>
<path class="st3" d="M50.2,66.5c0,0-0.1-27,0-31.5c0-2.7,0-7.9-0.2-10.4h-9.1l-2.5-4.2l2.5-4.2"/>
<path class="st3" d="M89.4,46.4"/>
<path class="st3" d="M87.2,13.3l0.3,8.5"/>
<path class="st3" d="M13.1,13.3"/>
<path class="st5" d="M87.2,13.2C84,14,70.6,16.1,50.1,16.1c-20.4,0-35.7-2.2-37-2.9"/>
<path class="st3" d="M10.8,46.4"/>
<polyline class="st6" points="14.2,21.8 11.9,45.6 10.7,46.3 "/>
<polyline class="st6" points="86.1,21.8 88.4,45.3 89.8,46.5 "/>
<g>
	<path class="st6" d="M48.3,100c0.5-6,1.1-12.1,1.9-17.3C51,87.9,51.6,94,52.1,100 M88.9,100c0.4-16.2,1.2-29.9,1.2-42
		c0-4-0.1-7.8-0.3-11.4l-0.4-0.3c0-0.1,0-0.1,0-0.1l0.4,0.3l-0.6-3.9c-0.4-7.3-0.9-13.9-1.7-20.9h0.1h-0.1l-0.3-8.5v-0.1v0.1
		c-2.6-1.1-16-2.9-35.7-2.9l-1.4,2.3l-1.4-2.3c-19.7,0.1-34.2,2.2-35.6,2.9v-0.1v0.1l-0.3,8.5h-0.1h0.1c-0.5,7.3-1.4,14.7-1.9,23.4
		l-0.2,1.2l0.1-0.1c0,0,0,0,0,0.1l-0.4,0.2c-0.2,3.6-0.3,7.4-0.3,11.4c0,12.1,0.7,26,1.2,42.1"/>
</g>
<polygon class="st7" points="81.2,22.7 82.4,45.1 80.7,41.4 "/>
<line class="st8" x1="81.2" y1="22.7" x2="82.4" y2="45.1"/>
<polygon class="st7" points="72.5,23.8 73.5,53.9 70.8,48.8 "/>
<line class="st8" x1="72.5" y1="23.8" x2="73.5" y2="53.9"/>
<polygon class="st7" points="20.5,22.7 19.9,44.7 21.8,41 "/>
<line class="st8" x1="20.4" y1="23" x2="19.9" y2="44.7"/>
<polygon class="st7" points="29.7,23.8 29.3,54.4 32.1,48.8 "/>
<line class="st8" x1="29.7" y1="23.8" x2="29.3" y2="54.4"/>
</svg>
