<?xml version="1.0" encoding="utf-8"?>
<!-- Generator: Adobe Illustrator 19.1.0, SVG Export Plug-In . SVG Version: 6.00 Build 0)  -->
<svg version="1.1" id="Layer_1" xmlns="http://www.w3.org/2000/svg" xmlns:xlink="http://www.w3.org/1999/xlink" x="0px" y="0px"
	 viewBox="0 0 100 100" style="enable-background:new 0 0 100 100;" xml:space="preserve">
<style type="text/css">
	.st0{fill:#FFFFFF;}
	.st1{fill:none;stroke:#010101;stroke-width:0.25;stroke-miterlimit:10;}
	.st2{fill:none;stroke:#010101;stroke-width:0.25;stroke-miterlimit:10;stroke-dasharray:0.8481;}
	.st3{fill:#FFFFFF;stroke:#010101;stroke-width:0.25;stroke-miterlimit:10;}
	.st4{fill:none;stroke:#010101;stroke-width:0.25;stroke-miterlimit:10;stroke-dasharray:0.6954;}
</style>
<path class="st0" d="M69.5,17.3c-0.3-2.7-0.9-5-1.7-7c-0.6-1.1-2.2-3.3-5.2-4.7c0.1,0,0.2,0.1,0.3,0.1c-0.2-0.1-0.3-0.2-0.5-0.2
	c0.1,0,0.1,0.1,0.2,0.1c-0.2-0.1-0.5-0.2-0.7-0.3c0.2,0.1,0.3,0.1,0.5,0.2c-3.5-1.6-8.2-2-12.3-2c-5.4,0-11.6,0.8-14.9,3.7
	c-1.4,1.2-2.3,2.4-2.7,3.1c-0.8,2-1.4,4.3-1.7,6.9C26.4,19.1,4.1,28.8,0.1,31.9L0,100h99.9V31.6C95.8,28.5,72.7,18.6,69.5,17.3z"/>
<path class="st1" d="M37.7,5.6"/>
<path class="st1" d="M62.9,5.8c-0.2-0.1-0.3-0.2-0.5-0.2c0,0,0,0,0,0c-3.5-1.6-8.2-2-12.3-2C46,3.5,41.4,4,38,5.5"/>
<path class="st1" d="M34.9,17.5c2.6-4.3,9.4-5.4,15.3-5.4c5.9,0,12.6,1.1,15.2,5.3"/>
<path class="st1" d="M47,100V41.6"/>
<path class="st1" d="M31.6,16.9c0,0-27.1,11.6-31.5,15"/>
<path class="st1" d="M69.1,17.1c0,0,26.4,11.2,30.8,14.5"/>
<line class="st1" x1="2.5" y1="37" x2="31.2" y2="24.1"/>
<line class="st2" x1="1.8" y1="35.9" x2="30.6" y2="22.6"/>
<line class="st1" x1="98.6" y1="37.2" x2="69.6" y2="23.8"/>
<line class="st2" x1="99.1" y1="35.9" x2="69.9" y2="22.5"/>
<path class="st1" d="M50.3,52.2"/>
<path class="st1" d="M50.3,52.2"/>
<line class="st1" x1="50.3" y1="53" x2="50.3" y2="54.9"/>
<circle class="st3" cx="50.3" cy="53" r="1"/>
<path class="st1" d="M50.3,73"/>
<path class="st1" d="M50.3,73"/>
<line class="st1" x1="50.3" y1="73.7" x2="50.3" y2="75.7"/>
<circle class="st3" cx="50.3" cy="73.7" r="1"/>
<path class="st1" d="M50.3,93.7"/>
<path class="st1" d="M50.3,93.7"/>
<line class="st1" x1="50.3" y1="94.5" x2="50.3" y2="96.4"/>
<circle class="st3" cx="50.3" cy="94.5" r="1"/>
<path class="st1" d="M41.5,39.8c0.7,0.5,5.4,2.2,8.6,2.2c3.2,0,7.9-1.7,8.6-2.2v-6.4c-0.7,0.5-5.4,2.4-8.6,2.4
	c-3.2,0-7.9-1.8-8.6-2.4V39.8z"/>
<path class="st1" d="M58.6,40v-6.4l-7.5,2.3c0,0-2.9,1.1-3.5,1.5c-0.7,0.4-0.7,1.2-0.7,2.1c0,0.7,0,2,0,2.2"/>
<path class="st4" d="M64.8,8.1c-2.5-2.4-7.7-3.7-14.7-3.7S37.9,5.7,35.4,8.1c-2.8,2.7-3.6,7.1-3.7,7.8l0.4,4.6
	c0.5-0.9,1.1-2,1.8-3.3c2.2-4,7.8-6.1,16.2-6.1s14,2.1,16.2,6.1c0.8,1.3,1.4,2.4,1.8,3.3l0.4-4.6C68.4,15.3,67.5,10.8,64.8,8.1z"/>
<circle class="st3" cx="50.3" cy="39.5" r="1"/>
<path class="st3" d="M66.5,9.1c0.6,1.2,0.8,2.7,0.3,4.4C65,21.2,54.9,33.9,51,35.8l9.6,9.4c0.2,0.2,0.4,0.1,0.5-0.1
	c6.5-14.8,8.6-18.6,8.6-24c0-4.4-0.8-7.9-1.9-10.8c-0.6-1.2-2.4-3.6-5.9-5"/>
<path class="st4" d="M67.2,9.4c0.5,0.7,1.1,2,0.3,4.4c-1.2,3.5-3.4,8.5-7.2,13.6c-2.9,3.9-5.9,7.1-8,8.6l8.2,8
	c6-14.4,8.3-16.7,8.9-26.9"/>
<path class="st3" d="M34,8.9c-0.7,1.3-0.9,2.8-0.5,4.6c1.8,7.7,11.9,20.4,15.8,22.3l-9.6,9.4c-0.2,0.2-0.4,0.1-0.5-0.1
	c-6.5-14.8-8.6-18.6-8.6-24c0-4.4,0.8-7.9,1.9-10.8c0.6-1.1,2.3-3.4,5.5-4.8"/>
<path class="st4" d="M33.1,9.4c-0.5,0.7-1.1,2-0.3,4.4c1.2,3.5,3.4,8.5,7.2,13.6c2.9,3.9,5.9,7.1,8,8.6l-8.2,8
	c-6-14.4-8.3-16.7-8.9-26.9"/>
</svg>
