<?xml version="1.0" encoding="utf-8"?>
<!-- Generator: Adobe Illustrator 19.1.0, SVG Export Plug-In . SVG Version: 6.00 Build 0)  -->
<svg version="1.1" id="Layer_1" xmlns="http://www.w3.org/2000/svg" xmlns:xlink="http://www.w3.org/1999/xlink" x="0px" y="0px"
	 viewBox="0 0 100 100" style="enable-background:new 0 0 100 100;" xml:space="preserve">
<style type="text/css">
	.st0{fill:#FFFFFF;}
	.st1{fill:none;stroke:#010101;stroke-width:0.2598;stroke-miterlimit:10;}
	.st2{fill:none;stroke:#010101;stroke-width:0.25;stroke-miterlimit:10;}
</style>
<path class="st0" d="M49.9,8.7C52.1,8.7,58,9,59.2,9"/>
<path class="st0" d="M59.2,9c-0.4-0.2-0.6-0.3-0.6-0.3c-0.3-0.3-3.3-3-4-3.6c0,0-2.7-0.3-4.5-0.3s-4.5,0.3-4.5,0.3s-3.9,3.3-4.2,3.6
	c0,0-0.2,0.1-0.6,0.3"/>
<path class="st0" d="M77.7,20.5c-0.4-2.5-0.9-3.6-0.9-3.6c-0.2-1.1-1.5-1.7-1.8-1.9c-0.1-0.1-0.1-0.1-0.1-0.1
	c-6.1-1.3-13.5-4.8-15.5-5.8L59.2,9c-0.4-0.2-0.6-0.3-0.6-0.3c-0.3-0.3-3.3-3-4-3.6c0,0-2.7-0.3-4.5-0.3c-1.8,0-4.5,0.3-4.5,0.3
	s-3.9,3.3-4.2,3.6c0,0-0.2,0.1-0.6,0.3l-0.1,0.1c-2.3,1-10.4,4.6-15.5,5.8c0,0,0,0-0.1,0.1c-0.3,0.3-1.4,0.8-1.8,1.9
	c0,0-0.4,1-0.9,3.6c0,0-3.9,20.9-3.5,39.9l1.6,26.9c0,0,2.7,1,5.3,0.5c0,0,2.1-0.1,3.6-0.7c0,0-0.1,5-0.3,7.2c0,0,2.1,0.2,5.5,0.4
	c0.1,0,0.1,0.2,0.1,0.2c4.2,0.3,10.3,0.6,15.1,0.6c4.7,0,11.1-0.3,15.4-0.6c0.1,0,0.1-0.2,0.2-0.2c3.4-0.2,5.5-0.4,5.5-0.4
	c-0.2-0.8-0.3-7.2-0.3-7.2c1.5,0.6,3.6,0.7,3.6,0.7c2.6,0.5,5.3-0.5,5.3-0.5l1.5-27C81.5,41.4,77.7,20.5,77.7,20.5z M32,61.8
	c0,0-0.5,10-1.5,15.4h-0.1c-0.2-6.9-0.9-15.5-0.9-17.9c0,0,0.8-14.6,1.5-19.3v-0.1C31,39.9,32.7,53.8,32,61.8z M69.7,77.3h-0.1
	c-0.9-5.4-1.5-15.5-1.5-15.5C67.7,54.3,69,39.9,69,39.9s0,0,0,0.1c0.3,3.6,1.7,19.3,1.7,19.3C70.7,61.7,70.3,70,69.7,77.3z"/>
<path class="st0" d="M59.2,9c-0.4-0.2-0.6-0.3-0.6-0.3c-0.3-0.3-3.3-3-4-3.6c0,0-2.7-0.3-4.5-0.3s-4.5,0.3-4.5,0.3s-3.9,3.3-4.2,3.6
	c0,0-0.2,0.1-0.6,0.3c0.5,0,6.8-0.3,9.1-0.3C52.1,8.7,58,9,59.2,9"/>
<path class="st1" d="M40.8,9c0.5,0,6.8-0.3,9.1-0.3C52.1,8.7,58,9,59.2,9"/>
<path class="st0" d="M69.7,77.3L69.7,77.3c-1-5.4-1.6-15.5-1.6-15.5C67.7,54.3,69,39.9,69,39.9s0,0,0,0.1c0.3,3.6,1.7,19.3,1.7,19.3
	C70.7,61.7,70.3,70,69.7,77.3 M32,61.8c0,0-0.5,10-1.5,15.4h-0.1c-0.2-6.9-0.9-15.5-0.9-17.9c0,0,0.8-14.6,1.5-19.3v-0.1
	C31,39.9,32.7,53.8,32,61.8 M40.7,9.1c-2.3,1-10.4,4.6-15.5,5.8c0,0,0,0-0.1,0.1c-0.3,0.3-1.4,0.8-1.8,1.9c0,0-0.4,1-0.9,3.6
	c0,0-3.9,20.9-3.5,39.9l1.6,26.9c0,0,2.7,1,5.3,0.5c0,0,2.1-0.1,3.6-0.7c0,0-0.1,5-0.3,7.2c0,0,2.1,0.2,5.5,0.4
	c0.1,0,0.1,0.2,0.1,0.2c4.2,0.3,10.3,0.6,15.1,0.6c4.7,0,11.1-0.3,15.4-0.6c0.1,0,0.1-0.2,0.2-0.2c3.4-0.2,5.5-0.4,5.5-0.4
	c-0.2-0.8-0.3-7.2-0.3-7.2c1.5,0.6,3.6,0.7,3.6,0.7c2.6,0.5,5.3-0.5,5.3-0.5l1.5-27c0.5-18.9-3.3-39.8-3.3-39.8 M77.7,20.5
	c-0.4-2.5-0.9-3.6-0.9-3.6c-0.2-1.1-1.5-1.7-1.8-1.9c-0.1-0.1-0.1-0.1-0.1-0.1c-6.1-1.3-13.5-4.8-15.5-5.8"/>
<path class="st1" d="M69.6,77.2c0.5,4.7,0.5,4.7,1,10.2 M30.6,77.2c0,0-0.9,7.1-1.2,10.2"/>
<path class="st1" d="M68.9,40.5c0.8-10.4,5.9-25.7,5.9-25.7 M25.2,14.8c0,0,5.1,15.3,5.9,25.7"/>
<path class="st2" d="M77.7,20.5c-0.4-2.5-0.9-3.6-0.9-3.6c-0.2-1.1-1.5-1.7-1.8-1.9c-0.1-0.1-0.1-0.1-0.1-0.1
	c-6.1-1.3-13.5-4.8-15.5-5.8L59.2,9c-0.4-0.2-0.6-0.3-0.6-0.3c-0.3-0.3-3.3-3-4-3.6c0,0-2.7-0.3-4.5-0.3c-1.8,0-4.5,0.3-4.5,0.3
	s-3.9,3.3-4.2,3.6c0,0-0.2,0.1-0.6,0.3l-0.1,0.1c-2.3,1-10.4,4.6-15.5,5.8c0,0,0,0-0.1,0.1c-0.3,0.3-1.4,0.8-1.8,1.9
	c0,0-0.4,1-0.9,3.6c0,0-3.9,20.9-3.5,39.9l1.6,26.9c0,0,2.7,1,5.3,0.5c0,0,2.1-0.1,3.6-0.7c0,0-0.1,5-0.3,7.2c0,0,2.1,0.2,5.5,0.4
	c0.1,0,0.1,0.2,0.1,0.2c4.2,0.3,10.3,0.6,15.1,0.6c4.7,0,11.1-0.3,15.4-0.6c0.1,0,0.1-0.2,0.2-0.2c3.4-0.2,5.5-0.4,5.5-0.4
	c-0.2-0.8-0.3-7.2-0.3-7.2c1.5,0.6,3.6,0.7,3.6,0.7c2.6,0.5,5.3-0.5,5.3-0.5l1.5-27C81.5,41.4,77.7,20.5,77.7,20.5z M32,61.8
	c0,0-0.5,10-1.5,15.4h-0.1c-0.2-6.9-0.9-15.5-0.9-17.9c0,0,0.8-14.6,1.5-19.3v-0.1C31,39.9,32.7,53.8,32,61.8z M69.7,77.3h-0.1
	c-0.9-5.4-1.5-15.5-1.5-15.5C67.7,54.3,69,39.9,69,39.9s0,0,0,0.1c0.3,3.6,1.7,19.3,1.7,19.3C70.7,61.7,70.3,70,69.7,77.3z"/>
</svg>
