<?xml version="1.0" encoding="utf-8"?>
<!-- Generator: Adobe Illustrator 19.1.0, SVG Export Plug-In . SVG Version: 6.00 Build 0)  -->
<svg version="1.1" id="Layer_1" xmlns="http://www.w3.org/2000/svg" xmlns:xlink="http://www.w3.org/1999/xlink" x="0px" y="0px"
	 viewBox="0 0 100 100" style="enable-background:new 0 0 100 100;" xml:space="preserve">
<style type="text/css">
	.st0{fill:#FFFFFF;}
	.st1{clip-path:url(#SVGID_2_);fill:none;stroke:#010101;stroke-width:0.25;stroke-miterlimit:10;}
	.st2{fill:none;stroke:#010101;stroke-width:0.25;stroke-miterlimit:10;}
</style>
<path class="st0" d="M76.8,16.8c-0.2-1.1-1.5-1.7-1.8-1.9c-0.1-0.1-0.1-0.1-0.1-0.1C68.8,13.5,61.4,10,59.4,9
	c-0.4-0.2-0.7-0.4-0.7-0.4c-0.3-0.3-3.3-3-4-3.6c0,0-2.7-0.3-4.5-0.3S45.7,5,45.7,5s-3.9,3.3-4.2,3.6c0,0-0.4,0.2-0.8,0.4
	c-2.3,1-10.4,4.6-15.5,5.8c0,0,0,0-0.1,0.1c-0.3,0.3-1.4,0.8-1.8,1.9c0,0-0.4,1-0.9,3.6c0,0-3.9,20.9-3.5,39.9l1.6,26.9
	c0,0,2.7,1,5.3,0.5c0,0,2.1-0.1,3.6-0.7c0,0-0.1,5-0.3,7.2c0,0,4.3,0.2,9.6,0.5c0.6,0,1.2,0.1,1.8,0.1L37,94.7
	c2.3,0.4,11.5,0.6,13.1,0.6c0.1,0,0.1-0.1,0.2-0.1c0,0,0,0,0,0c0,0,0,0,0,0c0,0,0.1-0.1,0.1-0.1c8.7,0,20.6-0.9,20.6-0.9
	c-0.2-0.8-0.3-7.2-0.3-7.2c1.5,0.6,3.6,0.7,3.6,0.7c2.6,0.5,5.3-0.5,5.3-0.5l1.5-26.9c0.4-18.9-3.4-39.8-3.4-39.8
	C77.3,17.9,76.8,16.8,76.8,16.8z M32.1,61.7c0,0-0.5,10-1.5,15.4h-0.1c-0.2-6.9-0.9-15.5-0.9-17.9c0,0,0.8-14.6,1.5-19.3v-0.1
	C31.1,39.8,32.8,53.8,32.1,61.7z M69.7,77.2h-0.1c-0.9-5.4-1.5-15.5-1.5-15.5C67.7,54.2,69,39.8,69,39.8s0,0,0,0.1
	c0.3,3.6,1.7,19.3,1.7,19.3C70.8,61.6,70.4,70,69.7,77.2z"/>
<g>
	<defs>
		<rect id="SVGID_1_" x="18.8" y="4.6" width="62.5" height="90.8"/>
	</defs>
	<clipPath id="SVGID_2_">
		<use xlink:href="#SVGID_1_"  style="overflow:visible;"/>
	</clipPath>
	<path class="st1" d="M25.2,14.7c0,0,5.1,15.3,5.9,25.7 M69,40.5c0.8-10.4,5.9-25.7,5.9-25.7 M50.1,95.3c0.1,0,0.2-0.2,0.2-0.2
		l-0.4-28 M30.6,77.1c0,0-0.9,7.1-1.2,10.2 M69.7,77.1c0.5,4.7,0.5,4.7,1,10.2 M25.1,14.9 M59.4,9c-1.2,0-7.2-0.3-9.4-0.3
		c-2.4,0-8.7,0.3-9.3,0.3 M41.5,8.6c0,0-0.4,0.2-0.8,0.4"/>
</g>
<path class="st2" d="M76.8,16.8c-0.2-1.1-1.5-1.7-1.8-1.9c-0.1-0.1-0.1-0.1-0.1-0.1C68.8,13.5,61.4,10,59.4,9
	c-0.4-0.2-0.7-0.4-0.7-0.4c-0.3-0.3-3.3-3-4-3.6c0,0-2.7-0.3-4.5-0.3S45.7,5,45.7,5s-3.9,3.3-4.2,3.6c0,0-0.4,0.2-0.8,0.4
	c-2.3,1-10.4,4.6-15.5,5.8c0,0,0,0-0.1,0.1c-0.3,0.3-1.4,0.8-1.8,1.9c0,0-0.4,1-0.9,3.6c0,0-3.9,20.9-3.5,39.9l1.6,26.9
	c0,0,2.7,1,5.3,0.5c0,0,2.1-0.1,3.6-0.7c0,0-0.1,5-0.3,7.2c0,0,19.4,1.1,21,1.1c0.1,0,0.1-0.1,0.2-0.1c0,0,0,0,0,0c0,0,0,0,0,0
	c0,0,0.1-0.1,0.1-0.1c8.7,0,20.6-0.9,20.6-0.9c-0.2-0.8-0.3-7.2-0.3-7.2c1.5,0.6,3.6,0.7,3.6,0.7c2.6,0.5,5.3-0.5,5.3-0.5l1.5-26.9
	c0.4-18.9-3.4-39.8-3.4-39.8C77.3,17.9,76.8,16.8,76.8,16.8z M32.1,61.7c0,0-0.5,10-1.5,15.4h-0.1c-0.2-6.9-0.9-15.5-0.9-17.9
	c0,0,0.8-14.6,1.5-19.3v-0.1C31.1,39.8,32.8,53.8,32.1,61.7z M69.7,77.2h-0.1c-0.9-5.4-1.5-15.5-1.5-15.5C67.7,54.2,69,39.8,69,39.8
	s0,0,0,0.1c0.3,3.6,1.7,19.3,1.7,19.3C70.8,61.6,70.4,70,69.7,77.2z"/>
</svg>
