<?xml version="1.0" encoding="utf-8"?>
<!-- Generator: Adobe Illustrator 19.1.0, SVG Export Plug-In . SVG Version: 6.00 Build 0)  -->
<svg version="1.1" id="Layer_1" xmlns="http://www.w3.org/2000/svg" xmlns:xlink="http://www.w3.org/1999/xlink" x="0px" y="0px"
	 viewBox="0 0 100 100" style="enable-background:new 0 0 100 100;" xml:space="preserve">
<style type="text/css">
	.st0{fill:none;stroke:#010101;stroke-width:0.2598;stroke-miterlimit:10;}
	.st1{fill:none;}
	.st2{fill:#FFFFFF;}
	.st3{clip-path:url(#SVGID_2_);fill:none;stroke:#010101;stroke-width:0.2598;stroke-miterlimit:10;}
	.st4{clip-path:url(#SVGID_4_);fill:none;stroke:#010101;stroke-width:0.2598;stroke-miterlimit:10;}
	.st5{fill:none;stroke:#010101;stroke-width:0.25;stroke-miterlimit:10;}
</style>
<g>
	<path class="st0" d="M32.1,61.7c0,0-0.5,10-1.5,15.4h-0.1c-0.2-6.9-0.9-15.5-0.9-17.8c0,0,0.8-14.5,1.5-19.3v-0.1
		C31.1,39.8,32.7,53.7,32.1,61.7z M69.6,77.1L69.6,77.1c-1-5.3-1.6-15.4-1.6-15.4c-0.4-7.5,0.9-21.8,0.9-21.8s0,0,0,0.1
		c0.3,3.5,1.7,19.3,1.7,19.3C70.7,61.6,70.3,69.9,69.6,77.1z"/>
</g>
<g>
	<path class="st0" d="M64.9,66.5"/>
</g>
<path class="st1" d="M18.6,100"/>
<path class="st1" d="M80.9,100"/>
<polyline class="st1" points="18.8,4.7 81.1,4.7 81.1,95.4 "/>
<path class="st1" d="M18.8,95.4"/>
<path class="st1" d="M81.1,95.4"/>
<polyline class="st1" points="18.8,4.7 81.1,4.7 81.1,95.4 "/>
<path class="st0" d="M25.2,14.8c0,0,5.1,15.3,5.9,25.7"/>
<path class="st0" d="M68.8,40.5c0.8-10.4,5.9-25.7,5.9-25.7"/>
<path class="st2" d="M77.7,20.4c-0.4-2.4-0.9-3.6-0.9-3.6c-0.2-1.1-1.5-1.7-1.8-1.9c-0.1-0.1-0.1-0.1-0.1-0.1
	C68.8,13.5,61.1,9.9,59,8.9L59.1,9c-0.4-0.2-0.5-0.3-0.5-0.3c-0.3-0.3-3.3-2.9-4-3.6c0,0-2.7-0.3-4.5-0.3c-1.8,0-4.5,0.3-4.5,0.3
	s-3.9,3.3-4.2,3.6c0,0-0.1,0.1-0.4,0.2c-2.3,1-10.8,4.8-15.8,5.9c0,0,0,0-0.1,0.1c-0.3,0.3-1.4,0.8-1.8,1.9c0,0-0.4,1-0.9,3.6
	c0,0-3.9,20.9-3.4,39.8l1.6,26.9c0,0,2.7,1,5.3,0.5c0,0,2.1-0.1,3.6-0.7c0,0-0.1,5-0.3,7.2c0,0,2.1,0.2,5.5,0.4l0.1,0.2
	c4.2,0.3,10.3,0.6,15,0.6s11-0.3,15.4-0.6l0.2-0.2c3.4-0.2,5.5-0.4,5.5-0.4c-0.2-0.8-0.3-7.2-0.3-7.2c1.5,0.6,3.6,0.7,3.6,0.7
	c2.6,0.5,5.3-0.5,5.3-0.5L81,60.2C81.5,41.3,77.7,20.4,77.7,20.4z M32.1,61.7c0,0-0.5,10-1.5,15.4h-0.1c-0.2-6.9-0.9-15.5-0.9-17.8
	c0,0,0.8-14.5,1.5-19.3v-0.1C31.1,39.8,32.7,53.7,32.1,61.7z M69.6,77.1L69.6,77.1c-1-5.3-1.6-15.4-1.6-15.4
	c-0.4-7.5,0.9-21.8,0.9-21.8s0,0,0,0.1c0.3,3.5,1.7,19.3,1.7,19.3C70.7,61.6,70.3,69.9,69.6,77.1z"/>
<g>
	<defs>
		<rect id="SVGID_1_" x="18.8" y="4.7" width="62.3" height="90.7"/>
	</defs>
	<clipPath id="SVGID_2_">
		<use xlink:href="#SVGID_1_"  style="overflow:visible;"/>
	</clipPath>
	<path class="st3" d="M25.2,14.8c0,0,5.1,15.3,5.9,25.7 M68.8,40.5c0.8-10.4,5.9-25.7,5.9-25.7 M30.6,77.1c0,0-0.9,7.1-1.2,10.2
		 M69.6,77.1c0.5,4.7,0.5,4.7,1,10.2 M40.8,9c0.5,0,6.8-0.3,9.1-0.3C52.1,8.7,58,9,59.1,9"/>
</g>
<g>
	<defs>
		<rect id="SVGID_3_" x="18.8" y="4.7" width="62.3" height="90.7"/>
	</defs>
	<clipPath id="SVGID_4_">
		<use xlink:href="#SVGID_3_"  style="overflow:visible;"/>
	</clipPath>
	<path class="st4" d="M65.3,94.6l-0.4-28.1"/>
	<path class="st4" d="M35.1,66.5l-0.4,28.1"/>
</g>
<path class="st5" d="M77.7,20.4c-0.4-2.4-0.9-3.6-0.9-3.6c-0.2-1.1-1.5-1.7-1.8-1.9c-0.1-0.1-0.1-0.1-0.1-0.1
	C68.8,13.5,61.1,9.9,59,8.9L59.1,9c-0.4-0.2-0.5-0.3-0.5-0.3c-0.3-0.3-3.3-2.9-4-3.6c0,0-2.7-0.3-4.5-0.3c-1.8,0-4.5,0.3-4.5,0.3
	s-3.9,3.3-4.2,3.6c0,0-0.1,0.1-0.4,0.2c-2.3,1-10.8,4.8-15.8,5.9c0,0,0,0-0.1,0.1c-0.3,0.3-1.4,0.8-1.8,1.9c0,0-0.4,1-0.9,3.6
	c0,0-3.9,20.9-3.4,39.8l1.6,26.9c0,0,2.7,1,5.3,0.5c0,0,2.1-0.1,3.6-0.7c0,0-0.1,5-0.3,7.2c0,0,2.1,0.2,5.5,0.4l0.1,0.2
	c4.2,0.3,10.3,0.6,15,0.6s11-0.3,15.4-0.6l0.2-0.2c3.4-0.2,5.5-0.4,5.5-0.4c-0.2-0.8-0.3-7.2-0.3-7.2c1.5,0.6,3.6,0.7,3.6,0.7
	c2.6,0.5,5.3-0.5,5.3-0.5L81,60.2C81.5,41.3,77.7,20.4,77.7,20.4z M32.1,61.7c0,0-0.5,10-1.5,15.4h-0.1c-0.2-6.9-0.9-15.5-0.9-17.8
	c0,0,0.8-14.5,1.5-19.3v-0.1C31.1,39.8,32.7,53.7,32.1,61.7z M69.6,77.1L69.6,77.1c-1-5.3-1.6-15.4-1.6-15.4
	c-0.4-7.5,0.9-21.8,0.9-21.8s0,0,0,0.1c0.3,3.5,1.7,19.3,1.7,19.3C70.7,61.6,70.3,69.9,69.6,77.1z"/>
</svg>
