<?xml version="1.0" encoding="utf-8"?>
<!-- Generator: Adobe Illustrator 19.1.0, SVG Export Plug-In . SVG Version: 6.00 Build 0)  -->
<svg version="1.1" id="Layer_1" xmlns="http://www.w3.org/2000/svg" xmlns:xlink="http://www.w3.org/1999/xlink" x="0px" y="0px"
	 viewBox="0 0 100 100" style="enable-background:new 0 0 100 100;" xml:space="preserve">
<style type="text/css">
	.st0{fill:none;stroke:#010101;stroke-width:0.224;stroke-miterlimit:10;}
	.st1{fill:none;stroke:#010101;stroke-width:0.224;stroke-miterlimit:10;stroke-dasharray:1.8924,1.8924;}
	.st2{fill:none;stroke:#010101;stroke-width:0.224;stroke-miterlimit:10;stroke-dasharray:1.629,1.629;}
	.st3{fill:none;stroke:#010101;stroke-width:0.224;stroke-miterlimit:10;stroke-dasharray:2.0406,2.0406;}
	.st4{fill:#C7C8C9;stroke:#010101;stroke-width:0.224;stroke-miterlimit:10;}
	.st5{fill:#FFFFFF;stroke:#010101;stroke-width:0.224;stroke-miterlimit:10;}
	.st6{fill:none;stroke:#010101;stroke-width:0.224;stroke-miterlimit:10;stroke-dasharray:2.0111,2.0111;}
	.st7{fill:none;stroke:#010101;stroke-width:0.224;stroke-miterlimit:10;stroke-dasharray:2.3355,2.3355;}
	.st8{fill:none;stroke:#010101;stroke-width:0.224;stroke-miterlimit:10;stroke-dasharray:2.1103,2.1103;}
	.st9{fill:none;stroke:#010101;stroke-width:0.224;stroke-miterlimit:10;stroke-dasharray:1.7706,1.7706;}
	.st10{fill:none;stroke:#010101;stroke-width:0.224;stroke-miterlimit:10;stroke-dasharray:1.836,1.836;}
	.st11{fill:none;stroke:#010101;stroke-width:0.224;stroke-miterlimit:10;stroke-dasharray:2.0788,2.0788;}
</style>
<path class="st0" d="M69.8,79.6c0.3,0.1,0.7,0.1,1,0.2v-1"/>
<line class="st1" x1="70.7" y1="76.9" x2="70.7" y2="51.4"/>
<path class="st0" d="M70.7,50.4v-1c-0.3-0.1-0.6-0.1-1-0.2"/>
<path class="st2" d="M68.2,49c-1.4-0.2-3.3-0.4-5.7-0.5"/>
<path class="st0" d="M61.7,48.5c-0.3,0-0.6,0-1-0.1v1"/>
<path class="st3" d="M60.7,51.4l0.1,19.9l6.3,7.9c0.6,0.1,1.1,0.2,1.7,0.2"/>
<path class="st4" d="M74.1,84.9c0,1.9-10.8,3.4-24.1,3.4s-24.1-1.5-24.1-3.4V47.3h48.2"/>
<polyline class="st5" points="76.1,0 74.1,47.3 74.1,53.5 25.9,53.5 25.9,47.3 23.4,0 "/>
<line class="st0" x1="66.1" y1="0" x2="66.1" y2="53.5"/>
<path class="st5" d="M74.1,84.9"/>
<path class="st5" d="M74.1,84.9c0-1.1-3.4-2-8.7-2.6l-7.9-9.8L57.4,45c9.7,0.3,16.7,1.2,16.7,2.3C74.1,47.3,74.1,84.9,74.1,84.9z"/>
<path class="st0" d="M74.1,80.9c0-0.1-0.4-0.2-0.9-0.4"/>
<path class="st6" d="M71.2,79.9c-0.2-0.1-0.4-0.1-0.5-0.2c-1.1-0.2-2.3-0.4-3.6-0.6l-6.3-7.9l-0.1-20.9"/>
<path class="st0" d="M60.7,49.4v-1c0.3,0,0.7,0,1,0.1"/>
<path class="st7" d="M64,48.6c3.3,0.3,5.5,0.6,6.7,0.8c0.4,0.1,0.9,0.2,1.3,0.4"/>
<path class="st0" d="M73.2,50.2c0.5,0.2,0.9,0.4,0.9,0.4"/>
<path class="st0" d="M28.6,84.9"/>
<path class="st0" d="M28.6,84.9"/>
<path class="st5" d="M25.9,47.3c0-1.4,10.8-2.5,24.1-2.5c6.1,0,11.8,0.2,16.1,0.6v26.7l-9.8,9.5c-2-0.1-4.1-0.1-6.3-0.1
	c-13.3,0-24.1,1.5-24.1,3.4"/>
<path class="st0" d="M25.9,80.9c0,0,0.4-0.2,0.9-0.4"/>
<path class="st8" d="M28.8,79.8c0.1,0,0.3,0,0.4-0.1c1.1-0.2,2.2-0.4,3.3-0.6c4.7-0.7,10.9-1,17.5-1c1,0,2,0,3,0"/>
<path class="st0" d="M54,78.2c0.3,0,0.7,0,1,0l0.7-0.7"/>
<line class="st9" x1="57" y1="76.3" x2="61.4" y2="72"/>
<polyline class="st0" points="62,71.4 62.7,70.7 62.7,69.7 "/>
<line class="st10" x1="62.7" y1="67.9" x2="62.7" y2="50.4"/>
<path class="st0" d="M62.7,49.5v-1c-0.3,0-0.7,0-1-0.1"/>
<path class="st11" d="M59.7,48.4c-3-0.1-6.3-0.2-9.7-0.2c-10.4,0-17.7,0.7-20.8,1.3c-0.5,0.2-1,0.5-1.5,0.7"/>
<path class="st0" d="M26.7,50.6c-0.5,0.3-0.9,0.5-0.9,0.5"/>
<line class="st0" x1="52.6" y1="63.3" x2="56.9" y2="63.3"/>
<circle class="st5" cx="57.3" cy="63.3" r="2.6"/>
</svg>
