<?xml version="1.0" encoding="utf-8"?>
<!-- Generator: Adobe Illustrator 19.1.0, SVG Export Plug-In . SVG Version: 6.00 Build 0)  -->
<svg version="1.1" id="Layer_1" xmlns="http://www.w3.org/2000/svg" xmlns:xlink="http://www.w3.org/1999/xlink" x="0px" y="0px"
	 viewBox="0 0 100 100" style="enable-background:new 0 0 100 100;" xml:space="preserve">
<style type="text/css">
	.st0{fill:none;stroke:#010101;stroke-width:0.226;stroke-miterlimit:10;}
	.st1{fill:none;stroke:#010101;stroke-width:0.226;stroke-miterlimit:10;stroke-dasharray:1.9085,1.9085;}
	.st2{fill:none;stroke:#010101;stroke-width:0.226;stroke-miterlimit:10;stroke-dasharray:1.6428,1.6428;}
	.st3{fill:none;stroke:#010101;stroke-width:0.226;stroke-miterlimit:10;stroke-dasharray:2.058,2.058;}
	.st4{fill:#C7C8C9;stroke:#010101;stroke-width:0.226;stroke-miterlimit:10;}
	.st5{fill:#FFFFFF;stroke:#010101;stroke-width:0.226;stroke-miterlimit:10;}
	.st6{fill:none;stroke:#010101;stroke-width:0.226;stroke-miterlimit:10;stroke-dasharray:2.0281,2.0281;}
	.st7{fill:none;stroke:#010101;stroke-width:0.226;stroke-miterlimit:10;stroke-dasharray:2.3421,2.3421;}
	.st8{fill:none;stroke:#010101;stroke-width:0.226;stroke-miterlimit:10;stroke-dasharray:2.1283,2.1283;}
	.st9{fill:none;stroke:#010101;stroke-width:0.226;stroke-miterlimit:10;stroke-dasharray:1.7855,1.7855;}
	.st10{fill:none;stroke:#010101;stroke-width:0.226;stroke-miterlimit:10;stroke-dasharray:1.8516,1.8516;}
	.st11{fill:none;stroke:#010101;stroke-width:0.226;stroke-miterlimit:10;stroke-dasharray:2.0965,2.0965;}
</style>
<path class="st0" d="M70,80.1c0.3,0.1,0.7,0.1,1,0.2v-1"/>
<line class="st1" x1="71" y1="77.4" x2="71" y2="51.6"/>
<path class="st0" d="M71,50.7v-1c-0.3-0.1-0.6-0.1-1-0.2"/>
<path class="st2" d="M68.4,49.3c-1.4-0.2-3.3-0.4-5.7-0.5"/>
<path class="st0" d="M61.8,48.7c-0.3,0-0.7,0-1-0.1v1"/>
<path class="st3" d="M60.8,51.7l0.1,20l6.4,7.9c0.6,0.1,1.1,0.2,1.7,0.2"/>
<path class="st4" d="M74.3,85.5c0,1.9-10.9,3.5-24.3,3.5s-24.3-1.5-24.3-3.5v-38h48.6"/>
<polyline class="st5" points="76.3,0 74.3,47.5 74.3,53.8 25.7,53.8 25.7,47.5 23.3,0 "/>
<line class="st0" x1="66.3" y1="0" x2="66.3" y2="53.8"/>
<path class="st5" d="M74.3,85.5"/>
<path class="st5" d="M74.3,85.5c0-1.1-3.4-2-8.8-2.7l-7.9-9.9l-0.1-27.8c9.8,0.3,16.9,1.3,16.9,2.4L74.3,85.5L74.3,85.5z"/>
<path class="st0" d="M74.3,81.4c-0.2-0.1-0.5-0.3-0.9-0.4"/>
<path class="st6" d="M71.5,80.3c-0.2,0-0.3-0.1-0.5-0.1c-1.1-0.2-2.3-0.4-3.7-0.6l-6.4-7.9l-0.1-21.1"/>
<path class="st0" d="M60.8,49.6v-1c0.3,0,0.7,0,1,0.1"/>
<path class="st7" d="M64.2,48.9c3.4,0.3,5.5,0.6,6.8,0.8c0.4,0,0.9,0.1,1.3,0.3"/>
<path class="st0" d="M73.4,50.3c0.5,0.2,0.9,0.4,0.9,0.4"/>
<path class="st0" d="M28.5,85.4"/>
<path class="st0" d="M28.5,85.4"/>
<path class="st5" d="M25.8,47.5c0-1.4,10.9-2.5,24.3-2.5c6.2,0,11.9,0.2,16.2,0.6v26.9l-9.8,9.6c-2-0.1-4.2-0.1-6.4-0.1
	c-13.4,0-24.3,1.6-24.3,3.5"/>
<path class="st0" d="M25.7,81.4c0,0,0.4-0.2,0.9-0.4"/>
<path class="st8" d="M28.6,80.3c0.1,0,0.3-0.1,0.4-0.1c1.1-0.2,2.2-0.4,3.3-0.6c4.7-0.7,11-1,17.7-1c1,0,2,0,3,0"/>
<path class="st0" d="M54.1,78.7c0.3,0,0.7,0,1,0l0.7-0.7"/>
<line class="st9" x1="57.1" y1="76.8" x2="61.6" y2="72.4"/>
<polyline class="st0" points="62.2,71.8 62.9,71.1 62.9,70.1 "/>
<line class="st10" x1="62.9" y1="68.3" x2="62.9" y2="50.7"/>
<path class="st0" d="M62.9,49.8v-1c-0.3,0-0.7,0-1-0.1"/>
<path class="st11" d="M59.8,48.6c-3-0.1-6.4-0.2-9.8-0.2c-10.5,0-17.9,0.7-21,1.3c-0.5,0.2-1,0.5-1.5,0.7"/>
<path class="st0" d="M26.6,50.8c-0.5,0.3-0.9,0.5-0.9,0.5"/>
<line class="st0" x1="52.7" y1="68.1" x2="57" y2="68.1"/>
<circle class="st5" cx="57.5" cy="68.2" r="2.6"/>
<line class="st0" x1="52.7" y1="56.3" x2="57" y2="56.3"/>
<circle class="st5" cx="57.5" cy="56.3" r="2.6"/>
</svg>
