<?xml version="1.0" encoding="utf-8"?>
<!-- Generator: Adobe Illustrator 19.1.0, SVG Export Plug-In . SVG Version: 6.00 Build 0)  -->
<svg version="1.1" id="Layer_1" xmlns="http://www.w3.org/2000/svg" xmlns:xlink="http://www.w3.org/1999/xlink" x="0px" y="0px"
	 viewBox="0 0 100 100" style="enable-background:new 0 0 100 100;" xml:space="preserve">
<style type="text/css">
	.st0{fill:#FFFFFF;stroke:#010101;stroke-width:0.237;stroke-miterlimit:10;}
	.st1{fill:none;stroke:#010101;stroke-width:0.237;stroke-miterlimit:10;}
	.st2{fill:none;stroke:#010101;stroke-width:0.237;stroke-miterlimit:10;stroke-dasharray:1.9949,1.9949;}
	.st3{fill:none;stroke:#010101;stroke-width:0.237;stroke-miterlimit:10;stroke-dasharray:2.1327,2.1327;}
	.st4{fill:#C7C8C9;stroke:#010101;stroke-width:0.237;stroke-miterlimit:10;}
</style>
<polyline class="st0" points="77.8,0 73.6,58.7 25.7,47.4 22.2,0 "/>
<path class="st1" d="M27.5,85.4"/>
<path class="st1" d="M27.5,85.4"/>
<path class="st0" d="M75.9,43.9"/>
<path class="st0" d="M24.5,47.4v38.1c0,0,11.5,1.1,25.7,1.1c6.5,0,21.2-0.5,25.7-0.9V57.6L65.5,47.4H24.5z"/>
<line class="st1" x1="72.4" y1="83.1" x2="72.4" y2="82"/>
<line class="st2" x1="72.4" y1="80" x2="72.4" y2="61.1"/>
<polyline class="st1" points="72.4,60.1 72.4,59 71.6,58.3 "/>
<polyline class="st3" points="70.1,56.8 64.1,51 26.6,51 "/>
<line class="st1" x1="25.6" y1="51" x2="24.5" y2="51"/>
<line class="st1" x1="60.5" y1="68.1" x2="68.6" y2="68.1"/>
<path class="st4" d="M75.9,85.8c0,0-13.8,2.6-25.7,2.6c-14.2,0-25.7-1.5-25.7-2.8c0-1.4,11.5-2.9,25.7-2.9c12,0,25.7,2.4,25.7,2.4"
	/>
<path class="st4" d="M75.9,57.6"/>
</svg>
