<?xml version="1.0" encoding="utf-8"?>
<!-- Generator: Adobe Illustrator 19.1.0, SVG Export Plug-In . SVG Version: 6.00 Build 0)  -->
<svg version="1.1" id="Layer_1" xmlns="http://www.w3.org/2000/svg" xmlns:xlink="http://www.w3.org/1999/xlink" x="0px" y="0px"
	 viewBox="0 0 100 100" style="enable-background:new 0 0 100 100;" xml:space="preserve">
<style type="text/css">
	.st0{fill:#FFFFFF;stroke:#231F20;stroke-width:0.2391;stroke-miterlimit:10;}
	.st1{fill:none;stroke:#231F20;stroke-width:0.2391;stroke-miterlimit:10;}
	.st2{fill:#C6C7C9;stroke:#231F20;stroke-width:0.2391;stroke-miterlimit:10;}
	.st3{fill:none;stroke:#231F20;stroke-width:0.2391;stroke-miterlimit:10;stroke-dasharray:2.0532,2.0532;}
	.st4{fill:none;stroke:#231F20;stroke-width:0.2391;stroke-miterlimit:10;stroke-dasharray:2.0955,2.0955;}
	.st5{fill:none;stroke:#231F20;stroke-width:0.2391;stroke-miterlimit:10;stroke-dasharray:1.744,1.744;}
	.st6{fill:none;stroke:#231F20;stroke-width:0.2391;stroke-miterlimit:10;stroke-dasharray:2.2066,2.2066;}
</style>
<polyline class="st0" points="25.6,47.2 22.2,-0.4 77.8,-0.4 74.4,47 "/>
<path class="st1" d="M27.4,85.9"/>
<path class="st1" d="M27.4,85.9"/>
<g>
	<path class="st0" d="M77.1,44.3"/>
</g>
<polygon class="st0" points="25.6,86 25.6,47.2 74.4,47.1 74.4,77.6 66.9,85.2 34.1,85.9 "/>
<path class="st2" d="M66.2,86.9c-5.8,1-14.3,1.6-20.4,1.4c-10.4-0.4-20.1-0.8-20.1-2.2l0,0c0-1.4,9.7-1.8,20.1-2.2
	c6.1-0.2,15.4,0.5,20.4,0.6l8.2-6.9v2.6L66.2,86.9z"/>
<g>
	<g>
		<line class="st1" x1="25.6" y1="50.8" x2="26.7" y2="50.8"/>
		<line class="st3" x1="28.7" y1="50.8" x2="68.8" y2="50.8"/>
		<polyline class="st1" points="69.8,50.8 70.9,50.8 70.9,51.8 		"/>
		<line class="st4" x1="70.9" y1="53.9" x2="70.8" y2="73.8"/>
		<path class="st1" d="M70.8,74.9V76c-0.1,0.1-0.4,0.4-0.8,0.7"/>
		<path class="st5" d="M68.7,77.7c-0.6,0.5-1.3,1.1-2,1.7"/>
		<path class="st1" d="M66.1,80c-0.3,0.2-0.5,0.5-0.8,0.7c-0.3-0.1-0.7-0.1-1-0.1"/>
		<path class="st6" d="M62.1,80.4c-8.7-0.7-25.9-0.5-34.2,0.7"/>
		<path class="st1" d="M26.8,81.2c-0.4,0.1-0.7,0.1-1,0.2"/>
	</g>
</g>
<line class="st1" x1="62.7" y1="67.3" x2="68.7" y2="67.3"/>
</svg>
