<?xml version="1.0" encoding="utf-8"?>
<!-- Generator: Adobe Illustrator 19.1.0, SVG Export Plug-In . SVG Version: 6.00 Build 0)  -->
<svg version="1.1" id="Layer_1" xmlns="http://www.w3.org/2000/svg" xmlns:xlink="http://www.w3.org/1999/xlink" x="0px" y="0px"
	 viewBox="0 0 100 100" style="enable-background:new 0 0 100 100;" xml:space="preserve">
<style type="text/css">
	.st0{fill:#C7C8C9;stroke:#010101;stroke-width:0.2379;stroke-miterlimit:10;}
	.st1{fill:#FFFFFF;stroke:#010101;stroke-width:0.2379;stroke-miterlimit:10;}
	.st2{fill:none;stroke:#010101;stroke-width:0.2379;stroke-miterlimit:10;}
	.st3{fill:none;stroke:#010101;stroke-width:0.2379;stroke-miterlimit:10;stroke-dasharray:2.184,2.184;}
	.st4{fill:none;stroke:#010101;stroke-width:0.2379;stroke-miterlimit:10;stroke-dasharray:2.2319,2.2319;}
</style>
<path class="st0" d="M76,45.7"/>
<path class="st0" d="M76,79.3V59.4V49.2H24.3v34.6c0,0,11.6,2.9,25.8,2.9c4.2,0,12.6-0.2,18.6-0.5L76,79.3z"/>
<polyline class="st1" points="78.1,-4.3 73.6,58.9 25.5,47.5 21.7,-4.3 "/>
<path class="st2" d="M27.3,83.8"/>
<path class="st2" d="M27.3,83.8"/>
<path class="st1" d="M76,43.9"/>
<path class="st1" d="M76,77.6V57.7V47.5H24.3v36.4c0,0,11.6,1.1,25.8,1.1c4.2,0,12.6-0.2,18.6-0.5L76,77.6z"/>
<g>
	<line class="st2" x1="72.3" y1="51.1" x2="71.2" y2="51.1"/>
	<line class="st3" x1="69.1" y1="51.1" x2="26.5" y2="51.1"/>
	<line class="st2" x1="25.4" y1="51.1" x2="24.3" y2="51.1"/>
</g>
<g>
	<line class="st2" x1="72.4" y1="78.2" x2="72.4" y2="77.1"/>
	<line class="st4" x1="72.4" y1="74.9" x2="72.4" y2="53.7"/>
	<line class="st2" x1="72.4" y1="52.6" x2="72.4" y2="51.5"/>
</g>
<line class="st2" x1="60.4" y1="68.3" x2="68.6" y2="68.3"/>
<path class="st0" d="M76,47.4"/>
</svg>
