<?xml version="1.0" encoding="utf-8"?>
<!-- Generator: Adobe Illustrator 19.1.0, SVG Export Plug-In . SVG Version: 6.00 Build 0)  -->
<svg version="1.1" id="Layer_1" xmlns="http://www.w3.org/2000/svg" xmlns:xlink="http://www.w3.org/1999/xlink" x="0px" y="0px"
	 viewBox="0 0 100 100" style="enable-background:new 0 0 100 100;" xml:space="preserve">
<style type="text/css">
	.st0{fill:none;stroke:#010101;stroke-width:0.2268;stroke-miterlimit:10;}
	.st1{fill:none;stroke:#010101;stroke-width:0.2268;stroke-miterlimit:10;stroke-dasharray:1.916,1.916;}
	.st2{fill:none;stroke:#010101;stroke-width:0.2268;stroke-miterlimit:10;stroke-dasharray:1.6494,1.6494;}
	.st3{fill:none;stroke:#010101;stroke-width:0.2268;stroke-miterlimit:10;stroke-dasharray:2.0661,2.0661;}
	.st4{fill:#C7C8C9;stroke:#010101;stroke-width:0.2268;stroke-miterlimit:10;}
	.st5{fill:#FFFFFF;stroke:#010101;stroke-width:0.2268;stroke-miterlimit:10;}
	.st6{fill:none;stroke:#010101;stroke-width:0.2268;stroke-miterlimit:10;stroke-dasharray:1.9998;}
</style>
<path class="st0" d="M70.1,79.9c0.3,0.1,0.7,0.1,1,0.2v-1"/>
<line class="st1" x1="71.1" y1="77.2" x2="71.1" y2="51.3"/>
<path class="st0" d="M71.1,50.4v-1c-0.3-0.1-0.6-0.1-1-0.2"/>
<path class="st2" d="M68.5,49c-1.5-0.2-3.3-0.4-5.7-0.5"/>
<path class="st0" d="M61.9,48.4c-0.3,0-0.7,0-1-0.1v1"/>
<path class="st3" d="M60.9,51.4L61,71.5l6.4,8c0.6,0.1,1.1,0.2,1.7,0.2"/>
<path class="st4" d="M25.7,47.2h48.8v38.1c0,1.9-10.9,3.5-24.4,3.5s-24.4-1.6-24.4-3.5"/>
<polyline class="st5" points="76.5,0 74.5,47.2 74.5,53.5 25.7,53.5 25.7,47.2 23.2,0 "/>
<line class="st0" x1="66.4" y1="0" x2="66.4" y2="53.5"/>
<path class="st5" d="M74.5,85.3"/>
<path class="st5" d="M65.7,82.6c5.4,0.8,8.8,1.6,8.8,2.7V47.2c0-1.1-7.1-2.1-16.9-2.4v27.9C57.6,78.5,61.1,81.9,65.7,82.6z"/>
<path class="st0" d="M28.5,85.2"/>
<path class="st0" d="M28.5,85.2"/>
<path class="st6" d="M74.5,81c0,0-1.9-0.7-3.4-1s-3.2-0.6-4.9-0.9c-1.6-0.2-5.3-1.4-5.3-6.6V48.2c5.4,0.3,8.5,0.7,10.2,1
	c1.1,0.1,3.4,1.1,3.4,1.1"/>
<path class="st5" d="M56.5,81.7c-2,0-4.2,0.1-6.4,0.1c-13.5,0-24.4,1.6-24.4,3.5V47.2c0-1.4,10.9-2.5,24.4-2.5
	c6.2,0,12,0.2,16.3,0.6v27C66.4,78.2,61.8,81.6,56.5,81.7z"/>
<line class="st0" x1="52.8" y1="63.4" x2="57.1" y2="63.4"/>
<circle class="st5" cx="57.6" cy="63.4" r="2.7"/>
<path class="st6" d="M25.7,81c0,0,2.4-0.7,3.4-1.1c1.1-0.2,2.2-0.4,3.3-0.6c4.8-0.7,11.1-1.1,17.7-1.1c1.7,0,3.4,0,5-0.1h1.3
	c3.3-0.1,6.6-2,6.6-6.1V48.3c-3.8-0.2-8.3-0.4-12.9-0.4c-10.6,0-18,0.7-21,1.3c-1.5,0.4-3.4,1.2-3.4,1.2"/>
</svg>
