<?xml version="1.0" encoding="utf-8"?>
<!-- Generator: Adobe Illustrator 19.1.0, SVG Export Plug-In . SVG Version: 6.00 Build 0)  -->
<svg version="1.1" id="Layer_1" xmlns="http://www.w3.org/2000/svg" xmlns:xlink="http://www.w3.org/1999/xlink" x="0px" y="0px"
	 viewBox="0 0 100 100" style="enable-background:new 0 0 100 100;" xml:space="preserve">
<style type="text/css">
	.st0{fill:none;stroke:#010101;stroke-width:0.2263;stroke-miterlimit:10;}
	.st1{fill:none;stroke:#010101;stroke-width:0.2263;stroke-miterlimit:10;stroke-dasharray:1.9112,1.9112;}
	.st2{fill:none;stroke:#010101;stroke-width:0.2263;stroke-miterlimit:10;stroke-dasharray:1.6451,1.6451;}
	.st3{fill:none;stroke:#010101;stroke-width:0.2263;stroke-miterlimit:10;stroke-dasharray:2.0609,2.0609;}
	.st4{fill:#C7C8C9;stroke:#010101;stroke-width:0.2263;stroke-miterlimit:10;}
	.st5{fill:#FFFFFF;stroke:#010101;stroke-width:0.2263;stroke-miterlimit:10;}
	.st6{fill:none;stroke:#010101;stroke-width:0.2263;stroke-miterlimit:10;stroke-dasharray:1.9948;}
</style>
<path class="st0" d="M70.2,80c0.3,0.1,0.7,0.1,1,0.2v-1"/>
<line class="st1" x1="71.1" y1="77.3" x2="71.1" y2="51.5"/>
<path class="st0" d="M71.1,50.6v-1c-0.3-0.1-0.6-0.1-1-0.2"/>
<path class="st2" d="M68.5,49.2c-1.4-0.2-3.3-0.4-5.7-0.5"/>
<path class="st0" d="M62,48.6c-0.3,0-0.7,0-1-0.1v1"/>
<path class="st3" d="M61,51.6l0.1,20.1l6.4,7.9c0.6,0.1,1.1,0.2,1.7,0.2"/>
<path class="st4" d="M25.9,47.4h48.6v38c0,1.9-10.9,3.5-24.3,3.5s-24.3-1.6-24.3-3.5"/>
<polyline class="st5" points="76.5,0 74.5,47.4 74.5,53.7 25.8,53.7 25.8,47.4 23.4,0 "/>
<line class="st0" x1="66.4" y1="0" x2="66.4" y2="53.7"/>
<path class="st5" d="M74.5,85.4"/>
<path class="st5" d="M65.7,82.8c5.3,0.8,8.8,1.6,8.8,2.7v-38c0-1.1-7.1-2-16.9-2.4v27.8C57.6,78.6,61.2,82.1,65.7,82.8z"/>
<path class="st0" d="M28.6,85.4"/>
<path class="st0" d="M28.6,85.4"/>
<path class="st6" d="M74.5,81.1c0,0-1.9-0.7-3.4-1s-3.2-0.6-4.9-0.9c-1.6-0.2-5.3-1.4-5.3-6.6V48.4c5.3,0.3,8.5,0.7,10.2,1
	c1,0.1,3.4,1,3.4,1"/>
<path class="st5" d="M56.5,81.9c-2,0-4.2,0.1-6.4,0.1c-13.4,0-24.3,1.6-24.3,3.5v-38c0-1.4,10.9-2.5,24.3-2.5c6.2,0,12,0.2,16.3,0.6
	v26.9C66.4,78.3,61.8,81.8,56.5,81.9z"/>
<path class="st6" d="M25.8,81.1c0,0,2.4-0.7,3.4-1.1c1.1-0.2,2.2-0.4,3.3-0.6c4.7-0.7,11-1,17.7-1c1.7,0,3.4,0,5-0.1h1.3
	c3.3-0.1,6.6-2,6.6-6V48.5c-3.8-0.2-8.3-0.4-12.9-0.4c-10.5,0-17.9,0.7-21,1.3c-1.5,0.4-3.4,1.1-3.4,1.1"/>
<line class="st0" x1="52.8" y1="70.2" x2="57.1" y2="70.2"/>
<circle class="st5" cx="57.6" cy="70.2" r="2.6"/>
<line class="st0" x1="52.8" y1="57" x2="57.1" y2="57"/>
<circle class="st5" cx="57.6" cy="57" r="2.6"/>
</svg>
