<?xml version="1.0" encoding="utf-8"?>
<!-- Generator: Adobe Illustrator 19.1.0, SVG Export Plug-In . SVG Version: 6.00 Build 0)  -->
<svg version="1.1" id="Layer_1" xmlns="http://www.w3.org/2000/svg" xmlns:xlink="http://www.w3.org/1999/xlink" x="0px" y="0px"
	 viewBox="0 0 100 100" style="enable-background:new 0 0 100 100;" xml:space="preserve">
<style type="text/css">
	.st0{fill:#FFFFFF;stroke:#010101;stroke-width:0.2378;stroke-miterlimit:10;}
	.st1{fill:none;stroke:#010101;stroke-width:0.2378;stroke-miterlimit:10;}
	.st2{fill:none;stroke:#010101;stroke-width:0.2378;stroke-miterlimit:10;stroke-dasharray:2.1331,2.1331;}
	.st3{fill:#C7C8C9;stroke:#010101;stroke-width:0.2378;stroke-miterlimit:10;}
</style>
<polyline class="st0" points="78.1,-4.4 73.6,58.7 25.5,47.4 21.7,-4.4 "/>
<path class="st1" d="M27.3,85.5"/>
<path class="st1" d="M27.3,85.5"/>
<path class="st0" d="M76,43.8"/>
<path class="st0" d="M24.4,85.6c0,1.4,11.6,2.8,25.8,2.8c11.9,0,25.8-2.9,25.8-2.9v-28c0-4.5-3.4-10.2-10.5-10.2H24.4L24.4,85.6
	c0,0,11.6,1.1,25.8,1.1c6.6,0,21.2-1.3,25.8-1.7"/>
<path class="st0" d="M76,84.5"/>
<line class="st1" x1="24.4" y1="51" x2="25.4" y2="51"/>
<path class="st2" d="M27.5,51h36.6c3.9,0,8.3,2.9,8.3,8.1v22"/>
<line class="st1" x1="72.4" y1="82.1" x2="72.4" y2="83.2"/>
<line class="st1" x1="60.5" y1="68.2" x2="68.6" y2="68.2"/>
<path class="st3" d="M76,85.6c0,0-13.9,2.9-25.8,2.9c-14.2,0-25.8-1.5-25.8-2.8c0-1.4,11.6-2.9,25.8-2.9c12.1,0,25.8,1.7,25.8,1.7"
	/>
</svg>
