<?xml version="1.0" encoding="utf-8"?>
<!-- Generator: Adobe Illustrator 19.1.0, SVG Export Plug-In . SVG Version: 6.00 Build 0)  -->
<svg version="1.1" id="Layer_1" xmlns="http://www.w3.org/2000/svg" xmlns:xlink="http://www.w3.org/1999/xlink" x="0px" y="0px"
	 viewBox="0 0 100 100" style="enable-background:new 0 0 100 100;" xml:space="preserve">
<style type="text/css">
	.st0{fill:#FFFFFF;stroke:#010101;stroke-width:0.2394;stroke-miterlimit:10;}
	.st1{fill:none;stroke:#010101;stroke-width:0.2394;stroke-miterlimit:10;}
	.st2{fill:none;stroke:#010101;stroke-width:0.2394;stroke-miterlimit:10;stroke-dasharray:2.0761,2.0761;}
	.st3{fill:none;stroke:#010101;stroke-width:0.2394;stroke-miterlimit:10;stroke-dasharray:2.047,2.047;}
	.st4{fill:#C7C8C9;stroke:#010101;stroke-width:0.2394;stroke-miterlimit:10;}
</style>
<g>
	<polyline class="st0" points="25.5,47.5 22,-5 78.3,-5 74.4,48 	"/>
	<g>
		<path class="st0" d="M25.5,47.1V86l41.7-0.4l5.3-4.5l2.1-5.5c0,0-0.1-25.7-0.1-28.1c-3.7,0-49.1,0-49.1,0"/>
	</g>
	<g>
		<g>
			<path class="st1" d="M25.4,80.1c0.4,0,0.7-0.1,1.1-0.1"/>
			<path class="st2" d="M28.5,79.9c16.6-1.3,23.3-1.3,34-0.4c3.9,0,8.3-2.5,8.3-7.7V53"/>
			<path class="st1" d="M70.8,52v-1.1c-0.4,0-0.8,0-1.1,0"/>
			<path class="st3" d="M67.7,50.9c-2.7,0-9.7,0-39.9,0"/>
			<path class="st1" d="M26.7,50.9c-0.3,0-0.7,0-1.1,0"/>
		</g>
	</g>
	<line class="st1" x1="61.7" y1="67.1" x2="67.7" y2="67.1"/>
	<path class="st4" d="M74.5,76.7c0,4.5-3.5,9.3-10.5,10.2c0,0-12.2,1.6-18.3,1.4c-10.4-0.4-20.2-0.8-20.2-2.2l0,0
		c0-1.4,9.7-1.8,20.2-2.2c6.2-0.2,18.3,0.7,18.3,0.7c7.1,0,10.5-6.2,10.5-10.7V76.7z"/>
</g>
</svg>
