<?xml version="1.0" encoding="utf-8"?>
<!-- Generator: Adobe Illustrator 19.1.0, SVG Export Plug-In . SVG Version: 6.00 Build 0)  -->
<svg version="1.1" id="Layer_1" xmlns="http://www.w3.org/2000/svg" xmlns:xlink="http://www.w3.org/1999/xlink" x="0px" y="0px"
	 viewBox="0 0 100 100" style="enable-background:new 0 0 100 100;" xml:space="preserve">
<style type="text/css">
	.st0{fill:none;stroke:#010101;stroke-width:0.2257;stroke-miterlimit:10;}
	.st1{fill:none;stroke:#010101;stroke-width:0.2257;stroke-miterlimit:10;stroke-dasharray:1.9061,1.9061;}
	.st2{fill:none;stroke:#010101;stroke-width:0.2257;stroke-miterlimit:10;stroke-dasharray:1.6409,1.6409;}
	.st3{fill:none;stroke:#010101;stroke-width:0.2257;stroke-miterlimit:10;stroke-dasharray:2.0553,2.0553;}
	.st4{fill:#FFFFFF;stroke:#010101;stroke-width:0.2257;stroke-miterlimit:10;}
	.st5{fill:none;stroke:#010101;stroke-width:0.2257;stroke-miterlimit:10;stroke-dasharray:1.9895;}
	.st6{fill:#C7C8C9;stroke:#010101;stroke-width:0.2257;stroke-miterlimit:10;}
</style>
<g id="_x31_0-Single-Button-Square">
	<g>
		<g>
			<g>
				<path class="st0" d="M70,79.7c0.3,0.1,0.7,0.1,1,0.2v-1"/>
				<line class="st1" x1="71" y1="77" x2="71" y2="51.3"/>
				<path class="st0" d="M71,50.3v-1c-0.3-0.1-0.6-0.1-1-0.2"/>
				<path class="st2" d="M68.4,48.9c-1.4-0.2-3.3-0.4-5.7-0.5"/>
				<path class="st0" d="M61.8,48.4c-0.3,0-0.7,0-1-0.1v1"/>
				<path class="st3" d="M60.9,51.4l0.1,20l6.4,7.9c0.6,0.1,1.1,0.2,1.7,0.2"/>
			</g>
		</g>
		<g>
			<polyline class="st4" points="76.3,0 74.3,47.2 74.3,53.4 25.8,53.4 25.8,47.2 23.3,0 			"/>
			<line class="st0" x1="66.3" y1="0" x2="66.3" y2="53.4"/>
		</g>
		<g>
			<path class="st4" d="M74.3,85.1"/>
			<path class="st4" d="M74.3,85.1c0-1.1-3.4-2-8.8-2.7l-7.9-9.9l-0.1-27.7c9.8,0.3,16.8,1.3,16.8,2.4V85.1z"/>
		</g>
		<path class="st0" d="M28.6,85"/>
		<path class="st5" d="M74.3,81.6c0-1.9-10.9-3.5-24.3-3.5s-24.3,1.5-24.3,3.5"/>
		<path class="st5" d="M74.3,51.1c0-1.9-10.9-3.5-24.3-3.5s-24.3,1.5-24.3,3.5"/>
		<path class="st0" d="M28.6,85"/>
		<g>
			<path class="st4" d="M25.8,85.1L25.8,85.1L25.8,85.1z"/>
			<path class="st4" d="M25.8,47.2v37.9c0-1.9,10.9-3.5,24.3-3.5c6.2,0,11.9,0.3,16.2,0.9V72.2V45.3c-4.3-0.4-10-0.6-16.2-0.6
				C36.6,44.7,25.8,45.8,25.8,47.2z"/>
		</g>
		<line class="st0" x1="52.7" y1="62.9" x2="57" y2="62.9"/>
		<circle class="st4" cx="57.5" cy="62.9" r="2.6"/>
		<ellipse class="st6" cx="50.1" cy="85.1" rx="24.3" ry="3.5"/>
		<path class="st5" d="M25.8,81.6c0-1.9,11-3.5,24.6-3.5c4.6,0,9,0.2,12.7,0.5V48.1c-3.6-0.3-8.2-0.5-12.7-0.5
			c-13.6,0-24.6,1.5-24.6,3.5"/>
		<path class="st5" d="M62.1,78.6"/>
	</g>
</g>
</svg>
