<?xml version="1.0" encoding="utf-8"?>
<!-- Generator: Adobe Illustrator 19.1.0, SVG Export Plug-In . SVG Version: 6.00 Build 0)  -->
<svg version="1.1" id="Layer_1" xmlns="http://www.w3.org/2000/svg" xmlns:xlink="http://www.w3.org/1999/xlink" x="0px" y="0px"
	 viewBox="0 0 100 100" style="enable-background:new 0 0 100 100;" xml:space="preserve">
<style type="text/css">
	.st0{fill:none;stroke:#010101;stroke-width:0.2268;stroke-miterlimit:10;}
	.st1{fill:none;stroke:#010101;stroke-width:0.2268;stroke-miterlimit:10;stroke-dasharray:1.9157,1.9157;}
	.st2{fill:none;stroke:#010101;stroke-width:0.2268;stroke-miterlimit:10;stroke-dasharray:1.6491,1.6491;}
	.st3{fill:none;stroke:#010101;stroke-width:0.2268;stroke-miterlimit:10;stroke-dasharray:2.0657,2.0657;}
	.st4{fill:#FFFFFF;stroke:#010101;stroke-width:0.2268;stroke-miterlimit:10;}
	.st5{fill:none;stroke:#010101;stroke-width:0.2268;stroke-miterlimit:10;stroke-dasharray:1.9995;}
	.st6{fill:#C7C8C9;stroke:#010101;stroke-width:0.2268;stroke-miterlimit:10;}
</style>
<g id="_x31_1-Double-Button-Square">
	<g>
		<g>
			<g>
				<path class="st0" d="M70.1,80.3c0.3,0.1,0.7,0.1,1,0.2v-1"/>
				<line class="st1" x1="71.1" y1="77.6" x2="71.1" y2="51.8"/>
				<path class="st0" d="M71.1,50.8v-1c-0.3-0.1-0.6-0.1-1-0.2"/>
				<path class="st2" d="M68.5,49.4c-1.5-0.2-3.3-0.4-5.7-0.5"/>
				<path class="st0" d="M61.9,48.8c-0.3,0-0.7,0-1-0.1v1"/>
				<path class="st3" d="M61,51.8L61.1,72l6.4,7.9c0.6,0.1,1.1,0.2,1.7,0.2"/>
			</g>
		</g>
		<g>
			<polyline class="st4" points="76.5,-0.3 74.5,47.6 74.5,53.9 25.7,53.9 25.7,47.6 23.2,-0.3 			"/>
			<line class="st0" x1="66.4" y1="-0.3" x2="66.4" y2="53.9"/>
		</g>
		<g>
			<path class="st4" d="M74.5,85.7"/>
			<path class="st4" d="M74.5,85.7c0-1.1-3.4-2-8.8-2.7l-8-9.9l-0.1-27.9c9.8,0.3,16.9,1.3,16.9,2.4V85.7z"/>
		</g>
		<path class="st0" d="M28.5,85.7"/>
		<path class="st5" d="M74.5,82.3c0-1.9-10.9-3.5-24.4-3.5s-24.4,1.6-24.4,3.5"/>
		<path class="st5" d="M74.5,51.6c0-1.9-10.9-3.5-24.4-3.5s-24.4,1.6-24.4,3.5"/>
		<path class="st0" d="M28.5,85.7"/>
		<g>
			<path class="st4" d="M25.7,85.7L25.7,85.7L25.7,85.7z"/>
			<path class="st4" d="M25.7,47.6v38.1c0-1.9,10.9-3.5,24.4-3.5c6.3,0,12,0.3,16.3,0.9V72.7v-27c-4.3-0.4-10.1-0.6-16.3-0.6
				C36.6,45.2,25.7,46.3,25.7,47.6z"/>
		</g>
		<ellipse class="st6" cx="50.1" cy="85.7" rx="24.4" ry="3.5"/>
		<path class="st5" d="M25.7,82.3c0-1.9,11.1-3.5,24.8-3.5c4.7,0,9,0.2,12.7,0.5V48.6c-3.6-0.3-8.2-0.5-12.7-0.5
			c-13.7,0-24.8,1.6-24.8,3.5"/>
		<path class="st5" d="M62.2,79.3"/>
		<g>
			<g>
				<line class="st0" x1="52.8" y1="69.3" x2="57.1" y2="69.3"/>
				<circle class="st4" cx="57.6" cy="69.4" r="2.7"/>
			</g>
			<g>
				<line class="st0" x1="52.8" y1="57.2" x2="57.1" y2="57.2"/>
				<circle class="st4" cx="57.6" cy="57.3" r="2.7"/>
			</g>
		</g>
	</g>
</g>
</svg>
