<?xml version="1.0" encoding="utf-8"?>
<!-- Generator: Adobe Illustrator 19.1.0, SVG Export Plug-In . SVG Version: 6.00 Build 0)  -->
<svg version="1.1" id="Layer_1" xmlns="http://www.w3.org/2000/svg" xmlns:xlink="http://www.w3.org/1999/xlink" x="0px" y="0px"
	 viewBox="0 0 100 100" style="enable-background:new 0 0 100 100;" xml:space="preserve">
<style type="text/css">
	.st0{fill:#FFFFFF;stroke:#010101;stroke-width:0.2396;stroke-miterlimit:10;}
	.st1{fill:none;stroke:#010101;stroke-width:0.2396;stroke-miterlimit:10;}
	.st2{fill:none;stroke:#010101;stroke-width:0.2396;stroke-miterlimit:10;stroke-dasharray:2.119,2.119;}
	.st3{fill:none;stroke:#010101;stroke-width:0.2396;stroke-miterlimit:10;stroke-dasharray:2.1978,2.1978;}
	.st4{fill:#C7C8C9;stroke:#010101;stroke-width:0.2396;stroke-miterlimit:10;}
</style>
<g id="_x31_2-French-Square">
	<g>
		<g>
			<g>
				<polyline class="st0" points="78.1,0 74.4,47.4 25.5,47.4 22,0 				"/>
			</g>
			<path class="st1" d="M27.3,85.9"/>
			<path class="st1" d="M27.3,85.9"/>
		</g>
		<g>
			<g>
				<path class="st0" d="M76.3,43.8"/>
			</g>
			<g>
				<path class="st0" d="M24.3,85.9c0,1.4,11.6,2.8,26,2.8c12,0,26-2.8,26-2.8V47.4h-52V85.9c0,0.1,11.6,1.2,26,1.2
					c6.6,0,21.4-1.3,26-1.7V57.7"/>
				<path class="st0" d="M76.3,84.7"/>
			</g>
			<g>
				<g>
					<line class="st1" x1="72.7" y1="85" x2="72.7" y2="83.9"/>
					<line class="st2" x1="72.7" y1="81.8" x2="72.7" y2="53.2"/>
					<polyline class="st1" points="72.7,52.1 72.7,51 71.7,51 					"/>
					<line class="st3" x1="69.5" y1="51" x2="26.6" y2="51"/>
					<line class="st1" x1="25.5" y1="51" x2="24.5" y2="51"/>
				</g>
			</g>
		</g>
		<line class="st1" x1="60.7" y1="68.4" x2="68.9" y2="68.4"/>
		<path class="st4" d="M76.3,86c0,0-14,2.8-26,2.8c-14.4,0-26-1.5-26-2.8c0-1.4,11.6-2.9,26-2.9c12.2,0,26,1.7,26,1.7"/>
	</g>
</g>
</svg>
