<?xml version="1.0" encoding="utf-8"?>
<!-- Generator: Adobe Illustrator 19.1.0, SVG Export Plug-In . SVG Version: 6.00 Build 0)  -->
<svg version="1.1" id="Layer_1" xmlns="http://www.w3.org/2000/svg" xmlns:xlink="http://www.w3.org/1999/xlink" x="0px" y="0px"
	 viewBox="0 0 100 100" style="enable-background:new 0 0 100 100;" xml:space="preserve">
<style type="text/css">
	.st0{fill:#FFFFFF;stroke:#010101;stroke-width:0.2365;stroke-miterlimit:10;}
	.st1{fill:#C7C8C9;stroke:#010101;stroke-width:0.2365;stroke-miterlimit:10;}
	.st2{fill:none;stroke:#010101;stroke-width:0.2365;stroke-miterlimit:10;}
	.st3{fill:none;stroke:#010101;stroke-width:0.2365;stroke-miterlimit:10;stroke-dasharray:2.0327,2.0327;}
	.st4{fill:none;stroke:#010101;stroke-width:0.2365;stroke-miterlimit:10;stroke-dasharray:2.1286,2.1286;}
	.st5{fill:none;stroke:#010101;stroke-width:0.2365;stroke-miterlimit:10;stroke-dasharray:2.0405,2.0405;}
</style>
<g>
	<polyline class="st0" points="26.1,48.8 22.3,-4.3 78,-4.3 74.4,48.7 	"/>
	<path class="st0" d="M74,44.4"/>
	<path class="st0" d="M26.1,48.8v36.4l12.4,2.1H52l22.4-1.2V47.2c0,0-45,0-48.3,0.1"/>
	<path class="st1" d="M74.3,85.9c0,0-11,2.2-22.8,2.2c-14.1,0-25.5-1.4-25.5-2.8s11.4-2.9,25.5-2.9c11.9,0,22.8,1.8,22.8,1.8"/>
	<line class="st2" x1="26.3" y1="50.1" x2="27.4" y2="50.1"/>
	<line class="st3" x1="29.4" y1="50.1" x2="69" y2="50.1"/>
	<polyline class="st2" points="70,50.1 71.1,50.1 71.1,51.2 	"/>
	<line class="st4" x1="71.1" y1="53.3" x2="71.1" y2="77.8"/>
	<path class="st2" d="M71.1,78.8v1c-0.3,0-0.7-0.1-1-0.1"/>
	<path class="st5" d="M68,79.5c-17.1-1.9-33.9-0.5-39.6,1"/>
	<path class="st2" d="M27.4,80.8c-0.4,0.2-0.7,0.3-0.9,0.5"/>
	<line class="st2" x1="63.1" y1="67.2" x2="69" y2="67.2"/>
</g>
</svg>
