<?xml version="1.0" encoding="utf-8"?>
<!-- Generator: Adobe Illustrator 19.1.0, SVG Export Plug-In . SVG Version: 6.00 Build 0)  -->
<svg version="1.1" id="Layer_1" xmlns="http://www.w3.org/2000/svg" xmlns:xlink="http://www.w3.org/1999/xlink" x="0px" y="0px"
	 viewBox="0 0 100 100" style="enable-background:new 0 0 100 100;" xml:space="preserve">
<style type="text/css">
	.st0{fill:none;stroke:#010101;stroke-width:0.2255;stroke-miterlimit:10;}
	.st1{fill:none;stroke:#010101;stroke-width:0.2255;stroke-miterlimit:10;stroke-dasharray:1.9048,1.9048;}
	.st2{fill:none;stroke:#010101;stroke-width:0.2255;stroke-miterlimit:10;stroke-dasharray:1.6398,1.6398;}
	.st3{fill:none;stroke:#010101;stroke-width:0.2255;stroke-miterlimit:10;stroke-dasharray:2.0541,2.0541;}
	.st4{fill:#FFFFFF;stroke:#010101;stroke-width:0.2255;stroke-miterlimit:10;}
	.st5{fill:none;stroke:#010101;stroke-width:0.2255;stroke-miterlimit:10;stroke-dasharray:1.9882;}
	.st6{fill:#C7C8C9;stroke:#010101;stroke-width:0.2255;stroke-miterlimit:10;}
</style>
<path class="st0" d="M69.9,80c0.3,0.1,0.7,0.1,1,0.2v-1"/>
<line class="st1" x1="70.9" y1="77.3" x2="70.9" y2="51.6"/>
<path class="st0" d="M70.9,50.6v-1c-0.3-0.1-0.6-0.1-1-0.2"/>
<path class="st2" d="M68.3,49.2c-1.4-0.2-3.3-0.4-5.7-0.5"/>
<path class="st0" d="M61.8,48.7c-0.3,0-0.7,0-1-0.1v1"/>
<path class="st3" d="M60.8,51.7l0.1,20l6.4,7.9c0.6,0.1,1.1,0.2,1.7,0.2"/>
<polyline class="st4" points="76.3,-0.2 74.3,47.5 74.3,53.7 25.7,53.7 25.7,47.5 23.3,-0.2 "/>
<line class="st0" x1="64.7" y1="-0.2" x2="64.7" y2="53.7"/>
<path class="st4" d="M74.3,85.4c0-1.1-6.8-2.4-12.2-3l-4.5-9.5l-0.1-27.7c9.8,0.3,16.8,1.3,16.8,2.4V85.4z"/>
<path class="st5" d="M74.3,81.9c0-1.2-4.6-2.3-11.6-2.9"/>
<path class="st5" d="M74.3,51.4c0-1.6-7.2-2.9-17.2-3.3"/>
<path class="st4" d="M25.7,85.4L25.7,85.4L25.7,85.4z"/>
<path class="st4" d="M25.7,47.5v37.9c0-1.9,10.9-3.5,24.3-3.5c6.2,0,10.2,0.3,14.5,0.8l6.9-18.6l-6.9-18.6C60.2,45.2,56.2,45,50,45
	C36.6,45,25.7,46.1,25.7,47.5z"/>
<path class="st5" d="M25.7,81.9c0-1.9,11-3.5,24.6-3.5c4.6,0,9,0.2,12.7,0.5l5.6-14.7L63,48.4c-3.6-0.3-8.2-0.5-12.7-0.5
	c-13.6,0-24.6,1.5-24.6,3.5"/>
<line class="st0" x1="55.3" y1="64.3" x2="59.6" y2="64.3"/>
<circle class="st4" cx="60.1" cy="64.3" r="2.6"/>
<ellipse class="st6" cx="50" cy="85.4" rx="24.3" ry="3.5"/>
</svg>
