<?xml version="1.0" encoding="utf-8"?>
<!-- Generator: Adobe Illustrator 19.1.0, SVG Export Plug-In . SVG Version: 6.00 Build 0)  -->
<svg version="1.1" id="Layer_1" xmlns="http://www.w3.org/2000/svg" xmlns:xlink="http://www.w3.org/1999/xlink" x="0px" y="0px"
	 viewBox="0 0 100 100" style="enable-background:new 0 0 100 100;" xml:space="preserve">
<style type="text/css">
	.st0{fill:#FFFFFF;}
	.st1{fill:#FFFFFF;stroke:#010101;stroke-width:0.25;stroke-miterlimit:10;}
	.st2{fill:none;stroke:#010101;stroke-width:0.25;stroke-miterlimit:10;}
	.st3{fill:none;stroke:#010101;stroke-width:0.25;stroke-miterlimit:10;stroke-dasharray:1.1486,1.1486;}
	.st4{fill:none;stroke:#010101;stroke-width:0.25;stroke-miterlimit:10;stroke-dasharray:1.0027,1.0027;}
</style>
<polygon class="st0" points="0,0 0,100 28.7,100 28.9,69.9 33.5,0 "/>
<path class="st1" d="M29.4-1c-0.1,17.7-0.3,41.9-0.5,69.8l43.5-6.9C71,36.5,69,16.4,66.6-1H29.4z"/>
<path class="st2" d="M28.9,68.8c-0.1,10.1-0.2,20.6-0.2,31.2"/>
<path class="st0" d="M27.8,56.2h46.5l-0.7,23.1c-15.7,0-45.8,0-45.8,0L27.8,56.2z"/>
<path class="st1" d="M27.8,56.2h46.5l-0.7,23.1c-15.7,0-45.8,0-45.8,0L27.8,56.2z"/>
<path class="st0" d="M58.6,44.6l-4.4,3.2v31.5h11.9V47.8l-4.4-3.2C60.8,43.9,59.6,43.9,58.6,44.6"/>
<path class="st2" d="M58.6,44.6l-4.4,3.2v31.5h11.9V47.8l-4.4-3.2C60.8,43.9,59.6,43.9,58.6,44.6z"/>
<polyline class="st2" points="63.7,79.3 64.6,79.3 64.6,78.4 "/>
<line class="st3" x1="64.6" y1="76.7" x2="64.6" y2="50.3"/>
<polyline class="st2" points="64.6,49.5 64.6,48.6 63.9,48 "/>
<path class="st2" d="M57.7,47.1l-0.6,0.4 M61.3,46.1l-0.4-0.3c-0.2-0.2-0.5-0.3-0.7-0.3s-0.5,0.1-0.7,0.3l-0.6,0.4 M62.4,47L62,46.7
	"/>
<polyline class="st2" points="56.4,48 55.7,48.6 55.7,49.5 "/>
<line class="st3" x1="55.7" y1="51.2" x2="55.7" y2="77.6"/>
<polyline class="st2" points="55.7,78.4 55.7,79.3 56.6,79.3 "/>
<line class="st4" x1="58" y1="79.3" x2="63" y2="79.3"/>
<path class="st0" d="M58.2,50.5c0-1.2,1-2.1,2.1-2.1c1.2,0,2.1,1,2.1,2.1c0,1.2-1,2.1-2.2,2.1C59.1,52.6,58.2,51.6,58.2,50.5"/>
<path class="st2" d="M58.2,50.5c0-1.2,1-2.1,2.1-2.1c1.2,0,2.1,1,2.1,2.1c0,1.2-1,2.1-2.2,2.1C59.1,52.6,58.2,51.6,58.2,50.5z"/>
</svg>
