<?xml version="1.0" encoding="utf-8"?>
<!-- Generator: Adobe Illustrator 19.1.0, SVG Export Plug-In . SVG Version: 6.00 Build 0)  -->
<svg version="1.1" id="Layer_1" xmlns="http://www.w3.org/2000/svg" xmlns:xlink="http://www.w3.org/1999/xlink" x="0px" y="0px"
	 viewBox="0 0 100 100" style="enable-background:new 0 0 100 100;" xml:space="preserve">
<style type="text/css">
	.st0{fill:#FFFFFF;}
	.st1{fill:none;stroke:#010101;stroke-width:0.25;stroke-miterlimit:10;}
	.st2{fill:#FFFFFF;stroke:#010101;stroke-width:0.25;stroke-miterlimit:10;}
	.st3{fill:none;stroke:#010101;stroke-width:0.25;stroke-miterlimit:10;stroke-dasharray:1.6717,1.6717;}
	.st4{fill:none;stroke:#010101;stroke-width:0.25;stroke-miterlimit:10;stroke-dasharray:1.4033,1.4033;}
	.st5{fill:none;stroke:#010101;stroke-width:0.25;stroke-miterlimit:10;stroke-dasharray:1.6898,1.6898;}
	.st6{fill:none;stroke:#010101;stroke-width:0.25;stroke-miterlimit:10;stroke-dasharray:1.442,1.442;}
	.st7{fill:none;stroke:#010101;stroke-width:0.25;stroke-miterlimit:10;stroke-dasharray:1.448;}
	.st8{fill:none;}
</style>
<rect class="st0" width="23.7" height="45.2"/>
<path class="st0" d="M24.3,12.3L24.3,12.3L24.3,12.3c-1.3-0.6-2.1-0.9-2.1-0.9v0.1L22,11.4h0.3c-0.7-0.3-1.5-0.6-2.4-0.8l0,0l0,0
	 M74.3,35.9c-0.8-2.1-46.8-21.7-46.8-21.7l-0.7,0.2l-6.9,10.1l-6.2,18.9L0,47.3V100h96.1c-6.7-45.3-15.9-60-20.2-63.3 M96.1,100
	C89.7,54.5,80,39.9,75.9,36.7"/>
<path class="st1" d="M21.6,11.7c0,0,46.4,19.2,54.1,25"/>
<line class="st1" x1="73.7" y1="45.2" x2="23.7" y2="22.3"/>
<line class="st1" x1="41.7" y1="28.7" x2="41" y2="28.4"/>
<path class="st1" d="M42.4,30.9l-0.9-4.2c-0.2-0.9,0.2-1.8,1-2.3l3.7-2.1"/>
<path class="st2" d="M46.9,25.9c-0.9-0.4-1.9,0-2.2,0.9c-0.4,0.9,0,1.9,0.9,2.2c0.9,0.4,1.9,0,2.2-0.9
	C48.1,27.3,47.8,26.3,46.9,25.9z"/>
<line class="st3" x1="71.9" y1="42.9" x2="45.1" y2="31"/>
<polyline class="st1" points="44.4,30.6 43.6,30.3 43.4,29.5 "/>
<path class="st4" d="M43.1,28.1l-0.3-1.4c-0.1-0.2,0-0.4,0-0.6c0.1-0.2,0.2-0.3,0.4-0.4l1.9-1.1"/>
<path class="st1" d="M45.7,24.2l0.7-0.4c0,0,0.3,0.1,0.7,0.3"/>
<path class="st5" d="M48.7,24.8c5.6,2.6,20,9.3,26.4,13.3"/>
<line class="st6" x1="39.7" y1="27.8" x2="24.7" y2="20.9"/>
<path class="st2" d="M-1.7,0.4c8.7,1,17.1,3.8,20.7,10.2c4.9,8.6,7.7,11.8,7.7,11.8L23.9,9.1c0,0,0.4-4.3-0.6-9.1"/>
<path class="st7" d="M3.9-0.6c8.2,1.8,13.8,5.2,16.7,10.3c1.4,2.6,2.6,4.6,3.5,6.3l0.7-8.9"/>
<path class="st2" d="M24.8-1h-3c0,1.1-0.1,2.3-0.4,3.6C18.8,13.7,7.1,30.3-1.7,39.3v15l14.8,18.8c0.3,0.3,0.8,0.2,0.9-0.2
	c0,0,14.3-37.9,14-49.1C27.8,16.9,27.1,6,24.8-1z"/>
<path class="st1" d="M77.2,38.9c0,0-11.1,14.8-11.1,45.8c0,3.6,0,8.8,0,15.3"/>
<path class="st1" d="M75.9,36.7"/>
<line class="st1" x1="74.1" y1="43.9" x2="73.4" y2="43.5"/>
<path class="st1" d="M75.8,38.6c0.2,0.2,0.5,0.3,0.7,0.5"/>
<path class="st1" d="M96.1,100c-6.4-45.5-16.3-60.1-20.5-63.3"/>
<path class="st1" d="M-5.8,56.9"/>
<path class="st1" d="M-16.6,49.7"/>
<path class="st7" d="M-2.5,49.7l15.6,19.9c2.9-7.4,14.5-35.4,14.5-50.4"/>
<path class="st7" d="M23.1,3c-2.2,6.7-6.3,16.7-13.6,26.5C5.1,35.4,0.9,40.6-2.7,43.9"/>
<path class="st8" d="M48.5,100.1"/>
<path class="st8" d="M9.4,100.1"/>
</svg>
