<svg version="1.1" xmlns="http://www.w3.org/2000/svg" x="0px" y="0px" width="746.2px" height="1000px" viewBox="0 0 746.2 1000" enable-background="new 0 0 746.2 1000">
<polygon fill="#ffffff" points="14.3,1 27.6,14.5 40.9,1 54.2,14.5 67.4,1 80.7,14.5 94,1 107.3,14.5 120.6,1 133.9,14.5 147.2,1 160.5,14.5 
	173.8,1 187,14.5 200.3,1 213.6,14.5 226.9,1 240.2,14.5 253.5,1 266.8,14.5 280.1,1 293.4,14.5 306.7,1 319.9,14.5 333.2,1 
	346.5,14.5 359.8,1 373.1,14.5 386.4,1 399.7,14.5 413,1 426.3,14.5 439.5,1 452.8,14.5 466.1,1 479.4,14.5 492.7,1 506,14.5 
	519.3,1 532.6,14.5 545.9,1 559.2,14.5 572.4,1 585.7,14.5 599,1 612.3,14.5 625.6,1 638.9,14.5 652.2,1 665.5,14.5 678.8,1 
	692,14.5 705.3,1 718.6,14.5 731.9,1 745.2,14.5 745.2,14.5 731.9,28 745.2,41.5 731.9,54.9 745.2,68.4 731.9,81.9 745.2,95.4 
	731.9,108.9 745.2,122.4 731.9,135.9 745.2,149.4 731.9,162.8 745.2,176.3 731.9,189.8 745.2,203.3 731.9,216.8 745.2,230.3 
	731.9,243.8 745.2,257.2 731.9,270.7 745.2,284.2 731.9,297.7 745.2,311.2 731.9,324.7 745.2,338.2 731.9,351.6 745.2,365.1 
	731.9,378.6 745.2,392.1 731.9,405.6 745.2,419.1 731.9,432.6 745.2,446.1 731.9,459.5 745.2,473 731.9,486.5 745.2,500 
	731.9,513.5 745.2,527 731.9,540.5 745.2,553.9 731.9,567.4 745.2,580.9 731.9,594.4 745.2,607.9 731.9,621.4 745.2,634.9 
	731.9,648.4 745.2,661.8 731.9,675.3 745.2,688.8 731.9,702.3 745.2,715.8 731.9,729.3 745.2,742.8 731.9,756.2 745.2,769.7 
	731.9,783.2 745.2,796.7 731.9,810.2 745.2,823.7 731.9,837.2 745.2,850.7 731.9,864.1 745.2,877.6 731.9,891.1 745.2,904.6 
	731.9,918.1 745.2,931.6 731.9,945.1 745.2,958.5 731.9,972 745.2,985.5 731.9,999 745.2,985.5 731.9,999 718.6,985.5 705.3,999 
	692,985.5 678.8,999 665.5,985.5 652.2,999 638.9,985.5 625.6,999 612.3,985.5 599,999 585.7,985.5 572.4,999 559.2,985.5 
	545.9,999 532.6,985.5 519.3,999 506,985.5 492.7,999 479.4,985.5 466.1,999 452.8,985.5 439.5,999 426.3,985.5 413,999 
	399.7,985.5 386.4,999 373.1,985.5 359.8,999 346.5,985.5 333.2,999 319.9,985.5 306.7,999 293.4,985.5 280.1,999 266.8,985.5 
	253.5,999 240.2,985.5 226.9,999 213.6,985.5 200.3,999 187,985.5 173.8,999 160.5,985.5 147.2,999 133.9,985.5 120.6,999 
	107.3,985.5 94,999 80.7,985.5 67.4,999 54.2,985.5 40.9,999 27.6,985.5 14.3,999 14.3,999 1,985.5 14.3,972 1,958.5 14.3,945.1 
	1,931.6 14.3,918.1 1,904.6 14.3,891.1 1,877.6 14.3,864.1 1,850.7 14.3,837.2 1,823.7 14.3,810.2 1,796.7 14.3,783.2 1,769.7 
	14.3,756.2 1,742.8 14.3,729.3 1,715.8 14.3,702.3 1,688.8 14.3,675.3 1,661.8 14.3,648.4 1,634.9 14.3,621.4 1,607.9 14.3,594.4 
	1,580.9 14.3,567.4 1,553.9 14.3,540.5 1,527 14.3,513.5 1,500 14.3,486.5 1,473 14.3,459.5 1,446.1 14.3,432.6 1,419.1 14.3,405.6 
	1,392.1 14.3,378.6 1,365.1 14.3,351.6 1,338.2 14.3,324.7 1,311.2 14.3,297.7 1,284.2 14.3,270.7 1,257.2 14.3,243.8 1,230.3 
	14.3,216.8 1,203.3 14.3,189.8 1,176.3 14.3,162.8 1,149.4 14.3,135.9 1,122.4 14.3,108.9 1,95.4 14.3,81.9 1,68.4 14.3,54.9 
	1,41.5 14.3,28 1,14.5 "/>
</svg>
