<?xml version="1.0" encoding="utf-8"?>
<!-- Generator: Adobe Illustrator 19.1.0, SVG Export Plug-In . SVG Version: 6.00 Build 0)  -->
<svg version="1.1" id="Layer_1" xmlns="http://www.w3.org/2000/svg" xmlns:xlink="http://www.w3.org/1999/xlink" x="0px" y="0px"
	 viewBox="0 0 100 100" style="enable-background:new 0 0 100 100;" xml:space="preserve">
<style type="text/css">
	.st0{fill:#FFFFFF;}
	.st1{fill:#FFFFFF;stroke:#010101;stroke-width:0.25;stroke-miterlimit:10;}
	.st2{fill:none;stroke:#010101;stroke-width:0.25;stroke-miterlimit:10;}
	.st3{fill:none;stroke:#010101;stroke-width:0.25;stroke-miterlimit:10;stroke-dasharray:1.8593,1.8593;}
	.st4{fill:none;stroke:#010101;stroke-width:0.25;stroke-miterlimit:10;stroke-dasharray:1.9568,1.9568;}
	.st5{fill:none;stroke:#010101;stroke-width:0.25;stroke-miterlimit:10;stroke-dasharray:1.8608,1.8608;}
	.st6{fill:none;stroke:#010101;stroke-width:0.25;stroke-miterlimit:10;stroke-dasharray:1.9166;}
</style>
<polygon class="st0" points="20.9,23.4 20.9,70.9 29.3,79.3 70.7,79.3 79.1,70.8 79.1,23.4 "/>
<polygon class="st1" points="79.1,70.8 79.1,23.4 20.9,23.4 20.9,70.9 29.3,79.3 70.7,79.3 "/>
<line class="st2" x1="76.3" y1="23.5" x2="76.3" y2="24.4"/>
<polyline class="st3" points="76.3,26.3 76.3,69.7 70.9,75.2 "/>
<polyline class="st2" points="70.3,75.9 69.6,76.6 68.6,76.6 "/>
<line class="st4" x1="66.7" y1="76.6" x2="32.4" y2="76.6"/>
<polyline class="st2" points="31.4,76.6 30.5,76.6 29.8,75.9 "/>
<polyline class="st5" points="28.5,74.6 23.7,69.8 23.7,25.4 "/>
<line class="st2" x1="23.7" y1="24.4" x2="23.7" y2="23.5"/>
<line class="st6" x1="20.9" y1="34.3" x2="79.1" y2="34.3"/>
<line class="st6" x1="74" y1="23.5" x2="74" y2="34.3"/>
<line class="st6" x1="26.2" y1="23.4" x2="26.2" y2="34.1"/>
</svg>
