<?xml version="1.0" encoding="utf-8"?>
<!-- Generator: Adobe Illustrator 19.1.0, SVG Export Plug-In . SVG Version: 6.00 Build 0)  -->
<svg version="1.1" id="Layer_1" xmlns="http://www.w3.org/2000/svg" xmlns:xlink="http://www.w3.org/1999/xlink" x="0px" y="0px"
	 viewBox="0 0 100 100" style="enable-background:new 0 0 100 100;" xml:space="preserve">
<style type="text/css">
	.st0{fill:#FFFFFF;stroke:#010101;stroke-width:0.25;stroke-miterlimit:10;}
	.st1{fill:none;stroke:#010101;stroke-width:0.25;stroke-miterlimit:10;}
	.st2{fill:none;stroke:#010101;stroke-width:0.25;stroke-miterlimit:10;stroke-dasharray:1.8773,1.8773;}
	.st3{fill:none;stroke:#010101;stroke-width:0.25;stroke-miterlimit:10;stroke-dasharray:1.86,1.86;}
	.st4{fill:none;stroke:#010101;stroke-width:0.25;stroke-miterlimit:10;stroke-dasharray:1.9166;}
	.st5{fill:none;stroke:#010101;stroke-width:0.25;stroke-miterlimit:10;stroke-dasharray:1.5772,1.5772;}
	.st6{fill:none;stroke:#010101;stroke-width:0.25;stroke-miterlimit:10;stroke-dasharray:1.6457,1.6457;}
</style>
<g id="_x30_3-Square">
	<g>
		<g>
			<rect x="21.1" y="24.1" class="st0" width="57.6" height="55.3"/>
			<g>
				<g>
					<line class="st1" x1="75.9" y1="24.1" x2="75.9" y2="25"/>
					<line class="st2" x1="75.9" y1="26.9" x2="76" y2="74.8"/>
					<polyline class="st1" points="76,75.7 76,76.7 75.1,76.7 					"/>
					<line class="st3" x1="73.2" y1="76.7" x2="25.8" y2="76.7"/>
					<polyline class="st1" points="24.8,76.7 23.9,76.7 23.9,75.7 					"/>
					<line class="st2" x1="23.9" y1="73.9" x2="23.8" y2="26"/>
					<line class="st1" x1="23.8" y1="25" x2="23.8" y2="24.1"/>
				</g>
			</g>
		</g>
		<line class="st4" x1="21.1" y1="34.2" x2="79.1" y2="34.2"/>
		<g>
			<g>
				<line class="st1" x1="73.3" y1="24.4" x2="73.3" y2="25.4"/>
				<line class="st5" x1="73.3" y1="27" x2="73.3" y2="32.5"/>
				<line class="st1" x1="73.3" y1="33.3" x2="73.3" y2="34.2"/>
			</g>
		</g>
		<g>
			<g>
				<line class="st1" x1="26.6" y1="34.2" x2="26.6" y2="33.3"/>
				<line class="st6" x1="26.6" y1="31.6" x2="26.6" y2="25.9"/>
				<line class="st1" x1="26.6" y1="25" x2="26.6" y2="24.1"/>
			</g>
		</g>
	</g>
</g>
</svg>
