<?xml version="1.0" encoding="utf-8"?>
<!-- Generator: Adobe Illustrator 19.1.0, SVG Export Plug-In . SVG Version: 6.00 Build 0)  -->
<svg version="1.1" id="Layer_1" xmlns="http://www.w3.org/2000/svg" xmlns:xlink="http://www.w3.org/1999/xlink" x="0px" y="0px"
	 viewBox="0 0 100 100" style="enable-background:new 0 0 100 100;" xml:space="preserve">
<style type="text/css">
	.st0{fill:#FFFFFF;stroke:#050505;stroke-width:0.25;stroke-miterlimit:10;}
	.st1{fill:none;stroke:#050505;stroke-width:0.25;stroke-miterlimit:10;}
	.st2{fill:none;stroke:#050505;stroke-width:0.25;stroke-miterlimit:10;stroke-dasharray:1.8593,1.8593;}
	.st3{fill:none;stroke:#050505;stroke-width:0.25;stroke-miterlimit:10;stroke-dasharray:1.9568,1.9568;}
	.st4{fill:none;stroke:#050505;stroke-width:0.25;stroke-miterlimit:10;stroke-dasharray:1.8608,1.8608;}
	.st5{fill:none;stroke:#050505;stroke-width:0.25;stroke-miterlimit:10;stroke-dasharray:1.9166;}
	.st6{fill:#FFFFFF;}
</style>
<g id="_x30_5-Mitered_ButtonThrough">
	<g>
		<polygon class="st0" points="79.1,70.8 79.1,23.4 20.9,23.4 20.9,70.9 29.3,79.3 70.7,79.3 		"/>
		<g>
			<g>
				<line class="st1" x1="76.3" y1="23.5" x2="76.3" y2="24.4"/>
				<polyline class="st2" points="76.3,26.3 76.3,69.7 70.9,75.2 				"/>
				<polyline class="st1" points="70.3,75.9 69.6,76.6 68.6,76.6 				"/>
				<line class="st3" x1="66.7" y1="76.6" x2="32.4" y2="76.6"/>
				<polyline class="st1" points="31.4,76.6 30.5,76.6 29.8,75.9 				"/>
				<polyline class="st4" points="28.5,74.6 23.7,69.8 23.7,25.4 				"/>
				<line class="st1" x1="23.7" y1="24.4" x2="23.7" y2="23.5"/>
			</g>
		</g>
		<line class="st5" x1="20.9" y1="38.5" x2="79.1" y2="38.5"/>
		<line class="st1" x1="49.4" y1="26.4" x2="49.4" y2="35.2"/>
		<g>
			<g>
				<path class="st6" d="M49.4,34.1c-1.8,0-3.3-1.5-3.3-3.3s1.5-3.3,3.3-3.3s3.3,1.5,3.3,3.3C52.7,32.7,51.3,34.1,49.4,34.1z"/>
				<path class="st0" d="M49.4,27.4c-1.9,0-3.5,1.5-3.5,3.5c0,1.9,1.5,3.5,3.5,3.5c1.9,0,3.5-1.5,3.5-3.5S51.3,27.4,49.4,27.4
					L49.4,27.4z"/>
			</g>
		</g>
	</g>
</g>
</svg>
