<?xml version="1.0" encoding="utf-8"?>
<!-- Generator: Adobe Illustrator 19.1.0, SVG Export Plug-In . SVG Version: 6.00 Build 0)  -->
<svg version="1.1" id="Layer_1" xmlns="http://www.w3.org/2000/svg" xmlns:xlink="http://www.w3.org/1999/xlink" x="0px" y="0px"
	 viewBox="0 0 100 100" style="enable-background:new 0 0 100 100;" xml:space="preserve">
<style type="text/css">
	.st0{fill:#FFFFFF;stroke:#010101;stroke-width:0.25;stroke-miterlimit:10;}
	.st1{fill:#010101;}
	.st2{fill:none;stroke:#010101;stroke-width:0.25;stroke-miterlimit:10;}
	.st3{fill:none;stroke:#010101;stroke-width:0.25;stroke-miterlimit:10;stroke-dasharray:1.8536,1.8536;}
	.st4{fill:none;stroke:#010101;stroke-width:0.25;stroke-miterlimit:10;stroke-dasharray:1.8908,1.8908;}
	.st5{fill:none;stroke:#010101;stroke-width:0.25;stroke-miterlimit:10;stroke-dasharray:1.8674,1.8674;}
	.st6{fill:none;stroke:#010101;stroke-width:0.25;stroke-miterlimit:10;stroke-dasharray:1.9296,1.9296;}
	.st7{fill:none;stroke:#010101;stroke-width:0.25;stroke-miterlimit:10;stroke-dasharray:2.4063,2.4063;}
	.st8{fill:none;stroke:#010101;stroke-width:0.25;stroke-miterlimit:10;stroke-dasharray:1.8596,1.8596;}
</style>
<g id="_x30_6-Western">
	<g>
		<polygon class="st0" points="78.8,74.1 78.8,23.1 21.1,23.1 21.1,74.1 50,79.3 		"/>
		<g>
			<g>
				<path class="st1" d="M49.9,32.8c1.6,0,2.9,1.3,2.9,2.9c0,1.6-1.3,2.9-2.9,2.9c-1.6,0-2.9-1.3-2.9-2.9
					C47.1,34.1,48.3,32.8,49.9,32.8 M49.9,32.6c-1.7,0-3.1,1.4-3.1,3.1c0,1.7,1.4,3.1,3.1,3.1c1.7,0,3.1-1.4,3.1-3.1
					C53.1,34,51.7,32.6,49.9,32.6L49.9,32.6z"/>
			</g>
		</g>
		<g>
			<g>
				<g>
					<g>
						<line class="st2" x1="76" y1="38.4" x2="76" y2="39.3"/>
						<line class="st3" x1="76" y1="41.2" x2="76" y2="69.9"/>
						<polyline class="st2" points="76,70.8 76,71.8 75.1,72 						"/>
						<polyline class="st4" points="73.2,72.3 50,76.5 25.7,72.1 						"/>
						<polyline class="st2" points="24.8,72 23.9,71.8 23.9,70.8 						"/>
						<line class="st5" x1="23.9" y1="69" x2="23.9" y2="40"/>
						<line class="st2" x1="23.9" y1="39.1" x2="23.9" y2="38.1"/>
					</g>
				</g>
			</g>
		</g>
		<polyline class="st2" points="21.1,37.2 49.9,45.1 78.8,37.2 		"/>
		<g>
			<g>
				<g>
					<polyline class="st2" points="76,33.8 76,34.7 75.1,35 					"/>
					<polyline class="st6" points="73.2,35.5 49.9,41.8 25.7,35.2 					"/>
					<polyline class="st2" points="24.8,35 23.9,34.7 23.9,33.8 					"/>
					<line class="st7" x1="23.9" y1="31.4" x2="23.9" y2="27.8"/>
					<polyline class="st2" points="23.9,26.5 23.9,25.6 24.8,25.6 					"/>
					<line class="st8" x1="26.7" y1="25.6" x2="74.1" y2="25.6"/>
					<polyline class="st2" points="75,25.6 76,25.6 76,26.2 76,26.5 					"/>
					<line class="st7" x1="76" y1="29" x2="76" y2="32.6"/>
				</g>
			</g>
		</g>
	</g>
</g>
</svg>
