<?xml version="1.0" encoding="utf-8"?>
<!-- Generator: Adobe Illustrator 19.1.0, SVG Export Plug-In . SVG Version: 6.00 Build 0)  -->
<svg version="1.1" id="Layer_1" xmlns="http://www.w3.org/2000/svg" xmlns:xlink="http://www.w3.org/1999/xlink" x="0px" y="0px"
	 viewBox="0 0 100 100" style="enable-background:new 0 0 100 100;" xml:space="preserve">
<style type="text/css">
	.st0{fill:#FFFFFF;stroke:#010101;stroke-width:0.25;stroke-miterlimit:10;}
	.st1{fill:none;stroke:#010101;stroke-width:0.25;stroke-miterlimit:10;stroke-dasharray:1.917;}
	.st2{fill:none;stroke:#010101;stroke-width:0.25;stroke-miterlimit:10;}
	.st3{fill:none;stroke:#010101;stroke-width:0.25;stroke-miterlimit:10;stroke-dasharray:1.9797,1.9797;}
	.st4{fill:none;stroke:#010101;stroke-width:0.25;stroke-miterlimit:10;stroke-dasharray:1.9545,1.9545;}
	.st5{fill:none;stroke:#010101;stroke-width:0.25;stroke-miterlimit:10;stroke-dasharray:1.9839,1.9839;}
	.st6{fill:none;stroke:#010101;stroke-width:0.25;stroke-miterlimit:10;stroke-dasharray:1.9379,1.9379;}
</style>
<g id="_x30_7-Pleated-Mitered_with-Flap">
	<g>
		<polygon class="st0" points="79.1,70.8 79.1,19 21,19 21,70.9 29.4,79.3 70.7,79.3 		"/>
		<polygon class="st1" points="30.5,76.6 23.8,69.8 23.8,21.8 76.3,21.8 76.3,69.7 69.6,76.6 		"/>
		<g>
			<line class="st2" x1="56.8" y1="79.3" x2="56.8" y2="19.4"/>
			<line class="st2" x1="43.3" y1="79.3" x2="43.3" y2="19.4"/>
		</g>
		<polygon class="st0" points="79.1,34.6 79.1,19 21,19 21,34.7 29.4,43.1 70.7,43.1 		"/>
		<g>
			<g>
				<line class="st2" x1="76.3" y1="19.4" x2="76.3" y2="20.4"/>
				<polyline class="st3" points="76.3,22.4 76.3,33.5 71,39 				"/>
				<polyline class="st2" points="70.3,39.7 69.6,40.4 68.6,40.4 				"/>
				<line class="st4" x1="66.7" y1="40.4" x2="32.5" y2="40.4"/>
				<polyline class="st2" points="31.5,40.4 30.5,40.4 29.9,39.7 				"/>
				<polyline class="st5" points="28.5,38.3 23.8,33.6 23.8,21.4 				"/>
				<line class="st2" x1="23.8" y1="20.4" x2="23.8" y2="19.4"/>
			</g>
		</g>
		<g>
			<g>
				<line class="st2" x1="21" y1="21.8" x2="22" y2="21.8"/>
				<line class="st6" x1="23.9" y1="21.8" x2="77.2" y2="21.8"/>
				<line class="st2" x1="78.2" y1="21.8" x2="79.1" y2="21.8"/>
			</g>
		</g>
		<path class="st0" d="M52.5,33c0-1.4-1.2-2.6-2.6-2.5c-1.4,0-2.6,1.2-2.5,2.6c0,1.4,1.2,2.5,2.6,2.5C51.3,35.6,52.5,34.4,52.5,33z"
			/>
	</g>
</g>
</svg>
