<?xml version="1.0" encoding="utf-8"?>
<!-- Generator: Adobe Illustrator 19.1.0, SVG Export Plug-In . SVG Version: 6.00 Build 0)  -->
<svg version="1.1" id="Layer_1" xmlns="http://www.w3.org/2000/svg" xmlns:xlink="http://www.w3.org/1999/xlink" x="0px" y="0px"
	 viewBox="0 0 100 100" style="enable-background:new 0 0 100 100;" xml:space="preserve">
<style type="text/css">
	.st0{fill:#FFFFFF;}
	.st1{fill:none;stroke:#010101;stroke-width:0.25;stroke-miterlimit:10;}
	.st2{fill:none;stroke:#010101;stroke-width:0.25;stroke-miterlimit:10;stroke-dasharray:1.9489,1.9489;}
	.st3{fill:none;stroke:#010101;stroke-width:0.25;stroke-miterlimit:10;stroke-dasharray:1.8689,1.8689;}
	.st4{fill:none;stroke:#010101;stroke-width:0.25;stroke-miterlimit:10;stroke-dasharray:1.8995,1.8995;}
	.st5{fill:none;stroke:#010101;stroke-width:0.25;stroke-miterlimit:10;stroke-dasharray:1.8869,1.8869;}
	.st6{fill:none;stroke:#010101;stroke-width:0.25;stroke-miterlimit:10;stroke-dasharray:1.9166;}
	.st7{fill:none;stroke:#CDCCCC;stroke-width:0.25;stroke-miterlimit:10;}
</style>
<g id="_x30_9-No_Pocket">
	<g>
		<g>
			<g>
				<rect x="20.8" y="23.3" class="st0" width="58.4" height="56.1"/>
				<g>
					<polyline class="st1" points="20.8,78.5 20.8,79.4 21.8,79.4 					"/>
					<line class="st2" x1="23.7" y1="79.4" x2="77.3" y2="79.4"/>
					<polyline class="st1" points="78.3,79.4 79.3,79.4 79.3,78.5 					"/>
					<line class="st3" x1="79.3" y1="76.6" x2="79.3" y2="25.2"/>
					<polyline class="st1" points="79.3,24.3 79.3,23.3 78.3,23.3 					"/>
					<line class="st2" x1="76.4" y1="23.3" x2="22.8" y2="23.3"/>
					<polyline class="st1" points="21.8,23.3 20.8,23.3 20.8,24.3 					"/>
					<line class="st3" x1="20.8" y1="26.1" x2="20.8" y2="77.5"/>
				</g>
			</g>
			<g>
				<polyline class="st0" points="76.5,23.4 76.5,76.6 23.6,76.6 23.6,23.4 				"/>
				<g>
					<line class="st1" x1="76.5" y1="23.4" x2="76.5" y2="24.4"/>
					<line class="st4" x1="76.5" y1="26.3" x2="76.5" y2="74.7"/>
					<polyline class="st1" points="76.5,75.7 76.5,76.6 75.5,76.6 					"/>
					<line class="st5" x1="73.6" y1="76.6" x2="25.5" y2="76.6"/>
					<polyline class="st1" points="24.6,76.6 23.6,76.6 23.6,75.7 					"/>
					<line class="st4" x1="23.6" y1="73.8" x2="23.6" y2="25.3"/>
					<line class="st1" x1="23.6" y1="24.4" x2="23.6" y2="23.4"/>
				</g>
			</g>
		</g>
		<g>
			<g>
				<line class="st1" x1="20.8" y1="31.5" x2="21.8" y2="31.5"/>
				<line class="st2" x1="23.7" y1="31.5" x2="77.3" y2="31.5"/>
				<line class="st1" x1="78.3" y1="31.5" x2="79.3" y2="31.5"/>
			</g>
		</g>
		<line class="st6" x1="73.7" y1="23.4" x2="73.7" y2="31.5"/>
		<line class="st6" x1="26.4" y1="23.4" x2="26.4" y2="31.5"/>
		<line class="st7" x1="81.8" y1="19.6" x2="19.1" y2="82.4"/>
	</g>
</g>
</svg>
