<?xml version="1.0" encoding="utf-8"?>
<!-- Generator: Adobe Illustrator 19.1.0, SVG Export Plug-In . SVG Version: 6.00 Build 0)  -->
<svg version="1.1" id="Layer_1" xmlns="http://www.w3.org/2000/svg" xmlns:xlink="http://www.w3.org/1999/xlink" x="0px" y="0px"
	 viewBox="0 0 100 100" style="enable-background:new 0 0 100 100;" xml:space="preserve">
<style type="text/css">
	.st0{fill:#FFFFFF;}
	.st1{fill:#C7C8C9;}
	.st2{fill:none;stroke:#010101;stroke-width:0.25;stroke-miterlimit:10;}
</style>
<path class="st0" d="M77.7,20.2c-0.4-2.4-0.9-3.6-0.9-3.6c-0.2-1.1-1.5-1.7-1.8-1.9c-0.1-0.1-0.1-0.1-0.1-0.1c-7.1-1.5-16-6-16-6
	L54.6,5h0.1c-1.3-1-4.1-1-4.5-1c-0.3,0-2.1,0-3.5,0.5c-0.3,0.1-0.7,0.2-0.9,0.4l0,0c0,0-4,3.4-4.3,3.7l-0.9,0.5
	c-2.7,1.2-10.2,4.5-15,5.5c0,0,0,0-0.1,0.1c-0.3,0.3-1.4,0.8-1.8,1.9c0,0-0.4,1-0.9,3.6c0,0-3.9,20.8-3.4,39.6l1.5,26.8l0,0
	c0,0,1.8,0.6,3.9,0.6c0.5,0,1,0,1.5-0.1l0,0c0.4,0,2.2-0.2,3.4-0.7c0,0-0.5,5.4-0.7,6.2c0,0,5.8,3,12.6,1.4c0.4-0.1,0.8-0.3,1.2-0.4
	l0.8,0l0,0c1.4,0.1,3.2,0.2,4.8,0.2l0.9,0l0.4,0c0.2,0,0.5,0,0.6,0c1.4,0,2.2,0,3-0.1h0l0,0c1-0.1,2-0.2,4-0.3
	c0.4,0.2,0.9,0.4,1.5,0.6c6.8,1.6,12.6-1.4,12.6-1.4c-0.2-0.8-0.7-6.2-0.7-6.2c1.5,0.6,3.5,0.7,3.5,0.7c2.6,0.5,5.2-0.5,5.2-0.5
	L81,59.8C81.4,41,77.7,20.2,77.7,20.2z M30.9,76.6c-0.2-6.9-1-15.4-0.9-17.8c0,0,0.6-14.5,1.3-19.2v-0.1c0,0,1.7,13.8,1,21.8
	C32.4,61.3,32,71.3,30.9,76.6z M69.5,76.7C68.6,71.4,68,61.3,68,61.3c-0.4-7.5,1-21.8,1-21.8s0,0,0,0.1c0.3,3.5,1.5,19.2,1.5,19.2
	C70.5,61.2,70.1,69.5,69.5,76.7z"/>
<path class="st1" d="M57.8,93.6c-4.4-2.6-4.5-5.6-7.6-22c-3.1,17.2-3.8,20-7.5,21.9c1.4,0.2,4.9,0.5,7.5,0.5s7.4-0.4,7.4-0.4"/>
<path class="st1" d="M50.2,6.2c-2.2,0-4,0.8-4.8,1.1c-0.4,3.5-0.7,10.6,0.8,19.4l3.5,21.2l4.2-21.2c1.6-8.8,1.3-15.9,1.1-19.4
	C54.2,7,52.4,6.2,50.2,6.2"/>
<path class="st2" d="M69.5,76.7C68.6,71.4,68,61.3,68,61.3c-0.4-7.5,1-21.8,1-21.8s0,0,0,0.1c0.3,3.5,1.5,19.2,1.5,19.2
	C70.5,61.2,70.1,69.5,69.5,76.7L69.5,76.7z M30.9,76.6c-0.2-6.9-1-15.4-0.9-17.8c0,0,0.6-14.5,1.3-19.2v-0.1c0,0,1.7,13.8,1,21.8
	C32.4,61.3,32,71.3,30.9,76.6L30.9,76.6z M29.6,86.4 M20.8,86.6"/>
<path class="st2" d="M57.4,93.4"/>
<path class="st2" d="M56.1,36.2c5-0.4,8.9-1.2,8.9-1.2v-2.1c-1.8,0.3-3.5,0.5-5,0.7c-1.2,0.2-2.3,0.3-3.1,0.3"/>
<path class="st2" d="M70.7,86.4L69,85.6l0.6-8.9 M31,76.5l0.7,9.4l-2,0.6 M74.8,14.6c0,0-5.1,15.2-5.9,25.6 M25.5,14.6
	c0,0,5.1,15.2,5.9,25.6"/>
<path class="st2" d="M39.3,39c0,0,0.6,13.2,0.2,30.6 M61.2,39c0,0-0.6,13.2-0.2,30.6"/>
<path class="st2" d="M51.8,56.5c0,0.4-0.4,0.8-0.8,0.8c-0.4,0-0.8-0.4-0.8-0.8c0-0.4,0.4-0.8,0.8-0.8C51.5,55.7,51.8,56,51.8,56.5"
	/>
<line class="st2" x1="51.8" y1="56.5" x2="52.9" y2="56.5"/>
<path class="st0" d="M45.6,5"/>
<path class="st0" d="M50,4.1h0.2"/>
<path class="st0" d="M54.6,5"/>
<path class="st2" d="M22.7,20.2"/>
<path class="st2" d="M25.5,14.6c0,0,0,0-0.1,0.1"/>
<path class="st2" d="M41.5,8.6"/>
<path class="st2" d="M70.6,86.4"/>
<path class="st2" d="M50.1,71.1c0.5,3.2,1.3,7,2.3,12.4c0.8,3.9,1.7,8.5,5.2,10.1c0.3,0.2,0.7,0.3,1.1,0.4"/>
<path class="st2" d="M48.7,53.7c-0.1,1.3-0.2,3.1,0,4.9c0.4,4.4,0.7,7.8,1.5,12.4"/>
<line class="st2" x1="49.7" y1="47.6" x2="48.8" y2="52.2"/>
<path class="st2" d="M45.4,7.2c-0.4,3.5-0.7,10.7,0.8,19.5l3.5,21.2l4.2-21.2c1.6-8.8,1.3-16,1.1-19.5"/>
<path class="st2" d="M23.7,79.4c0,0.4-0.3,0.6-0.6,0.6s-0.6-0.3-0.6-0.6c0-0.4,0.3-0.6,0.6-0.6S23.7,79,23.7,79.4"/>
<path class="st2" d="M23.7,81c0,0.4-0.3,0.6-0.6,0.6s-0.6-0.3-0.6-0.6c0-0.4,0.3-0.6,0.6-0.6S23.7,80.7,23.7,81"/>
<path class="st2" d="M23.7,82.7c0,0.4-0.3,0.6-0.6,0.6s-0.6-0.3-0.6-0.6c0-0.4,0.3-0.6,0.6-0.6S23.7,82.3,23.7,82.7"/>
<path class="st2" d="M23.7,84.3c0,0.4-0.3,0.6-0.6,0.6s-0.6-0.3-0.6-0.6c0-0.4,0.3-0.6,0.6-0.6S23.7,84,23.7,84.3"/>
<path class="st2" d="M76.4,79.4c0,0.4,0.3,0.6,0.6,0.6c0.4,0,0.6-0.3,0.6-0.6c0-0.4-0.3-0.6-0.6-0.6C76.7,78.7,76.4,79,76.4,79.4"/>
<path class="st2" d="M76.4,81c0,0.4,0.3,0.6,0.6,0.6c0.4,0,0.6-0.3,0.6-0.6c0-0.4-0.3-0.6-0.6-0.6C76.7,80.4,76.4,80.7,76.4,81"/>
<path class="st2" d="M76.4,82.7c0,0.4,0.3,0.6,0.6,0.6c0.4,0,0.6-0.3,0.6-0.6c0-0.4-0.3-0.6-0.6-0.6C76.7,82,76.4,82.3,76.4,82.7"/>
<path class="st2" d="M76.4,84.3c0,0.4,0.3,0.6,0.6,0.6c0.4,0,0.6-0.3,0.6-0.6c0-0.4-0.3-0.6-0.6-0.6C76.7,83.7,76.4,84,76.4,84.3"/>
<line class="st2" x1="21.9" y1="86.9" x2="21.1" y2="72.3"/>
<line class="st2" x1="78.4" y1="86.9" x2="79.1" y2="72.3"/>
<path class="st2" d="M28.9,92.6"/>
<path class="st2" d="M50.1,71.1c-0.5,3.2-1.3,7-2.3,12.4c-0.8,3.9-1.7,8.4-5.1,10.1c-0.4,0.2-0.8,0.3-1.2,0.4"/>
<path class="st2" d="M54.6,5"/>
<path class="st2" d="M41.4,8.6L38,14.5l3,2.3l-2.5,2.9c0,0,3.1,16.5,10.3,32.2l-0.1,2.4c7.9-16.9,13.1-34.6,13.1-34.6l-2.5-2.9
	l3-2.3l-3.4-5.9"/>
<path class="st2" d="M45.7,4.9"/>
<line class="st2" x1="58" y1="19.5" x2="59.5" y2="20.6"/>
<path class="st2" d="M45.7,4.9c0,0-0.2,0.8-0.3,2.3c0.8-0.4,2.6-1.1,4.8-1.1c2.3,0,4,0.8,4.7,1.1c-0.1-1.5-0.2-2.3-0.2-2.3"/>
<line class="st2" x1="59.3" y1="17" x2="55" y2="13"/>
<line class="st2" x1="41" y1="16.9" x2="45.1" y2="12.8"/>
<polygon class="st2" points="31.8,70.7 35.3,70.7 42.3,70.7 42.3,69.6 31.9,69.6 "/>
<line class="st2" x1="31.8" y1="70.2" x2="42.2" y2="70.2"/>
<polygon class="st2" points="68.7,70.7 65.2,70.7 58.2,70.7 58.2,69.6 68.6,69.6 "/>
<line class="st2" x1="68.7" y1="70.2" x2="58.3" y2="70.2"/>
<path class="st2" d="M79.3,86.6 M70.6,86.4"/>
<path class="st2" d="M77.7,20.2c-0.4-2.4-0.9-3.6-0.9-3.6c-0.2-1.1-1.5-1.7-1.8-1.9c-0.1-0.1-0.1-0.1-0.1-0.1c-7.1-1.5-16-6-16-6
	L54.6,5h0.1c-1.3-1-4.1-1-4.5-1c-0.3,0-2.1,0-3.5,0.5c-0.3,0.1-0.7,0.2-0.9,0.4l0,0c0,0-4,3.4-4.3,3.7l-0.9,0.5
	c-2.7,1.2-10.2,4.5-15,5.5c0,0,0,0-0.1,0.1c-0.3,0.3-1.4,0.8-1.8,1.9c0,0-0.4,1-0.9,3.6c0,0-3.9,20.8-3.4,39.6l1.5,26.8l0,0
	c0,0,1.8,0.6,3.9,0.6c0.5,0,1,0,1.5-0.1l0,0c0.4,0,2.2-0.2,3.4-0.7c0,0-0.5,5.4-0.7,6.2c0,0,5.8,3,12.6,1.4c0.4-0.1,0.8-0.3,1.2-0.4
	l0.8,0l0,0c1.4,0.1,3.2,0.2,4.8,0.2l0.9,0l0.4,0c0.2,0,0.5,0,0.6,0c1.4,0,2.2,0,3-0.1h0l0,0c1-0.1,2-0.2,4-0.3
	c0.4,0.2,0.9,0.4,1.5,0.6c6.8,1.6,12.6-1.4,12.6-1.4c-0.2-0.8-0.7-6.2-0.7-6.2c1.5,0.6,3.5,0.7,3.5,0.7c2.6,0.5,5.2-0.5,5.2-0.5
	L81,59.8C81.4,41,77.7,20.2,77.7,20.2z"/>
</svg>
