<?xml version="1.0" encoding="utf-8"?>
<!-- Generator: Adobe Illustrator 19.1.0, SVG Export Plug-In . SVG Version: 6.00 Build 0)  -->
<svg version="1.1" xmlns="http://www.w3.org/2000/svg" xmlns:xlink="http://www.w3.org/1999/xlink" x="0px" y="0px"
	 viewBox="0 0 100 100" style="enable-background:new 0 0 100 100;" xml:space="preserve">
<style type="text/css">
	.st0{display:none;}
	.st1{display:inline;stroke:#FFFFFF;stroke-miterlimit:10;}
	.st2{display:inline;}
	.st3{fill:#C7C8CA;}
	.st4{fill:#FFFFFF;}
	.st5{fill:none;stroke:#000000;stroke-width:0.3;stroke-miterlimit:10;}
	.st6{fill:none;stroke:#000000;stroke-width:0.15;stroke-miterlimit:10;}
	.st7{fill:none;}
	.st8{display:inline;fill:none;stroke:#ED1F24;stroke-width:0.25;stroke-miterlimit:10;}
	.st9{display:inline;fill:#FFFFFF;}
	.st10{display:inline;fill:#C7C8C9;}
	.st11{display:inline;fill:none;stroke:#010101;stroke-width:0.25;stroke-miterlimit:10;}
	.st12{display:inline;fill:none;stroke:#000000;stroke-width:0.3;stroke-miterlimit:10;}
	.st13{fill:#C7C8C9;}
	.st14{fill:none;stroke:#010101;stroke-width:0.25;stroke-miterlimit:10;}
</style>
<g id="Layer_1" class="st0">
	<g id="Layer_7">
		<rect y="0.5" class="st1" width="100" height="99.2"/>
	</g>
	<g id="_x30_5-lapel-notch-1">
		<g class="st2">
			<path class="st3" d="M57.8,93.6c-4.4-2.6-4.5-5.6-7.6-22c-3.1,17.2-3.8,20-7.5,21.9c1.4,0.2,4.9,0.5,7.5,0.5s7.4-0.4,7.4-0.4"/>
			<path class="st4" d="M69.5,76.7C68.6,71.4,68,61.3,68,61.3c-0.4-7.5,1-21.8,1-21.8s0,0,0,0.1c0.3,3.5,1.5,19.2,1.5,19.2
				C70.5,61.2,70.1,69.5,69.5,76.7L69.5,76.7z M30.9,76.6c-0.2-6.9-1-15.4-0.9-17.8c0,0,0.6-14.5,1.3-19.2v-0.1c0,0,1.7,13.8,1,21.8
				C32.4,61.3,32,71.3,30.9,76.6L30.9,76.6z M20.8,86.6c0,0,2.7,0.9,5.3,0.5c0,0,2.1-0.1,3.5-0.7"/>
			<path class="st5" d="M69.5,76.7C68.6,71.4,68,61.3,68,61.3c-0.4-7.5,1-21.8,1-21.8s0,0,0,0.1c0.3,3.5,1.5,19.2,1.5,19.2
				C70.5,61.2,70.1,69.5,69.5,76.7L69.5,76.7z M30.9,76.6c-0.2-6.9-1-15.4-0.9-17.8c0,0,0.6-14.5,1.3-19.2v-0.1c0,0,1.7,13.8,1,21.8
				C32.4,61.3,32,71.3,30.9,76.6L30.9,76.6z M20.8,86.6c0,0,2.7,0.9,5.3,0.5c0,0,2.1-0.1,3.5-0.7"/>
			<path class="st5" d="M42.7,93.5c1.9,0.1,5.5,0.3,7.5,0.3c3.1,0,3.5-0.1,7.2-0.4"/>
			<path class="st6" d="M56.1,36.2c5-0.4,8.9-1.2,8.9-1.2v-2.1c-1.8,0.3-3.5,0.5-5,0.7c-1.2,0.2-2.3,0.3-3.1,0.3"/>
			<path class="st5" d="M70.7,86.4L69,85.6l0.6-8.9 M31,76.5l0.7,9.4l-2,0.6 M74.8,14.6c0,0-5.1,15.2-5.9,25.6 M25.5,14.6
				c0,0,5.1,15.2,5.9,25.6"/>
			<path class="st6" d="M39.3,39c0,0,0.6,13.2,0.2,30.6 M61.2,39c0,0-0.6,13.2-0.2,30.6"/>
			<path class="st6" d="M51.8,56.5c0,0.4-0.4,0.8-0.8,0.8c-0.4,0-0.8-0.4-0.8-0.8c0-0.4,0.4-0.8,0.8-0.8
				C51.5,55.7,51.8,56,51.8,56.5"/>
			<line class="st5" x1="51.8" y1="56.5" x2="52.9" y2="56.5"/>
			<path class="st4" d="M48.7,54.3c7.9-16.9,13.1-34.6,13.1-34.6l-2.5-2.9l3-2.3l-3.4-5.9C58.5,8.3,54.6,5,54.6,5
				C53.3,4,50,4.1,50,4.1h0.2c0,0-3.2-0.1-4.6,0.9c0,0-3.9,3.4-4.2,3.7L38,14.5l3,2.3l-2.5,2.9c0,0,3.1,16.5,10.3,32.2L48.7,54.3z"
				/>
			<path class="st5" d="M41.5,8.6c0,0-10.1,4.7-16,6c0,0,0,0-0.1,0.1c-0.3,0.3-1.4,0.8-1.8,1.9c0,0-0.4,1-0.9,3.6
				c0,0-3.9,20.8-3.4,39.6l1.6,26.8c0,0,2.7,0.9,5.3,0.5"/>
			<path class="st5" d="M54.7,5c-1.3-1-4.1-1-4.5-1h0.1h-0.2c0,0,0,0,0.1,0c-0.4,0-3.2,0-4.5,1"/>
			<path class="st5" d="M50.1,71.1c0.5,3.2,1.3,7,2.3,12.4c0.9,4.3,1.9,9.4,6.3,10.5c6.8,1.6,12.6-1.4,12.6-1.4
				c-0.2-0.8-0.7-6.2-0.7-6.2c1.5,0.6,3.5,0.7,3.5,0.7c2.6,0.5,5.2-0.5,5.2-0.5L81,59.8c0.4-18.8-3.3-39.6-3.3-39.6
				c-0.4-2.4-0.9-3.6-0.9-3.6c-0.2-1.1-1.5-1.7-1.8-1.9c-0.1-0.1-0.1-0.1-0.1-0.1c-7.1-1.5-16-6-16-6"/>
			<path class="st5" d="M48.7,53.7c-0.1,1.3-0.2,3.1,0,4.9c0.4,4.4,0.7,7.8,1.5,12.4"/>
			<line class="st5" x1="49.7" y1="47.6" x2="48.8" y2="52.2"/>
			<path class="st3" d="M50.2,6.2c-2.2,0-4,0.8-4.8,1.1c-0.4,3.5-0.7,10.6,0.8,19.4l3.5,21.2l4.2-21.2c1.6-8.8,1.3-15.9,1.1-19.4
				C54.2,7,52.4,6.2,50.2,6.2"/>
			<path class="st5" d="M45.4,7.2c-0.4,3.5-0.7,10.7,0.8,19.5l3.5,21.2l4.2-21.2c1.6-8.8,1.3-16,1.1-19.5"/>
			<path class="st6" d="M23.7,79.4c0,0.4-0.3,0.6-0.6,0.6s-0.6-0.3-0.6-0.6c0-0.4,0.3-0.6,0.6-0.6S23.7,79,23.7,79.4"/>
			<path class="st6" d="M23.7,81c0,0.4-0.3,0.6-0.6,0.6s-0.6-0.3-0.6-0.6c0-0.4,0.3-0.6,0.6-0.6S23.7,80.7,23.7,81"/>
			<path class="st6" d="M23.7,82.7c0,0.4-0.3,0.6-0.6,0.6s-0.6-0.3-0.6-0.6c0-0.4,0.3-0.6,0.6-0.6S23.7,82.3,23.7,82.7"/>
			<path class="st6" d="M23.7,84.3c0,0.4-0.3,0.6-0.6,0.6s-0.6-0.3-0.6-0.6c0-0.4,0.3-0.6,0.6-0.6S23.7,84,23.7,84.3"/>
			<path class="st6" d="M76.4,79.4c0,0.4,0.3,0.6,0.6,0.6c0.4,0,0.6-0.3,0.6-0.6c0-0.4-0.3-0.6-0.6-0.6C76.7,78.7,76.4,79,76.4,79.4
				"/>
			<path class="st6" d="M76.4,81c0,0.4,0.3,0.6,0.6,0.6c0.4,0,0.6-0.3,0.6-0.6c0-0.4-0.3-0.6-0.6-0.6C76.7,80.4,76.4,80.7,76.4,81"
				/>
			<path class="st6" d="M76.4,82.7c0,0.4,0.3,0.6,0.6,0.6c0.4,0,0.6-0.3,0.6-0.6c0-0.4-0.3-0.6-0.6-0.6C76.7,82,76.4,82.3,76.4,82.7
				"/>
			<path class="st6" d="M76.4,84.3c0,0.4,0.3,0.6,0.6,0.6c0.4,0,0.6-0.3,0.6-0.6c0-0.4-0.3-0.6-0.6-0.6C76.7,83.7,76.4,84,76.4,84.3
				"/>
			<line class="st6" x1="21.9" y1="86.9" x2="21.1" y2="72.3"/>
			<line class="st6" x1="78.4" y1="86.9" x2="79.1" y2="72.3"/>
			<path class="st5" d="M50.1,71.1c-0.5,3.2-1.3,7-2.3,12.4c-0.9,4.3-1.9,9.4-6.3,10.5c-6.8,1.6-12.6-1.4-12.6-1.4
				c0.2-0.8,0.7-6.2,0.7-6.2"/>
			<path class="st5" d="M45.7,4.9c0,0-4,3.4-4.3,3.7L38,14.5l3,2.3l-2.5,2.9c0,0,3.1,16.5,10.3,32.2l-0.1,2.4
				c7.9-16.9,13.1-34.6,13.1-34.6l-2.5-2.9l3-2.3l-3.4-5.9C58.5,8.3,54.6,5,54.6,5"/>
			<line class="st5" x1="58" y1="19.5" x2="59.5" y2="20.6"/>
			<path class="st5" d="M45.7,4.9c0,0-0.2,0.8-0.3,2.3c0.8-0.4,2.6-1.1,4.8-1.1c2.3,0,4,0.8,4.7,1.1c-0.1-1.5-0.2-2.3-0.2-2.3"/>
			<line class="st6" x1="59.3" y1="17" x2="55" y2="13"/>
			<line class="st6" x1="41" y1="16.9" x2="45.1" y2="12.8"/>
			<polygon class="st5" points="31.8,70.7 35.3,70.7 42.3,70.7 42.3,69.6 31.9,69.6 			"/>
			<line class="st6" x1="31.8" y1="70.2" x2="42.2" y2="70.2"/>
			<polygon class="st5" points="68.7,70.7 65.2,70.7 58.2,70.7 58.2,69.6 68.6,69.6 			"/>
			<line class="st6" x1="68.7" y1="70.2" x2="58.3" y2="70.2"/>
		</g>
	</g>
	<g id="_x30_6-lapel-notch-3">
		<g class="st2">
			<path class="st3" d="M57.8,93.9c0,0-5.6-0.9-7.6-14.9c-2.6,14.3-7.7,14.9-7.7,14.9s5.1,0.5,7.7,0.5c2.6,0,7.4-0.4,7.4-0.4"/>
			<path class="st5" d="M69.4,76.8c-0.9-5.4-1.5-15.4-1.5-15.4c-0.4-7.4,1-21.7,1-21.7s0,0,0,0.1c0.3,3.5,1.5,19.2,1.5,19.2
				C70.4,61.4,70,69.7,69.4,76.8L69.4,76.8L69.4,76.8z M30.9,76.7c-0.2-6.9-1-15.4-0.9-17.8c0,0,0.6-14.5,1.3-19.2v-0.1
				c0,0,1.7,13.8,1,21.7C32.3,61.4,32,71.3,30.9,76.7L30.9,76.7z M20.8,86.7c0,0,2.7,0.9,5.3,0.5c0,0,2.1-0.1,3.5-0.7 M50.1,4.1
				c-0.4,0-3.2,0-4.5,1c0,0-3.9,3.4-4.2,3.7c0,0-10.1,4.7-16,6c0,0,0,0-0.1,0.1c-0.3,0.3-1.4,0.8-1.8,1.9c0,0-0.4,1-0.9,3.6
				c0,0-3.9,20.8-3.4,39.6l1.6,26.8c0,0,2.7,0.9,5.3,0.5c0,0,2.1-0.1,3.5-0.7c0,0-0.5,3.9-0.7,6.2c0,0,6.6,2.8,13.6,1.2
				c0,0,5.2-0.7,7.6-15.2c2,14.6,7.6,15.2,7.6,15.2l0,0c7,1.6,13.6-1.2,13.6-1.2c-0.2-0.8-0.7-6.2-0.7-6.2c1.5,0.6,3.5,0.7,3.5,0.7
				c2.6,0.5,5.2-0.5,5.2-0.5L81,59.9c0.4-18.8-3.3-39.6-3.3-39.6c-0.4-2.4-0.9-3.6-0.9-3.6c-0.2-1.1-1.5-1.7-1.8-1.9
				c-0.1-0.1-0.1-0.1-0.1-0.1c-7.1-1.5-16-6-16-6C58.5,8.4,54.6,5,54.6,5C53.4,4.1,50.5,4.1,50.1,4.1z"/>
			<path class="st5" d="M42.1,93.9c0,0,5.3,0.5,8,0.5s8-0.5,8-0.5"/>
			<path class="st3" d="M50.1,6.3c-2.2,0-4,0.5-4.8,0.8c-0.4,2.5-0.7,7.6,0.8,13.8l3.5,13.2l4.2-13.2c1.6-6.3,1.3-11.4,1.1-13.9
				C54.2,6.8,52.4,6.3,50.1,6.3"/>
			<path class="st6" d="M54.3,36.4C60.2,36,65,35,65,35v-2.1c-1.8,0.3-3.6,0.5-5,0.7c-2.8,0.3-4.6,0.5-4.6,0.5L54.3,36.4z"/>
			<path class="st5" d="M48.9,38.9c-0.1,1.1-0.7,8.7-0.1,27.7c0,0,0.6,6.8,1.4,12.1"/>
			<line class="st5" x1="49.7" y1="33.9" x2="48.9" y2="38.7"/>
			<path class="st5" d="M70.7,86.5L69,85.7l0.6-8.9 M30.9,76.5l0.7,9.4l-2,0.6 M74.8,14.7c0,0-5.1,15.2-5.9,25.6 M25.5,14.7
				c0,0,5.1,15.2,5.9,25.6"/>
			<g>
				<path class="st6" d="M51.5,44.2c0,0.4-0.4,0.8-0.8,0.8c-0.4,0-0.8-0.4-0.8-0.8c0-0.4,0.4-0.8,0.8-0.8
					C51.2,43.4,51.5,43.8,51.5,44.2"/>
			</g>
			<line class="st5" x1="51.5" y1="44.3" x2="52.6" y2="44.3"/>
			<g>
				<path class="st6" d="M51.5,56.1c0,0.4-0.4,0.8-0.8,0.8c-0.4,0-0.8-0.4-0.8-0.8c0-0.4,0.4-0.8,0.8-0.8
					C51.2,55.3,51.5,55.7,51.5,56.1"/>
			</g>
			<line class="st5" x1="51.5" y1="56.1" x2="52.6" y2="56.1"/>
			<line class="st5" x1="50.8" y1="68" x2="52.5" y2="68"/>
			<g>
				<path class="st6" d="M39.1,39.1c0,0,0.6,13.3,0.2,30.7 M61.2,39.1c0,0-0.6,13.3-0.2,30.7"/>
			</g>
			<path class="st6" d="M23.7,79.4c0,0.4-0.3,0.6-0.6,0.6c-0.4,0-0.6-0.3-0.6-0.6c0-0.4,0.3-0.6,0.6-0.6
				C23.5,78.8,23.7,79.1,23.7,79.4"/>
			<path class="st6" d="M23.7,81.1c0,0.4-0.3,0.6-0.6,0.6c-0.4,0-0.6-0.3-0.6-0.6c0-0.4,0.3-0.6,0.6-0.6
				C23.5,80.4,23.7,80.7,23.7,81.1"/>
			<path class="st6" d="M23.7,82.7c0,0.4-0.3,0.6-0.6,0.6c-0.4,0-0.6-0.3-0.6-0.6c0-0.4,0.3-0.6,0.6-0.6
				C23.5,82.1,23.7,82.4,23.7,82.7"/>
			<path class="st6" d="M23.7,84.4c0,0.4-0.3,0.6-0.6,0.6c-0.4,0-0.6-0.3-0.6-0.6c0-0.4,0.3-0.6,0.6-0.6
				C23.5,83.8,23.7,84,23.7,84.4"/>
			<path class="st6" d="M76.5,79.4c0,0.4,0.3,0.6,0.6,0.6c0.4,0,0.6-0.3,0.6-0.6c0-0.4-0.3-0.6-0.6-0.6
				C76.7,78.8,76.5,79.1,76.5,79.4"/>
			<path class="st6" d="M76.5,81.1c0,0.4,0.3,0.6,0.6,0.6c0.4,0,0.6-0.3,0.6-0.6c0-0.4-0.3-0.6-0.6-0.6
				C76.7,80.4,76.5,80.7,76.5,81.1"/>
			<path class="st6" d="M76.5,82.7c0,0.4,0.3,0.6,0.6,0.6c0.4,0,0.6-0.3,0.6-0.6c0-0.4-0.3-0.6-0.6-0.6
				C76.7,82.1,76.5,82.4,76.5,82.7"/>
			<path class="st6" d="M76.5,84.4c0,0.4,0.3,0.6,0.6,0.6c0.4,0,0.6-0.3,0.6-0.6c0-0.4-0.3-0.6-0.6-0.6C76.7,83.8,76.5,84,76.5,84.4
				"/>
			<line class="st6" x1="21.9" y1="87" x2="21.1" y2="72.4"/>
			<line class="st6" x1="78.4" y1="87" x2="79.1" y2="72.4"/>
			<path class="st5" d="M45.7,5c0,0-0.2,0.8-0.4,2.3"/>
			<path class="st5" d="M54.9,7.3C54.8,5.8,54.6,5,54.6,5"/>
			<path class="st5" d="M50.1,6.3c-2.2,0-4,0.5-4.8,0.8c-0.4,2.5-0.7,7.6,0.8,13.8l3.5,13.2l4.2-13.2c1.6-6.3,1.3-11.4,1.1-13.9
				C54.2,6.8,52.4,6.3,50.1,6.3z"/>
			<line class="st6" x1="59.3" y1="17.1" x2="55" y2="13.1"/>
			<line class="st6" x1="41" y1="17" x2="45.1" y2="12.9"/>
			<path class="st5" d="M54.6,5"/>
			<path class="st5" d="M41.4,8.7L38,14.6l3,2.3l-2.5,2.9c0,0,1.6,4.3,10.4,19l-0.1,2.4c1.8-3.9,13-21.4,13-21.4l-2.5-2.9l3-2.3
				l-3.4-5.9"/>
			<line class="st5" x1="58" y1="19.6" x2="59.5" y2="20.7"/>
			<line class="st6" x1="41.9" y1="70.4" x2="31.8" y2="70.4"/>
			<line class="st6" x1="58.5" y1="70.4" x2="68.8" y2="70.4"/>
			<polygon class="st5" points="31.8,70.9 35.3,70.9 42.3,70.9 42.3,69.8 32,69.8 			"/>
			<line class="st6" x1="31.8" y1="70.4" x2="42.2" y2="70.4"/>
			<polygon class="st5" points="68.7,70.9 65.2,70.9 58.3,70.9 58.3,69.8 68.6,69.8 			"/>
			<line class="st6" x1="68.7" y1="70.4" x2="58.3" y2="70.4"/>
		</g>
	</g>
	<g id="_x30_7-lapel-notch-narrow-1">
		<g class="st2">
			<path class="st3" d="M49.9,6.2c-2.2,0-3.9,0.8-4.7,1.1c-0.4,3.5-0.9,10.3,0.7,19.1L49.3,48l4.2-21.5c1.6-8.8,1.4-15.7,1.2-19.1
				C54,7,52.2,6.2,49.9,6.2"/>
			<path class="st5" d="M69.2,76.6c-0.9-5.3-1.5-15.4-1.5-15.4c-0.4-7.4,1-21.7,1-21.7s0,0,0,0.1c0.3,3.5,1.5,19.2,1.5,19.2
				C70.2,61.2,69.8,69.5,69.2,76.6L69.2,76.6z M30.8,76.4c-0.2-6.9-1-15.4-0.9-17.7c0,0,0.6-14.5,1.3-19.1v-0.1c0,0,1.7,13.8,1,21.7
				C32.2,61.2,31.8,71.1,30.8,76.4L30.8,76.4z M20.7,86.4c0,0,2.7,0.9,5.3,0.5c0,0,2.1-0.1,3.5-0.7 M70.4,86.2
				c1.5,0.6,3.5,0.7,3.5,0.7c2.6,0.4,5.2-0.5,5.2-0.5l1.5-26.7c0.4-18.8-3.3-39.5-3.3-39.5c-0.4-2.4-0.9-3.6-0.9-3.6
				c-0.2-1.1-1.5-1.6-1.8-1.9c-0.1-0.1-0.1-0.1-0.1-0.1C67.4,13.1,57,7.8,57,7.8C56.7,7.5,54.4,5,54.4,5C53.2,4,50,4,50,4h-0.2
				c0,0-3.2,0-4.4,0.9c0,0-2.5,2.8-2.8,3.1c0,0-11.5,5.3-17.4,6.6c0,0,0,0-0.1,0.1c-0.3,0.3-1.4,0.8-1.8,1.9c0,0-0.4,1-0.9,3.6
				c0,0-3.9,20.8-3.4,39.5l1.6,26.7c0,0,2.7,0.9,5.3,0.5c0,0,2.1-0.1,3.5-0.7"/>
			<path class="st3" d="M57.8,93.7C52,90.8,53,84.2,49.9,71c-2.7,11.3-2.2,19.9-8,22.7c1,0.1,5.4,0.4,8,0.4s7.4-0.4,7.4-0.4"/>
			<path class="st6" d="M55.5,36.1c5.6-0.4,9.3-1.2,9.3-1.2v-2.1c-1.8,0.3-3.5,0.5-5,0.7c-2.1,0.3-2.9,0.3-3.5,0.4"/>
			<path class="st6" d="M39,39c0,0,0.6,13.1,0.2,30.5 M61,39c0,0-0.6,13.1-0.2,30.5"/>
			<path class="st5" d="M70.4,86.2l-1.7-0.8l0.6-8.9 M30.8,76.3l0.7,9.4l-2,0.6 M74.5,14.6c0,0-5.1,15.2-5.8,25.5 M25.3,14.6
				c0,0,5.1,15.2,5.8,25.5"/>
			<g>
				<path class="st6" d="M51.6,57.5c0,0.4-0.4,0.8-0.8,0.8c-0.4,0-0.8-0.4-0.8-0.8c0-0.4,0.4-0.8,0.8-0.8
					C51.3,56.7,51.6,57.1,51.6,57.5"/>
			</g>
			<line class="st5" x1="51.6" y1="57.5" x2="52.6" y2="57.5"/>
			<g>
				<path class="st5" d="M50,79"/>
				<path class="st7" d="M50,6.2c-2.2,0-4,0.8-4.8,1.1c-0.4,3.5-0.7,10.6,0.8,19.3l3.5,21.5l4.2-21.5c1.6-8.8,1.3-15.9,1.1-19.4
					C54,7,52.2,6.2,50,6.2"/>
				<path class="st5" d="M50,6.2c-2.2,0-4,0.8-4.8,1.1c-0.4,3.5-0.7,10.6,0.8,19.3l3.5,21.5l4.2-21.5c1.6-8.8,1.3-15.9,1.1-19.4
					C54,7,52.2,6.2,50,6.2z"/>
			</g>
			<line class="st5" x1="57.4" y1="19.4" x2="58.9" y2="20.4"/>
			<path class="st5" d="M45.5,4.9c0,0-0.2,0.8-0.3,2.3"/>
			<path class="st5" d="M54.7,7.2c-0.1-1.4-0.1-1.3-0.2-2.2V4.9"/>
			<line class="st6" x1="57.6" y1="16.7" x2="54.8" y2="14.2"/>
			<line class="st6" x1="42.3" y1="16.7" x2="44.9" y2="14.1"/>
			<line class="st6" x1="41.7" y1="70.1" x2="31.6" y2="70.1"/>
			<line class="st6" x1="58.2" y1="70.1" x2="68.5" y2="70.1"/>
			<path class="st6" d="M23.6,79.2c0,0.4-0.3,0.6-0.6,0.6c-0.4,0-0.6-0.3-0.6-0.6c0-0.4,0.3-0.6,0.6-0.6
				C23.3,78.6,23.6,78.9,23.6,79.2"/>
			<path class="st6" d="M23.6,80.9c0,0.4-0.3,0.6-0.6,0.6c-0.4,0-0.6-0.3-0.6-0.6c0-0.4,0.3-0.6,0.6-0.6
				C23.3,80.2,23.6,80.5,23.6,80.9"/>
			<path class="st6" d="M23.6,82.5c0,0.4-0.3,0.6-0.6,0.6c-0.4,0-0.6-0.3-0.6-0.6c0-0.4,0.3-0.6,0.6-0.6
				C23.3,81.9,23.6,82.2,23.6,82.5"/>
			<path class="st6" d="M23.6,84.2c0,0.4-0.3,0.6-0.6,0.6c-0.4,0-0.6-0.3-0.6-0.6c0-0.4,0.3-0.6,0.6-0.6
				C23.3,83.5,23.6,83.8,23.6,84.2"/>
			<path class="st6" d="M76.1,79.2c0,0.4,0.3,0.6,0.6,0.6c0.4,0,0.6-0.3,0.6-0.6c0-0.4-0.3-0.6-0.6-0.6S76.1,78.9,76.1,79.2"/>
			<path class="st6" d="M76.1,80.9c0,0.4,0.3,0.6,0.6,0.6c0.4,0,0.6-0.3,0.6-0.6c0-0.4-0.3-0.6-0.6-0.6
				C76.4,80.2,76.1,80.5,76.1,80.9"/>
			<path class="st6" d="M76.1,82.5c0,0.4,0.3,0.6,0.6,0.6c0.4,0,0.6-0.3,0.6-0.6c0-0.4-0.3-0.6-0.6-0.6S76.1,82.2,76.1,82.5"/>
			<path class="st6" d="M76.1,84.2c0,0.4,0.3,0.6,0.6,0.6c0.4,0,0.6-0.3,0.6-0.6c0-0.4-0.3-0.6-0.6-0.6
				C76.4,83.5,76.1,83.8,76.1,84.2"/>
			<line class="st6" x1="21.7" y1="86.7" x2="20.9" y2="72.2"/>
			<line class="st6" x1="78.1" y1="86.7" x2="78.8" y2="72.2"/>
			<path class="st5" d="M42.7,8l-3.6,6.2l3.2,2.4l-2.8,3.2c0,0,4.1,22.7,9.2,32.3"/>
			<path class="st5" d="M54.4,4.9"/>
			<path class="st5" d="M48.5,54.5C57,34.9,60.3,19.8,60.3,19.8l-2.7-3.1l3.2-2.4L57,7.8"/>
			<path class="st5" d="M49.9,70.6c0.5,3.2,1.3,7.2,2.4,12.8c0.9,4.3,1.9,9.4,6.3,10.5c6.8,1.6,12.6-1.4,12.6-1.4
				c-0.2-0.8-0.7-6.2-0.7-6.2"/>
			<path class="st5" d="M48.5,54.5c-0.1,1.2-0.1,2.7,0,4.2c0.4,4.3,0.7,7.4,1.4,11.9"/>
			<path class="st5" d="M49.5,47.9l-0.8,4.4l-0.1,0.6c0,0.4-0.1,0.9-0.1,1.6"/>
			<path class="st5" d="M49.9,70.5c-0.5,3.2-1.3,7.2-2.4,12.8c-0.9,4.3-1.9,9.4-6.3,10.5c-6.8,1.6-12.6-1.4-12.6-1.4
				c0.2-0.8,0.7-6.2,0.7-6.2"/>
			<polygon class="st5" points="31.6,70.6 35.1,70.6 42.1,70.6 42.1,69.5 31.8,69.5 			"/>
			<line class="st6" x1="31.6" y1="70.1" x2="42" y2="70.1"/>
			<polygon class="st5" points="68.5,70.6 64.9,70.6 58,70.6 58,69.5 68.3,69.5 			"/>
			<line class="st6" x1="68.5" y1="70.1" x2="58.1" y2="70.1"/>
			<path class="st5" d="M41.9,93.7c0,0,5.2,0.4,8,0.4c2.9,0,8-0.4,8-0.4"/>
		</g>
	</g>
	<g id="_x30_8-lapel-notch-narrow-3">
		<g class="st2">
			<path class="st3" d="M57.9,93.9c0,0-5.9-0.5-7.8-14.9c-2.4,14.3-7.8,14.9-7.8,14.9s5.2,0.5,7.8,0.5s7.4-0.4,7.4-0.4"/>
			<path class="st5" d="M69.4,76.8c-0.9-5.4-1.5-15.4-1.5-15.4C67.5,53.9,69,39.6,69,39.6s0,0,0,0.1c0.3,3.5,1.5,19.2,1.5,19.2
				C70.5,61.3,70.1,69.6,69.4,76.8L69.4,76.8z M30.8,76.7c-0.2-6.9-1-15.4-0.9-17.8c0,0,0.6-14.5,1.3-19.2v-0.1c0,0,1.7,13.9,1,21.8
				C32.2,61.4,31.9,71.4,30.8,76.7L30.8,76.7z M20.7,86.7c0,0,2.7,0.9,5.3,0.5c0,0,2.1-0.1,3.5-0.7 M42.8,8.1c0,0-11.6,5.3-17.5,6.6
				c0,0,0,0-0.1,0.1c-0.3,0.3-1.4,0.8-1.8,1.9c0,0-0.4,1-0.9,3.6c0,0-3.9,20.8-3.4,39.7l1.6,26.8c0,0,2.7,0.9,5.3,0.5
				c0,0,2.1-0.1,3.5-0.7c0,0-0.5,3.9-0.7,6.2c0,0,6.6,2.8,13.6,1.2c0,0,5.2-0.7,7.7-15.2c2,14.6,7.7,15.2,7.7,15.2l0,0
				c7,1.6,13.6-1.2,13.6-1.2c-0.2-0.8-0.7-6.2-0.7-6.2c1.5,0.6,3.5,0.7,3.5,0.7c2.6,0.5,5.3-0.5,5.3-0.5L81,60
				c0.5-18.8-3.3-39.7-3.3-39.7c-0.4-2.4-0.9-3.6-0.9-3.6c-0.2-1.1-1.5-1.7-1.8-1.9c-0.1-0.1-0.1-0.1-0.1-0.1
				c-7.2-1.5-17.5-6.6-17.5-6.6"/>
			<path class="st5" d="M42.2,94c0,0,5.2,0.5,7.9,0.5S58,94,58,94"/>
			<path class="st3" d="M50.1,6.2c-2.2,0-4,0.8-4.8,1.1c-0.4,2.5-0.8,7.3,0.8,13.6l3.5,13.2l4.2-13.2c1.6-6.3,1.4-11.2,1.1-13.6
				C54.1,7,52.3,6.2,50.1,6.2"/>
			<path class="st5" d="M45.3,7c-0.4,2.5-0.8,7.6,0.8,13.9l3.5,13.2l4.2-13.2c1.6-6.3,1.3-11.4,1-13.9"/>
			<line class="st6" x1="58" y1="17.1" x2="54.8" y2="14.1"/>
			<line class="st6" x1="42.3" y1="16.9" x2="45.1" y2="14.2"/>
			<path class="st6" d="M54.2,36.4C60.1,36,65,35,65,35v-2.1c-1.8,0.3-3.6,0.5-5,0.7c-2.8,0.3-4.6,0.5-4.6,0.5L54.2,36.4z"/>
			<path class="st6" d="M39.1,39.1c0,0,0.6,13.3,0.2,30.7 M61.1,39.1c0,0-0.6,13.3-0.2,30.7"/>
			<path class="st5" d="M70.6,86.5l-1.7-0.8l0.6-8.9 M30.8,76.6l0.7,9.4l-2,0.6 M74.7,14.7c0,0-5.1,15.2-5.9,25.6 M25.4,14.7
				c0,0,5.1,15.2,5.9,25.6"/>
			<g>
				<path class="st6" d="M51.4,44.2c0,0.4-0.4,0.8-0.8,0.8c-0.4,0-0.8-0.4-0.8-0.8c0-0.4,0.4-0.8,0.8-0.8
					C51.1,43.5,51.4,43.8,51.4,44.2"/>
			</g>
			<line class="st5" x1="51.4" y1="44.3" x2="52.5" y2="44.3"/>
			<g>
				<path class="st6" d="M51.4,56.1c0,0.4-0.4,0.8-0.8,0.8c-0.4,0-0.8-0.4-0.8-0.8c0-0.4,0.4-0.8,0.8-0.8
					C51.1,55.3,51.4,55.7,51.4,56.1"/>
			</g>
			<line class="st5" x1="51.4" y1="56.1" x2="52.5" y2="56.1"/>
			<line class="st5" x1="50.7" y1="68" x2="52.4" y2="68"/>
			<path class="st6" d="M23.6,79.5c0,0.4-0.3,0.6-0.6,0.6c-0.4,0-0.6-0.3-0.6-0.6c0-0.4,0.3-0.6,0.6-0.6
				C23.4,78.8,23.6,79.1,23.6,79.5"/>
			<path class="st6" d="M23.6,81.1c0,0.4-0.3,0.6-0.6,0.6c-0.4,0-0.6-0.3-0.6-0.6c0-0.4,0.3-0.6,0.6-0.6
				C23.4,80.5,23.6,80.8,23.6,81.1"/>
			<path class="st6" d="M23.6,82.8c0,0.4-0.3,0.6-0.6,0.6c-0.4,0-0.6-0.3-0.6-0.6c0-0.4,0.3-0.6,0.6-0.6
				C23.4,82.2,23.6,82.4,23.6,82.8"/>
			<path class="st6" d="M23.6,84.4c0,0.4-0.3,0.6-0.6,0.6c-0.4,0-0.6-0.3-0.6-0.6c0-0.4,0.3-0.6,0.6-0.6
				C23.4,83.8,23.6,84.1,23.6,84.4"/>
			<path class="st6" d="M76.4,79.5c0,0.4,0.3,0.6,0.6,0.6c0.4,0,0.6-0.3,0.6-0.6c0-0.4-0.3-0.6-0.6-0.6
				C76.7,78.8,76.4,79.1,76.4,79.5"/>
			<path class="st6" d="M76.4,81.1c0,0.4,0.3,0.6,0.6,0.6c0.4,0,0.6-0.3,0.6-0.6c0-0.4-0.3-0.6-0.6-0.6
				C76.7,80.5,76.4,80.8,76.4,81.1"/>
			<path class="st6" d="M76.4,82.8c0,0.4,0.3,0.6,0.6,0.6c0.4,0,0.6-0.3,0.6-0.6c0-0.4-0.3-0.6-0.6-0.6
				C76.7,82.2,76.4,82.4,76.4,82.8"/>
			<path class="st6" d="M76.4,84.4c0,0.4,0.3,0.6,0.6,0.6c0.4,0,0.6-0.3,0.6-0.6c0-0.4-0.3-0.6-0.6-0.6
				C76.7,83.8,76.4,84.1,76.4,84.4"/>
			<line class="st6" x1="21.8" y1="87" x2="21" y2="72.4"/>
			<line class="st6" x1="78.4" y1="87" x2="79.1" y2="72.4"/>
			<path class="st5" d="M48.6,41.1c1.8-3.8,11.8-21.3,11.8-21.3l-2.7-3.1l3.2-2.4l-3.6-6.2C57,7.8,54.5,5,54.5,5C53.2,3.9,50,4,50,4
				h0.2c0,0-3.2-0.1-4.6,1c0,0-2.5,2.8-2.8,3.1l-3.6,6.2l3.2,2.4L39.5,20c0,0,3.6,9.2,9.2,18.6"/>
			<line class="st5" x1="57.2" y1="19.2" x2="58.7" y2="20.3"/>
			<path class="st5" d="M48.6,66.5c0,0,0.7,6.9,1.4,12.2"/>
			<path class="st5" d="M48.6,40.8c-0.2,3.6-0.4,11.7,0,25.7"/>
			<path class="st5" d="M49.6,34l-0.8,4.7c0,0-0.1,0.7-0.2,2.5"/>
			<line class="st6" x1="41.7" y1="70.4" x2="31.6" y2="70.4"/>
			<line class="st6" x1="58.4" y1="70.4" x2="68.6" y2="70.4"/>
			<polygon class="st5" points="31.6,71 35.2,71 42.1,71 42.1,69.9 31.8,69.9 			"/>
			<line class="st6" x1="31.6" y1="70.4" x2="42.1" y2="70.4"/>
			<polygon class="st5" points="68.6,71 65.1,71 58.1,71 58.1,69.9 68.5,69.9 			"/>
			<line class="st6" x1="68.6" y1="70.4" x2="58.2" y2="70.4"/>
			<path class="st5" d="M45.6,5c0,0-0.2,0.8-0.3,2.3c0.8-0.4,2.6-1.1,4.8-1.1c2.3,0,4,0.8,4.7,1.1c-0.2-1.9-0.2-1.8-0.2-2.1V5"/>
		</g>
	</g>
	<g id="_x31_0-lapel-shawl-1">
		<g class="st2">
			<path class="st3" d="M58.3,93.8c-4.2-2.4-4.6-3.9-8.1-22c-2.8,18.2-4.5,20.3-8.2,22c0.6,0.1,6.4,0.7,8.4,0.7c2,0,6.1-0.4,6.1-0.4
				"/>
			<path class="st3" d="M50.3,6.1c-1.7,0-4.4,0.8-5,1.1c-0.8,15.1,4,42.2,4,42.2S56,22.9,54.8,7.2C52.3,6.1,50.3,6.1,50.3,6.1z"/>
			<path class="st5" d="M69.5,76.7C68.6,71.3,68,61.3,68,61.3c-0.4-7.5,1-21.8,1-21.8s0,0,0,0.1c0.3,3.5,1.5,19.2,1.5,19.2
				C70.5,61.2,70.1,69.5,69.5,76.7L69.5,76.7z M30.9,76.6c-0.2-6.9-1-15.4-0.9-17.8c0,0,0.6-14.5,1.3-19.2v-0.1c0,0,1.7,13.8,1,21.8
				C32.4,61.3,32,71.3,30.9,76.6L30.9,76.6z M20.8,86.6c0,0,2.7,0.9,5.3,0.5c0,0,2.1-0.1,3.5-0.7 M70.7,86.4
				c1.5,0.6,3.5,0.7,3.5,0.7c2.6,0.5,5.2-0.5,5.2-0.5L81,59.8c0.5-18.8-3.3-39.6-3.3-39.6c-0.4-2.4-0.9-3.6-0.9-3.6
				c-0.2-1.1-1.5-1.7-1.8-1.9c-0.1-0.1-0.1-0.1-0.1-0.1C67.7,13.1,60,9.2,60,9.2C59.7,8.9,54.7,5,54.7,5c-1.3-1-4.1-1-4.5-1h0.1
				h-0.2c0,0,0,0,0.1,0c-0.4,0-3.2,0-4.5,1c0,0-5.2,3.9-5.5,4.2c0,0-8.8,4.2-14.7,5.5c0,0,0,0-0.1,0.1c-0.3,0.3-1.4,0.8-1.8,1.9
				c0,0-0.4,1-0.9,3.6c0,0-3.9,20.8-3.4,39.6l1.6,26.8c0,0,2.7,0.9,5.3,0.5c0,0,2.1-0.1,3.5-0.7"/>
			<path class="st5" d="M41.7,93.9c0,0,5.6,0.5,8.5,0.5s8.5-0.5,8.5-0.5"/>
			<path class="st6" d="M56.1,36.2C60.8,35.7,65,35,65,35v-2.1c-1.8,0.3-3.5,0.5-5,0.7c-0.9,0.1-2.5,0.3-3.2,0.4"/>
			<path class="st5" d="M70.7,86.4L69,85.6l0.6-8.9 M31,76.5l0.7,9.4l-2,0.6 M74.8,14.6c0,0-5.1,15.2-5.9,25.6 M25.5,14.6
				c0,0,5.1,15.2,5.9,25.6"/>
			<path class="st6" d="M39.3,39c0,0,0.6,13.2,0.2,30.6 M61.1,39c0,0-0.6,13.2-0.2,30.6"/>
			<line class="st5" x1="51.8" y1="56.5" x2="52.9" y2="56.5"/>
			<path class="st5" d="M45.4,7.3c-0.4,3.5,0.4,16.4,0.8,19.4c0.7,5.1,3.2,23,3.2,23s3.8-17.2,4.5-23c0.8-7,1.3-15.9,1.1-19.4"/>
			<path class="st5" d="M45.7,4.9c0,0-0.2,0.8-0.3,2.3c0.8-0.4,2.6-1.1,4.8-1.1c2.3,0,4,0.8,4.7,1.1c-0.1-1.5-0.2-2.3-0.2-2.3"/>
			<line class="st6" x1="41.9" y1="70.2" x2="31.7" y2="70.2"/>
			<line class="st6" x1="58.5" y1="70.2" x2="68.7" y2="70.2"/>
			<line class="st6" x1="21.9" y1="86.9" x2="21.1" y2="72.3"/>
			<line class="st6" x1="78.4" y1="86.9" x2="79.1" y2="72.3"/>
			<path class="st5" d="M49.7,47.6l-0.2,0.9V49l-0.6,3c0,0-0.5,3.2-0.2,6.6c0.6,7.4,1.1,11.3,3.8,24.8c0.9,4.3,1.9,9.4,6.3,10.5
				c6.8,1.6,12.6-1.4,12.6-1.4c-0.2-0.8-0.7-6.2-0.7-6.2"/>
			<path class="st5" d="M50.2,71.2c-0.5,3.1-1.2,6.9-2.3,12.1c-0.9,4.3-1.9,9.4-6.3,10.5C34.8,95.5,29,92.5,29,92.5
				c0.2-0.8,0.7-6.2,0.7-6.2"/>
			<g>
				<polygon class="st5" points="31.7,70.8 35.3,70.8 42.2,70.8 42.2,69.7 31.9,69.7 				"/>
				<line class="st6" x1="31.7" y1="70.2" x2="42.1" y2="70.2"/>
			</g>
			<g>
				<polygon class="st7" points="68.7,70.8 65.2,70.8 58.2,70.8 58.2,69.7 68.5,69.7 				"/>
				<polygon class="st5" points="68.7,70.8 65.2,70.8 58.2,70.8 58.2,69.7 68.5,69.7 				"/>
				<line class="st6" x1="68.7" y1="70.2" x2="58.3" y2="70.2"/>
			</g>
			<path class="st6" d="M51.8,56.5c0,0.4-0.4,0.8-0.8,0.8c-0.4,0-0.8-0.4-0.8-0.8c0-0.4,0.4-0.8,0.8-0.8
				C51.5,55.7,51.8,56,51.8,56.5"/>
			<path class="st6" d="M23.7,79.4c0,0.4-0.3,0.6-0.6,0.6c-0.4,0-0.6-0.3-0.6-0.6c0-0.4,0.3-0.6,0.6-0.6
				C23.4,78.7,23.7,79,23.7,79.4"/>
			<path class="st6" d="M23.7,81c0,0.4-0.3,0.6-0.6,0.6c-0.4,0-0.6-0.3-0.6-0.6c0-0.4,0.3-0.6,0.6-0.6C23.4,80.4,23.7,80.7,23.7,81"
				/>
			<path class="st6" d="M23.7,82.7c0,0.4-0.3,0.6-0.6,0.6c-0.4,0-0.6-0.3-0.6-0.6c0-0.4,0.3-0.6,0.6-0.6
				C23.4,82,23.7,82.3,23.7,82.7"/>
			<path class="st6" d="M23.7,84.3c0,0.4-0.3,0.6-0.6,0.6c-0.4,0-0.6-0.3-0.6-0.6c0-0.4,0.3-0.6,0.6-0.6
				C23.4,83.7,23.7,84,23.7,84.3"/>
			<path class="st6" d="M76.4,79.4c0,0.4,0.3,0.6,0.6,0.6c0.4,0,0.6-0.3,0.6-0.6c0-0.4-0.3-0.6-0.6-0.6C76.7,78.7,76.4,79,76.4,79.4
				"/>
			<path class="st6" d="M76.4,81c0,0.4,0.3,0.6,0.6,0.6c0.4,0,0.6-0.3,0.6-0.6c0-0.4-0.3-0.6-0.6-0.6C76.7,80.4,76.4,80.7,76.4,81"
				/>
			<path class="st6" d="M76.4,82.7c0,0.4,0.3,0.6,0.6,0.6c0.4,0,0.6-0.3,0.6-0.6c0-0.4-0.3-0.6-0.6-0.6C76.7,82,76.4,82.3,76.4,82.7
				"/>
			<path class="st6" d="M76.4,84.3c0,0.4,0.3,0.6,0.6,0.6c0.4,0,0.6-0.3,0.6-0.6c0-0.4-0.3-0.6-0.6-0.6C76.7,83.7,76.4,84,76.4,84.3
				"/>
			<path class="st5" d="M40.2,9.2c0,0-2.3,20.3,8.4,43.6v1.5C63.4,24.1,60,9.2,60,9.2"/>
		</g>
	</g>
	<g id="guide">
		<rect x="25.3" y="14.7" class="st8" width="49.3" height="79.7"/>
	</g>
	<g id="DcKXZm_1_" class="st2">
		
			<image style="overflow:visible;" width="183" height="231" id="DcKXZm_2_" xlink:href="2591CB6E4F2FFD33.png"  transform="matrix(0.4007 0 0 0.4007 111.6667 1.7158)">
		</image>
	</g>
	<path class="st9" d="M77.7,20.2c-0.4-2.4-0.9-3.6-0.9-3.6c-0.2-1.1-1.5-1.7-1.8-1.9c-0.1-0.1-0.1-0.1-0.1-0.1c-7.1-1.5-16-6-16-6
		L54.6,5h0.1c-1.3-1-4.1-1-4.5-1c-0.3,0-2.1,0-3.5,0.5c-0.3,0.1-0.7,0.2-0.9,0.4l0,0c0,0-4,3.4-4.3,3.7l-0.9,0.5
		c-2.7,1.2-10.2,4.5-15,5.5c0,0,0,0-0.1,0.1c-0.3,0.3-1.4,0.8-1.8,1.9c0,0-0.4,1-0.9,3.6c0,0-3.9,20.8-3.4,39.6l1.5,26.8l0,0
		c0,0,1.8,0.6,3.9,0.6c0.5,0,1,0,1.5-0.1l0,0c0.4,0,2.2-0.2,3.4-0.7c0,0-0.5,5.4-0.7,6.2c0,0,5.8,3,12.6,1.4
		c0.4-0.1,0.8-0.3,1.2-0.4h0.8l0,0c1.4,0.1,3.2,0.2,4.8,0.2h0.9h0.4c0.2,0,0.5,0,0.6,0c1.4,0,2.2,0,3-0.1l0,0l0,0c1-0.1,2-0.2,4-0.3
		c0.4,0.2,0.9,0.4,1.5,0.6c6.8,1.6,12.6-1.4,12.6-1.4c-0.2-0.8-0.7-6.2-0.7-6.2c1.5,0.6,3.5,0.7,3.5,0.7c2.6,0.5,5.2-0.5,5.2-0.5
		L81,59.8C81.4,41,77.7,20.2,77.7,20.2z M30.9,76.6c-0.2-6.9-1-15.4-0.9-17.8c0,0,0.6-14.5,1.3-19.2v-0.1c0,0,1.7,13.8,1,21.8
		C32.4,61.3,32,71.3,30.9,76.6z M69.5,76.7C68.6,71.4,68,61.3,68,61.3c-0.4-7.5,1-21.8,1-21.8s0,0,0,0.1c0.3,3.5,1.5,19.2,1.5,19.2
		C70.5,61.2,70.1,69.5,69.5,76.7z"/>
	<path class="st10" d="M57.8,93.6c-4.4-2.6-4.5-5.6-7.6-22c-3.1,17.2-3.8,20-7.5,21.9c1.4,0.2,4.9,0.5,7.5,0.5s7.4-0.4,7.4-0.4"/>
	<path class="st10" d="M50.2,6.2c-2.2,0-4,0.8-4.8,1.1c-0.4,3.5-0.7,10.6,0.8,19.4l3.5,21.2l4.2-21.2c1.6-8.8,1.3-15.9,1.1-19.4
		C54.2,7,52.4,6.2,50.2,6.2"/>
	<path class="st11" d="M69.5,76.7C68.6,71.4,68,61.3,68,61.3c-0.4-7.5,1-21.8,1-21.8s0,0,0,0.1c0.3,3.5,1.5,19.2,1.5,19.2
		C70.5,61.2,70.1,69.5,69.5,76.7L69.5,76.7z M30.9,76.6c-0.2-6.9-1-15.4-0.9-17.8c0,0,0.6-14.5,1.3-19.2v-0.1c0,0,1.7,13.8,1,21.8
		C32.4,61.3,32,71.3,30.9,76.6L30.9,76.6z"/>
	<path class="st11" d="M57.4,93.4"/>
	<path class="st11" d="M56.1,36.2c5-0.4,8.9-1.2,8.9-1.2v-2.1c-1.8,0.3-3.5,0.5-5,0.7c-1.2,0.2-2.3,0.3-3.1,0.3"/>
	<path class="st11" d="M70.7,86.4L69,85.6l0.6-8.9 M31,76.5l0.7,9.4l-2,0.6 M74.8,14.6c0,0-5.1,15.2-5.9,25.6 M25.5,14.6
		c0,0,5.1,15.2,5.9,25.6"/>
	<path class="st11" d="M39.3,39c0,0,0.6,13.2,0.2,30.6 M61.2,39c0,0-0.6,13.2-0.2,30.6"/>
	<path class="st11" d="M51.8,56.5c0,0.4-0.4,0.8-0.8,0.8c-0.4,0-0.8-0.4-0.8-0.8c0-0.4,0.4-0.8,0.8-0.8C51.5,55.7,51.8,56,51.8,56.5
		"/>
	<line class="st11" x1="51.8" y1="56.5" x2="52.9" y2="56.5"/>
	<path class="st9" d="M45.6,5"/>
	<path class="st9" d="M50,4.1h0.2"/>
	<path class="st9" d="M54.6,5"/>
	<path class="st11" d="M22.7,20.2"/>
	<path class="st11" d="M41.5,8.6"/>
	<path class="st11" d="M70.6,86.4"/>
	<path class="st11" d="M50.1,71.1c0.5,3.2,1.3,7,2.3,12.4c0.8,3.9,1.7,8.5,5.2,10.1c0.3,0.2,0.7,0.3,1.1,0.4"/>
	<path class="st11" d="M48.7,53.7c-0.1,1.3-0.2,3.1,0,4.9c0.4,4.4,0.7,7.8,1.5,12.4"/>
	<line class="st11" x1="49.7" y1="47.6" x2="48.8" y2="52.2"/>
	<path class="st11" d="M45.4,7.2c-0.4,3.5-0.7,10.7,0.8,19.5l3.5,21.2l4.2-21.2c1.6-8.8,1.3-16,1.1-19.5"/>
	<path class="st11" d="M23.7,79.4c0,0.4-0.3,0.6-0.6,0.6s-0.6-0.3-0.6-0.6c0-0.4,0.3-0.6,0.6-0.6S23.7,79,23.7,79.4"/>
	<path class="st11" d="M23.7,81c0,0.4-0.3,0.6-0.6,0.6s-0.6-0.3-0.6-0.6c0-0.4,0.3-0.6,0.6-0.6S23.7,80.7,23.7,81"/>
	<path class="st11" d="M23.7,82.7c0,0.4-0.3,0.6-0.6,0.6s-0.6-0.3-0.6-0.6c0-0.4,0.3-0.6,0.6-0.6S23.7,82.3,23.7,82.7"/>
	<path class="st11" d="M23.7,84.3c0,0.4-0.3,0.6-0.6,0.6s-0.6-0.3-0.6-0.6c0-0.4,0.3-0.6,0.6-0.6S23.7,84,23.7,84.3"/>
	<path class="st11" d="M76.4,79.4c0,0.4,0.3,0.6,0.6,0.6c0.4,0,0.6-0.3,0.6-0.6c0-0.4-0.3-0.6-0.6-0.6C76.7,78.7,76.4,79,76.4,79.4"
		/>
	<path class="st11" d="M76.4,81c0,0.4,0.3,0.6,0.6,0.6c0.4,0,0.6-0.3,0.6-0.6c0-0.4-0.3-0.6-0.6-0.6C76.7,80.4,76.4,80.7,76.4,81"/>
	<path class="st11" d="M76.4,82.7c0,0.4,0.3,0.6,0.6,0.6c0.4,0,0.6-0.3,0.6-0.6c0-0.4-0.3-0.6-0.6-0.6C76.7,82,76.4,82.3,76.4,82.7"
		/>
	<path class="st11" d="M76.4,84.3c0,0.4,0.3,0.6,0.6,0.6c0.4,0,0.6-0.3,0.6-0.6c0-0.4-0.3-0.6-0.6-0.6C76.7,83.7,76.4,84,76.4,84.3"
		/>
	<line class="st11" x1="21.9" y1="86.9" x2="21.1" y2="72.3"/>
	<line class="st11" x1="78.4" y1="86.9" x2="79.1" y2="72.3"/>
	<path class="st11" d="M28.9,92.6"/>
	<path class="st11" d="M50.1,71.1c-0.5,3.2-1.3,7-2.3,12.4c-0.8,3.9-1.7,8.4-5.1,10.1c-0.4,0.2-0.8,0.3-1.2,0.4"/>
	<path class="st11" d="M54.6,5"/>
	<path class="st11" d="M41.4,8.6L38,14.5l3,2.3l-2.5,2.9c0,0,3.1,16.5,10.3,32.2l-0.1,2.4c7.9-16.9,13.1-34.6,13.1-34.6l-2.5-2.9
		l3-2.3l-3.4-5.9"/>
	<path class="st11" d="M45.7,4.9"/>
	<line class="st11" x1="58" y1="19.5" x2="59.5" y2="20.6"/>
	<path class="st11" d="M45.7,4.9c0,0-0.2,0.8-0.3,2.3c0.8-0.4,2.6-1.1,4.8-1.1c2.3,0,4,0.8,4.7,1.1c-0.1-1.5-0.2-2.3-0.2-2.3"/>
	<line class="st11" x1="59.3" y1="17" x2="55" y2="13"/>
	<line class="st11" x1="41" y1="16.9" x2="45.1" y2="12.8"/>
	<polygon class="st11" points="31.8,70.7 35.3,70.7 42.3,70.7 42.3,69.6 31.9,69.6 	"/>
	<line class="st11" x1="31.8" y1="70.2" x2="42.2" y2="70.2"/>
	<polygon class="st11" points="68.7,70.7 65.2,70.7 58.2,70.7 58.2,69.6 68.6,69.6 	"/>
	<line class="st11" x1="68.7" y1="70.2" x2="58.3" y2="70.2"/>
	<path class="st11" d="M70.6,86.4"/>
	<path class="st11" d="M77.7,20.2c-0.4-2.4-0.9-3.6-0.9-3.6c-0.2-1.1-1.5-1.7-1.8-1.9c-0.1-0.1-0.1-0.1-0.1-0.1c-7.1-1.5-16-6-16-6
		L54.6,5h0.1c-1.3-1-4.1-1-4.5-1c-0.3,0-2.1,0-3.5,0.5c-0.3,0.1-0.7,0.2-0.9,0.4l0,0c0,0-4,3.4-4.3,3.7l-0.9,0.5
		c-2.7,1.2-10.2,4.5-15,5.5c0,0,0,0-0.1,0.1c-0.3,0.3-1.4,0.8-1.8,1.9c0,0-0.4,1-0.9,3.6c0,0-3.9,20.8-3.4,39.6l1.5,26.8l0,0
		c0,0,1.8,0.6,3.9,0.6c0.5,0,1,0,1.5-0.1l0,0c0.4,0,2.2-0.2,3.4-0.7c0,0-0.5,5.4-0.7,6.2c0,0,5.8,3,12.6,1.4
		c0.4-0.1,0.8-0.3,1.2-0.4h0.8l0,0c1.4,0.1,3.2,0.2,4.8,0.2h0.9h0.4c0.2,0,0.5,0,0.6,0c1.4,0,2.2,0,3-0.1l0,0l0,0c1-0.1,2-0.2,4-0.3
		c0.4,0.2,0.9,0.4,1.5,0.6c6.8,1.6,12.6-1.4,12.6-1.4c-0.2-0.8-0.7-6.2-0.7-6.2c1.5,0.6,3.5,0.7,3.5,0.7c2.6,0.5,5.2-0.5,5.2-0.5
		L81,59.8C81.4,41,77.7,20.2,77.7,20.2z"/>
	<line class="st12" x1="50.8" y1="66.5" x2="52.5" y2="66.5"/>
</g>
<g id="Layer_2">
	<path class="st4" d="M77.7,20.2c-0.4-2.4-0.9-3.6-0.9-3.6c-0.2-1.1-1.5-1.7-1.8-1.9c-0.1-0.1-0.1-0.1-0.1-0.1c-7.1-1.5-16-6-16-6
		L54.6,5h0.1c-1.3-1-4.1-1-4.5-1c-0.3,0-2.1,0-3.5,0.5c-0.3,0.1-0.7,0.2-0.9,0.4l0,0c0,0-4,3.4-4.3,3.7l-0.9,0.5
		c-2.7,1.2-10.2,4.5-15,5.5c0,0,0,0-0.1,0.1c-0.3,0.3-1.4,0.8-1.8,1.9c0,0-0.4,1-0.9,3.6c0,0-3.9,20.8-3.4,39.6l1.5,26.8l0,0
		c0,0,1.8,0.6,3.9,0.6c0.5,0,1,0,1.5-0.1l0,0c0.4,0,2.2-0.2,3.4-0.7c0,0-0.5,5.4-0.7,6.2c0,0,5.8,3,12.6,1.4
		c0.4-0.1,0.8-0.3,1.2-0.4h0.8l0,0c1.4,0.1,3.2,0.2,4.8,0.2h0.9h0.4c0.2,0,0.5,0,0.6,0c1.4,0,2.2,0,3-0.1l0,0l0,0c1-0.1,2-0.2,4-0.3
		c0.4,0.2,0.9,0.4,1.5,0.6c6.8,1.6,12.6-1.4,12.6-1.4c-0.2-0.8-0.7-6.2-0.7-6.2c1.5,0.6,3.5,0.7,3.5,0.7c2.6,0.5,5.2-0.5,5.2-0.5
		L81,59.8C81.4,41,77.7,20.2,77.7,20.2z M30.9,76.6c-0.2-6.9-1-15.4-0.9-17.8c0,0,0.6-14.5,1.3-19.2v-0.1c0,0,1.7,13.8,1,21.8
		C32.4,61.3,32,71.3,30.9,76.6z M69.5,76.7C68.6,71.4,68,61.3,68,61.3c-0.4-7.5,1-21.8,1-21.8s0,0,0,0.1c0.3,3.5,1.5,19.2,1.5,19.2
		C70.5,61.2,70.1,69.5,69.5,76.7z"/>
	<path class="st13" d="M57.8,93.6c-4.6-0.5-5.5-12.6-8.1-22c-2.5,17.3-3.3,20-7,21.9c1.4,0.2,4.9,0.5,7.5,0.5s7.4-0.4,7.4-0.4"/>
	<path class="st13" d="M50.2,6.2c-2.2,0-4,0.8-4.8,1.1c-0.4,3.5-0.7,10.6,0.8,19.4l3.5,21.2l4.2-21.2c1.6-8.8,1.3-15.9,1.1-19.4
		C54.2,7,52.4,6.2,50.2,6.2"/>
	<path class="st14" d="M69.5,76.7C68.6,71.4,68,61.3,68,61.3c-0.4-7.5,1-21.8,1-21.8s0,0,0,0.1c0.3,3.5,1.5,19.2,1.5,19.2
		C70.5,61.2,70.1,69.5,69.5,76.7L69.5,76.7z M30.9,76.6c-0.2-6.9-1-15.4-0.9-17.8c0,0,0.6-14.5,1.3-19.2v-0.1c0,0,1.7,13.8,1,21.8
		C32.4,61.3,32,71.3,30.9,76.6L30.9,76.6z"/>
	<path class="st14" d="M56.1,36.2c5-0.4,8.9-1.2,8.9-1.2v-2.1c-1.8,0.3-3.5,0.5-5,0.7c-1.2,0.2-2.3,0.3-3.1,0.3"/>
	<path class="st14" d="M70.7,86.4L69,85.6l0.6-8.9 M31,76.5l0.7,9.4l-2,0.6 M74.8,14.6c0,0-5.1,15.2-5.9,25.6 M25.5,14.6
		c0,0,5.1,15.2,5.9,25.6"/>
	<path class="st14" d="M39.3,39c0,0,0.6,13.2,0.2,30.6 M61.2,39c0,0-0.6,13.2-0.2,30.6"/>
	<path class="st14" d="M51.8,56.5c0,0.4-0.4,0.8-0.8,0.8c-0.4,0-0.8-0.4-0.8-0.8c0-0.4,0.4-0.8,0.8-0.8C51.5,55.7,51.8,56,51.8,56.5
		"/>
	<line class="st14" x1="51.8" y1="56.5" x2="52.9" y2="56.5"/>
	<path class="st14" d="M22.7,20.2"/>
	<path class="st14" d="M41.5,8.6"/>
	<path class="st14" d="M70.6,86.4"/>
	<path class="st14" d="M49.7,71c0.5,3.2,1.7,7.1,2.7,12.5c0.8,3.9,1.7,8.5,5.2,10.1c0.3,0.2,0.7,0.3,1.1,0.4"/>
	<path class="st14" d="M48.8,53.5c-0.1,1.3,0.1,12.9,0.9,17.5"/>
	<line class="st14" x1="49.7" y1="47.6" x2="48.8" y2="53.5"/>
	<path class="st14" d="M45.4,7.2c-0.4,3.5-0.7,10.7,0.8,19.5l3.5,21.2l4.2-21.2c1.6-8.8,1.3-16,1.1-19.5"/>
	<path class="st14" d="M23.7,79.4c0,0.4-0.3,0.6-0.6,0.6s-0.6-0.3-0.6-0.6c0-0.4,0.3-0.6,0.6-0.6S23.7,79,23.7,79.4"/>
	<path class="st14" d="M23.7,81c0,0.4-0.3,0.6-0.6,0.6s-0.6-0.3-0.6-0.6c0-0.4,0.3-0.6,0.6-0.6S23.7,80.7,23.7,81"/>
	<path class="st14" d="M23.7,82.7c0,0.4-0.3,0.6-0.6,0.6s-0.6-0.3-0.6-0.6c0-0.4,0.3-0.6,0.6-0.6S23.7,82.3,23.7,82.7"/>
	<path class="st14" d="M23.7,84.3c0,0.4-0.3,0.6-0.6,0.6s-0.6-0.3-0.6-0.6c0-0.4,0.3-0.6,0.6-0.6S23.7,84,23.7,84.3"/>
	<path class="st14" d="M76.4,79.4c0,0.4,0.3,0.6,0.6,0.6c0.4,0,0.6-0.3,0.6-0.6c0-0.4-0.3-0.6-0.6-0.6C76.7,78.7,76.4,79,76.4,79.4"
		/>
	<path class="st14" d="M76.4,81c0,0.4,0.3,0.6,0.6,0.6c0.4,0,0.6-0.3,0.6-0.6c0-0.4-0.3-0.6-0.6-0.6C76.7,80.4,76.4,80.7,76.4,81"/>
	<path class="st14" d="M76.4,82.7c0,0.4,0.3,0.6,0.6,0.6c0.4,0,0.6-0.3,0.6-0.6c0-0.4-0.3-0.6-0.6-0.6C76.7,82,76.4,82.3,76.4,82.7"
		/>
	<path class="st14" d="M76.4,84.3c0,0.4,0.3,0.6,0.6,0.6c0.4,0,0.6-0.3,0.6-0.6c0-0.4-0.3-0.6-0.6-0.6C76.7,83.7,76.4,84,76.4,84.3"
		/>
	<line class="st14" x1="21.9" y1="86.9" x2="21.1" y2="72.3"/>
	<line class="st14" x1="78.4" y1="86.9" x2="79.1" y2="72.3"/>
	<path class="st14" d="M49.7,71c-0.5,3.2-0.9,7.1-1.9,12.5c-0.8,3.9-1.7,8.4-5.1,10.1c-0.4,0.2-0.8,0.3-1.2,0.4"/>
	<path class="st14" d="M41.4,8.6L38,14.5l3,2.3l-2.5,2.9c0,0,3.4,16,10.6,31.7l-0.3,2.7c7.9-16.9,13-34.4,13-34.4l-2.5-2.9l3-2.3
		l-3.4-5.9"/>
	<line class="st14" x1="58" y1="19.5" x2="59.5" y2="20.6"/>
	<path class="st14" d="M45.7,4.9c0,0-0.2,0.8-0.3,2.3c0.8-0.4,2.6-1.1,4.8-1.1c2.3,0,4,0.8,4.7,1.1c-0.1-1.5-0.2-2.3-0.2-2.3"/>
	<line class="st14" x1="59.3" y1="17" x2="55" y2="13"/>
	<line class="st14" x1="41" y1="16.9" x2="45.1" y2="12.8"/>
	<polygon class="st14" points="31.8,70.7 35.3,70.7 42.3,70.7 42.3,69.6 31.9,69.6 	"/>
	<line class="st14" x1="31.8" y1="70.2" x2="42.2" y2="70.2"/>
	<polygon class="st14" points="68.7,70.7 65.2,70.7 58.2,70.7 58.2,69.6 68.6,69.6 	"/>
	<line class="st14" x1="68.7" y1="70.2" x2="58.3" y2="70.2"/>
	<path class="st14" d="M70.6,86.4"/>
	<path class="st14" d="M77.7,20.2c-0.4-2.4-0.9-3.6-0.9-3.6c-0.2-1.1-1.5-1.7-1.8-1.9c-0.1-0.1-0.1-0.1-0.1-0.1c-7.1-1.5-16-6-16-6
		L54.6,5h0.1c-1.3-1-4.1-1-4.5-1c-0.3,0-2.1,0-3.5,0.5c-0.3,0.1-0.7,0.2-0.9,0.4l0,0c0,0-4,3.4-4.3,3.7l-0.9,0.5
		c-2.7,1.2-10.2,4.5-15,5.5c0,0,0,0-0.1,0.1c-0.3,0.3-1.4,0.8-1.8,1.9c0,0-0.4,1-0.9,3.6c0,0-3.9,20.8-3.4,39.6l1.5,26.8l0,0
		c0,0,1.8,0.6,3.9,0.6c0.5,0,1,0,1.5-0.1l0,0c0.4,0,2.2-0.2,3.4-0.7c0,0-0.5,5.4-0.7,6.2c0,0,5.8,3,12.6,1.4
		c0.4-0.1,0.8-0.3,1.2-0.4h0.8l0,0c1.4,0.1,3.2,0.2,4.8,0.2h0.9h0.4c0.2,0,0.5,0,0.6,0c1.4,0,2.2,0,3-0.1l0,0l0,0c1-0.1,2-0.2,4-0.3
		c0.4,0.2,0.9,0.4,1.5,0.6c6.8,1.6,12.6-1.4,12.6-1.4c-0.2-0.8-0.7-6.2-0.7-6.2c1.5,0.6,3.5,0.7,3.5,0.7c2.6,0.5,5.2-0.5,5.2-0.5
		L81,59.8C81.4,41,77.7,20.2,77.7,20.2z"/>
	<line class="st5" x1="50.8" y1="66.5" x2="52.5" y2="66.5"/>
</g>
</svg>
