<?xml version="1.0" encoding="utf-8"?>
<!-- Generator: Adobe Illustrator 19.1.0, SVG Export Plug-In . SVG Version: 6.00 Build 0)  -->
<svg version="1.1" id="Layer_1" xmlns="http://www.w3.org/2000/svg" xmlns:xlink="http://www.w3.org/1999/xlink" x="0px" y="0px"
	 viewBox="0 0 100 100" style="enable-background:new 0 0 100 100;" xml:space="preserve">
<style type="text/css">
	.st0{fill:#FFFFFF;}
	.st1{fill:#C7C8C9;}
	.st2{fill:none;stroke:#010101;stroke-width:0.25;stroke-miterlimit:10;}
	.st3{fill:none;stroke:#000000;stroke-width:0.25;stroke-miterlimit:10;}
	.st4{fill:none;stroke:#010101;stroke-width:0.3;stroke-miterlimit:10;}
</style>
<path class="st0" d="M57.8,94"/>
<path class="st0" d="M45.7,5"/>
<path class="st0" d="M54.6,5"/>
<path class="st1" d="M57.8,93.9c0,0-5.6-0.9-7.6-14.9c-2.6,14.3-7.7,14.9-7.7,14.9s5.1,0.5,7.7,0.5c2.6,0,7.4-0.4,7.4-0.4"/>
<path class="st1" d="M50.1,6.3c-2.2,0-4,0.5-4.8,0.8c-0.4,2.5-0.7,7.6,0.8,13.8l3.5,13.2l4.2-13.2c1.6-6.3,1.3-11.4,1.1-13.9
	C54.2,6.8,52.4,6.3,50.1,6.3"/>
<path class="st0" d="M77.7,20.3c-0.4-2.4-0.9-3.6-0.9-3.6c-0.2-1.1-1.5-1.7-1.8-1.9c-0.1-0.1-0.1-0.1-0.1-0.1c-7.1-1.5-16-6-16-6
	C58.5,8.4,54.6,5,54.6,5c-1.2-0.9-4.1-0.9-4.5-0.9c-0.4,0-3.2,0-4.5,1c0,0-3.9,3.4-4.2,3.7c0,0-10.1,4.7-16,6c0,0,0,0-0.1,0.1
	c-0.3,0.3-1.4,0.8-1.8,1.9c0,0-0.4,1-0.9,3.6c0,0-3.9,20.8-3.4,39.6l1.6,26.8c0,0,2.7,0.9,5.3,0.5c0,0,2.1-0.1,3.5-0.7
	c0,0-0.5,3.9-0.7,6.2c0,0,6.5,2.7,13.5,1.1c0,0,5,0.5,7.7,0.5c2.7,0,7.7-0.4,7.7-0.4c7,1.6,13.5-1.2,13.5-1.2
	c-0.2-0.8-0.7-6.2-0.7-6.2c1.5,0.6,3.5,0.7,3.5,0.7c2.6,0.5,5.2-0.5,5.2-0.5L81,59.9C81.4,41.1,77.7,20.3,77.7,20.3z M32.3,61.3
	c0,0.1-0.3,10-1.4,15.4c-0.2-6.9-1-15.4-0.9-17.8c0,0,0.6-14.5,1.3-19.2v-0.1C31.3,39.6,33,53.4,32.3,61.3z M69.4,76.9v-0.1
	c-0.9-5.4-1.5-15.4-1.5-15.4c-0.4-7.4,1-21.7,1-21.7s0,0,0,0.1c0.3,3.5,1.5,19.2,1.5,19.2C70.4,61.4,70,69.7,69.4,76.9z"/>
<path class="st1" d="M50.1,6.3c-2.2,0-4,0.5-4.8,0.8c-0.4,2.5-0.7,7.6,0.8,13.8l3.5,13.2l4.2-13.2c1.6-6.3,1.3-11.4,1.1-13.9
	C54.2,6.8,52.4,6.3,50.1,6.3"/>
<path class="st1" d="M57.8,93.9c0,0-5.6-0.9-7.6-14.9c-2.6,14.3-7.7,14.9-7.7,14.9s5.1,0.5,7.7,0.5c2.6,0,7.4-0.4,7.4-0.4"/>
<path class="st2" d="M69.4,76.8c-0.9-5.4-1.5-15.4-1.5-15.4c-0.4-7.4,1-21.7,1-21.7s0,0,0,0.1c0.3,3.5,1.5,19.2,1.5,19.2
	C70.4,61.4,70,69.7,69.4,76.8L69.4,76.8L69.4,76.8z M30.9,76.7c-0.2-6.9-1-15.4-0.9-17.8c0,0,0.6-14.5,1.3-19.2v-0.1
	c0,0,1.7,13.8,1,21.7C32.3,61.4,32,71.3,30.9,76.7L30.9,76.7z"/>
<path class="st2" d="M42.1,93.9c0,0,5.3,0.5,8,0.5s8-0.5,8-0.5"/>
<path class="st2" d="M54.3,36.4C60.2,36,65,35,65,35v-2.1c-1.8,0.3-3.6,0.5-5,0.7c-2.8,0.3-4.6,0.5-4.6,0.5L54.3,36.4z"/>
<path class="st2" d="M48.9,38.9c-0.1,1.1-0.7,8.7-0.1,27.7c0,0,0.5,7.5,1.3,12.8"/>
<line class="st2" x1="49.7" y1="33.9" x2="48.9" y2="38.7"/>
<path class="st2" d="M70.7,86.5L69,85.7l0.6-8.9 M30.9,76.5l0.7,9.4l-2,0.6 M74.8,14.7c0,0-5.1,15.2-5.9,25.6 M25.5,14.7
	c0,0,5.1,15.2,5.9,25.6"/>
<path class="st2" d="M51.5,44.2c0,0.4-0.4,0.8-0.8,0.8c-0.4,0-0.8-0.4-0.8-0.8c0-0.4,0.4-0.8,0.8-0.8C51.2,43.4,51.5,43.8,51.5,44.2
	"/>
<line class="st2" x1="51.5" y1="44.3" x2="52.6" y2="44.3"/>
<path class="st2" d="M51.5,56.1c0,0.4-0.4,0.8-0.8,0.8c-0.4,0-0.8-0.4-0.8-0.8c0-0.4,0.4-0.8,0.8-0.8C51.2,55.3,51.5,55.7,51.5,56.1
	"/>
<line class="st2" x1="51.5" y1="56.1" x2="52.6" y2="56.1"/>
<line class="st2" x1="50.8" y1="68" x2="52.5" y2="68"/>
<path class="st2" d="M39.1,39.1c0,0,0.6,13.3,0.2,30.7 M61.2,39.1c0,0-0.6,13.3-0.2,30.7"/>
<path class="st2" d="M23.7,79.4c0,0.4-0.3,0.6-0.6,0.6c-0.4,0-0.6-0.3-0.6-0.6c0-0.4,0.3-0.6,0.6-0.6C23.5,78.8,23.7,79.1,23.7,79.4
	"/>
<path class="st2" d="M23.7,81.1c0,0.4-0.3,0.6-0.6,0.6c-0.4,0-0.6-0.3-0.6-0.6c0-0.4,0.3-0.6,0.6-0.6C23.5,80.4,23.7,80.7,23.7,81.1
	"/>
<path class="st2" d="M23.7,82.7c0,0.4-0.3,0.6-0.6,0.6c-0.4,0-0.6-0.3-0.6-0.6c0-0.4,0.3-0.6,0.6-0.6C23.5,82.1,23.7,82.4,23.7,82.7
	"/>
<path class="st2" d="M23.7,84.4c0,0.4-0.3,0.6-0.6,0.6c-0.4,0-0.6-0.3-0.6-0.6c0-0.4,0.3-0.6,0.6-0.6C23.5,83.8,23.7,84,23.7,84.4"
	/>
<path class="st2" d="M76.5,79.4c0,0.4,0.3,0.6,0.6,0.6c0.4,0,0.6-0.3,0.6-0.6c0-0.4-0.3-0.6-0.6-0.6C76.7,78.8,76.5,79.1,76.5,79.4"
	/>
<path class="st2" d="M76.5,81.1c0,0.4,0.3,0.6,0.6,0.6c0.4,0,0.6-0.3,0.6-0.6c0-0.4-0.3-0.6-0.6-0.6C76.7,80.4,76.5,80.7,76.5,81.1"
	/>
<path class="st2" d="M76.5,82.7c0,0.4,0.3,0.6,0.6,0.6c0.4,0,0.6-0.3,0.6-0.6c0-0.4-0.3-0.6-0.6-0.6C76.7,82.1,76.5,82.4,76.5,82.7"
	/>
<path class="st2" d="M76.5,84.4c0,0.4,0.3,0.6,0.6,0.6c0.4,0,0.6-0.3,0.6-0.6c0-0.4-0.3-0.6-0.6-0.6C76.7,83.8,76.5,84,76.5,84.4"/>
<line class="st2" x1="21.9" y1="87" x2="21.1" y2="72.4"/>
<line class="st2" x1="78.4" y1="87" x2="79.1" y2="72.4"/>
<path class="st2" d="M45.7,5c0,0-0.2,0.8-0.4,2.3"/>
<path class="st2" d="M54.9,7.3C54.8,5.8,54.6,5,54.6,5"/>
<path class="st2" d="M50.1,6.3c-2.2,0-4,0.5-4.8,0.8c-0.4,2.5-0.7,7.6,0.8,13.8l3.5,13.2l4.2-13.2c1.6-6.3,1.3-11.4,1.1-13.9
	C54.2,6.8,52.4,6.3,50.1,6.3z"/>
<line class="st2" x1="59.3" y1="17.1" x2="55" y2="13.1"/>
<line class="st2" x1="41" y1="17" x2="45.1" y2="12.9"/>
<path class="st2" d="M54.6,5"/>
<path class="st2" d="M41.4,8.7L38,14.6l3,2.3l-2.5,2.9c0,0,1.6,4.3,10.4,19l-0.1,2.4c1.8-3.9,13-21.4,13-21.4l-2.5-2.9l3-2.3
	l-3.4-5.9"/>
<line class="st2" x1="58" y1="19.6" x2="59.5" y2="20.7"/>
<line class="st2" x1="41.9" y1="70.4" x2="31.8" y2="70.4"/>
<line class="st2" x1="58.5" y1="70.4" x2="68.8" y2="70.4"/>
<polygon class="st2" points="31.8,70.9 35.3,70.9 42.3,70.9 42.3,69.8 32,69.8 "/>
<line class="st2" x1="31.8" y1="70.4" x2="42.2" y2="70.4"/>
<polygon class="st2" points="68.7,70.9 65.2,70.9 58.3,70.9 58.3,69.8 68.6,69.8 "/>
<line class="st2" x1="68.7" y1="70.4" x2="58.3" y2="70.4"/>
<path class="st3" d="M57.8,94c7,1.6,13.5-1.2,13.5-1.2c-0.2-0.8-0.7-6.2-0.7-6.2c1.5,0.6,3.5,0.7,3.5,0.7c2.6,0.5,5.2-0.5,5.2-0.5
	L81,59.9c0.4-18.8-3.3-39.6-3.3-39.6c-0.4-2.4-0.9-3.6-0.9-3.6c-0.2-1.1-1.5-1.7-1.8-1.9c-0.1-0.1-0.1-0.1-0.1-0.1
	c-7.1-1.5-16-6-16-6C58.5,8.4,54.6,5,54.6,5c-1.2-0.9-4.1-0.9-4.5-0.9s-3.2,0-4.5,1c0,0-3.9,3.4-4.2,3.7c0,0-10.1,4.7-16,6
	c0,0,0,0-0.1,0.1c-0.3,0.3-1.4,0.8-1.8,1.9c0,0-0.4,1-0.9,3.6c0,0-3.9,20.8-3.4,39.6l1.6,26.8c0,0,2.7,0.9,5.3,0.5
	c0,0,2.1-0.1,3.5-0.7c0,0-0.5,3.9-0.7,6.2c0,0,6.5,2.7,13.5,1.1c0,0,5,0.5,7.7,0.5S57.8,94,57.8,94"/>
<path class="st4" d="M50.1,78.8c2,14.6,7.6,15.2,7.6,15.2"/>
<path class="st4" d="M42.5,94c0,0,5.2-0.7,7.6-15.2"/>
</svg>
