<?xml version="1.0" encoding="utf-8"?>
<!-- Generator: Adobe Illustrator 19.1.0, SVG Export Plug-In . SVG Version: 6.00 Build 0)  -->
<svg version="1.1" id="Layer_1" xmlns="http://www.w3.org/2000/svg" xmlns:xlink="http://www.w3.org/1999/xlink" x="0px" y="0px"
	 viewBox="0 0 100 100" style="enable-background:new 0 0 100 100;" xml:space="preserve">
<style type="text/css">
	.st0{fill:#FFFFFF;}
	.st1{fill:none;stroke:#010101;stroke-width:0.3;stroke-miterlimit:10;}
	.st2{fill:#C7C8C9;}
	.st3{fill:none;stroke:#010101;stroke-width:0.15;stroke-miterlimit:10;}
	.st4{fill:none;}
	.st5{fill:none;stroke:#010101;stroke-width:0.25;stroke-miterlimit:10;}
</style>
<path class="st0" d="M77.7,20.2c-0.4-2.4-0.9-3.6-0.9-3.6c-0.2-1.1-1.5-1.7-1.8-1.9c-0.1-0.1-0.1-0.1-0.1-0.1
	C67.7,13.1,60,9.2,60,9.2c-0.3-0.3-5.1-4.1-5.3-4.2c0-0.1,0-0.1,0-0.1h-0.2C53.2,4,50.6,4,50.2,4c-0.4,0-3,0-4.3,0.9h-0.2
	c0,0,0,0,0,0.1c-0.3,0.2-5.2,3.9-5.5,4.2c0,0-8.8,4.2-14.7,5.5c0,0,0,0-0.1,0.1c-0.3,0.3-1.4,0.8-1.8,1.9c0,0-0.4,1-0.9,3.6
	c0,0-3.9,20.8-3.4,39.6l1.6,26.7l-0.1,0c0,0,0,0,0.1,0l0,0.1c0,0,2.7,0.9,5.3,0.5c0,0,2.1-0.1,3.5-0.7c-0.1,1-0.5,5.3-0.7,6
	c0,0,5.8,3,12.6,1.3c0,0,5.7,0.6,8.6,0.6c2.5,0,7.1-0.4,8.2-0.5l0.4,0c6.8,1.6,12.6-1.4,12.6-1.4c-0.2-0.7-0.6-5.4-0.7-6.1
	c1.5,0.6,3.5,0.7,3.5,0.7c2.6,0.5,5.2-0.5,5.2-0.5L81,59.8C81.5,41,77.7,20.2,77.7,20.2z M30.9,76.6c-0.2-6.9-1-15.4-0.9-17.8
	c0,0,0.6-14.5,1.3-19.2v-0.1c0,0,1.7,13.8,1,21.8C32.4,61.3,32,71.3,30.9,76.6z M69.5,76.7C68.6,71.3,68,61.3,68,61.3
	c-0.4-7.5,1-21.8,1-21.8s0,0,0,0.1c0.3,3.5,1.5,19.2,1.5,19.2C70.5,61.2,70.1,69.5,69.5,76.7z"/>
<path class="st1" d="M69.6,76.7"/>
<path class="st1" d="M31,76.5"/>
<path class="st2" d="M58.3,93.8c-4.2-2.4-4.6-3.9-8.1-22c-2.8,18.2-4.5,20.3-8.2,22c0.6,0.1,6.4,0.7,8.4,0.7c2,0,6.1-0.4,6.1-0.4"/>
<path class="st2" d="M50.3,6.1c-1.7,0-4.4,0.8-5,1.1c-0.8,15.1,4,42.2,4,42.2S56,22.9,54.8,7.2C52.3,6.1,50.3,6.1,50.3,6.1z"/>
<path class="st1" d="M29.6,86.4 M29.7,86.5 M25.5,14.7 M70.7,86.4"/>
<path class="st1" d="M58.7,93.9"/>
<path class="st1" d="M41.7,93.9"/>
<path class="st3" d="M56.1,36.2C60.8,35.7,65,35,65,35v-2.1c-1.8,0.3-3.5,0.5-5,0.7c-0.9,0.1-2.5,0.3-3.2,0.4"/>
<path class="st1" d="M70.7,86.4L69,85.6l0.6-8.9 M31,76.5l0.7,9.4l-2,0.6 M74.8,14.6c0,0-5.1,15.2-5.9,25.6 M25.5,14.6
	c0,0,5.1,15.2,5.9,25.6"/>
<path class="st3" d="M39.3,39c0,0,0.6,13.2,0.2,30.6 M61.1,39c0,0-0.6,13.2-0.2,30.6"/>
<line class="st1" x1="51.8" y1="56.5" x2="52.9" y2="56.5"/>
<path class="st1" d="M45.4,7.3c-0.4,3.5,0.4,16.4,0.8,19.4c0.7,5.1,3.2,23,3.2,23s3.8-17.2,4.5-23c0.8-7,1.3-15.9,1.1-19.4"/>
<path class="st1" d="M45.7,4.9c0,0-0.2,0.8-0.3,2.3c0.8-0.4,2.6-1.1,4.8-1.1c2.3,0,4,0.8,4.7,1.1c-0.1-1.5-0.2-2.3-0.2-2.3"/>
<line class="st3" x1="41.9" y1="70.2" x2="31.7" y2="70.2"/>
<line class="st3" x1="58.5" y1="70.2" x2="68.7" y2="70.2"/>
<line class="st3" x1="21.9" y1="86.9" x2="21.1" y2="72.3"/>
<line class="st3" x1="78.4" y1="86.9" x2="79.1" y2="72.3"/>
<path class="st1" d="M70.7,86.3"/>
<path class="st1" d="M49.7,47.6l-0.2,0.9V49l-0.6,3c0,0-0.5,3.2-0.2,6.6c0.6,7.4,1.1,11.3,3.8,24.8c0.9,4.3,1.9,9.4,6.3,10.5"/>
<path class="st1" d="M29.7,86.3"/>
<path class="st1" d="M50.2,71.2c-0.5,3.1-1.2,6.9-2.3,12.1c-0.9,4.3-1.9,9.4-6.3,10.5"/>
<polygon class="st1" points="31.7,70.8 35.3,70.8 42.2,70.8 42.2,69.7 31.9,69.7 "/>
<line class="st3" x1="31.7" y1="70.2" x2="42.1" y2="70.2"/>
<polygon class="st4" points="68.7,70.8 65.2,70.8 58.2,70.8 58.2,69.7 68.5,69.7 "/>
<polygon class="st1" points="68.7,70.8 65.2,70.8 58.2,70.8 58.2,69.7 68.5,69.7 "/>
<line class="st3" x1="68.7" y1="70.2" x2="58.3" y2="70.2"/>
<path class="st3" d="M51.8,56.5c0,0.4-0.4,0.8-0.8,0.8c-0.4,0-0.8-0.4-0.8-0.8c0-0.4,0.4-0.8,0.8-0.8C51.5,55.7,51.8,56,51.8,56.5"
	/>
<path class="st3" d="M23.7,79.4c0,0.4-0.3,0.6-0.6,0.6c-0.4,0-0.6-0.3-0.6-0.6c0-0.4,0.3-0.6,0.6-0.6C23.4,78.7,23.7,79,23.7,79.4"
	/>
<path class="st3" d="M23.7,81c0,0.4-0.3,0.6-0.6,0.6c-0.4,0-0.6-0.3-0.6-0.6c0-0.4,0.3-0.6,0.6-0.6C23.4,80.4,23.7,80.7,23.7,81"/>
<path class="st3" d="M23.7,82.7c0,0.4-0.3,0.6-0.6,0.6c-0.4,0-0.6-0.3-0.6-0.6c0-0.4,0.3-0.6,0.6-0.6C23.4,82,23.7,82.3,23.7,82.7"
	/>
<path class="st3" d="M23.7,84.3c0,0.4-0.3,0.6-0.6,0.6c-0.4,0-0.6-0.3-0.6-0.6c0-0.4,0.3-0.6,0.6-0.6C23.4,83.7,23.7,84,23.7,84.3"
	/>
<path class="st3" d="M76.4,79.4c0,0.4,0.3,0.6,0.6,0.6c0.4,0,0.6-0.3,0.6-0.6c0-0.4-0.3-0.6-0.6-0.6C76.7,78.7,76.4,79,76.4,79.4"/>
<path class="st3" d="M76.4,81c0,0.4,0.3,0.6,0.6,0.6c0.4,0,0.6-0.3,0.6-0.6c0-0.4-0.3-0.6-0.6-0.6C76.7,80.4,76.4,80.7,76.4,81"/>
<path class="st3" d="M76.4,82.7c0,0.4,0.3,0.6,0.6,0.6c0.4,0,0.6-0.3,0.6-0.6c0-0.4-0.3-0.6-0.6-0.6C76.7,82,76.4,82.3,76.4,82.7"/>
<path class="st3" d="M76.4,84.3c0,0.4,0.3,0.6,0.6,0.6c0.4,0,0.6-0.3,0.6-0.6c0-0.4-0.3-0.6-0.6-0.6C76.7,83.7,76.4,84,76.4,84.3"/>
<path class="st1" d="M40.2,9.2c0,0-2.3,20.3,8.4,43.6v1.5C63.4,24.1,60,9.2,60,9.2"/>
<path class="st5" d="M77.7,20.2c-0.4-2.4-0.9-3.6-0.9-3.6c-0.2-1.1-1.5-1.7-1.8-1.9c-0.1-0.1-0.1-0.1-0.1-0.1
	C67.7,13.1,60,9.2,60,9.2c-0.3-0.3-5.1-4.1-5.3-4.2c0-0.1,0-0.1,0-0.1h-0.2C53.2,4,50.6,4,50.2,4c-0.4,0-3,0-4.3,0.9h-0.2
	c0,0,0,0,0,0.1c-0.3,0.2-5.2,3.9-5.5,4.2c0,0-8.8,4.2-14.7,5.5c0,0,0,0-0.1,0.1c-0.3,0.3-1.4,0.8-1.8,1.9c0,0-0.4,1-0.9,3.6
	c0,0-3.9,20.8-3.4,39.6l1.6,26.7l-0.1,0c0,0,0,0,0.1,0l0,0.1c0,0,2.7,0.9,5.3,0.5c0,0,2.1-0.1,3.5-0.7c-0.1,1-0.5,5.3-0.7,6
	c0,0,5.8,3,12.6,1.3c0,0,5.7,0.6,8.6,0.6c2.5,0,7.1-0.4,8.2-0.5l0.4,0c6.8,1.6,12.6-1.4,12.6-1.4c-0.2-0.7-0.6-5.4-0.7-6.1
	c1.5,0.6,3.5,0.7,3.5,0.7c2.6,0.5,5.2-0.5,5.2-0.5L81,59.8C81.5,41,77.7,20.2,77.7,20.2z M30.9,76.6c-0.2-6.9-1-15.4-0.9-17.8
	c0,0,0.6-14.5,1.3-19.2v-0.1c0,0,1.7,13.8,1,21.8C32.4,61.3,32,71.3,30.9,76.6z M69.5,76.7C68.6,71.3,68,61.3,68,61.3
	c-0.4-7.5,1-21.8,1-21.8s0,0,0,0.1c0.3,3.5,1.5,19.2,1.5,19.2C70.5,61.2,70.1,69.5,69.5,76.7z"/>
<path class="st1" d="M69.6,76.7"/>
<path class="st1" d="M31,76.5"/>
</svg>
