<?xml version="1.0" encoding="utf-8"?>
<!-- Generator: Adobe Illustrator 19.1.0, SVG Export Plug-In . SVG Version: 6.00 Build 0)  -->
<svg version="1.1" id="Layer_1" xmlns="http://www.w3.org/2000/svg" xmlns:xlink="http://www.w3.org/1999/xlink" x="0px" y="0px"
	 viewBox="0 0 100 100" style="enable-background:new 0 0 100 100;" xml:space="preserve">
<style type="text/css">
	.st0{fill:#FFFFFF;}
	.st1{fill:#C7C8C9;}
	.st2{fill:none;stroke:#010101;stroke-width:0.25;stroke-miterlimit:10;}
	.st3{fill:none;}
</style>
<path class="st0" d="M77.3,20.2c-0.4-2.4-0.9-3.6-0.9-3.6c-0.2-1.1-1.5-1.6-1.8-1.9c-0.1-0.1-0.1-0.1-0.1-0.1
	C67.4,13.1,57,7.8,57,7.8C56.7,7.5,54.4,5,54.4,5C53.2,4,50,4,50,4h-0.2c0,0-3.2,0-4.4,0.9c0,0-2.5,2.8-2.8,3.1
	c0,0-11.5,5.3-17.4,6.6c0,0,0,0-0.1,0.1c-0.3,0.3-1.4,0.8-1.8,1.9c0,0-0.4,1-0.9,3.6c0,0-3.9,20.8-3.4,39.5l1.6,26.7h0.1
	c0,0,2.7,0.9,5.3,0.5l3.3-0.6c0,0-0.5,5.3-0.7,6.1c0,0,5.8,3,12.6,1.4c0.2-0.1,0.4-0.1,0.6-0.2l0.1,0.1c0,0,5.2,0.4,8,0.4
	c2.9,0,8-0.4,8-0.4l0,0c0.2,0.1,0.4,0.2,0.7,0.2c6.8,1.6,12.6-1.4,12.6-1.4c-0.2-0.8-0.7-6.2-0.7-6.2l-0.1-0.1
	c1.5,0.6,3.5,0.7,3.5,0.7c2.6,0.4,5.2-0.5,5.2-0.5l1.5-26.7C81,40.9,77.3,20.2,77.3,20.2z M32.2,61.2c0,0-0.4,9.9-1.4,15.2
	c-0.2-6.9-1-15.4-0.9-17.7c0,0,0.6-14.5,1.3-19.1v-0.1C31.2,39.5,32.9,53.3,32.2,61.2z M69.2,76.6c-0.9-5.3-1.5-15.4-1.5-15.4
	c-0.4-7.4,1-21.7,1-21.7s0,0,0,0.1c0.3,3.5,1.5,19.2,1.5,19.2C70.2,61.2,69.8,69.5,69.2,76.6z"/>
<g id="_x30_7-lapel-notch-narrow-1_1_">
	<g>
		<path class="st1" d="M49.9,6.2c-2.2,0-3.9,0.8-4.7,1.1c-0.4,3.5-0.9,10.3,0.7,19.1L49.3,48l4.2-21.5c1.6-8.8,1.4-15.7,1.2-19.1
			C54,7,52.2,6.2,49.9,6.2"/>
		<path class="st2" d="M29.5,86.2"/>
		<path class="st1" d="M57.8,93.7C52,90.8,53,84.2,49.9,71c-2.7,11.3-2.2,19.9-8,22.7c1,0.1,5.4,0.4,8,0.4s7.4-0.4,7.4-0.4"/>
		<path class="st2" d="M55.5,36.1c5.6-0.4,9.3-1.2,9.3-1.2v-2.1c-1.8,0.3-3.5,0.5-5,0.7c-2.1,0.3-2.9,0.3-3.5,0.4"/>
		<path class="st2" d="M39,39c0,0,0.6,13.1,0.2,30.5 M61,39c0,0-0.6,13.1-0.2,30.5"/>
		<path class="st2" d="M70.4,86.2l-1.7-0.8l0.6-8.9 M30.8,76.3l0.7,9.4l-2,0.6 M74.5,14.6c0,0-5.1,15.2-5.8,25.5 M25.3,14.6
			c0,0,5.1,15.2,5.8,25.5"/>
		<g>
			<path class="st2" d="M51.6,57.5c0,0.4-0.4,0.8-0.8,0.8c-0.4,0-0.8-0.4-0.8-0.8c0-0.4,0.4-0.8,0.8-0.8
				C51.3,56.7,51.6,57.1,51.6,57.5"/>
		</g>
		<line class="st2" x1="51.6" y1="57.5" x2="52.6" y2="57.5"/>
		<g>
			<path class="st2" d="M50,79"/>
			<path class="st3" d="M50,6.2c-2.2,0-4,0.8-4.8,1.1c-0.4,3.5-0.7,10.6,0.8,19.3l3.5,21.5l4.2-21.5c1.6-8.8,1.3-15.9,1.1-19.4
				C54,7,52.2,6.2,50,6.2"/>
			<path class="st2" d="M50,6.2c-2.2,0-4,0.8-4.8,1.1c-0.4,3.5-0.7,10.6,0.8,19.3l3.5,21.5l4.2-21.5c1.6-8.8,1.3-15.9,1.1-19.4
				C54,7,52.2,6.2,50,6.2z"/>
		</g>
		<line class="st2" x1="57.4" y1="19.4" x2="58.9" y2="20.4"/>
		<path class="st2" d="M45.5,4.9c0,0-0.2,0.8-0.3,2.3"/>
		<path class="st2" d="M54.7,7.2c-0.1-1.4-0.1-1.3-0.2-2.2V4.9"/>
		<line class="st2" x1="57.6" y1="16.7" x2="54.8" y2="14.2"/>
		<line class="st2" x1="42.3" y1="16.7" x2="44.9" y2="14.1"/>
		<line class="st2" x1="41.7" y1="70.1" x2="31.6" y2="70.1"/>
		<line class="st2" x1="58.2" y1="70.1" x2="68.5" y2="70.1"/>
		<path class="st2" d="M23.6,79.2c0,0.4-0.3,0.6-0.6,0.6c-0.4,0-0.6-0.3-0.6-0.6c0-0.4,0.3-0.6,0.6-0.6
			C23.3,78.6,23.6,78.9,23.6,79.2"/>
		<path class="st2" d="M23.6,80.9c0,0.4-0.3,0.6-0.6,0.6c-0.4,0-0.6-0.3-0.6-0.6c0-0.4,0.3-0.6,0.6-0.6
			C23.3,80.2,23.6,80.5,23.6,80.9"/>
		<path class="st2" d="M23.6,82.5c0,0.4-0.3,0.6-0.6,0.6c-0.4,0-0.6-0.3-0.6-0.6c0-0.4,0.3-0.6,0.6-0.6
			C23.3,81.9,23.6,82.2,23.6,82.5"/>
		<path class="st2" d="M23.6,84.2c0,0.4-0.3,0.6-0.6,0.6c-0.4,0-0.6-0.3-0.6-0.6c0-0.4,0.3-0.6,0.6-0.6
			C23.3,83.5,23.6,83.8,23.6,84.2"/>
		<path class="st2" d="M76.1,79.2c0,0.4,0.3,0.6,0.6,0.6c0.4,0,0.6-0.3,0.6-0.6c0-0.4-0.3-0.6-0.6-0.6S76.1,78.9,76.1,79.2"/>
		<path class="st2" d="M76.1,80.9c0,0.4,0.3,0.6,0.6,0.6c0.4,0,0.6-0.3,0.6-0.6c0-0.4-0.3-0.6-0.6-0.6
			C76.4,80.2,76.1,80.5,76.1,80.9"/>
		<path class="st2" d="M76.1,82.5c0,0.4,0.3,0.6,0.6,0.6c0.4,0,0.6-0.3,0.6-0.6c0-0.4-0.3-0.6-0.6-0.6S76.1,82.2,76.1,82.5"/>
		<path class="st2" d="M76.1,84.2c0,0.4,0.3,0.6,0.6,0.6c0.4,0,0.6-0.3,0.6-0.6c0-0.4-0.3-0.6-0.6-0.6
			C76.4,83.5,76.1,83.8,76.1,84.2"/>
		<line class="st2" x1="21.7" y1="86.7" x2="20.9" y2="72.2"/>
		<line class="st2" x1="78.1" y1="86.7" x2="78.8" y2="72.2"/>
		<path class="st2" d="M42.7,8l-3.6,6.2l3.2,2.4l-2.8,3.2c0,0,4.1,22.7,9.2,32.3"/>
		<path class="st2" d="M54.4,4.9"/>
		<path class="st2" d="M48.5,54.5C57,34.9,60.3,19.8,60.3,19.8l-2.7-3.1l3.2-2.4L57,7.8"/>
		<path class="st2" d="M70.5,86.3"/>
		<path class="st2" d="M49.9,70.6c0.5,3.2,1.3,7.2,2.4,12.8c0.9,4.3,1.9,9.4,6.3,10.5"/>
		<path class="st2" d="M48.5,54.5c-0.1,1.2-0.1,2.7,0,4.2c0.4,4.3,0.7,7.4,1.4,11.9"/>
		<path class="st2" d="M49.5,47.9l-0.8,4.4l-0.1,0.6c0,0.4-0.1,0.9-0.1,1.6"/>
		<path class="st2" d="M49.9,70.5c-0.5,3.2-1.3,7.2-2.4,12.8c-0.9,4.3-1.9,9.4-6.3,10.5"/>
		<polygon class="st2" points="31.6,70.6 35.1,70.6 42.1,70.6 42.1,69.5 31.8,69.5 		"/>
		<line class="st2" x1="31.6" y1="70.1" x2="42" y2="70.1"/>
		<polygon class="st2" points="68.5,70.6 64.9,70.6 58,70.6 58,69.5 68.3,69.5 		"/>
		<line class="st2" x1="68.5" y1="70.1" x2="58.1" y2="70.1"/>
		<path class="st2" d="M57.9,93.7"/>
		<path class="st2" d="M49.9,94.1"/>
		<path class="st2" d="M41.9,93.7"/>
	</g>
</g>
<path class="st2" d="M77.3,20.2c-0.4-2.4-0.9-3.6-0.9-3.6c-0.2-1.1-1.5-1.6-1.8-1.9c-0.1-0.1-0.1-0.1-0.1-0.1
	C67.4,13.1,57,7.8,57,7.8C56.7,7.5,54.4,5,54.4,5C53.2,4,50,4,50,4h-0.2c0,0-3.2,0-4.4,0.9c0,0-2.5,2.8-2.8,3.1
	c0,0-11.5,5.3-17.4,6.6c0,0,0,0-0.1,0.1c-0.3,0.3-1.4,0.8-1.8,1.9c0,0-0.4,1-0.9,3.6c0,0-3.9,20.8-3.4,39.5l1.6,26.7h0.1
	c0,0,2.7,0.9,5.3,0.5l3.3-0.6c0,0-0.5,5.3-0.7,6.1c0,0,5.8,3,12.6,1.4c0.2-0.1,0.4-0.1,0.6-0.2l0.1,0.1c0,0,5.2,0.4,8,0.4
	c2.9,0,8-0.4,8-0.4l0,0c0.2,0.1,0.4,0.2,0.7,0.2c6.8,1.6,12.6-1.4,12.6-1.4c-0.2-0.8-0.7-6.2-0.7-6.2l-0.1-0.1
	c1.5,0.6,3.5,0.7,3.5,0.7c2.6,0.4,5.2-0.5,5.2-0.5l1.5-26.7C81,40.9,77.3,20.2,77.3,20.2z M32.2,61.2c0,0-0.4,9.9-1.4,15.2
	c-0.2-6.9-1-15.4-0.9-17.7c0,0,0.6-14.5,1.3-19.1v-0.1C31.2,39.5,32.9,53.3,32.2,61.2z M69.2,76.6c-0.9-5.3-1.5-15.4-1.5-15.4
	c-0.4-7.4,1-21.7,1-21.7s0,0,0,0.1c0.3,3.5,1.5,19.2,1.5,19.2C70.2,61.2,69.8,69.5,69.2,76.6z"/>
</svg>
