<?xml version="1.0" encoding="utf-8"?>
<!-- Generator: Adobe Illustrator 19.1.0, SVG Export Plug-In . SVG Version: 6.00 Build 0)  -->
<svg version="1.1" id="Layer_1" xmlns="http://www.w3.org/2000/svg" xmlns:xlink="http://www.w3.org/1999/xlink" x="0px" y="0px"
	 viewBox="0 0 100 100" style="enable-background:new 0 0 100 100;" xml:space="preserve">
<style type="text/css">
	.st0{fill:#FFFFFF;}
	.st1{fill:#C7C8C9;}
	.st2{fill:none;stroke:#010101;stroke-width:0.25;stroke-miterlimit:10;}
</style>
<path class="st0" d="M77.7,20.3c-0.4-2.4-0.9-3.6-0.9-3.6c-0.2-1.1-1.5-1.7-1.8-1.9c-0.1-0.1-0.1-0.1-0.1-0.1
	c-7.2-1.5-17.5-6.6-17.5-6.6h-0.1C57,7.8,54.5,5,54.5,5c-1.2-1-3.9-1-4.4-1c-0.5,0-3.2,0-4.5,1c0,0-2.5,2.8-2.8,3.1
	c0,0-11.6,5.3-17.5,6.6c0,0,0,0-0.1,0.1c-0.3,0.3-1.4,0.8-1.8,1.9c0,0-0.4,1-0.9,3.6c0,0-3.9,20.8-3.4,39.7l1.6,26.8
	c0,0,2.7,0.9,5.3,0.5c0,0,2.1-0.1,3.5-0.7c0,0-0.5,3.9-0.7,6.2c0,0,6.6,2.8,13.5,1.2c0.8,0.1,5.3,0.5,7.8,0.5c2.5,0,7-0.4,7.8-0.5
	c7,1.6,13.5-1.2,13.5-1.2c-0.2-0.8-0.7-6.2-0.7-6.2c1.5,0.6,3.5,0.7,3.5,0.7c2.6,0.5,5.3-0.5,5.3-0.5L81,60
	C81.5,41.2,77.7,20.3,77.7,20.3z M32.2,61.4c0,0-0.3,10-1.4,15.3c-0.2-6.9-1-15.4-0.9-17.8c0,0,0.6-14.5,1.3-19.2v-0.1
	C31.2,39.6,32.9,53.5,32.2,61.4z M69.5,76.8L69.5,76.8c-1-5.4-1.6-15.4-1.6-15.4C67.5,53.9,69,39.6,69,39.6s0,0,0,0.1
	c0.3,3.5,1.5,19.2,1.5,19.2C70.5,61.3,70.1,69.6,69.5,76.8z"/>
<path class="st1" d="M57.9,93.9c0,0-5.9-0.5-7.8-14.9c-3.9,15.8-7.8,14.9-7.8,14.9s5.2,0.5,7.8,0.5s7.4-0.4,7.4-0.4"/>
<path class="st2" d="M29.5,86.5 M20.7,86.7 M74.9,14.7 M70.7,86.6 M50,78.7C52.1,93.3,57.8,94,57.8,94l0,0 M42.4,94
	c0,0,5.1-1,7.6-15.5 M29.5,86.6 M20.7,86.8 M42.8,8.1"/>
<path class="st2" d="M58,94"/>
<path class="st2" d="M50.1,94.5"/>
<path class="st2" d="M42.2,94"/>
<path class="st1" d="M50.1,6.2c-2.2,0-4,0.8-4.8,1.1c-0.4,2.5-0.8,7.3,0.8,13.6l3.5,13.2l4.2-13.2c1.6-6.3,1.4-11.2,1.1-13.6
	C54.1,7,52.3,6.2,50.1,6.2"/>
<path class="st2" d="M45.3,7c-0.4,2.5-0.8,7.6,0.8,13.9l3.5,13.2l4.2-13.2c1.6-6.3,1.3-11.4,1-13.9"/>
<line class="st2" x1="58" y1="17.1" x2="54.8" y2="14.1"/>
<line class="st2" x1="42.3" y1="16.9" x2="45.1" y2="14.2"/>
<path class="st2" d="M54.2,36.4C60.1,36,65,35,65,35v-2.1c-1.8,0.3-3.6,0.5-5,0.7c-2.8,0.3-4.6,0.5-4.6,0.5L54.2,36.4z"/>
<path class="st2" d="M39.1,39.1c0,0,0.6,13.3,0.2,30.7 M61.1,39.1c0,0-0.6,13.3-0.2,30.7"/>
<path class="st2" d="M70.6,86.5l-1.7-0.8l0.6-8.9 M30.8,76.6l0.7,9.4l-2,0.6 M74.7,14.7c0,0-5.1,15.2-5.9,25.6 M25.4,14.7
	c0,0,5.1,15.2,5.9,25.6"/>
<path class="st2" d="M51.4,44.2c0,0.4-0.4,0.8-0.8,0.8c-0.4,0-0.8-0.4-0.8-0.8c0-0.4,0.4-0.8,0.8-0.8C51.1,43.5,51.4,43.8,51.4,44.2
	"/>
<line class="st2" x1="51.4" y1="44.3" x2="52.5" y2="44.3"/>
<path class="st2" d="M51.4,56.1c0,0.4-0.4,0.8-0.8,0.8c-0.4,0-0.8-0.4-0.8-0.8c0-0.4,0.4-0.8,0.8-0.8C51.1,55.3,51.4,55.7,51.4,56.1
	"/>
<line class="st2" x1="51.4" y1="56.1" x2="52.5" y2="56.1"/>
<line class="st2" x1="50.7" y1="68" x2="52.4" y2="68"/>
<path class="st2" d="M23.6,79.5c0,0.4-0.3,0.6-0.6,0.6c-0.4,0-0.6-0.3-0.6-0.6c0-0.4,0.3-0.6,0.6-0.6C23.4,78.8,23.6,79.1,23.6,79.5
	"/>
<path class="st2" d="M23.6,81.1c0,0.4-0.3,0.6-0.6,0.6c-0.4,0-0.6-0.3-0.6-0.6c0-0.4,0.3-0.6,0.6-0.6C23.4,80.5,23.6,80.8,23.6,81.1
	"/>
<path class="st2" d="M23.6,82.8c0,0.4-0.3,0.6-0.6,0.6c-0.4,0-0.6-0.3-0.6-0.6c0-0.4,0.3-0.6,0.6-0.6C23.4,82.2,23.6,82.4,23.6,82.8
	"/>
<path class="st2" d="M23.6,84.4c0,0.4-0.3,0.6-0.6,0.6c-0.4,0-0.6-0.3-0.6-0.6c0-0.4,0.3-0.6,0.6-0.6C23.4,83.8,23.6,84.1,23.6,84.4
	"/>
<path class="st2" d="M76.4,79.5c0,0.4,0.3,0.6,0.6,0.6c0.4,0,0.6-0.3,0.6-0.6c0-0.4-0.3-0.6-0.6-0.6C76.7,78.8,76.4,79.1,76.4,79.5"
	/>
<path class="st2" d="M76.4,81.1c0,0.4,0.3,0.6,0.6,0.6c0.4,0,0.6-0.3,0.6-0.6c0-0.4-0.3-0.6-0.6-0.6C76.7,80.5,76.4,80.8,76.4,81.1"
	/>
<path class="st2" d="M76.4,82.8c0,0.4,0.3,0.6,0.6,0.6c0.4,0,0.6-0.3,0.6-0.6c0-0.4-0.3-0.6-0.6-0.6C76.7,82.2,76.4,82.4,76.4,82.8"
	/>
<path class="st2" d="M76.4,84.4c0,0.4,0.3,0.6,0.6,0.6c0.4,0,0.6-0.3,0.6-0.6c0-0.4-0.3-0.6-0.6-0.6C76.7,83.8,76.4,84.1,76.4,84.4"
	/>
<line class="st2" x1="21.8" y1="87" x2="21" y2="72.4"/>
<line class="st2" x1="78.4" y1="87" x2="79.1" y2="72.4"/>
<path class="st2" d="M42.8,8.1l-3.6,6.2l3.2,2.4L39.5,20c0,0,3.6,9.2,9.2,18.6"/>
<path class="st2" d="M45.6,5"/>
<line class="st2" x1="57.2" y1="19.2" x2="58.7" y2="20.3"/>
<path class="st2" d="M48.6,66.5c0,0,0.7,6.9,1.4,12.2"/>
<path class="st2" d="M48.6,40.8c-0.2,3.6-0.4,11.7,0,25.7"/>
<path class="st2" d="M49.6,34l-0.8,4.7c0,0-0.1,0.7-0.2,2.5"/>
<line class="st2" x1="41.7" y1="70.4" x2="31.6" y2="70.4"/>
<line class="st2" x1="58.4" y1="70.4" x2="68.6" y2="70.4"/>
<polygon class="st2" points="31.6,71 35.2,71 42.1,71 42.1,69.9 31.8,69.9 "/>
<line class="st2" x1="31.6" y1="70.4" x2="42.1" y2="70.4"/>
<polygon class="st2" points="68.6,71 65.1,71 58.1,71 58.1,69.9 68.5,69.9 "/>
<line class="st2" x1="68.6" y1="70.4" x2="58.2" y2="70.4"/>
<path class="st2" d="M45.6,5c0,0-0.2,0.8-0.3,2.3c0.8-0.4,2.6-1.1,4.8-1.1c2.3,0,4,0.8,4.7,1.1c-0.2-1.9-0.2-1.8-0.2-2.1V5"/>
<path class="st2" d="M48.7,38.6"/>
<path class="st2" d="M39.2,14.3"/>
<path class="st2" d="M48.6,41.1c1.8-3.8,11.8-21.3,11.8-21.3l-2.7-3.1l3.2-2.4l-3.6-6.2C57,7.8,54.5,5,54.5,5C53.2,3.9,50,4,50,4
	h0.2c0,0-3.2-0.1-4.6,1c0,0-2.5,2.8-2.8,3.1"/>
<path class="st2" d="M77.7,20.3c-0.4-2.4-0.9-3.6-0.9-3.6c-0.2-1.1-1.5-1.7-1.8-1.9c-0.1-0.1-0.1-0.1-0.1-0.1
	c-7.2-1.5-17.5-6.6-17.5-6.6h-0.1C57,7.8,54.5,5,54.5,5c-1.2-1-3.9-1-4.4-1c-0.5,0-3.2,0-4.5,1c0,0-2.5,2.8-2.8,3.1
	c0,0-11.6,5.3-17.5,6.6c0,0,0,0-0.1,0.1c-0.3,0.3-1.4,0.8-1.8,1.9c0,0-0.4,1-0.9,3.6c0,0-3.9,20.8-3.4,39.7l1.6,26.8
	c0,0,2.7,0.9,5.3,0.5c0,0,2.1-0.1,3.5-0.7c0,0-0.5,3.9-0.7,6.2c0,0,6.6,2.8,13.5,1.2c0.8,0.1,5.3,0.5,7.8,0.5c2.5,0,7-0.4,7.8-0.5
	c7,1.6,13.5-1.2,13.5-1.2c-0.2-0.8-0.7-6.2-0.7-6.2c1.5,0.6,3.5,0.7,3.5,0.7c2.6,0.5,5.3-0.5,5.3-0.5L81,60
	C81.5,41.2,77.7,20.3,77.7,20.3z M32.2,61.4c0,0-0.3,10-1.4,15.3c-0.2-6.9-1-15.4-0.9-17.8c0,0,0.6-14.5,1.3-19.2v-0.1
	C31.2,39.6,32.9,53.5,32.2,61.4z M69.5,76.8L69.5,76.8c-1-5.4-1.6-15.4-1.6-15.4C67.5,53.9,69,39.6,69,39.6s0,0,0,0.1
	c0.3,3.5,1.5,19.2,1.5,19.2C70.5,61.3,70.1,69.6,69.5,76.8z"/>
</svg>
