<?xml version="1.0" encoding="utf-8"?>
<!-- Generator: Adobe Illustrator 19.1.0, SVG Export Plug-In . SVG Version: 6.00 Build 0)  -->
<svg version="1.1" id="Layer_1" xmlns="http://www.w3.org/2000/svg" xmlns:xlink="http://www.w3.org/1999/xlink" x="0px" y="0px"
	 viewBox="0 0 100 100" style="enable-background:new 0 0 100 100;" xml:space="preserve">
<style type="text/css">
	.st0{fill:#FFFFFF;}
	.st1{fill:#C7C8C9;}
	.st2{fill:none;stroke:#010101;stroke-width:0.25;stroke-miterlimit:10;}
	.st3{fill:#C7C8C9;stroke:#010101;stroke-width:0.25;stroke-miterlimit:10;}
</style>
<path class="st0" d="M77.9,20.3c-0.4-2.5-0.9-3.6-0.9-3.6c-0.2-1.1-1.5-1.7-1.8-1.9c-0.1-0.1-0.1-0.1-0.1-0.1
	c-7.2-1.5-16.3-6.1-16.3-6.1h-0.1c-0.3-0.3-4.1-3.4-4.1-3.4c-1.3-1-4.6-1-4.6-1h0.2c0,0-3.2-0.1-4.5,0.9c0,0-3.9,3.1-4.2,3.4
	l-0.1,0.1h0c0,0-10.3,4.8-16.2,6.1c0,0,0,0-0.1,0.1c-0.3,0.3-1.4,0.8-1.8,1.9c0,0-0.4,1-0.9,3.6c0,0-3.9,21-3.5,39.9l1.6,27
	c0,0,2.7,1,5.3,0.5c0,0,2.1-0.1,3.6-0.7c0,0-0.5,4-0.7,6.2c0,0,6.3,2.7,13.2,1.3H42c0,0,5.4,0.5,8.1,0.5c2.7,0,8.1-0.5,8.1-0.5l0,0
	c6.9,1.4,13.3-1.3,13.3-1.3c-0.2-0.8-0.7-6.2-0.7-6.2c1.5,0.6,3.6,0.7,3.6,0.7c2.6,0.5,5.3-0.5,5.3-0.5l1.5-27
	C81.7,41.3,77.9,20.3,77.9,20.3z M29.8,59.3c0,0,0.6-14.6,1.3-19.3v-0.1c0,0,1.7,13.9,1.1,21.9c-0.1-0.1-0.4,10-1.5,15.4
	C30.5,70.3,29.7,61.7,29.8,59.3z M69.6,77.2C68.7,71.8,68,61.7,68,61.7c-0.4-7.5,1.1-21.9,1.1-21.9s0,0,0,0.1
	c0.3,3.6,1.5,19.4,1.5,19.4C70.7,61.6,70.2,70,69.6,77.2z"/>
<path class="st1" d="M58.2,94.5c0,0-6.2-0.6-8.1-15.1c-2.4,14.4-8,15-8,15s5.4,0.5,8.1,0.5C52.7,95,58.2,94.5,58.2,94.5"/>
<path class="st2" d="M56,36.2c4.9-0.4,8.7-1.2,8.7-1.2v-2.1c-1.8,0.3-3.5,0.5-5,0.7c-1.1,0.1-2.1,0.2-2.8,0.3"/>
<path class="st3" d="M50,6.5c-2.2,0-4,0.8-4.8,1.1c-0.4,3.5-0.7,10.5,0.8,19.3l3.5,15l4.2-15c1.6-8.8,1.3-15.8,1.1-19.3
	C54,7.3,52.2,6.5,50,6.5L50,6.5z"/>
<line class="st2" x1="50.8" y1="66.5" x2="52.5" y2="66.5"/>
<path class="st2" d="M51.7,54.2c0,0.4-0.4,0.8-0.8,0.8c-0.4,0-0.8-0.4-0.8-0.8c0-0.4,0.4-0.8,0.8-0.8C51.4,53.4,51.7,53.8,51.7,54.2
	"/>
<line class="st2" x1="51.7" y1="54.2" x2="52.8" y2="54.2"/>
<path class="st2" d="M41.5,8.5l-3.5,6l3,2.3c0,0-5-3-5.2-2.9C35.7,14,40.2,33.2,48.6,49v2.3"/>
<path class="st2" d="M54.6,5.2"/>
<path class="st2" d="M48.6,51.3c9.3-16.7,16-37.3,15.9-37.4c-0.2-0.2-5.4,2.9-5.4,2.9l3-2.3l-3.4-5.9"/>
<line class="st2" x1="40.9" y1="16.8" x2="45" y2="12.9"/>
<line class="st2" x1="59.1" y1="16.7" x2="55" y2="12.9"/>
<path class="st2" d="M49.6,41.5l-0.6,3c0,0-0.9,2.3-0.3,21.9c0,0,0.6,7.5,1.3,12.8"/>
<line class="st2" x1="59" y1="19.5" x2="60.8" y2="18.8"/>
<path class="st2" d="M45.5,5.3c0,0-0.2,0.8-0.3,2.4"/>
<path class="st2" d="M54.7,7.6L54.7,7.6c-0.1-1.5-0.3-2.4-0.3-2.4"/>
<path class="st2" d="M42,94.5c0,0,5.4,0.5,8.1,0.5c2.7,0,8.1-0.5,8.1-0.5"/>
<path class="st2" d="M58.2,94.5"/>
<path class="st2" d="M69.6,77.2L69.6,77.2 M70.8,87c1.5,0.6,3.6,0.7,3.6,0.7c2.6,0.5,5.3-0.5,5.3-0.5l1.5-27
	c0.5-18.9-3.3-39.9-3.3-39.9c-0.4-2.5-0.9-3.6-0.9-3.6c-0.2-1.1-1.5-1.7-1.8-1.9c-0.1-0.1-0.1-0.1-0.1-0.1
	c-7.2-1.5-16.3-6.1-16.3-6.1 M42.4,94.4c0,0,5.3-0.7,7.7-15.3c2,14.7,7.7,15.3,7.7,15.3l0,0 M29.4,87 M25.1,14.8 M41.4,8.6"/>
<path class="st2" d="M60.7,39.3c-0.1,5.2-0.2,22,0,29.5"/>
<path class="st2" d="M70.7,87L69,86.3l0.6-9 M30.7,77l0.7,9.5l-2,0.6 M74.9,14.7c0,0-5.1,15.4-5.9,25.8 M25.2,14.7
	c0,0,5.1,15.4,5.9,25.8"/>
<path class="st2" d="M39.1,39.3c0,0,0.6,11.8,0.2,29.4"/>
<path class="st2" d="M23.4,79.9c0,0.4-0.3,0.6-0.6,0.6c-0.4,0-0.6-0.3-0.6-0.6c0-0.4,0.3-0.6,0.6-0.6S23.4,79.6,23.4,79.9"/>
<path class="st2" d="M23.4,81.6c0,0.4-0.3,0.6-0.6,0.6c-0.4,0-0.6-0.3-0.6-0.6c0-0.4,0.3-0.6,0.6-0.6S23.4,81.3,23.4,81.6"/>
<path class="st2" d="M23.4,83.3c0,0.4-0.3,0.6-0.6,0.6c-0.4,0-0.6-0.3-0.6-0.6c0-0.4,0.3-0.6,0.6-0.6C23.1,82.6,23.4,82.9,23.4,83.3
	"/>
<path class="st2" d="M23.4,84.9c0,0.4-0.3,0.6-0.6,0.6c-0.4,0-0.6-0.3-0.6-0.6c0-0.4,0.3-0.6,0.6-0.6S23.4,84.6,23.4,84.9"/>
<path class="st2" d="M76.5,79.9c0,0.4,0.3,0.6,0.6,0.6c0.4,0,0.6-0.3,0.6-0.6c0-0.4-0.3-0.6-0.6-0.6S76.5,79.6,76.5,79.9"/>
<path class="st2" d="M76.5,81.6c0,0.4,0.3,0.6,0.6,0.6c0.4,0,0.6-0.3,0.6-0.6c0-0.4-0.3-0.6-0.6-0.6S76.5,81.3,76.5,81.6"/>
<path class="st2" d="M76.5,83.3c0,0.4,0.3,0.6,0.6,0.6c0.4,0,0.6-0.3,0.6-0.6c0-0.4-0.3-0.6-0.6-0.6C76.8,82.6,76.5,82.9,76.5,83.3"
	/>
<path class="st2" d="M76.5,84.9c0,0.4,0.3,0.6,0.6,0.6c0.4,0,0.6-0.3,0.6-0.6c0-0.4-0.3-0.6-0.6-0.6S76.5,84.6,76.5,84.9"/>
<line class="st2" x1="21.5" y1="87.5" x2="20.7" y2="72.8"/>
<line class="st2" x1="78.5" y1="87.5" x2="79.3" y2="72.8"/>
<polygon class="st2" points="31.7,69.9 35.1,69.9 42.1,69.9 42.1,68.8 31.8,68.8 "/>
<line class="st2" x1="31.7" y1="69.3" x2="42" y2="69.3"/>
<polygon class="st2" points="68.7,69.9 65.2,69.9 58.2,69.9 58.2,68.8 68.6,68.8 "/>
<line class="st2" x1="68.8" y1="69.3" x2="58.3" y2="69.3"/>
<path class="st2" d="M58.2,94.5L58.2,94.5c7,1.4,13.3-1.3,13.3-1.3c-0.2-0.8-0.7-6.2-0.7-6.2c1.5,0.6,3.6,0.7,3.6,0.7
	c2.6,0.5,5.3-0.5,5.3-0.5l1.5-27c0.5-18.9-3.3-39.9-3.3-39.9c-0.4-2.5-0.9-3.6-0.9-3.6c-0.2-1.1-1.5-1.7-1.8-1.9
	c-0.1-0.1-0.1-0.1-0.1-0.1c-7.2-1.5-16.3-6.1-16.3-6.1h-0.1c-0.3-0.3-4.1-3.4-4.1-3.4c-1.3-1-4.6-1-4.6-1h0.2c0,0-3.2-0.1-4.5,0.9
	c0,0-3.9,3.1-4.2,3.4l-0.1,0.1h0c0,0-10.3,4.8-16.2,6.1c0,0,0,0-0.1,0.1c-0.3,0.3-1.4,0.8-1.8,1.9c0,0-0.4,1-0.9,3.6
	c0,0-3.9,21-3.5,39.9l1.6,27c0,0,2.7,1,5.3,0.5c0,0,2.1-0.1,3.6-0.7c0,0-0.5,4-0.7,6.2c0,0,6.3,2.7,13.2,1.3H42 M29.8,59.3
	c0,0,0.6-14.6,1.3-19.3v-0.1c0,0,1.7,13.9,1.1,21.9c-0.1-0.1-0.4,10-1.5,15.4C30.5,70.3,29.7,61.7,29.8,59.3z M69.6,77.2
	C68.7,71.8,68,61.7,68,61.7c-0.4-7.5,1.1-21.9,1.1-21.9s0,0,0,0.1c0.3,3.6,1.5,19.4,1.5,19.4C70.7,61.6,70.2,70,69.6,77.2z"/>
</svg>
