<svg xmlns="http://www.w3.org/2000/svg" xmlns:xlink="http://www.w3.org/1999/xlink" viewBox="0 0 569.48 256.7"><defs><style>.cls-1{fill:#fff;}.cls-2{fill:url(#linear-gradient);}.cls-3{fill:url(#linear-gradient-2);}.cls-4{fill:url(#linear-gradient-3);}</style><linearGradient id="linear-gradient" y1="1475.07" x2="569.48" y2="1475.07" gradientTransform="matrix(1, 0, 0, -1, 0, 1730.16)" gradientUnits="userSpaceOnUse"><stop offset="0" stop-color="#fff" stop-opacity="0"/><stop offset="0.09" stop-color="#fff" stop-opacity="0.22"/><stop offset="0.21" stop-color="#fff" stop-opacity="0.5"/><stop offset="0.32" stop-color="#fff" stop-opacity="0.71"/><stop offset="0.42" stop-color="#fff" stop-opacity="0.87"/><stop offset="0.49" stop-color="#fff" stop-opacity="0.96"/><stop offset="0.54" stop-color="#fff"/><stop offset="0.58" stop-color="#fff" stop-opacity="0.96"/><stop offset="0.64" stop-color="#fff" stop-opacity="0.87"/><stop offset="0.72" stop-color="#fff" stop-opacity="0.71"/><stop offset="0.82" stop-color="#fff" stop-opacity="0.5"/><stop offset="0.92" stop-color="#fff" stop-opacity="0.22"/><stop offset="1" stop-color="#fff" stop-opacity="0"/></linearGradient><linearGradient id="linear-gradient-2" x1="0" y1="1704.6" x2="532.14" y2="1704.6" xlink:href="#linear-gradient"/><linearGradient id="linear-gradient-3" x1="36.61" y1="1704.6" x2="569.48" y2="1704.6" xlink:href="#linear-gradient"/></defs><title>Asset 1</title><g id="Layer_2" data-name="Layer 2"><g id="Layer_1-2" data-name="Layer 1"><path class="cls-1" d="M95.35,125.13v-7.3h2.16v7.25a3.08,3.08,0,1,0,6.16,0v-7.25h2.16v7.3c0,3-1.72,5-5.24,5S95.35,128.12,95.35,125.13Z"/><path class="cls-1" d="M109.12,129.92V117.83h5.33a3.78,3.78,0,1,1,0,7.56h-3.21v4.53Zm7.08-8.3a1.89,1.89,0,0,0-2-1.92h-2.92v3.82h2.92A1.89,1.89,0,0,0,116.21,121.62Z"/><path class="cls-1" d="M98.23,146.3V136.08H94.57v-1.87H104v1.87h-3.66V146.3Z"/><path class="cls-1" d="M105.55,140.26a6.18,6.18,0,1,1,6.18,6.25A6,6,0,0,1,105.55,140.26Zm10.18,0c0-2.5-1.58-4.37-4-4.37s-4,1.87-4,4.37,1.56,4.37,4,4.37S115.74,142.75,115.74,140.26Z"/><path class="cls-1" d="M126.53,103.45V81.6h3.83v18.48H140v3.37Z"/><path class="cls-1" d="M160,103.45l-1.61-4.23h-10l-1.61,4.23h-4.36L151,81.6h4.78l8.58,21.85Zm-6.62-18-3.93,10.42h7.86Z"/><path class="cls-1" d="M166.29,100.37l2.16-3a9.39,9.39,0,0,0,6.91,3c3.14,0,4.36-1.54,4.36-3,0-4.59-12.71-1.74-12.71-9.76,0-3.64,3.14-6.42,8-6.42a11.31,11.31,0,0,1,8.16,3.08L181,87.17a8.91,8.91,0,0,0-6.36-2.52c-2.23,0-3.67,1.11-3.67,2.72,0,4.09,12.71,1.57,12.71,9.7,0,3.64-2.59,6.78-8.45,6.78A11.94,11.94,0,0,1,166.29,100.37Z"/><path class="cls-1" d="M193.35,103.45V85h-6.62V81.6H203.8V85h-6.62v18.48Z"/><path class="cls-1" d="M235,103.45V86.58l-6.68,16.87H226.7L220,86.58v16.87h-3.83V81.6h5.41l6,15,5.93-15h5.41v21.85Z"/><path class="cls-1" d="M244.81,103.45V81.6h3.83v21.85Z"/><path class="cls-1" d="M269.84,103.45l-11.4-15.63v15.63h-3.83V81.6h3.93l11.17,15.14V81.6h3.83v21.85Z"/><path class="cls-1" d="M279.5,94.8V81.6h3.9v13.1c0,3.47,1.93,5.73,5.57,5.73s5.57-2.26,5.57-5.73V81.6h3.9V94.8c0,5.41-3.11,9-9.47,9S279.5,100.21,279.5,94.8Z"/><path class="cls-1" d="M309.6,103.45V85H303V81.6h17.07V85h-6.62v18.48Z"/><path class="cls-1" d="M324.61,103.45V81.6h15V85H328.44v5.63h10.91V94H328.44v6.09h11.14v3.37Z"/><path class="cls-1" d="M351.66,92.54c0-6.88,5.11-11.3,11.47-11.3a10.22,10.22,0,0,1,8.78,4.52l-3.11,1.8a7.05,7.05,0,0,0-5.67-2.92c-4.32,0-7.54,3.28-7.54,7.9s3.21,7.9,7.54,7.9a7.84,7.84,0,0,0,5.18-2V95.1h-6.55V91.72H372.1v8.16a11.81,11.81,0,0,1-9,4C356.77,103.88,351.66,99.39,351.66,92.54Z"/><path class="cls-1" d="M377.41,103.45V81.6h3.83v21.85Z"/><path class="cls-1" d="M387.2,103.45V81.6h15V85H391v5.63h10.91V94H391v9.47Z"/><path class="cls-1" d="M412.16,103.45V85h-6.62V81.6h17.07V85H416v18.48Z"/><path class="cls-1" d="M425.59,100.37l2.16-3a9.39,9.39,0,0,0,6.91,3c3.14,0,4.36-1.54,4.36-3,0-4.59-12.71-1.74-12.71-9.76,0-3.64,3.14-6.42,8-6.42a11.31,11.31,0,0,1,8.16,3.08l-2.16,2.85a8.91,8.91,0,0,0-6.36-2.52c-2.23,0-3.67,1.11-3.67,2.72,0,4.09,12.71,1.57,12.71,9.7,0,3.64-2.59,6.78-8.45,6.78A11.94,11.94,0,0,1,425.59,100.37Z"/><path class="cls-1" d="M126.53,171.64l6.14-7.43a20.69,20.69,0,0,0,16.41,7.33c7.79,0,12.56-4.77,12.56-10.82,0-6.51-4.77-10.82-12.29-10.82A18.6,18.6,0,0,0,136,155.14l-7.61-2.2v-34.1h40.06v9.44H139.09v17.6a20.48,20.48,0,0,1,13.84-5.23c10.36,0,19.62,7.15,19.62,19.71s-9.72,20.72-23.38,20.72C138.72,181.09,131.48,177.42,126.53,171.64Z"/><path class="cls-1" d="M180.16,149.37c0-15.4,7.24-31.54,24.48-31.54S229,134,229,149.37,221.78,181,204.64,181,180.16,164.68,180.16,149.37Zm38,0c0-11.73-3.48-22-13.48-22s-13.57,10.27-13.57,22,3.58,22.1,13.57,22.1S218.11,161,218.11,149.37Z"/><path class="cls-1" d="M234.37,124.57a6.74,6.74,0,1,1,6.74,6.7A6.51,6.51,0,0,1,234.37,124.57Zm10.36,0c0-2.4-1.5-4.06-3.61-4.06s-3.57,1.67-3.57,4.06,1.5,4,3.57,4S244.73,126.93,244.73,124.57Zm-6.25,20.75,17.3-27.09h2.76l-17.34,27.09ZM249,139.11a6.74,6.74,0,1,1,6.74,6.7A6.51,6.51,0,0,1,249,139.11Zm10.36,0c0-2.4-1.5-4.06-3.61-4.06s-3.61,1.67-3.61,4.06,1.5,4,3.61,4S259.31,141.47,259.31,139.11Z"/><path class="cls-1" d="M276.65,149.46c0-18.24,12.93-31.63,31.26-31.63s31.26,13.39,31.26,31.63-13,31.63-31.26,31.63S276.65,167.7,276.65,149.46Zm51.52,0c0-12.65-8-22.09-20.26-22.09s-20.26,9.44-20.26,22.09,7.88,22.1,20.26,22.1S328.17,162,328.17,149.46Z"/><path class="cls-1" d="M349.44,180V118.84h41.9v9.44H360.17V144H390.7v9.44H360.17V180Z"/><path class="cls-1" d="M401.06,180V118.84H443v9.44H411.79V144h30.53v9.44H411.79V180Z"/><path class="cls-1" d="M11.09,209.35V196h9.14v2.06h-6.8v3.44H20.1v2.06H13.43v5.78Z"/><path class="cls-1" d="M30.24,209.35l-2.94-5H25v5H22.61V196h5.86a4.06,4.06,0,0,1,4.38,4.18,3.75,3.75,0,0,1-3.18,3.92L33,209.35Zm.22-9.18a2.09,2.09,0,0,0-2.28-2.1H25v4.24h3.22A2.11,2.11,0,0,0,30.46,200.16Z"/><path class="cls-1" d="M35.45,209.35V196H44.6v2.06h-6.8v3.44h6.66v2.06H37.79v3.72h6.8v2.06Z"/><path class="cls-1" d="M47.25,209.35V196H56.4v2.06h-6.8v3.44h6.66v2.06H49.59v3.72h6.8v2.06Z"/><path class="cls-1" d="M63.61,207.47l1.32-1.82a5.73,5.73,0,0,0,4.22,1.86c1.92,0,2.66-.94,2.66-1.84,0-2.8-7.76-1.06-7.76-6,0-2.22,1.92-3.92,4.86-3.92a6.91,6.91,0,0,1,5,1.88l-1.32,1.74a5.44,5.44,0,0,0-3.88-1.54c-1.36,0-2.24.68-2.24,1.66,0,2.5,7.76,1,7.76,5.92,0,2.22-1.58,4.14-5.16,4.14A7.29,7.29,0,0,1,63.61,207.47Z"/><path class="cls-1" d="M85.9,209.35v-5.84H79v5.84H76.61V196H79v5.44H85.9V196h2.34v13.34Z"/><path class="cls-1" d="M91.33,209.35V196h2.34v13.34Z"/><path class="cls-1" d="M96.77,209.35V196h5.88a4.17,4.17,0,1,1,0,8.34H99.11v5Zm7.82-9.16a2.09,2.09,0,0,0-2.26-2.12H99.11v4.22h3.22A2.08,2.08,0,0,0,104.59,200.18Z"/><path class="cls-1" d="M109.21,209.35V196h5.88a4.17,4.17,0,1,1,0,8.34h-3.54v5Zm7.82-9.16a2.09,2.09,0,0,0-2.26-2.12h-3.22v4.22h3.22A2.08,2.08,0,0,0,117,200.18Z"/><path class="cls-1" d="M121.65,209.35V196H124v13.34Z"/><path class="cls-1" d="M136.39,209.35l-7-9.54v9.54h-2.34V196h2.4l6.82,9.24V196h2.34v13.34Z"/><path class="cls-1" d="M141.17,202.69a6.71,6.71,0,0,1,7-6.9,6.24,6.24,0,0,1,5.36,2.76l-1.9,1.1a4.31,4.31,0,0,0-3.46-1.78,4.83,4.83,0,0,0,0,9.64,4.79,4.79,0,0,0,3.16-1.2v-2.06h-4v-2.06h6.32v5a7.21,7.21,0,0,1-5.48,2.44A6.74,6.74,0,0,1,141.17,202.69Z"/><path class="cls-1" d="M160.91,207.47l1.32-1.82a5.73,5.73,0,0,0,4.22,1.86c1.92,0,2.66-.94,2.66-1.84,0-2.8-7.76-1.06-7.76-6,0-2.22,1.92-3.92,4.86-3.92a6.91,6.91,0,0,1,5,1.88l-1.32,1.74a5.44,5.44,0,0,0-3.88-1.54c-1.36,0-2.24.68-2.24,1.66,0,2.5,7.76,1,7.76,5.92,0,2.22-1.58,4.14-5.16,4.14A7.29,7.29,0,0,1,160.91,207.47Z"/><path class="cls-1" d="M173.91,209.35V196h2.34v13.34Z"/><path class="cls-1" d="M182.53,209.35V198.06h-4V196h10.42v2.06h-4v11.28Z"/><path class="cls-1" d="M191.15,209.35V196h9.14v2.06h-6.8v3.44h6.66v2.06h-6.66v3.72h6.8v2.06Z"/><path class="cls-1" d="M213.15,209.35l-2.58-9.86-2.6,9.86h-2.5L201.67,196h2.6l2.6,10.26L209.63,196h1.86l2.76,10.26,2.6-10.26h2.62l-3.82,13.34Z"/><path class="cls-1" d="M221.27,209.35V196h2.34v13.34Z"/><path class="cls-1" d="M226.71,209.35V196h5c4.18,0,7,2.76,7,6.66s-2.8,6.68-7,6.68Zm9.54-6.68a4.31,4.31,0,0,0-4.56-4.6h-2.64v9.22h2.62A4.39,4.39,0,0,0,236.25,202.66Z"/><path class="cls-1" d="M241.17,209.35V196h9.14v2.06h-6.8v3.44h6.66v2.06h-6.66v3.72h6.8v2.06Z"/><path class="cls-1" d="M267.69,209.35l-7-9.54v9.54h-2.34V196h2.4l6.82,9.24V196H270v13.34Z"/><path class="cls-1" d="M272.47,202.69a6.82,6.82,0,1,1,6.82,6.9A6.62,6.62,0,0,1,272.47,202.69Zm11.24,0c0-2.76-1.74-4.82-4.42-4.82s-4.42,2.06-4.42,4.82,1.72,4.82,4.42,4.82S283.71,205.43,283.71,202.69Z"/><path class="cls-1" d="M298.41,209.35l-2.58-9.86-2.6,9.86h-2.5L286.93,196h2.6l2.6,10.26L294.89,196h1.86l2.76,10.26,2.6-10.26h2.62l-3.82,13.34Z"/><path class="cls-1" d="M315.13,209.35V198.06h-4V196h10.42v2.06h-4v11.28Z"/><path class="cls-1" d="M333,209.35v-5.84h-6.94v5.84h-2.34V196h2.34v5.44H333V196h2.34v13.34Z"/><path class="cls-1" d="M346.09,209.35l-2.94-5h-2.34v5h-2.34V196h5.86a4.06,4.06,0,0,1,4.38,4.18,3.75,3.75,0,0,1-3.18,3.92l3.28,5.24Zm.22-9.18a2.09,2.09,0,0,0-2.28-2.1h-3.22v4.24H344A2.11,2.11,0,0,0,346.31,200.16Z"/><path class="cls-1" d="M350.73,202.69a6.82,6.82,0,1,1,6.82,6.9A6.62,6.62,0,0,1,350.73,202.69Zm11.24,0c0-2.76-1.74-4.82-4.42-4.82s-4.42,2.06-4.42,4.82,1.72,4.82,4.42,4.82S362,205.43,362,202.69Z"/><path class="cls-1" d="M366.87,204.07V196h2.38v8a3.4,3.4,0,1,0,6.8,0v-8h2.38v8.06c0,3.3-1.9,5.52-5.78,5.52S366.87,207.37,366.87,204.07Z"/><path class="cls-1" d="M381,202.69a6.71,6.71,0,0,1,7-6.9,6.24,6.24,0,0,1,5.36,2.76l-1.9,1.1a4.31,4.31,0,0,0-3.46-1.78,4.83,4.83,0,0,0,0,9.64,4.79,4.79,0,0,0,3.16-1.2v-2.06h-4v-2.06h6.32v5a7.21,7.21,0,0,1-5.48,2.44A6.74,6.74,0,0,1,381,202.69Z"/><path class="cls-1" d="M405.41,209.35v-5.84h-6.94v5.84h-2.34V196h2.34v5.44h6.94V196h2.34v13.34Z"/><path class="cls-1" d="M418.69,209.35V199l-2.18,2.28-1.36-1.42L419,196h2v13.34Z"/><path class="cls-1" d="M423.71,209.35v-1.86c5.18-3.92,7.22-5.64,7.22-7.58,0-1.4-1.22-2-2.44-2a4.65,4.65,0,0,0-3.6,1.58l-1.36-1.52a6.34,6.34,0,0,1,4.94-2.14c2.58,0,4.82,1.44,4.82,4.1,0,2.48-2.26,4.68-5.82,7.38h5.9v2.06Z"/><path class="cls-1" d="M436.29,209.35V196h5.88a4.17,4.17,0,1,1,0,8.34h-3.54v5Zm7.82-9.16a2.09,2.09,0,0,0-2.26-2.12h-3.22v4.22h3.22A2.08,2.08,0,0,0,444.11,200.18Z"/><path class="cls-1" d="M460.25,209.35V199l-4.08,10.3h-1l-4.1-10.3v10.3h-2.34V196H452l3.64,9.16,3.62-9.16h3.3v13.34Z"/><path class="cls-1" d="M470.53,202.69a6.72,6.72,0,0,1,7-6.9,6,6,0,0,1,5.34,3l-2,1a3.94,3.94,0,0,0-3.36-1.94,4.83,4.83,0,0,0,0,9.64,4,4,0,0,0,3.36-1.94l2,1a6.1,6.1,0,0,1-5.36,3A6.73,6.73,0,0,1,470.53,202.69Z"/><path class="cls-1" d="M484.15,207.47l1.32-1.82a5.73,5.73,0,0,0,4.22,1.86c1.92,0,2.66-.94,2.66-1.84,0-2.8-7.76-1.06-7.76-6,0-2.22,1.92-3.92,4.86-3.92a6.91,6.91,0,0,1,5,1.88l-1.32,1.74a5.44,5.44,0,0,0-3.88-1.54c-1.36,0-2.24.68-2.24,1.66,0,2.5,7.76,1,7.76,5.92,0,2.22-1.58,4.14-5.16,4.14A7.29,7.29,0,0,1,484.15,207.47Z"/><path class="cls-1" d="M500.13,209.35V198.06h-4V196h10.42v2.06h-4v11.28Z"/><path class="cls-1" d="M516.59,209.35V199l-2.18,2.28L513,199.88l3.84-3.88h2v13.34Z"/><path class="cls-1" d="M521.61,209.35v-1.86c5.18-3.92,7.22-5.64,7.22-7.58,0-1.4-1.22-2-2.44-2a4.65,4.65,0,0,0-3.6,1.58l-1.36-1.52a6.34,6.34,0,0,1,4.94-2.14c2.58,0,4.82,1.44,4.82,4.1,0,2.48-2.26,4.68-5.82,7.38h5.9v2.06Z"/><path class="cls-1" d="M532.77,209.75l4.74-14.14h1.56l-4.74,14.14Z"/><path class="cls-1" d="M543.17,209.35V199L541,201.31l-1.36-1.42,3.84-3.88h2v13.34Z"/><path class="cls-1" d="M548.67,208.09l1.1-1.78a3.43,3.43,0,0,0,2.74,1.18c2.42,0,3.52-2.22,3.52-4.4a2.48,2.48,0,0,0,0-.38,4.55,4.55,0,0,1-3.58,1.86,4.14,4.14,0,0,1-4.46-4.3c0-2.48,1.94-4.48,4.92-4.48,3.92,0,5.5,3.18,5.5,6.88,0,3.86-2,6.9-5.88,6.9A5.34,5.34,0,0,1,548.67,208.09ZM556,201c-.14-1.44-.92-3.12-3-3.12a2.47,2.47,0,0,0-2.68,2.32c0,1.64,1.28,2.38,2.74,2.38A3.65,3.65,0,0,0,556,201Z"/><rect class="cls-2" y="253.49" width="569.48" height="3.21"/><rect class="cls-3" y="23.96" width="240.03" height="3.21"/><rect class="cls-4" x="329.27" y="23.96" width="240.21" height="3.21"/><path class="cls-1" d="M309.86,21.63,308,20.53l-2.28,3.94h-5.79l3-5.25L301,18.12l-3.67,6.35h-6.47l-2.16-3.75,3.21-5.59h7.37v-2.2h-6.1l2.88-5h4.6V5.72H297.3L300,1.1,298.14,0l-2.63,4.57-1.65-2.8L292,2.87l2.25,3.9-2.89,5-3-5.22-1.91,1.1L290.08,14l-3.22,5.64h-4.3L279.3,14,283,7.65l-1.91-1.1-3,5.25-2.9-5,2.26-3.94-1.91-1.1-1.64,2.86L271.2,0l-1.91,1.1L272,5.7h-3.29V7.9h4.56l2.9,5h-6.07v2.2h7.34l3.24,5.6-2.15,3.72H272l-3.67-6.35-1.91,1.1,3,5.25h-5.79l-2.28-3.94-1.91,1.1,1.64,2.84h-5.23v2.2h5.31l-1.64,2.84,1.91,1.1,2.28-3.94h5.79l-3,5.25,1.91,1.1,3.67-6.35h6.47l2.16,3.74L277.42,36h-7.35v2.2h6.09l-2.88,5h-4.59v2.2H272L269.35,50l1.91,1.1,2.6-4.57,1.62,2.81,1.91-1.1-2.26-3.91,2.89-5,3,5.23,1.91-1.1-3.66-6.34,3.23-5.62h4.36l3.24,5.61-3.65,6.34,1.91,1.1,3-5.24,2.9,5L292,48.26l1.91,1.1,1.62-2.82,2.65,4.59,1.91-1.1-2.67-4.61h3.31V43.2h-4.58l-2.9-5h6.08V36H292l-3.23-5.59,2.15-3.73h6.47L301.06,33,303,31.9l-3-5.25h5.79L308,30.59l1.91-1.1-1.64-2.84h5.31v-2.2h-5.31Zm-23,7.82h-4.48l-2.24-3.88,2.24-3.88h4.48l2.24,3.88Z"/></g></g></svg>