<svg version="1.1" id="Layer_1" xmlns="http://www.w3.org/2000/svg" x="0px" y="0px"
	 width="300px" height="23.664px" viewBox="0 0 300 23.664" enable-background="new 0 0 300 23.664">
<path d="M21.003,12.674c0,6.518-2.562,10.988-10.634,10.988c-6.688,0-9.398-4.065-10.369-6.193l3.233-2.18
	c0.713,1.506,2.484,4.479,7.182,4.479c6.696,0,6.696-4.338,6.696-7.095V0.003h3.892V12.674z"/>
<path d="M41.269,23.662c-1.598,0-2.843-1.229-2.843-2.828c0-1.55,1.246-2.843,2.843-2.843
	c1.542,0,2.826,1.293,2.826,2.843C44.095,22.433,42.811,23.662,41.269,23.662"/>
<polygon points="84.284,22.957 80.382,22.957 80.382,13.113 66.289,13.113 66.289,22.957 62.389,22.957 
	62.389,0.007 66.289,0.007 66.289,9.214 80.382,9.214 80.382,0.007 84.284,0.007 "/>
<polygon points="107.783,22.957 103.885,22.957 103.885,0.007 107.783,0 "/>
<polygon points="144.386,22.957 126.469,22.957 126.469,0 130.376,0 130.376,19.053 144.386,19.053 "/>
<path d="M172.827,0.001c2.709,0,7.581,0.705,7.581,5.936c0,2.435-0.565,3.054-1.333,4.339
	c0.925,0.971,2.49,2.35,2.49,5.543c0,3.995-2.395,7.139-8.738,7.139h-14.542V0.001H172.827z M172.827,19.051
	c3.022,0,4.84-0.662,4.84-2.964c0-3.024-1.725-3.367-4.652-3.367h-10.822v6.331H172.827z M172.827,8.81
	c2.083,0,3.681-0.617,3.681-2.437c0-1.986-1.457-2.473-3.681-2.473h-10.635V8.81H172.827z"/>
<path d="M220.22,12.983c0,5.797-1.988,10.681-11.089,10.681c-9.036,0-11.057-4.884-11.057-10.681V0h3.885v12.983
	c0,4.167,0.798,6.781,7.172,6.781c6.391,0,7.188-2.614,7.188-6.781V0h3.9V12.983z"/>
<path d="M262.458,22.957h-4.869l-6.61-9.399h-8.065v9.399h-3.898V0.001h14.188c4.604,0,8.739,1.549,8.739,6.6
	c0,5.101-3.462,6.432-6.171,6.869L262.458,22.957z M253.594,9.665c2.569,0,4.433-0.713,4.433-2.977c0-2.569-1.676-2.788-4.651-2.788
	h-10.462v5.765H253.594z"/>
<polygon points="300,22.957 296.115,22.957 281.739,5.891 281.739,22.957 277.854,22.957 277.854,0 281.739,0 
	296.115,17.008 296.115,0 300,0 "/>
</svg>
