<svg version="1.1" id="Layer_1" xmlns="http://www.w3.org/2000/svg" x="0px" y="0px"
	 width="800px" height="27px" viewBox="0 0 800 27" enable-background="new 0 0 800 27">
<g>
	<path d="M603.74,9.534c-0.301-0.111-0.646-0.167-1.056-0.167c-0.511,0-0.987,0.145-1.442,0.455
		c-0.166,0.111-0.321,0.233-0.478,0.388c-0.51,0.533-0.766,1.176-0.766,1.942c0,0.744,0.256,1.387,0.766,1.918
		c0.232,0.234,0.478,0.41,0.744,0.533c0.365,0.199,0.767,0.299,1.177,0.299h9.166l-7.103-4.781c-0.178-0.111-0.334-0.222-0.479-0.3
		C604.063,9.689,603.884,9.59,603.74,9.534L603.74,9.534z"/>
	<path d="M606.77,4.142c-0.077-0.044-0.145-0.089-0.211-0.145c-0.577-0.388-1.266-0.51-2.063-0.366
		c-0.433,0.089-0.812,0.255-1.132,0.511c-0.135,0.111-0.255,0.222-0.366,0.355c-0.078,0.089-0.146,0.188-0.211,0.277
		c-0.166,0.244-0.299,0.488-0.377,0.754c-0.133,0.399-0.156,0.833-0.066,1.287c0.077,0.389,0.211,0.744,0.39,1.032
		c0.188,0.299,0.432,0.543,0.721,0.732l8,5.471l-3.605-8.267c-0.045-0.089-0.078-0.178-0.11-0.255
		c-0.146-0.355-0.277-0.621-0.4-0.81c-0.055-0.066-0.11-0.144-0.177-0.222C607.047,4.375,606.913,4.252,606.77,4.142L606.77,4.142z"
		/>
	<path d="M611.096,0.169c-0.077-0.033-0.153-0.055-0.244-0.078c-0.455-0.122-0.908-0.122-1.363,0
		c-0.155,0.044-0.312,0.1-0.467,0.167c-0.698,0.311-1.176,0.81-1.432,1.487c-0.012,0.033-0.033,0.078-0.045,0.111
		c-0.232,0.699-0.221,1.365,0.057,1.998l3.916,8.999l1.3-9.088c0.077-0.51,0.11-0.899,0.1-1.154
		c-0.012-0.244-0.066-0.488-0.155-0.755c-0.021-0.088-0.065-0.177-0.101-0.277C612.373,0.923,611.852,0.458,611.096,0.169
		L611.096,0.169z"/>
	<path d="M622.06,9.823c-0.145,0.078-0.3,0.188-0.478,0.3l-7.102,4.781h9.166c0.543,0,1.054-0.165,1.541-0.51
		c0.122-0.088,0.244-0.199,0.379-0.321c0.021-0.021,0.044-0.044,0.076-0.077c0.301-0.322,0.499-0.688,0.61-1.11
		c0.033-0.122,0.066-0.255,0.078-0.388c0.01-0.111,0.01-0.233,0.01-0.344c0-0.621-0.166-1.165-0.51-1.62
		c-0.078-0.111-0.166-0.222-0.266-0.322c-0.156-0.155-0.322-0.277-0.488-0.388c-0.189-0.144-0.4-0.244-0.611-0.322
		c-0.266-0.089-0.543-0.133-0.819-0.133c-0.411,0-0.756,0.056-1.044,0.167C622.459,9.59,622.27,9.689,622.06,9.823L622.06,9.823z"/>
	<path d="M618.786,1.855c-0.011-0.033-0.034-0.078-0.044-0.111c-0.269-0.688-0.744-1.176-1.433-1.487
		c-0.155-0.066-0.311-0.122-0.467-0.167c-0.455-0.122-0.909-0.122-1.364,0c-0.089,0.022-0.166,0.044-0.243,0.078
		c-0.755,0.289-1.276,0.766-1.565,1.409c-0.033,0.1-0.077,0.189-0.11,0.277c-0.133,0.399-0.177,0.788-0.133,1.188v0.056h0.743
		c0.223,0.022,0.366,0.055,0.399,0.111c0.056,0.055-0.057,0.144-0.301,0.244l-0.188,0.122l-0.233,0.188
		c-0.1,0.089-0.153,0.222-0.188,0.377c-0.023,0.111-0.033,0.222-0.023,0.355c0,0.055,0,0.1,0.013,0.167l1.165,8.189l3.929-8.999
		C619.008,3.243,619.03,2.566,618.786,1.855L618.786,1.855z"/>
	<path d="M624.045,6.194c-0.021-0.488-0.177-0.955-0.487-1.42c-0.066-0.089-0.134-0.188-0.211-0.277
		c-0.11-0.133-0.232-0.244-0.366-0.355c-0.332-0.255-0.711-0.433-1.143-0.511c-0.799-0.144-1.487-0.022-2.064,0.366
		c-0.065,0.056-0.145,0.1-0.211,0.145c-0.145,0.122-0.266,0.233-0.377,0.355c-0.078,0.078-0.133,0.155-0.178,0.222
		c-0.145,0.222-0.322,0.577-0.521,1.065l-3.605,8.267l8-5.471c0.299-0.2,0.532-0.433,0.721-0.732
		c0.022-0.022,0.033-0.044,0.046-0.078c0.1-0.167,0.178-0.355,0.243-0.555c0.033-0.122,0.077-0.266,0.101-0.399
		C624.035,6.605,624.057,6.394,624.045,6.194L624.045,6.194z"/>
	<path d="M612.617,18.822v2.107h1.031c0.289,0,0.532-0.111,0.721-0.345c0.188-0.231,0.277-0.487,0.277-0.812
		c-0.011-0.254-0.121-0.477-0.332-0.664c-0.2-0.2-0.435-0.289-0.699-0.289h-0.998V18.822z M612.617,22.494v2.297h1.187
		c0.366,0,0.699-0.077,0.999-0.255c0.288-0.166,0.443-0.433,0.443-0.8c0-0.766-0.488-1.187-1.442-1.242H612.617L612.617,22.494z
		 M624.744,17.135v2.109c-0.6-0.322-1.12-0.488-1.564-0.488c-0.1,0-0.32,0.021-0.653,0.066c-0.787,0.109-1.442,0.455-1.964,1.01
		c-0.512,0.555-0.776,1.221-0.776,2.008c0,0.744,0.244,1.376,0.721,1.908c0.467,0.533,1.076,0.889,1.831,1.043
		c0.188,0.045,0.434,0.066,0.755,0.066c0.609-0.033,1.154-0.199,1.652-0.498v2.308c-0.599,0.222-1.188,0.333-1.786,0.333
		c-0.267,0-0.479,0-0.621-0.021c-0.943-0.09-1.798-0.367-2.574-0.832c-0.775-0.467-1.397-1.088-1.843-1.877
		c-0.454-0.787-0.688-1.651-0.688-2.629c0.032-0.898,0.289-1.721,0.755-2.453c0.466-0.731,1.087-1.319,1.863-1.742
		c0.776-0.432,1.632-0.676,2.553-0.721C623.291,16.725,624.068,16.857,624.744,17.135L624.744,17.135z M603.873,26.667h-2.053
		v-9.942l5.67,5.115v-4.705h2.106v9.844l-5.725-5.338L603.873,26.667L603.873,26.667z M610.541,26.667v-9.532h4.105
		c0.565,0.066,1.043,0.289,1.421,0.678c0.378,0.39,0.589,0.865,0.632,1.441c0,0.988-0.365,1.709-1.109,2.176
		c1.032,0.434,1.588,1.221,1.644,2.342c0,0.766-0.244,1.432-0.732,1.985s-1.109,0.854-1.854,0.91H610.541L610.541,26.667z"/>
</g>
<g>
	<path d="M507.942,6.069c-0.604-0.106-4.505-0.426-6.563,2.305c-0.992,1.241-0.283,2.767,1.951,2.767
		c-2.093,0.78-3.688,2.199-3.263,3.865c0.589,2.307,3.155,2.199,5.178,1.987c3.597-0.379,6.063-3.76,6.632-4.186
		c0.853,0.426,1.277,1.207,0.922,1.703c-0.957,0.035-3.476,0.248-3.369,1.561c0.107,1.313,4.079,1.172,6.277-0.282
		c0.319,0.106,0.958,0.425,1.277,0.673c0.318,0.249,0.674,0.036,0.709-1.027c-0.319-0.319-1.206-0.639-1.667-0.639
		c0.143-0.71,0.391-1.561-1.597-3.015c-0.318-0.177-0.282-0.39-0.034-0.567c0.248-0.177-0.036-0.603-0.711-0.816
		c-0.674-0.212-2.128-0.106-2.589,0.426c-0.213,0.213-0.213,0.958,0.143,1.206c-0.354,0.603-2.127,3.192-4.752,3.405
		c-0.958,0.106-2.034-0.033-1.95-1.418c0.07-1.17,1.844-2.199,2.481-2.482c0.391-0.177,0.319-0.745-0.178-0.887
		c-0.496-0.142-1.667-0.213-1.737-1.135c-0.07-0.922,1.101-1.596,2.979-1.95C508.651,7.487,508.651,6.246,507.942,6.069
		L507.942,6.069z M512.659,15.574c-0.604-0.106-2.163-0.106-2.163,0.39S512.198,16.354,512.659,15.574L512.659,15.574z"/>
	<path d="M523.051,12.204c-0.566-0.071-2.376-0.283-2.624,1.455c-0.249,1.737,1.17,1.879,1.737,1.809
		c0.567-0.071,1.738-0.674,1.738-2.767c-0.036-1.063,0.39-1.454,1.312-1.489c0.923-0.036,1.349,0.177,1.349,1.135
		s0.035,8.158,0.035,8.477c-0.674,0-2.446,0.07-3.155,0.177c0.069-1.702,0.282-5.144,0.282-5.675
		c-0.461,0.674-1.348,1.668-3.015,1.632c-1.667-0.035-3.19-0.815-3.085-3.015c0.105-2.199,2.341-3.724,5.78-3.227
		C524.009,10.821,524.079,12.311,523.051,12.204L523.051,12.204z"/>
	<path d="M559.971,15.538c-0.814-0.035-1.383,0.106-2.021,0.213s-1.632,0.213-2.376,0.036c-0.745-0.178-0.958-0.923-0.745-1.385
		c0.213-0.46,0.922-0.708,1.348-0.851c0.427-0.142,0.427-0.709-0.034-0.816c-0.462-0.107-1.101-0.284-1.101-0.674
		s0.567-0.922,2.341-0.78c0.674,0.071,0.496-1.099-0.248-1.277c-0.675-0.035-3.015,0.178-4.61,0.993
		c-0.815,0.425-0.957,1.596,1.206,1.986c-1.349,0.107-2.271,1.277-2.234,1.81c0.01,0.151-0.017,0.42,0.074,0.716
		c-0.352,0.227-0.782,0.301-1.264,0.277c-0.709-0.036-1.771-0.889-1.542-2.341c0.204-1.288,0.567-1.135,0.744-1.206
		c0.392,0,0.78-0.213,0.78-0.709c0-0.497,0.124-0.621-0.266-0.621c-0.392,0-2.819,0.354-4.629-0.053
		c-0.035-0.532-0.923-1.277-1.845-0.78c-0.922,0.496-0.674,1.631,0.392,1.915c0.083,0.022,0.168,0.043,0.252,0.064
		c-0.326,1.342-1.075,3.581-2.274,3.801c-0.673,0.143-1.099-0.318-1.028-1.418c0.071-1.1,0.284-3.156,0.284-3.156
		c0.071-0.887-3.155-0.851-3.121,0.249v3.475c0,0.083,0.019,0.188,0.051,0.302c-0.817,0.637-2.619,0.781-2.497-0.656l0.426-3.155
		c0.105-0.922-2.837-1.241-2.908,0.036l-0.035,2.553c-0.012,0.146-0.017,0.322-0.005,0.516c-0.234,0.437-0.678,0.844-1.235,0.869
		c-0.816,0.034-1.277-0.072-1.206-1.101c0.069-1.029,0.318-2.979,0.318-2.979c0.07-0.922-2.873-0.922-2.943-0.106
		c-0.035,0.674-0.214,3.156-0.248,3.938c-0.035,0.78,1.171,1.737,2.873,1.666c1.501-0.063,2.036-0.482,2.652-1.312
		c0.302,0.728,0.981,1.373,2.453,1.312c0.562-0.031,1.396,0.148,2.707-0.879c0.35,0.473,0.941,0.91,1.833,0.95
		c1.596,0.071,2.802-0.071,3.653-1.737c0.739-1.449,0.97-2.041,1.157-2.961c0.727,0.14,1.477,0.23,2.212,0.23
		c-0.853,0.603-1.206,1.099-1.136,2.128c0.035,0.639,0.461,2.281,3.191,2.306c1.543,0.013,2.252-0.317,2.74-0.685
		c0.654,0.477,2.017,0.818,4.85,0.578c0.922-0.144,2.305-0.106,3.192-0.071C560.751,16.779,560.786,15.574,559.971,15.538
		L559.971,15.538z"/>
	<path d="M539.685,9.729c0.887,0,1.604-0.606,1.604-1.354s-0.719-1.354-1.604-1.354c-0.887,0-1.604,0.606-1.604,1.354
		C538.079,9.122,538.798,9.729,539.685,9.729L539.685,9.729z"/>
</g>
<g>
	<path d="M409.957,18.497c-0.213,0.106-1.061-0.104-1.273-1.062c-0.211-0.955,0.427-1.485,1.382-2.547l-1.168-0.956v-2.017
		c0,0,0.848-0.318,1.485-0.743c0.637-0.424,1.273-0.849,1.273-0.849s0.531,0.637,1.061,0.531c0.851-0.106,0.851-0.743,0.742-0.849
		c0.213,0.212,0.531,0.956-0.955,2.76l1.275,0.955v2.546c0,0-1.486,0.743-2.761,1.698c0,0-0.743-0.955-1.381-0.53
		C409.109,17.755,409.32,18.285,409.957,18.497L409.957,18.497z M408.896,16.588c0,0,0.637-1.063,1.805-0.85
		c1.061,0.212,1.379,1.272,1.379,1.272v-2.547l-0.742-0.637C410.594,14.677,409.109,15.846,408.896,16.588L408.896,16.588z
		 M410.594,11.174v2.017l0.638,0.637c0,0,1.485-1.167,2.018-2.335c0,0-0.637,0.956-1.592,0.637
		C410.912,11.917,410.594,11.174,410.594,11.174L410.594,11.174z"/>
	<path d="M406.561,10.325c0,0-1.061,0.637-1.696,1.062c-0.638,0.318-1.486,0.743-1.486,0.743v4.14l-0.637,0.424l0.104,0.106
		l0.531-0.425l1.805,1.592l3.185-2.441l-0.105-0.104l-1.698,1.38l-1.486-1.38v-0.425l2.867-2.123L406.561,10.325L406.561,10.325z
		 M406.561,13.721l-1.485,1.061V11.28L406.561,13.721L406.561,13.721z"/>
	<polygon points="391.915,12.129 392.02,12.129 392.551,11.705 393.4,12.66 393.4,16.057 392.976,16.375 394.355,17.967 
		395.735,16.588 395.205,15.95 395.205,11.917 395.523,11.599 396.478,12.766 396.478,16.163 396.16,16.48 397.433,17.859 
		398.813,16.588 398.283,16.057 398.283,11.917 398.601,11.599 399.663,12.766 399.663,16.057 399.344,16.375 400.723,17.967 
		402.635,16.163 402.527,16.057 402.104,16.48 401.359,15.738 401.359,11.917 401.998,11.386 401.998,11.28 401.254,11.811 
		399.981,10.431 398.176,11.811 396.903,10.431 395.098,11.811 393.825,10.431 	"/>
	<g>
		<polygon points="388.093,12.023 388.093,12.023 388.624,11.599 389.367,12.554 389.367,16.375 388.836,16.904 388.942,17.012 
			389.474,16.48 390.747,17.967 392.551,16.375 392.445,16.27 391.915,16.693 391.171,15.846 391.171,12.023 391.808,11.492 
			391.808,11.386 391.171,11.917 389.898,10.431 		"/>
		<polygon points="388.624,8.733 389.898,7.565 391.065,8.733 389.686,10.006 		"/>
	</g>
	<path d="M386.713,6.08c0.318,0,0.85,0.106,1.274,0.531c0.318,0.318,0.424,0.955,0.318,1.486c-0.105,0.424-0.318,0.743-0.742,1.061
		c-0.531,0.318-1.062,0.318-1.062,0.318v2.017l0.956,0.85l-0.956,0.743v2.866c0,0,0.956-0.638,1.592-1.91c0,0,0,0,0.106-0.212
		c0,0.424,0,1.061-0.425,2.018c-0.212,0.637-0.849,1.272-1.486,1.697c-1.167,0.637-2.123,0.637-3.078,0.53
		c-1.062-0.318-2.123-0.955-2.76-2.019c-0.53-0.742-0.742-1.697-0.742-2.653c0-1.911,1.485-3.502,3.078-4.139
		c0.212-0.106,0.318-0.106,0.637-0.106c-0.212,0-0.319,0.106-0.531,0.318c-0.531,0.318-0.955,0.956-1.167,1.486l3.184-1.38v4.458
		l-2.547,1.273c0.319,0.425,1.167,1.062,1.911,1.062c1.273,0.213,2.017-0.425,2.017-0.425v-2.866l-0.956-0.743l0.956-0.85V9.476
		c-0.531-0.106-1.167-0.318-1.592-0.424c-0.531-0.106-2.44-0.637-2.759-0.637c-0.212-0.106-0.637-0.106-0.849,0.106
		s-0.318,0.531-0.318,0.849c0.106,0.212,0.212,0.318,0.318,0.424c0,0-0.106,0-0.318-0.106c-0.319-0.212-0.637-0.637-0.637-1.167
		c-0.106-0.637,0.212-1.274,0.743-1.698c0.53-0.318,1.061-0.53,1.698-0.424c0.955,0.106,2.229,0.637,3.291,0.955
		c0.531,0.106,0.849,0.106,1.167-0.106c0.106-0.106,0.319-0.318,0.106-0.636c-0.212-0.425-0.637-0.425-1.061-0.531
		C386.396,5.973,386.501,5.973,386.713,6.08L386.713,6.08z M382.999,14.889v-4.352l-1.274,0.637c0,0-0.424,0.743-0.318,1.804
		c0,0.85,0.531,1.804,0.85,2.229L382.999,14.889L382.999,14.889z"/>
	<g>
		<path d="M372.916,13.509l2.123-3.185c0,0,0.318,0.318,0.849,0.425c0.637,0.212,1.273-0.425,1.273-0.425
			c-0.106,0.849-0.53,1.805-1.486,1.911c-0.743,0.106-1.486-0.531-1.486-0.531l-0.106,0.319l2.972,4.564l0.637-0.532l0.106,0.107
			l-2.123,1.804L372.916,13.509L372.916,13.509z"/>
		<path d="M371.112,9.264c0-0.743-0.319-1.167-0.743-1.167l2.441-1.592v9.446l0.637,0.638l0.424-0.425l0.106,0.105l-1.911,1.697
			l-1.273-1.273l-0.531,0.531l-0.105-0.105l0.955-0.85V9.264L371.112,9.264z"/>
	</g>
	<path d="M367.927,11.599l1.167-1.167c0,0,0.106,0.106,0.319,0.212c0.105,0.106,0.424,0.212,0.743,0.106
		c0.212-0.106,0.212-0.212,0.424-0.318c0,0.955-0.424,1.592-0.956,1.804c-0.318,0.106-0.955,0.318-1.698-0.531v4.352l0.849,0.637
		l0.531-0.424h0.106l-1.911,1.697l-1.486-1.379l-0.53,0.53l-0.106-0.106l0.743-0.742v-3.715l-0.531-0.849l-0.53,0.425h-0.106
		l1.911-1.698L367.927,11.599L367.927,11.599z"/>
	<path d="M364.212,12.023l0.531-0.425h0.106l-0.531,0.531v4.034c0,0-1.062,0.53-1.698,0.955c-0.743,0.425-1.486,0.849-1.486,0.849
		l-1.91-1.592l-0.425,0.425h-0.106l0.531-0.53v-4.353l0,0c0,0,0.849-0.318,1.592-0.743c0.637-0.424,1.38-0.849,1.38-0.849
		L364.212,12.023L364.212,12.023z M361.029,15.632l1.486,1.38V12.66l-1.486-1.38V15.632L361.029,15.632z"/>
	<path d="M351.158,9.051c0-0.637-0.318-0.955-0.743-0.955c-0.637-0.106-0.743,0.849-0.743,0.849s-0.106-0.743,0.425-1.274
		c0.318-0.318,0.955-0.849,1.804-0.637c0.955,0.212,1.273,0.955,1.273,1.592v8.81c0,0,0.318,0.106,0.531,0.106
		c0.318,0.104,0.531,0.104,0.531,0.104V7.035h0.106v1.486l1.911-1.592l1.486,1.274l0.637-0.531h0.106l-0.743,0.637v8.173
		c0,0.529-0.106,1.062-0.637,1.379c-1.062,0.742-2.441-0.105-3.715-0.213c-0.849-0.211-2.229-0.317-2.653,0.531
		c-0.106,0.213-0.106,0.637,0.318,0.954c0.849,0.531,4.458-0.954,5.731-0.317c1.167,0.531,1.167,1.272,0.955,1.91
		C357.42,21.787,356.04,22,356.04,22s0.743-0.425,0.531-1.063c-0.106-0.317-0.318-0.424-1.062-0.317
		c-1.592,0.212-3.396,0.955-4.67,0.425c-0.637-0.318-1.167-1.063-1.061-1.911c0-1.167,1.379-1.591,1.379-1.591v-4.247
		c-0.106-0.106-0.743-0.106-0.955,0.213c-0.212,0.531,0.318,0.743,0.318,0.743s-0.424,0-0.849-0.424
		c-0.106-0.212-0.531-0.85,0-1.592c0.318-0.531,0.849-0.637,1.486-0.637L351.158,9.051L351.158,9.051z M354.342,17.755
		c0,0,0.637,0.104,0.956-0.212c0.53-0.425,0.424-0.85,0.424-0.85v-3.292c0,0-0.212-0.425-0.637-0.425s-0.743,0.425-0.743,0.425
		V17.755L354.342,17.755z M355.722,9.051l-0.849-0.743l-0.531,0.318v3.078c0,0,0.319,0.319,0.743,0.319s0.637-0.319,0.637-0.319
		V9.051L355.722,9.051z M355.722,11.917c0,0-0.212,0.212-0.637,0.212s-0.743-0.212-0.743-0.212v1.273c0,0,0.319-0.318,0.743-0.318
		s0.637,0.318,0.637,0.318V11.917L355.722,11.917z"/>
	<path d="M339.695,17.967l-1.592-1.273l-0.637,0.531l-0.106-0.105l0.743-0.53v-3.503c0-1.486-1.38-1.061-1.273-2.653
		c0-0.637,0.637-1.167,1.061-1.38c0.318-0.106,0.743-0.106,0.743-0.106s-0.637,0.318-0.531,0.955
		c0.212,0.849,1.698,0.849,1.805,2.017v4.033l1.061,0.85l0.318-0.212v-4.353l-0.637-0.531l1.486-1.38l1.38,1.274l-0.531,0.531v3.821
		l1.38,1.062l0.212-0.105v-4.67l-0.637-0.531l1.486-1.38l1.486,1.167l0.531-0.53l0.106,0.106l-1.273,1.167v3.715l-3.291,2.017
		l-1.698-1.273L339.695,17.967L339.695,17.967z"/>
	<path d="M335.344,10.325c0,0-0.956,0.637-1.698,1.062c-0.637,0.318-1.486,0.743-1.486,0.743v4.14l-0.637,0.424l0.106,0.106
		l0.637-0.425l1.698,1.592l3.184-2.441l-0.106-0.104l-1.698,1.38l-1.38-1.38v-0.425l2.759-2.123L335.344,10.325L335.344,10.325z
		 M335.344,13.721l-1.38,1.061V11.28L335.344,13.721L335.344,13.721z"/>
	<path d="M325.155,19.134c-0.85-0.104-1.168-0.53-1.168-0.954c0-0.213,0.318-0.742,0.743-0.742c0.531-0.106,0.955,0.105,1.379,0.637
		l1.911-2.123h-0.106l-0.531,0.531c-0.425-0.531-1.167-0.957-1.911-1.063V9.157l4.776,8.81c0,0,0.106,0.106,0.318,0.106
		c0.106,0,0.106-0.106,0.106-0.106v-8.81c0.425-0.106,0.956-0.318,1.274-0.531c0.955-0.955,0.531-2.016,0.424-2.123
		c0,0.424-0.424,0.849-0.955,0.956c-0.743,0-1.273-0.637-1.273-0.637l-1.805,2.123l0.106,0.106l0.531-0.637
		c0.636,0.637,1.061,0.637,1.592,0.743v5.095l-3.609-6.474c-0.318-0.531-0.743-1.062-1.592-1.062c-0.849,0-1.486,0.743-1.592,1.486
		c-0.106,0.743,0,0.955,0,0.955s0.106-0.849,0.637-0.849c0.531,0,0.743,0.425,0.955,0.743v1.911c-0.53,0-1.804,0-1.804,1.38
		c0,0.424,0.318,0.955,0.531,1.167c0.318,0.212,0.637,0.212,0.637,0.212s-0.425-0.212-0.318-0.637
		c0.106-0.424,0.955-0.424,0.955-0.318v2.654c-0.424,0-1.592,0-2.229,1.063c-0.318,0.637-0.318,1.379,0.106,1.91
		C323.563,18.816,324.093,19.348,325.155,19.134L325.155,19.134z"/>
	<path d="M319.423,10.325c0,0-1.061,0.637-1.698,1.062c-0.637,0.318-1.485,0.743-1.485,0.743v4.14l-0.637,0.424l0.106,0.106
		l0.531-0.425l1.804,1.592l3.184-2.441l-0.106-0.104l-1.698,1.38l-1.486-1.38v-0.425l2.866-2.123L319.423,10.325L319.423,10.325z
		 M319.423,13.721l-1.486,1.061V11.28L319.423,13.721L319.423,13.721z"/>
	<path d="M311.25,19.559c0.425,0,1.062,0.106,2.017-0.317c0.955-0.53,1.38-1.485,1.38-2.548l0.106-1.485v-3.29l0.53-0.425v-0.106
		l-0.637,0.424l-1.38-1.486l-1.804,1.486v-5.2l-2.229,1.698c0.106,0.106,0.425,0.106,0.425,0.637v7.324l-0.956,0.637l0.106,0.105
		l0.424-0.318l1.274,1.168l2.017-1.592l-0.106-0.105l-0.424,0.425l-0.531-0.532v-4.032l0.531-0.531l0.955,1.062c0,0,0,2.653,0,3.502
		c0,0.955,0,2.123-0.531,2.653C311.887,19.348,311.781,19.348,311.25,19.559L311.25,19.559z"/>
	<path d="M307.111,6.08c0.318,0,0.743,0.106,1.167,0.531c0.424,0.318,0.424,0.955,0.318,1.486c-0.106,0.424-0.212,0.743-0.743,1.061
		c-0.531,0.318-1.062,0.318-1.062,0.318v2.017l0.955,0.85l-0.955,0.743v2.866c0,0,0.955-0.638,1.592-1.91c0,0,0,0,0.106-0.212
		c0,0.424,0,1.061-0.424,2.018c-0.212,0.637-0.743,1.272-1.486,1.697c-1.167,0.637-2.017,0.637-2.972,0.53
		c-1.168-0.318-2.229-0.955-2.866-2.019c-0.531-0.742-0.743-1.697-0.743-2.653c0.106-1.911,1.486-3.502,3.078-4.139
		c0.212-0.106,0.318-0.106,0.637-0.106c-0.106,0-0.318,0.106-0.531,0.318c-0.531,0.318-0.955,0.956-1.167,1.486l3.184-1.38v4.458
		l-2.547,1.273c0.319,0.425,1.168,1.062,1.911,1.062c1.38,0.213,2.123-0.425,2.123-0.425v-2.866l-1.062-0.743l1.062-0.85V9.476
		c-0.531-0.106-1.274-0.318-1.592-0.424c-0.637-0.106-2.547-0.637-2.76-0.637c-0.318-0.106-0.743-0.106-0.955,0.106
		s-0.318,0.531-0.212,0.849c0,0.212,0.106,0.318,0.212,0.424c0,0-0.106,0-0.318-0.106c-0.318-0.212-0.637-0.637-0.637-1.167
		c0-0.637,0.212-1.274,0.849-1.698c0.425-0.318,0.956-0.53,1.592-0.424c0.956,0.106,2.229,0.637,3.396,0.955
		c0.425,0.106,0.743,0.106,1.061-0.106c0.106-0.106,0.425-0.318,0.212-0.636c-0.318-0.425-0.743-0.425-1.167-0.531
		C306.687,5.973,306.793,5.973,307.111,6.08L307.111,6.08z M303.291,14.889v-4.352l-1.274,0.637c0,0-0.318,0.743-0.318,1.804
		c0.106,0.85,0.531,1.804,0.849,2.229L303.291,14.889L303.291,14.889z"/>
</g>
<g>
	<path d="M243.671,23.798V22.58h0.243l0.288,0.861c0.027,0.08,0.045,0.142,0.058,0.182c0.015-0.045,0.036-0.109,0.065-0.195
		l0.292-0.848h0.216v1.218h-0.154v-1.019l-0.354,1.019h-0.146l-0.352-1.036v1.036H243.671z"/>
	<polygon points="242.947,23.798 242.947,22.725 242.545,22.725 242.545,22.58 243.511,22.58 243.511,22.725 243.107,22.725 
		243.107,23.798 	"/>
	<path d="M238.681,20.473l-3.5-6.037h2.939l1.269,2.312c0.267,0.494,0.642,1.242,0.722,1.735h0.053
		c0.08-0.493,0.455-1.241,0.722-1.735l1.27-2.312h2.858l-3.5,6.037v3.34h-2.832L238.681,20.473L238.681,20.473z"/>
	<path d="M230.583,14.436h2.953l3.487,9.377h-2.791l-0.442-1.348h-3.541l-0.427,1.348h-2.725L230.583,14.436z M233.109,20.326
		l-0.722-2.258c-0.147-0.441-0.268-1.002-0.321-1.403h-0.08c-0.053,0.401-0.174,0.962-0.321,1.403l-0.722,2.258H233.109z"/>
	<path d="M218.8,14.436h3.459c3.313,0,5.21,1.764,5.21,4.688c0,2.873-1.95,4.688-5.21,4.688H218.8V14.436z M221.485,21.648h0.575
		c1.723,0,2.645-0.828,2.645-2.524s-0.922-2.524-2.645-2.524h-0.575V21.648z"/>
	<path d="M207.535,19.137c0-2.311,1.658-4.889,5.144-4.889c3.501,0,5.159,2.578,5.159,4.889c0,2.299-1.657,4.863-5.159,4.863
		C209.192,24,207.535,21.436,207.535,19.137 M215.07,19.137c0-1.683-1.094-2.551-2.405-2.551c-1.282,0-2.378,0.868-2.378,2.551
		c0,1.67,1.096,2.525,2.378,2.525C213.976,21.662,215.07,20.807,215.07,19.137"/>
	<polygon points="202.352,16.611 200.041,16.611 200.041,14.436 207.347,14.436 207.347,16.611 205.037,16.611 205.037,23.813 
		202.352,23.813 	"/>
	<path d="M219.881,3.187h2.953l3.486,9.378h-2.792l-0.442-1.349h-3.54l-0.428,1.349h-2.725L219.881,3.187z M222.406,9.079
		l-0.722-2.258c-0.147-0.44-0.267-1.002-0.321-1.403h-0.08c-0.053,0.401-0.174,0.963-0.32,1.403l-0.722,2.258H222.406z"/>
	<path d="M209.005,11.389l1.296-1.789c0.481,0.574,1.283,1.095,2.204,1.095c0.695,0,1.109-0.294,1.109-0.842
		c0-0.655-0.602-0.842-1.617-1.149c-1.363-0.415-2.564-1.122-2.564-2.738c0-1.777,1.455-2.966,3.513-2.966
		c1.429,0,2.513,0.44,3.192,1.082l-1.215,1.791c-0.387-0.44-1.042-0.815-1.844-0.815c-0.694,0-0.988,0.281-0.988,0.655
		c0,0.587,0.708,0.748,1.483,0.989c1.522,0.48,2.698,1.176,2.698,2.899c0,1.803-1.295,3.152-3.633,3.152
		C210.916,12.752,209.58,12.018,209.005,11.389"/>
	<path d="M200,9.159V3.187h2.686v5.197c0,1.028,0.107,2.03,1.456,2.03c1.35,0,1.458-1.002,1.458-2.03V3.187h2.684v5.972
		c0,2.312-1.481,3.594-4.141,3.594C201.402,12.752,200,11.47,200,9.159"/>
</g>
<g>
	<path d="M151.345,9.604c1.85,0,2.733,1,2.733,2.918c0,2.869,0,5.687,0,6.28c0,0.595,0.052,0.979,0.459,0.97
		c0.29-0.008,0.334-0.188,0.382-0.787h0.506c0,1.019-0.396,1.924-1.619,1.924c-0.996,0-1.358-0.654-1.477-1.397
		c-0.403,1.192-1.397,1.45-2.41,1.397c-1.166-0.061-1.987-0.85-1.987-2.428c0-2.066,1.449-3.67,4.206-4.74l0.011,0.748
		c-1.314,0.549-2.146,1.634-2.146,3.33c0,1.766,0.526,2.039,1.002,2.039s1.137-0.375,1.137-1.699s0-5.134,0-6.085
		c0-0.951-0.424-1.733-1.256-1.733c-0.832,0-1.076,0.443-1.194,0.68c0.424,0.136,0.889,0.391,0.889,1.07
		c0,0.679-0.425,1.104-1.154,1.104c-0.73,0-1.155-0.553-1.155-1.283S149.088,9.604,151.345,9.604L151.345,9.604z"/>
	<path d="M144.732,9.599c1.188,0,3.039,0.642,3.039,5.48h-4.159v-0.806h2.207c0-2.582,0.119-3.913-1.086-3.913
		s-1.12,2.222-1.12,4.462c0,2.241,0.003,4.975,1.649,4.975s1.75-1.952,1.75-2.428h0.726c0,1.323-0.696,3.563-2.784,3.563
		s-3.532-2.223-3.532-5.789C141.422,11.582,143.052,9.599,144.732,9.599L144.732,9.599z"/>
	<path d="M163.749,6.206l2.92-0.187v4.873c0.458-0.73,1.086-1.167,2.343-1.167c0.905,0,1.867,0.543,1.867,2.139
		c0,1.307,0,7.293,0,7.769c0,0.477,0.424,0.676,0.679,0.727v0.377h-2.614c0,0,0-7.886,0-8.48c0-0.594-0.125-1.37-0.852-1.37
		c-0.662,0-1.422,0.302-1.422,1.49s-0.002,6.493,0,7.104c0.002,0.711,0.398,0.744,0.891,0.847v0.409h-3.811V20.32
		c0.391-0.051,0.849-0.184,0.849-0.846c0-0.66,0-11.622,0-12.114c0-0.492-0.424-0.814-0.849-0.814L163.749,6.206L163.749,6.206z"/>
	<path d="M157.975,19.479c0,0.611,0.16,0.738,0.814,0.84v0.416h-3.637v-0.422c0.546-0.067,0.751-0.17,0.751-0.832s0-11.582,0-12.073
		c0-0.493-0.177-0.851-0.953-0.867V6.187L157.975,6V19.479L157.975,19.479z"/>
	<path d="M161.718,6.07v3.709h2.076v0.915h-2.076c0,0,0,7.13,0,8.115c0,0.985,0.366,1.31,0.773,1.31
		c0.403,0,0.858,0.088,0.979-1.599h0.524c0,1.748-0.466,2.48-2.299,2.48c-1.562,0-2.04-1.037-2.04-2.029c0-0.638,0-8.283,0-8.283
		h-1.367v-0.664c1.118-0.486,2.257-1.029,2.752-3.954H161.718L161.718,6.07z"/>
	<path d="M130.125,9.608v3.861h-0.37c-0.364-1.531-1.143-3.103-2.471-3.023c-0.528,0.032-0.95,0.723-0.987,1.09
		c-0.116,1.114,0.798,1.619,2.139,2.45c1.341,0.833,2.43,1.811,2.497,3.456c0.092,2.279-1.526,3.43-2.816,3.43
		c-1.104,0-1.138-0.561-1.816-0.561c-0.425,0-0.713,0.476-0.798,0.629h-0.396v-3.824h0.407c0.526,1.766,1.296,2.734,2.637,2.744
		c0.737,0.004,1.282-0.543,1.282-1.256c0-1.256-1.224-1.862-2.14-2.422c-0.917-0.562-2.512-1.48-2.512-3.706
		c0-2.224,1.689-2.903,2.47-2.903c0.968,0,1.273,0.583,1.783,0.583c0.357,0,0.594-0.261,0.747-0.55h0.344V9.608z"/>
	<path d="M100.034,6.068h4.563l1.063,6.746l1.291-6.746h4.558v0.458c-0.492,0-1.036,0.119-1.036,1.121c0,1.001,0,11.255,0,11.815
		c0,0.562,0.577,0.849,1.069,0.849v0.424h-4.667v-0.42c0.526,0,1.125-0.153,1.124-0.849c-0.002-0.815,0-11.843,0-11.843h-0.005
		l-2.854,13.111h-0.526l-2.551-13.111h-0.006c0,0-0.01,11.143,0,11.838c0.009,0.6,0.26,0.754,1.187,0.854v0.42H100v-0.424
		c0.461-0.063,1.19-0.08,1.188-0.847c-0.003-1.087,0-11.019,0-11.817s-0.543-1.127-1.154-1.127V6.068L100.034,6.068z"/>
	<path d="M116.859,9.829l2.92-0.187v1.282c0.458-0.73,1.086-1.231,2.343-1.231c0.905,0,1.867,0.543,1.867,2.139
		c0,1.307-0.008,7.162,0,7.639c0.012,0.639,0.424,0.778,0.679,0.83v0.434h-2.614c0,0,0-7.917,0-8.511
		c0-0.594-0.255-1.357-0.917-1.357c-0.662,0-1.358,0.451-1.358,1.639s0,6.362,0,6.974c0,0.612,0.323,0.754,0.815,0.855v0.4h-3.735
		v-0.428c0.373-0.017,0.849-0.19,0.849-0.854s0-7.979,0-8.471c0-0.492-0.424-0.814-0.849-0.814V9.829L116.859,9.829z"/>
	<path d="M141.023,19.502c-0.017-1.018,0-11.524,0-12.084s0.305-0.87,0.984-0.87V6.092h-4.414v0.456
		c0.474-0.003,1.012,0.028,1.038,0.867c0.012,0.379,0.014,2.5,0.012,4.862h-3.615c0.002-2.371,0.006-4.505,0.006-4.886
		c0-0.899,0.646-0.844,1.019-0.861V6.074h-4.414v0.448c0.689,0.005,0.98,0.23,0.985,0.869c0.003,0.561,0.005,11.054,0,12.073
		c-0.004,0.792-0.577,0.778-1.053,0.862v0.408h4.449v-0.418c-0.815-0.08-0.968-0.381-0.986-0.854
		c-0.01-0.269-0.01-3.166-0.007-6.061h3.615c-0.004,2.906-0.011,5.82-0.011,6.089c0,0.525-0.24,0.779-1.038,0.849v0.416h4.481v-0.42
		C141.686,20.266,141.035,20.229,141.023,19.502L141.023,19.502z"/>
	<path d="M114.197,9.6c1.188,0,3.039,0.642,3.039,5.48h-4.16v-0.807h2.208c0-2.581,0.119-3.912-1.087-3.912
		c-1.205,0-1.12,2.222-1.12,4.464c0,2.24,0.003,4.973,1.65,4.973c1.646,0,1.75-1.951,1.75-2.428h0.726
		c0,1.324-0.696,3.564-2.784,3.564s-3.531-2.224-3.531-5.787C110.887,11.583,112.517,9.6,114.197,9.6L114.197,9.6z"/>
	<path d="M123.972,10.183c0.457-0.28,0.679-0.343,0.741-0.866c-0.01-0.009-0.01-0.027-0.021-0.036c-0.031-0.018-0.072-0.009-0.104,0
		c-0.498,0.045-0.933-0.361-0.933-0.785c0-0.469,0.404-0.884,0.964-0.884c0.705,0,1.078,0.514,1.078,1.083
		c0,0.992-0.575,1.344-1.456,1.84L123.972,10.183L123.972,10.183z"/>
</g>
<g>
	<path d="M39.757,18.948c0,1.009,0.817,1.823,1.825,1.823c1.007,0,1.824-0.814,1.824-1.823c0-1.007-0.817-1.824-1.824-1.824
		C40.574,17.124,39.757,17.941,39.757,18.948"/>
	<path d="M33.929,9.531c-3.572,0-7.08,1.753-7.083,5.734c0.001,0.848,0.16,1.594,0.444,2.243h0.023v0.05
		c1.071,2.369,3.823,3.44,6.616,3.44c2.276,0,5.437-0.548,6.147-4.049l0.035-0.373l-4.165-0.002l-0.142-0.001
		c0,1.184-0.859,1.742-1.835,1.742c-1.858,0-2.003-1.551-2.003-3.035v-0.03V15.25c0-1.486,0.145-3.035,2.003-3.035
		c1.462,0,1.709,1.269,1.762,2.471l4.323-0.477c-0.461-4.406-4.797-4.683-5.883-4.683C34.018,9.526,33.929,9.531,33.929,9.531"/>
	<path d="M10.772,9.458v3.212h1.446v4.839h-1.446v3.209h8.014V17.51h-1.528V14.73c0-1.177,0.887-2.044,2.065-2.044
		c0.928,0,1.65,0.455,1.65,1.464v3.359h-1.486v3.209h7.826v-3.158c-0.007-0.018-0.014-0.035-0.023-0.051h-1.278v-4.246
		c0-2.705-1.982-3.697-4.418-3.697c-1.734,0-3.056,0.475-4.212,1.797c-0.083,0.103-0.187,0.227-0.289,0.309V9.458H10.772
		L10.772,9.458z"/>
	<polygon points="0,6 0,9.452 1.921,9.452 1.921,17.512 0,17.512 0,20.719 10.242,20.719 10.242,17.51 8.322,17.51 8.322,9.452 
		10.242,9.452 10.242,6 	"/>
</g>
</svg>
