<?xml version="1.0" encoding="utf-8"?>
<!-- Generator: Adobe Illustrator 19.1.0, SVG Export Plug-In . SVG Version: 6.00 Build 0)  -->
<svg version="1.1" id="Layer_1" xmlns="http://www.w3.org/2000/svg" xmlns:xlink="http://www.w3.org/1999/xlink" x="0px" y="0px"
	 viewBox="0 0 100 100" style="enable-background:new 0 0 100 100;" xml:space="preserve">
<style type="text/css">
	.st0{fill:#FFFFFF;}
	.st1{fill:none;stroke:#020202;stroke-width:0.169;stroke-miterlimit:10;}
	.st2{fill:none;stroke:#020202;stroke-width:0.169;stroke-miterlimit:10;stroke-dasharray:1.057,1.057;}
	.st3{fill:none;stroke:#020202;stroke-width:0.169;stroke-miterlimit:10;stroke-dasharray:1.069,1.069;}
	.st4{fill:none;stroke:#020202;stroke-width:0.169;stroke-miterlimit:10;stroke-dasharray:1.011,1.011;}
	.st5{fill:none;stroke:#020202;stroke-width:0.169;stroke-miterlimit:10;stroke-dasharray:1.003,1.003;}
	.st6{fill:none;stroke:#020202;stroke-width:0.169;stroke-miterlimit:10;stroke-dasharray:1.066,1.066;}
	.st7{fill:none;stroke:#020202;stroke-width:0.169;stroke-miterlimit:10;stroke-dasharray:0.862,0.862;}
	.st8{fill:none;stroke:#020202;stroke-width:0.169;stroke-miterlimit:10;stroke-dasharray:1.034,1.034;}
	.st9{fill:none;}
	.st10{fill:none;stroke:#020202;stroke-width:0.169;stroke-miterlimit:10;stroke-dasharray:1.071,1.071;}
	.st11{fill:#D0CFCE;}
	.st12{fill:none;stroke:#020202;stroke-width:0.169;stroke-miterlimit:10;stroke-dasharray:1.021,1.021;}
	.st13{fill:none;stroke:#020202;stroke-width:0.169;stroke-miterlimit:10;stroke-dasharray:1.02,1.02;}
	.st14{fill:none;stroke:#020202;stroke-width:0.169;stroke-miterlimit:10;stroke-dasharray:1.05,1.05;}
	.st15{fill:none;stroke:#020202;stroke-width:0.169;stroke-miterlimit:10;stroke-dasharray:1.072,1.072;}
</style>
<path class="st0" d="M81.4,24.9c-0.5-5.1-1.5-10.5-3.2-13.2c-0.9-1.3-2.9-3.7-7.4-5.6c-5-2.3-11.9-3-17.9-3
	c-6.2,0-13.2,0.7-18.2,3.1c-3.7,1.7-5.6,3.7-6.6,5c0,0,0-0.1,0-0.1l0,0.1c-0.1,0.2-0.3,0.4-0.4,0.5c-1.6,2.6-2.6,7.5-3.1,12.4
	C19.3,26.5,0,35.3,0,35.3l0,65.2h100l0-67.4C93.1,29.9,85.8,26.8,81.4,24.9z"/>
<path class="st1" d="M56.7,58.6V100"/>
<path class="st1" d="M48.1,99.9V99V58.7"/>
<path class="st1" d="M27.9,22.8c0,0-15.6,6.7-27.9,12.5"/>
<path class="st1" d="M77.3,23.1c0,0,11.7,5,22.7,10"/>
<line class="st1" x1="52.4" y1="70.4" x2="52.4" y2="73"/>
<path class="st0" d="M53.7,70.4c0-0.7-0.6-1.3-1.3-1.3s-1.3,0.6-1.3,1.3c0,0.7,0.6,1.3,1.3,1.3C53.2,71.7,53.7,71.1,53.7,70.4"/>
<circle class="st1" cx="52.4" cy="70.4" r="1.3"/>
<line class="st1" x1="52.4" y1="97.7" x2="52.4" y2="100.3"/>
<path class="st0" d="M53.7,97.7c0-0.7-0.6-1.3-1.3-1.3s-1.3,0.6-1.3,1.3c0,0.7,0.6,1.3,1.3,1.3C53.2,99,53.7,98.4,53.7,97.7"/>
<circle class="st1" cx="52.4" cy="97.7" r="1.3"/>
<line class="st1" x1="0" y1="44.7" x2="26.5" y2="32.7"/>
<line class="st2" x1="0" y1="42.6" x2="26.6" y2="30.3"/>
<path class="st1" d="M100,42.2l-21.3-9.8"/>
<line class="st3" x1="100" y1="40.1" x2="78.4" y2="30.2"/>
<path class="st0" d="M75.1,8.9c-4.7-4.6-14.2-5.8-22.2-5.8c-8.1,0-17.5,1.2-22.2,5.8s-4.5,12.2-4.5,12.2l-1.5,11.5
	c0,0,2.2-2.4,5.9-8.9s13.6-8.1,22.3-8.1s18.6,1.6,22.3,8.1c3.7,6.5,5.9,8.9,5.9,8.9l-2.2-10C78.9,22.6,79.8,13.5,75.1,8.9"/>
<path class="st1" d="M75.1,8.9c-4.7-4.6-14.2-5.8-22.2-5.8c-8.1,0-17.5,1.2-22.2,5.8s-4.5,12.2-4.5,12.2l-1.5,11.5
	c0,0,2.2-2.4,5.9-8.9s13.6-8.1,22.3-8.1s18.6,1.6,22.3,8.1c3.7,6.5,5.9,8.9,5.9,8.9l-2.2-10C78.9,22.6,79.8,13.5,75.1,8.9z"/>
<path class="st4" d="M72.3,8.3c-3.8-2.4-10-3.8-17.8-3.9"/>
<path class="st4" d="M50.5,4.4c-7.9,0.3-14.1,1.8-17.7,4.4"/>
<path class="st5" d="M30,11.6c-2,2.7-3,6-3.5,7.9"/>
<line class="st6" x1="26.4" y1="23.6" x2="26.6" y2="26.2"/>
<path class="st7" d="M27.7,26c0.3-0.6,0.6-1.1,1-1.8"/>
<path class="st8" d="M30.8,21.1c3.7-4.2,10.7-6.5,20.4-6.8"/>
<path class="st8" d="M55.3,14.3c9.8,0.4,16.7,2.9,20.1,7.4"/>
<path class="st7" d="M77.4,24.8c0.4,0.6,0.7,1.2,1,1.8"/>
<path class="st5" d="M79,18.8c-0.6-2.1-1.7-5.3-3.8-7.8"/>
<path class="st1" d="M74.7,10.4c-0.2-0.2-0.4-0.4-0.6-0.6c-0.2-0.2-0.4-0.4-0.6-0.5 M78.7,27.2c0.1,0.2,0.2,0.4,0.3,0.6l0.1-0.8
	 M75.9,22.4c0.2,0.2,0.3,0.5,0.4,0.7s0.2,0.4,0.3,0.6 M52,14.3c0.3,0,0.5,0,0.8,0s0.5,0,0.8,0 M29,23.6c0.1-0.2,0.2-0.4,0.3-0.6
	c0.1-0.2,0.3-0.5,0.4-0.7 M26.6,27l0.1,0.8c0.1-0.2,0.2-0.4,0.3-0.6 M26.3,20.3c-0.1,0.4-0.1,0.6-0.2,0.8l0.1,0.8 M32.2,9.3
	c-0.2,0.2-0.4,0.4-0.6,0.5c-0.2,0.2-0.4,0.4-0.6,0.6 M53.7,4.4c-0.3,0-0.5,0-0.8,0s-0.5,0-0.8,0"/>
<path class="st9" d="M40.3,55.8c1,0.8,7.8,3.2,12.5,3.2s11.5-2.5,12.5-3.2v-9.3c-1,0.8-7.8,3.5-12.5,3.5s-11.5-2.7-12.5-3.5
	C40.3,46.5,40.3,55.8,40.3,55.8z"/>
<path class="st1" d="M40.3,55.8c1,0.8,7.8,3.2,12.5,3.2s11.5-2.5,12.5-3.2v-9.3c-1,0.8-7.8,3.5-12.5,3.5s-11.5-2.7-12.5-3.5
	C40.3,46.5,40.3,55.8,40.3,55.8z"/>
<path class="st9" d="M54.3,50c0,0-4.3,2-5.1,2.5c-1,0.6-1,1.8-1,3.1v3.1c1.1,0.2,3.7,0.4,4.6,0.4c4.7,0,11.5-2.5,12.5-3.3v-9.3
	L54.3,50z"/>
<path class="st1" d="M65.3,55.8v-9.3l-11,3.5c0,0-4.3,2-5.1,2.5c-1,0.6-1,1.8-1,3.1v3.1"/>
<path class="st1" d="M78.5,17.1c0,0.3-0.1,0.6-0.2,0.8c-0.1,0.3-0.2,0.5-0.3,0.8"/>
<path class="st10" d="M27.5,13.7c-0.1,0.8-0.2,1.7-0.2,2.5"/>
<path class="st0" d="M53.8,55.7c0-0.7-0.6-1.3-1.3-1.3s-1.3,0.6-1.3,1.3s0.6,1.3,1.3,1.3C53.2,57.1,53.8,56.5,53.8,55.7"/>
<path class="st1" d="M53.8,55.7c0-0.7-0.6-1.3-1.3-1.3s-1.3,0.6-1.3,1.3s0.6,1.3,1.3,1.3C53.2,57.1,53.8,56.5,53.8,55.7z"/>
<path class="st11" d="M53.8,12.7c1.9,0,3.4-1.5,3.4-3.4s-1.5-3.4-3.4-3.4s-3.4,1.5-3.4,3.4C50.4,11.1,51.9,12.7,53.8,12.7"/>
<path class="st0" d="M75.1,8.9c-4.7-4.6-14.2-5.8-22.2-5.8c-8.1,0-17.5,1.2-22.2,5.8s-4.5,12.2-4.5,12.2l-1.5,11.5
	c0,0,2.2-2.4,5.9-8.9s13.6-8.1,22.3-8.1s18.6,1.6,22.3,8.1c3.7,6.5,5.9,8.9,5.9,8.9l-2.2-10C78.9,22.6,79.8,13.5,75.1,8.9"/>
<path class="st1" d="M75.1,8.9c-4.7-4.6-14.2-5.8-22.2-5.8c-8.1,0-17.5,1.2-22.2,5.8s-4.5,12.2-4.5,12.2l-1.5,11.5
	c0,0,2.2-2.4,5.9-8.9s13.6-8.1,22.3-8.1s18.6,1.6,22.3,8.1c3.7,6.5,5.9,8.9,5.9,8.9l-2.2-10C78.9,22.6,79.8,13.5,75.1,8.9z"/>
<path class="st4" d="M72.3,8.3c-3.8-2.4-10-3.8-17.8-3.9"/>
<path class="st4" d="M50.5,4.4c-7.9,0.3-14.1,1.8-17.7,4.4"/>
<path class="st5" d="M30,11.6c-2,2.7-3,6-3.5,7.9"/>
<line class="st6" x1="26.4" y1="23.6" x2="26.6" y2="26.2"/>
<path class="st7" d="M27.7,26c0.3-0.6,0.6-1.1,1-1.8"/>
<path class="st8" d="M30.8,21.1c3.7-4.2,10.7-6.5,20.4-6.8"/>
<path class="st8" d="M55.3,14.3c9.8,0.4,16.7,2.9,20.1,7.4"/>
<path class="st7" d="M77.4,24.8c0.4,0.6,0.7,1.2,1,1.8"/>
<line class="st6" x1="79.2" y1="25.3" x2="79.4" y2="22.8"/>
<path class="st5" d="M79,18.8c-0.6-2.1-1.7-5.3-3.8-7.8"/>
<path class="st1" d="M74.7,10.4c-0.2-0.2-0.4-0.4-0.6-0.6c-0.2-0.2-0.4-0.4-0.6-0.5 M79.5,21.9l0.1-0.8c0-0.1-0.1-0.4-0.2-0.8
	 M78.7,27.2c0.1,0.2,0.2,0.4,0.3,0.6l0.1-0.8 M75.9,22.4c0.2,0.2,0.3,0.5,0.4,0.7s0.2,0.4,0.3,0.6 M52,14.3c0.3,0,0.5,0,0.8,0
	s0.5,0,0.8,0 M29,23.6c0.1-0.2,0.2-0.4,0.3-0.6c0.1-0.2,0.3-0.5,0.4-0.7 M26.6,27l0.1,0.8c0.1-0.2,0.2-0.4,0.3-0.6 M26.3,20.3
	c-0.1,0.4-0.1,0.6-0.2,0.8l0.1,0.8 M32.2,9.3c-0.2,0.2-0.4,0.4-0.6,0.5c-0.2,0.2-0.4,0.4-0.6,0.6 M53.7,4.4c-0.3,0-0.5,0-0.8,0
	s-0.5,0-0.8,0"/>
<path class="st0" d="M69.9,5.7c5.1,2.2,8.5,5.9,7.1,11.9c-2.7,11.2-17.3,29.6-22.9,32.3L70.7,71c0.3,0.2,0.6,0.1,0.7-0.2
	c0,0,10.8-28.7,10.6-37.2c-0.2-6.3-1-17.5-3.8-21.9C77.2,10.3,75.1,7.7,69.9,5.7"/>
<path class="st1" d="M69.9,5.7c5.1,2.2,8.5,5.9,7.1,11.9c-2.7,11.2-17.3,29.6-22.9,32.3L70.7,71c0.3,0.2,0.6,0.1,0.7-0.2
	c0,0,10.8-28.7,10.6-37.2c-0.2-6.3-1-17.5-3.8-21.9C77.2,10.3,75.1,7.7,69.9,5.7z"/>
<path class="st10" d="M78.4,13.7c0.1,0.8,0.2,1.7,0.2,2.5"/>
<path class="st12" d="M77.5,20.2c-1.7,4.6-4.4,10.5-8.5,16.5"/>
<path class="st10" d="M66.5,40c-3,4-6,7.4-8.4,9.6"/>
<line class="st13" x1="58.2" y1="52.5" x2="69.7" y2="67.2"/>
<path class="st14" d="M71.6,66.1c2.9-7.3,9.4-23.9,10-34.2"/>
<path class="st1" d="M81.7,31.1c0-0.3,0-0.6,0-0.8 M70.2,67.8l0.5,0.6c0.1-0.2,0.2-0.5,0.3-0.8 M57.4,50.1c-0.2,0.2-0.5,0.4-0.7,0.5
	l0.5,0.6 M68.5,37.3c-0.2,0.2-0.3,0.4-0.5,0.7c-0.2,0.2-0.3,0.5-0.5,0.7 M78.5,17.1c0,0.3-0.1,0.6-0.2,0.8c-0.1,0.3-0.2,0.5-0.3,0.8
	 M77.7,11.2c0,0,0.1,0.3,0.3,0.8"/>
<path class="st0" d="M35.9,5.7c-5.1,2.2-8.5,5.9-7.1,11.9c2.7,11.2,17.3,29.6,22.9,32.3L35.2,71.1c-0.3,0.2-0.6,0.1-0.7-0.2
	c0,0-10.8-28.7-10.6-37.2c0.2-6.3,1-17.5,3.8-21.9C28.7,10.3,30.8,7.7,35.9,5.7"/>
<path class="st1" d="M35.9,5.7c-5.1,2.2-8.5,5.9-7.1,11.9c2.7,11.2,17.3,29.6,22.9,32.3L35.2,71.1c-0.3,0.2-0.6,0.1-0.7-0.2
	c0,0-10.8-28.7-10.6-37.2c0.2-6.3,1-17.5,3.8-21.9C28.7,10.3,30.8,7.7,35.9,5.7z"/>
<path class="st10" d="M27.5,13.7c-0.1,0.8-0.2,1.7-0.2,2.5"/>
<path class="st12" d="M28.4,20.2c1.7,4.6,4.4,10.5,8.5,16.5"/>
<path class="st15" d="M39.4,40c3,4,6,7.4,8.4,9.6"/>
<line class="st13" x1="47.6" y1="52.5" x2="36.1" y2="67.2"/>
<path class="st14" d="M34.2,66.1c-2.9-7.3-9.4-23.9-10-34.2"/>
<path class="st1" d="M24.2,31.1c0-0.3,0-0.6,0-0.8 M35.6,67.8l-0.5,0.6c-0.1-0.2-0.2-0.5-0.3-0.8 M48.4,50.1
	c0.2,0.2,0.5,0.4,0.7,0.5l-0.5,0.6 M37.4,37.3c0.2,0.2,0.3,0.4,0.5,0.7c0.2,0.2,0.3,0.5,0.5,0.7 M27.4,17.1c0,0.3,0.1,0.6,0.2,0.8
	c0.1,0.3,0.2,0.5,0.3,0.8 M28.1,11.2c0,0-0.1,0.3-0.3,0.8"/>
<path class="st11" d="M53.8,12.7c1.9,0,3.4-1.5,3.4-3.4s-1.5-3.4-3.4-3.4s-3.4,1.5-3.4,3.4C50.4,11.1,51.9,12.7,53.8,12.7"/>
</svg>
