<?xml version="1.0" encoding="utf-8"?>
<!-- Generator: Adobe Illustrator 19.1.0, SVG Export Plug-In . SVG Version: 6.00 Build 0)  -->
<svg version="1.1" id="Layer_1" xmlns="http://www.w3.org/2000/svg" xmlns:xlink="http://www.w3.org/1999/xlink" x="0px" y="0px"
	 viewBox="0 0 100 100" style="enable-background:new 0 0 100 100;" xml:space="preserve">
<style type="text/css">
	.st0{fill:#FFFFFF;}
	.st1{fill:none;stroke:#000000;stroke-width:0.25;stroke-miterlimit:10;}
	.st2{fill:none;stroke:#000000;stroke-width:0.25;stroke-miterlimit:10;stroke-dasharray:1.015,1.015;}
	.st3{fill:none;}
	.st4{fill:none;stroke:#000000;stroke-width:0.25;stroke-miterlimit:10;stroke-dasharray:0.971,0.971;}
	.st5{fill:none;stroke:#000000;stroke-width:0.25;stroke-miterlimit:10;stroke-dasharray:0.789,0.789;}
	.st6{fill:none;stroke:#000000;stroke-width:0.25;stroke-miterlimit:10;stroke-dasharray:0.977,0.977;}
	.st7{fill:none;stroke:#000000;stroke-width:0.25;stroke-miterlimit:10;stroke-dasharray:1.026,1.026;}
	.st8{fill:none;stroke:#000000;stroke-width:0.25;stroke-miterlimit:10;stroke-dasharray:0.956,0.956;}
	.st9{fill:none;stroke:#000000;stroke-width:0.25;stroke-miterlimit:10;stroke-dasharray:0.942,0.942;}
	.st10{fill:none;stroke:#000000;stroke-width:0.25;stroke-miterlimit:10;stroke-dasharray:1.02,1.02;}
	.st11{fill:none;stroke:#000000;stroke-width:0.25;stroke-miterlimit:10;stroke-dasharray:1.05,1.05;}
	.st12{fill:#D8D8D8;}
</style>
<path class="st0" d="M100,7c-0.6-2.5-1.2-4.8-1.8-7H0v100h100L100,7z"/>
<g>
	<g>
		<path class="st1" d="M81.5,0C80.6,4.8,80,10.4,80,17c0,12.4-0.3,48.5-0.6,85.2"/>
	</g>
	<g>
		<path class="st1" d="M4.1,101.1c3.6-6.9,5.8-12.9,4.8-13.4"/>
		<path class="st0" d="M-1.2,102.5"/>
		<path class="st1" d="M0.6,99.2c3.6-6.9,7.4-12.1,8.4-11.5L0,82.9"/>
	</g>
	<g>
		<path class="st2" d="M2.6,91.6c-1,1.5-2,3.3-3.1,5.2"/>
		<path class="st1" d="M-9,78.2 M4.4,89.1c-0.1,0.1-0.2,0.3-0.3,0.4c-0.2,0.2-0.3,0.5-0.5,0.7 M5.6,87.6c-0.1,0.1-0.3,0.3-0.4,0.3
			c-0.1,0.1-0.2,0.2-0.3,0.4 M6.7,86.5c0,0-0.1,0.2-0.4,0.4"/>
		<path class="st1" d="M98,0c0.9,3.2,1.8,6.8,2.7,10.9"/>
		<path class="st3" d="M69.2,39.2H34.5v27.7c0,5,4.3,5.6,5.6,5.6h24.5c3.4,0,4.6-3.3,4.6-4.6V39.2z"/>
		<path class="st1" d="M69.2,39.2H34.5v27.7c0,5,4.3,5.6,5.6,5.6h24.5c3.4,0,4.6-3.3,4.6-4.6V39.2z"/>
	</g>
	<line class="st1" x1="67.3" y1="39.3" x2="67.3" y2="39.9"/>
	<g>
		<line class="st4" x1="67.3" y1="43.4" x2="67.3" y2="65.5"/>
		<path class="st5" d="M66.6,69.1c-0.3,0.5-0.8,1-1.5,1.3"/>
		<line class="st6" x1="61.4" y1="70.6" x2="42.4" y2="70.6"/>
		<path class="st7" d="M38.2,70c-0.7-0.4-1.3-1-1.6-2"/>
		<line class="st8" x1="36.4" y1="63.8" x2="36.4" y2="42"/>
		<path class="st1" d="M36.4,41.2v-0.8 M36.4,67.1c0-0.3-0.1-0.6-0.1-0.9v-0.8 M41.5,70.6h-0.8c-0.2,0-0.5,0-0.9-0.1 M64.5,70.5
			c-0.2,0-0.4,0.1-0.7,0.1H63 M67.3,66.4v0.8c0,0.1,0,0.4-0.1,0.7 M67.3,40.9v0.8"/>
	</g>
	<line class="st1" x1="36.4" y1="39.9" x2="36.4" y2="39.3"/>
	<line class="st1" x1="17.7" y1="8.2" x2="17.7" y2="11"/>
	<g>
		<line class="st1" x1="22.3" y1="0" x2="22.3" y2="100"/>
		<line class="st1" x1="13.1" y1="100" x2="13.1" y2="0"/>
		<path class="st0" d="M19.1,8.2c0-0.8-0.6-1.4-1.4-1.4c-0.8,0-1.4,0.6-1.4,1.4c0,0.8,0.6,1.4,1.4,1.4C18.5,9.6,19.1,9,19.1,8.2"/>
		<circle class="st1" cx="17.7" cy="8.2" r="1.4"/>
	</g>
	<line class="st1" x1="17.7" y1="37.4" x2="17.7" y2="40.1"/>
	<g>
		<path class="st0" d="M19.1,37.3c0-0.8-0.6-1.4-1.4-1.4c-0.8,0-1.4,0.6-1.4,1.4c0,0.8,0.6,1.4,1.4,1.4
			C18.5,38.7,19.1,38.1,19.1,37.3"/>
		<circle class="st1" cx="17.7" cy="37.3" r="1.4"/>
	</g>
	<line class="st1" x1="17.7" y1="66.5" x2="17.7" y2="69.3"/>
	<g>
		<path class="st0" d="M19.1,66.5c0-0.8-0.6-1.4-1.4-1.4c-0.8,0-1.4,0.6-1.4,1.4c0,0.8,0.6,1.4,1.4,1.4
			C18.5,67.9,19.1,67.3,19.1,66.5"/>
		<circle class="st1" cx="17.7" cy="66.5" r="1.4"/>
	</g>
	<line class="st1" x1="17.7" y1="95.7" x2="17.7" y2="98.4"/>
	<g>
		<path class="st0" d="M19.1,95.6c0-0.8-0.6-1.4-1.4-1.4c-0.8,0-1.4,0.6-1.4,1.4c0,0.8,0.6,1.4,1.4,1.4C18.5,97,19.1,96.4,19.1,95.6
			"/>
		<circle class="st1" cx="17.7" cy="95.7" r="1.4"/>
	</g>
	<line class="st9" x1="37.2" y1="46.1" x2="67.4" y2="46.3"/>
	<g>
		<path class="st0" d="M37.2,8.9c0.3,0.2,0.7,0.1,0.7-0.2"/>
		<path class="st1" d="M30.2,0l7,8.9c0.3,0.2,0.7,0.1,0.7-0.2c0,0,1.6-4.2,3.5-9.9"/>
		<line class="st10" x1="32.4" y1="0" x2="36.2" y2="4.7"/>
		<path class="st11" d="M38.2,3.6c0.4-1,0.9-2.3,1.4-3.6"/>
		<path class="st1" d="M36.7,5.4l0.5,0.7c0.1-0.2,0.2-0.5,0.3-0.8"/>
		<path class="st0" d="M-0.7,8.9C-1,9.2-1.4,9.1-1.4,8.8"/>
		<path class="st1" d="M6.3,0L0,8l-0.7,0.9C-1,9.2-1.4,9.1-1.4,8.8"/>
		<line class="st10" x1="4.7" y1="-0.8" x2="0.3" y2="4.7"/>
		<path class="st11" d="M-1.7,3.6"/>
		<path class="st1" d="M-0.2,5.4l-0.5,0.7c-0.1-0.2-0.2-0.5-0.3-0.8"/>
	</g>
	<g>
		<g>
			<defs>
				<rect id="SVGID_1_" x="31.3" y="24.7" width="41.9" height="25"/>
			</defs>
			<clipPath id="SVGID_2_">
				<use xlink:href="#SVGID_1_"  style="overflow:visible;"/>
			</clipPath>
		</g>
		<g>
			<defs>
				<line id="SVGID_3_" x1="39.8" y1="-74.9" x2="-2.2" y2="-74.9"/>
			</defs>
			<clipPath id="SVGID_4_">
				<use xlink:href="#SVGID_3_"  style="overflow:visible;"/>
			</clipPath>
		</g>
	</g>
</g>
<path class="st12" d="M51.5,48.8c1.9,0,3.4-1.5,3.4-3.4S53.4,42,51.5,42c-1.9,0-3.4,1.5-3.4,3.4S49.6,48.8,51.5,48.8"/>
</svg>
