<?xml version="1.0" encoding="utf-8"?>
<!-- Generator: Adobe Illustrator 19.1.0, SVG Export Plug-In . SVG Version: 6.00 Build 0)  -->
<svg version="1.1" id="Layer_1" xmlns="http://www.w3.org/2000/svg" xmlns:xlink="http://www.w3.org/1999/xlink" x="0px" y="0px"
	 viewBox="0 0 100 100" style="enable-background:new 0 0 100 100;" xml:space="preserve">
<style type="text/css">
	.st0{fill:#FFFFFF;}
	.st1{fill:none;stroke:#000000;stroke-width:0.25;stroke-miterlimit:10;}
	.st2{fill:none;stroke:#000000;stroke-width:0.25;stroke-miterlimit:10;stroke-dasharray:0.983,0.983;}
	.st3{fill:none;stroke:#000000;stroke-width:0.25;stroke-miterlimit:10;stroke-dasharray:0.654,0.654;}
	.st4{fill:none;stroke:#000000;stroke-width:0.25;stroke-miterlimit:10;stroke-dasharray:1.148,1.148;}
	.st5{fill:none;stroke:#000000;stroke-width:0.25;stroke-miterlimit:10;stroke-dasharray:0.874,0.874;}
	.st6{fill:none;stroke:#000000;stroke-width:0.25;stroke-miterlimit:10;stroke-dasharray:0.799,0.799;}
	.st7{fill:none;stroke:#000000;stroke-width:0.25;stroke-miterlimit:10;stroke-dasharray:1.044,1.044;}
	.st8{fill:none;stroke:#000000;stroke-width:0.25;stroke-miterlimit:10;stroke-dasharray:0.879,0.879;}
	.st9{fill:none;stroke:#000000;stroke-width:0.25;stroke-miterlimit:10;stroke-dasharray:1.015,1.015;}
	.st10{fill:none;stroke:#000000;stroke-width:0.25;stroke-miterlimit:10;stroke-dasharray:0.86,0.86;}
	.st11{fill:none;stroke:#000000;stroke-width:0.25;stroke-miterlimit:10;stroke-dasharray:1.022,1.022;}
	.st12{fill:none;stroke:#000000;stroke-width:0.25;stroke-miterlimit:10;stroke-dasharray:1.109,1.109;}
	.st13{fill:none;stroke:#000000;stroke-width:0.25;stroke-miterlimit:10;stroke-dasharray:1.205,1.205;}
	.st14{fill:none;stroke:#000000;stroke-width:0.25;stroke-miterlimit:10;stroke-dasharray:0.971,0.971;}
	.st15{fill:none;stroke:#000000;stroke-width:0.25;stroke-miterlimit:10;stroke-dasharray:0.789,0.789;}
	.st16{fill:none;stroke:#000000;stroke-width:0.25;stroke-miterlimit:10;stroke-dasharray:0.977,0.977;}
	.st17{fill:none;stroke:#000000;stroke-width:0.25;stroke-miterlimit:10;stroke-dasharray:1.026,1.026;}
	.st18{fill:none;stroke:#000000;stroke-width:0.25;stroke-miterlimit:10;stroke-dasharray:0.956,0.956;}
	.st19{fill:none;stroke:#000000;stroke-width:0.25;stroke-miterlimit:10;stroke-dasharray:1.08,1.08;}
	.st20{fill:none;stroke:#000000;stroke-width:0.25;stroke-miterlimit:10;stroke-dasharray:1.059,1.059;}
	.st21{opacity:0.2;}
	.st22{fill:#D8D8D8;}
</style>
<g>
	<path class="st0" d="M97.9,80.1c0.3-10.5,0.5-20.2,0.5-29.2c0.1-20.5-0.6-37.2-1.7-50.9C96.7,0,0,0,0,0c0,0,0,0,0,0
		c0,0,0,100,0,100s75.3,1.3,75.3,0.6l0-1v-1c0.5,0,1,0,1.6,0l20.3,0L97.9,80.1z M-18.8,30.3L-18.8,30.3L-18.8,30.3
		C-18.9,30.2-18.8,30.3-18.8,30.3z"/>
</g>
<g>
	<g>
		<path class="st1" d="M10.1,42.5c0,0.1-0.1,0.3-0.1,0.4l-0.4-0.2 M76-1.3c-0.2,24.9-0.5,59.9-0.6,84.1 M31.8-1.3V100 M24.8,100
			L24.8,100L24.7-1.5 M75.3,98.6c0,1.1,0,2.2,0,3.1"/>
	</g>
	<line class="st2" x1="8.8" y1="42.3" x2="-1.3" y2="36.9"/>
	<g>
		<path class="st1" d="M-1.7,36.7l-0.4-0.2c0-0.1,0.1-0.3,0.1-0.4"/>
		<path class="st3" d="M-1.7,35.4c0.2-0.6,0.5-1.4,1-2.4"/>
		<path class="st1" d="M-0.6,32.7c0.1-0.1,0.1-0.3,0.2-0.4L0,32.5"/>
		<line class="st4" x1="2.8" y1="34" x2="7.4" y2="36.5"/>
		<line class="st5" x1="9.4" y1="38.7" x2="10.1" y2="40.3"/>
		<path class="st1" d="M10.3,40.8l0.2,0.5c-0.1,0.2-0.2,0.5-0.3,0.7 M8,36.8l0.7,0.4l0.2,0.5 M0.8,32.9l0.7,0.4"/>
		<path class="st1" d="M-4.8,36.8c0.8,0.4,1.2,0.6,1.2,0.6l2.5,1.3L8.9,19.5l-2.5-1.3l-9.4-5.4 M-3.7,37.4l15,7.9
			c0.8,0.4,3.6-3.6,6.4-8.9c2.8-5.3,4.5-9.9,3.7-10.3l-15-7.9L-3.7,37.4z"/>
		<path class="st0" d="M12.1,41.3c-0.8,2.3-1.2,3.8-0.8,4l-15-7.9c-0.4-0.2,0.7-3.2,2.6-7.2l11,5.8C12.2,37.2,12.8,39.4,12.1,41.3"
			/>
		<path class="st1" d="M12.1,41.3c-0.8,2.3-1.2,3.8-0.8,4l-15-7.9c-0.4-0.2,0.7-3.2,2.6-7.2l11,5.8C12.2,37.2,12.8,39.4,12.1,41.3z"
			/>
		<path class="st6" d="M10.8,39.3c-0.1-0.4-0.3-0.9-0.8-1.3"/>
		<line class="st7" x1="7.3" y1="36.4" x2="0.7" y2="32.9"/>
		<path class="st8" d="M-1.2,33.8c-0.3,0.6-0.5,1.2-0.6,1.6"/>
		<path class="st1" d="M-2.4,37.6c0,0.2,0,0.4,0,0.4 M-2,35.9c-0.1,0.2-0.1,0.4-0.2,0.5c0,0.1-0.1,0.2-0.1,0.4 M0.1,32.6l-0.6-0.3
			c-0.1,0.2-0.2,0.4-0.2,0.5 M9.6,37.6c-0.1-0.1-0.3-0.2-0.4-0.3L8.5,37 M10.5,41.3c0.1-0.2,0.1-0.3,0.2-0.5c0-0.1,0.1-0.3,0.1-0.5
			 M9.9,43.3c0-0.1,0.1-0.3,0.1-0.4c0-0.2,0.1-0.4,0.2-0.5 M9.6,44.4c0,0,0-0.2,0.1-0.4"/>
		<path class="st0" d="M13.7,37.5c0.4-0.8,0.9-1.6,1.4-2.5c2.8-5.3,5.7-9.3,6.4-8.9l-15-7.9c-0.5-0.3-3.3,3.8-6.1,9.1
			C-0.9,29.7-2,32-2.7,33.8l10.6,5.6C10.2,40.6,12.5,39.6,13.7,37.5"/>
		<path class="st1" d="M13.7,37.5c0.4-0.8,0.9-1.6,1.4-2.5c2.8-5.3,5.7-9.3,6.4-8.9l-15-7.9c-0.5-0.3-3.3,3.8-6.1,9.1
			C-0.9,29.7-2,32-2.7,33.8l10.6,5.6C10.2,40.6,12.5,39.6,13.7,37.5z"/>
	</g>
	<line class="st1" x1="7.2" y1="32.2" x2="6.3" y2="33.9"/>
	<g>
		<path class="st0" d="M5.2,33.6c-0.3,0.6-0.1,1.3,0.5,1.6c0.6,0.3,1.3,0.1,1.6-0.5c0.3-0.6,0.1-1.3-0.5-1.6
			C6.2,32.8,5.5,33,5.2,33.6"/>
		<path class="st1" d="M5.2,33.6c-0.3,0.6-0.1,1.3,0.5,1.6c0.6,0.3,1.3,0.1,1.6-0.5c0.3-0.6,0.1-1.3-0.5-1.6
			C6.2,32.8,5.5,33,5.2,33.6z"/>
		<path class="st9" d="M16.6,29.1c-0.8,1.2-1.6,2.5-2.4,4"/>
		<path class="st10" d="M11.2,38c-0.5,0.3-1,0.5-1.6,0.4"/>
		<line class="st11" x1="6.8" y1="37.1" x2="0.3" y2="33.7"/>
		<path class="st12" d="M0.1,31.2c0.3-0.6,0.6-1.3,1-1.9"/>
		<path class="st13" d="M2.8,25.9c1.1-2,2.1-3.6,2.8-4.7"/>
		<path class="st1" d="M7.4,19.1c0.2-0.2,0.3-0.3,0.3-0.3 M6.1,20.5c0.2-0.2,0.3-0.5,0.5-0.6c0.1-0.1,0.2-0.2,0.3-0.3 M1.4,28.6
			c0.1-0.2,0.2-0.4,0.3-0.6c0.1-0.2,0.2-0.5,0.4-0.7 M-0.3,33.4l-0.6-0.3c0.1-0.2,0.2-0.4,0.3-0.7 M9.1,38.3
			c-0.2-0.1-0.3-0.1-0.5-0.2L8,37.8 M12.9,35.7c-0.1,0.2-0.2,0.3-0.3,0.5l-0.3,0.5c-0.1,0.2-0.2,0.3-0.3,0.5 M14,33.7
			c-0.1,0.2-0.2,0.4-0.3,0.6c-0.1,0.2-0.2,0.3-0.3,0.5 M18,27.2c-0.1,0.1-0.1,0.2-0.2,0.3c-0.1,0.2-0.3,0.4-0.4,0.5 M19,26
			c-0.1,0.1-0.2,0.2-0.3,0.3c-0.1,0.1-0.2,0.2-0.2,0.3 M19.8,25.2c0,0-0.1,0.1-0.3,0.3"/>
		<path class="st1" d="M96.5-1.4c2,23.2,2.7,55.4,0.6,99.9c0,0-15.7,0-23.5,0l0-15.6h24.2"/>
		<path class="st0" d="M41.1,10.1c0,3.8,3.3,4.3,4.3,4.3h18.8c2.7,0,3.6-2.5,3.6-3.5"/>
		<path class="st1" d="M41.1-1.8v12c0,3.8,3.3,4.3,4.3,4.3h18.8c2.7,0,3.6-2.5,3.6-3.5V-2"/>
	</g>
	<g>
		<line class="st14" x1="66.4" y1="-1" x2="66.4" y2="9.1"/>
		<path class="st15" d="M65.9,11.8c-0.3,0.4-0.6,0.8-1.1,1"/>
		<line class="st16" x1="61.8" y1="13" x2="47.2" y2="13"/>
		<path class="st17" d="M44,12.5c-0.5-0.3-1-0.8-1.2-1.5"/>
		<line class="st18" x1="42.6" y1="7.8" x2="42.6" y2="-2"/>
		<path class="st1" d="M42.7,10.3c0-0.2,0-0.4,0-0.7V9 M46.6,13h-0.6c-0.1,0-0.4,0-0.7-0.1 M64.2,12.9c-0.2,0-0.3,0-0.5,0h-0.6
			 M66.4,9.7v0.6c0,0.1,0,0.3-0.1,0.5"/>
	</g>
	<line class="st1" x1="28.3" y1="9.8" x2="28.3" y2="12"/>
	<g>
		<path class="st0" d="M29.3,9.8c0-0.6-0.5-1.1-1.1-1.1c-0.6,0-1.1,0.5-1.1,1.1c0,0.6,0.5,1.1,1.1,1.1C28.9,10.9,29.3,10.4,29.3,9.8
			"/>
		<circle class="st1" cx="28.3" cy="9.8" r="1.1"/>
	</g>
	<line class="st1" x1="28.3" y1="32.3" x2="28.3" y2="34.4"/>
	<g>
		<path class="st0" d="M29.3,32.2c0-0.6-0.5-1.1-1.1-1.1c-0.6,0-1.1,0.5-1.1,1.1c0,0.6,0.5,1.1,1.1,1.1
			C28.9,33.3,29.3,32.8,29.3,32.2"/>
		<circle class="st1" cx="28.3" cy="32.3" r="1.1"/>
	</g>
	<line class="st1" x1="28.3" y1="54.7" x2="28.3" y2="56.8"/>
	<g>
		<path class="st0" d="M29.3,54.7c0-0.6-0.5-1.1-1.1-1.1c-0.6,0-1.1,0.5-1.1,1.1c0,0.6,0.5,1.1,1.1,1.1
			C28.9,55.7,29.3,55.3,29.3,54.7"/>
		<circle class="st1" cx="28.3" cy="54.7" r="1.1"/>
	</g>
	<line class="st19" x1="73.7" y1="84.7" x2="97.5" y2="84.7"/>
	<line class="st19" x1="73.5" y1="96.9" x2="97.3" y2="96.9"/>
	<path class="st1" d="M-1.2,30.6l-0.4-0.2 M-4.4,33l1.7,0.9"/>
	<line class="st20" x1="-2.4" y1="30" x2="-3.9" y2="29.2"/>
	<line class="st1" x1="30" y1="76.9" x2="28.7" y2="76.9"/>
	<g>
		<path class="st0" d="M29.3,76.8c0-0.6-0.5-1.1-1.1-1.1c-0.6,0-1.1,0.5-1.1,1.1c0,0.6,0.5,1.1,1.1,1.1
			C28.9,77.9,29.3,77.4,29.3,76.8"/>
		<path class="st1" d="M29.3,76.8c0-0.6-0.5-1.1-1.1-1.1c-0.6,0-1.1,0.5-1.1,1.1c0,0.6,0.5,1.1,1.1,1.1
			C28.9,77.9,29.3,77.4,29.3,76.8z"/>
		<g class="st21">
			<g>
				<defs>
					<path id="SVGID_1_" d="M70.9-3"/>
				</defs>
				<clipPath id="SVGID_2_">
					<use xlink:href="#SVGID_1_"  style="overflow:visible;"/>
				</clipPath>
			</g>
		</g>
		<g class="st21">
			<g>
				<defs>
					<line id="SVGID_3_" x1="45.2" y1="-99" x2="13" y2="-99"/>
				</defs>
				<clipPath id="SVGID_4_">
					<use xlink:href="#SVGID_3_"  style="overflow:visible;"/>
				</clipPath>
			</g>
		</g>
	</g>
</g>
<path class="st22" d="M50.5,51.1c1.9,0,3.4-1.5,3.4-3.4s-1.5-3.4-3.4-3.4c-1.9,0-3.4,1.5-3.4,3.4S48.6,51.1,50.5,51.1"/>
</svg>
