<?xml version="1.0" encoding="utf-8"?>
<!-- Generator: Adobe Illustrator 19.1.0, SVG Export Plug-In . SVG Version: 6.00 Build 0)  -->
<svg version="1.1" id="Layer_1" xmlns="http://www.w3.org/2000/svg" xmlns:xlink="http://www.w3.org/1999/xlink" x="0px" y="0px"
	 viewBox="0 0 100 100" style="enable-background:new 0 0 100 100;" xml:space="preserve">
<style type="text/css">
	.st0{fill:#FFFFFF;}
	.st1{fill:#CFCECE;}
	.st2{fill:none;stroke:#000000;stroke-width:0.25;stroke-miterlimit:10;}
	.st3{fill:none;stroke:#000000;stroke-width:0.25;stroke-miterlimit:10;stroke-dasharray:0.983,0.983;}
	.st4{fill:none;stroke:#000000;stroke-width:0.25;stroke-miterlimit:10;stroke-dasharray:0.654,0.654;}
	.st5{fill:none;stroke:#000000;stroke-width:0.25;stroke-miterlimit:10;stroke-dasharray:1.148,1.148;}
	.st6{fill:none;stroke:#000000;stroke-width:0.25;stroke-miterlimit:10;stroke-dasharray:0.874,0.874;}
	.st7{fill:none;stroke:#000000;stroke-width:0.25;stroke-miterlimit:10;stroke-dasharray:0.799,0.799;}
	.st8{fill:none;stroke:#000000;stroke-width:0.25;stroke-miterlimit:10;stroke-dasharray:1.044,1.044;}
	.st9{fill:none;stroke:#000000;stroke-width:0.25;stroke-miterlimit:10;stroke-dasharray:0.879,0.879;}
	.st10{fill:none;stroke:#000000;stroke-width:0.25;stroke-miterlimit:10;stroke-dasharray:1.015,1.015;}
	.st11{fill:none;stroke:#000000;stroke-width:0.25;stroke-miterlimit:10;stroke-dasharray:0.86,0.86;}
	.st12{fill:none;stroke:#000000;stroke-width:0.25;stroke-miterlimit:10;stroke-dasharray:1.022,1.022;}
	.st13{fill:none;stroke:#000000;stroke-width:0.25;stroke-miterlimit:10;stroke-dasharray:1.109,1.109;}
	.st14{fill:none;stroke:#000000;stroke-width:0.25;stroke-miterlimit:10;stroke-dasharray:1.205,1.205;}
	.st15{fill:none;stroke:#000000;stroke-width:0.25;stroke-miterlimit:10;stroke-dasharray:0.971,0.971;}
	.st16{fill:none;stroke:#000000;stroke-width:0.25;stroke-miterlimit:10;stroke-dasharray:0.789,0.789;}
	.st17{fill:none;stroke:#000000;stroke-width:0.25;stroke-miterlimit:10;stroke-dasharray:0.977,0.977;}
	.st18{fill:none;stroke:#000000;stroke-width:0.25;stroke-miterlimit:10;stroke-dasharray:1.026,1.026;}
	.st19{fill:none;stroke:#000000;stroke-width:0.25;stroke-miterlimit:10;stroke-dasharray:0.956,0.956;}
	.st20{fill:none;stroke:#000000;stroke-width:0.25;stroke-miterlimit:10;stroke-dasharray:1.08,1.08;}
	.st21{fill:none;stroke:#000000;stroke-width:0.25;stroke-miterlimit:10;stroke-dasharray:1.059,1.059;}
	.st22{fill:none;stroke:#000000;stroke-width:0.25;stroke-miterlimit:10;stroke-dasharray:0.303,0.303;}
	.st23{fill:none;stroke:#000000;stroke-width:0.25;stroke-miterlimit:10;stroke-dasharray:0.942,0.942;}
</style>
<path class="st0" d="M89.5,69c1-31,0.1-53.2-1.7-69c0-0.3-0.1-0.7-0.1-1L0.4-3.4l-0.6,87.8c0,0,5.5,1.3,13,7.3
	c7.8,6.2,14.3,6.4,20.5,6.4l0,0l0,1.2h4.1c6.2,0,13.9-0.2,21.7-6.4c7.5-6,13-7.3,13-7.3c0-0.8,0-1.6,0-2.4l0,0c0.4,0,0.8,0,1.2,0
	l15.6,0L89.5,69z"/>
<path class="st1" d="M85.7,82.9c1.9,0,3.4-1.5,3.4-3.4c0-1.9-1.5-3.4-3.4-3.4c-1.9,0-3.4,1.5-3.4,3.4C82.3,81.3,83.9,82.9,85.7,82.9
	"/>
<g>
	<g>
		<path class="st2" d="M22,40.1c0,0.1-0.1,0.2-0.1,0.3l-0.3-0.2 M72.7-1c-0.1,19-0.4,50.9-0.5,72.1 M38.7-1.7V99.4 M72.1,83.2
			c0,0.8,0,1.7,0,2.4c0,0-5.5,1.3-13,7.3c-7.8,6.2-15.5,6.4-21.7,6.4h-4.1l0-4.1v-97"/>
	</g>
	<line class="st3" x1="21" y1="40" x2="13.2" y2="35.8"/>
	<g>
		<path class="st2" d="M12.9,35.7l-0.3-0.2c0-0.1,0.1-0.2,0.1-0.3"/>
		<path class="st4" d="M12.9,34.7c0.2-0.5,0.4-1.1,0.8-1.8"/>
		<path class="st2" d="M13.8,32.6c0-0.1,0.1-0.2,0.1-0.3l0.3,0.2"/>
		<line class="st5" x1="16.3" y1="33.6" x2="19.9" y2="35.5"/>
		<line class="st6" x1="21.4" y1="37.2" x2="21.9" y2="38.4"/>
		<path class="st2" d="M22.1,38.8l0.2,0.4c-0.1,0.2-0.1,0.4-0.2,0.5 M20.4,35.7l0.5,0.3l0.2,0.4 M14.8,32.8l0.5,0.3"/>
		<path class="st2" d="M-4,28.9c7.9,3.7,15.4,7.3,15.4,7.3l1.9,1l7.8-14.8l-1.9-1L-2.7,8.9 M11.4,36.2l11.5,6.1
			c0.6,0.3,2.8-2.8,5-6.8c2.2-4.1,3.4-7.6,2.9-7.9l-11.5-6.1L11.4,36.2z"/>
		<path class="st0" d="M23.5,39.2c-0.6,1.8-0.9,2.9-0.6,3.1l-11.5-6.1c-0.3-0.2,0.5-2.5,2-5.5l8.4,4.5C23.6,36.1,24,37.7,23.5,39.2"
			/>
		<path class="st2" d="M23.5,39.2c-0.6,1.8-0.9,2.9-0.6,3.1l-11.5-6.1c-0.3-0.2,0.5-2.5,2-5.5l8.4,4.5C23.6,36.1,24,37.7,23.5,39.2z
			"/>
		<path class="st7" d="M22.5,37.6c-0.1-0.3-0.2-0.7-0.6-1"/>
		<line class="st8" x1="19.9" y1="35.4" x2="14.8" y2="32.7"/>
		<path class="st9" d="M13.3,33.4c-0.2,0.5-0.4,0.9-0.5,1.2"/>
		<path class="st2" d="M12.4,36.4c0,0.2,0,0.3,0,0.3 M12.7,35.1c-0.1,0.2-0.1,0.3-0.1,0.4c0,0.1-0.1,0.2-0.1,0.3 M14.3,32.5
			l-0.5-0.2c-0.1,0.1-0.1,0.3-0.2,0.4 M21.6,36.3c-0.1-0.1-0.2-0.1-0.3-0.2l-0.5-0.2 M22.3,39.2c0-0.1,0.1-0.3,0.1-0.4
			c0-0.1,0.1-0.2,0.1-0.4 M21.8,40.7c0-0.1,0-0.2,0.1-0.3c0-0.1,0.1-0.3,0.1-0.4 M21.6,41.6c0,0,0-0.1,0-0.3"/>
		<path class="st0" d="M24.7,36.3c0.3-0.6,0.7-1.3,1.1-1.9c2.2-4.1,4.4-7.1,5-6.8l-11.5-6.1c-0.4-0.2-2.5,2.9-4.7,7
			c-1,1.9-1.8,3.7-2.4,5l8.2,4.3C22.1,38.7,23.8,37.8,24.7,36.3"/>
		<path class="st2" d="M19.2,21.4c-0.4-0.2-2.5,2.9-4.7,7c-1,1.9-1.8,3.7-2.4,5l8.2,4.3c1.8,0.9,3.6,0.1,4.4-1.5
			c0.3-0.6,0.7-1.3,1.1-1.9c2.2-4.1,4.4-7.1,5-6.8"/>
		<path class="st2" d="M19.2,21.4"/>
		<path class="st2" d="M30.7,27.5"/>
	</g>
	<line class="st2" x1="19.8" y1="32.2" x2="19.1" y2="33.5"/>
	<g>
		<path class="st0" d="M18.2,33.2c-0.2,0.4-0.1,1,0.4,1.2c0.4,0.2,1,0.1,1.2-0.4c0.2-0.4,0.1-1-0.4-1.2C19,32.6,18.4,32.8,18.2,33.2
			"/>
		<path class="st2" d="M18.2,33.2c-0.2,0.4-0.1,1,0.4,1.2c0.4,0.2,1,0.1,1.2-0.4c0.2-0.4,0.1-1-0.4-1.2C19,32.6,18.4,32.8,18.2,33.2
			z"/>
		<path class="st10" d="M27,29.8c-0.6,0.9-1.2,1.9-1.8,3.1"/>
		<path class="st11" d="M22.8,36.6C22.5,36.9,22,37,21.6,37"/>
		<line class="st12" x1="19.4" y1="36" x2="14.5" y2="33.4"/>
		<path class="st13" d="M14.3,31.4c0.2-0.5,0.5-1,0.7-1.5"/>
		<path class="st14" d="M16.4,27.3c0.9-1.5,1.6-2.8,2.2-3.6"/>
		<path class="st2" d="M19.9,22.1c0.1-0.1,0.2-0.2,0.2-0.2 M18.9,23.2c0.1-0.2,0.3-0.4,0.4-0.5c0.1-0.1,0.1-0.1,0.2-0.2 M15.3,29.4
			c0.1-0.2,0.2-0.3,0.3-0.5c0.1-0.2,0.2-0.4,0.3-0.5 M14,33.1l-0.5-0.2c0.1-0.2,0.1-0.3,0.2-0.5 M21.2,36.9c-0.1,0-0.3-0.1-0.4-0.2
			l-0.5-0.2 M24.1,34.9C24,35,24,35.2,23.9,35.3l-0.2,0.4c-0.1,0.1-0.1,0.2-0.2,0.4 M25,33.3c-0.1,0.1-0.2,0.3-0.2,0.4
			c-0.1,0.1-0.1,0.3-0.2,0.4 M28,28.3c-0.1,0.1-0.1,0.2-0.2,0.2c-0.1,0.1-0.2,0.3-0.3,0.4 M28.8,27.5c-0.1,0.1-0.2,0.2-0.2,0.2
			c-0.1,0.1-0.1,0.1-0.2,0.2 M29.4,26.8c0,0-0.1,0.1-0.2,0.2"/>
		<path class="st2" d="M87.7-1c2.1,18.2,3,45,1.2,84.2c0,0-12.1,0-18.1,0l0-12h18.6"/>
		<path class="st0" d="M66.4-1.2H45.9v16.4c0,2.9,2.5,3.3,3.3,3.3h14.5c2,0,2.7-1.9,2.7-2.7V-1.2z"/>
		<path class="st2" d="M66.4-1.2H45.9v16.4c0,2.9,2.5,3.3,3.3,3.3h14.5c2,0,2.7-1.9,2.7-2.7V-1.2z"/>
	</g>
	<line class="st2" x1="65.3" y1="-1.1" x2="65.3" y2="-0.8"/>
	<g>
		<line class="st15" x1="65.3" y1="1.3" x2="65.3" y2="14.4"/>
		<path class="st16" d="M64.9,16.5c-0.2,0.3-0.5,0.6-0.9,0.8"/>
		<line class="st17" x1="61.8" y1="17.4" x2="50.5" y2="17.4"/>
		<path class="st18" d="M48.1,17c-0.4-0.2-0.7-0.6-0.9-1.2"/>
		<line class="st19" x1="47" y1="13.4" x2="47" y2="0.5"/>
		<path class="st2" d="M47,0v-0.5 M47,15.3c0-0.2,0-0.3,0-0.5v-0.5 M50,17.4h-0.5c-0.1,0-0.3,0-0.5,0 M63.6,17.4c-0.1,0-0.3,0-0.4,0
			h-0.5 M65.3,14.9v0.5c0,0.1,0,0.2-0.1,0.4 M65.3-0.2v0.5"/>
	</g>
	<line class="st2" x1="47" y1="-0.8" x2="47" y2="-1.1"/>
	<line class="st2" x1="36" y1="15" x2="36" y2="16.6"/>
	<g>
		<path class="st0" d="M36.8,15c0-0.5-0.4-0.8-0.8-0.8c-0.5,0-0.8,0.4-0.8,0.8c0,0.5,0.4,0.8,0.8,0.8C36.4,15.8,36.8,15.4,36.8,15"
			/>
		<circle class="st2" cx="36" cy="15" r="0.8"/>
	</g>
	<line class="st2" x1="36" y1="32.2" x2="36" y2="33.9"/>
	<g>
		<path class="st0" d="M36.8,32.2c0-0.5-0.4-0.8-0.8-0.8c-0.5,0-0.8,0.4-0.8,0.8c0,0.5,0.4,0.8,0.8,0.8C36.4,33,36.8,32.7,36.8,32.2
			"/>
		<circle class="st2" cx="36" cy="32.2" r="0.8"/>
	</g>
	<line class="st2" x1="36" y1="49.5" x2="36" y2="51.1"/>
	<g>
		<path class="st0" d="M36.8,49.5c0-0.5-0.4-0.8-0.8-0.8c-0.5,0-0.8,0.4-0.8,0.8c0,0.5,0.4,0.8,0.8,0.8
			C36.4,50.3,36.8,49.9,36.8,49.5"/>
		<circle class="st2" cx="36" cy="49.5" r="0.8"/>
	</g>
	<g>
		<path class="st2" d="M-0.3,84.4c0,0,5.5,1.3,13,7.3c7.8,6.2,14.3,6.4,20.5,6.4"/>
	</g>
	<line class="st20" x1="70.9" y1="72.6" x2="89.2" y2="72.6"/>
	<line class="st20" x1="70.7" y1="82" x2="89.1" y2="82"/>
	<path class="st2" d="M13.3,31L13,30.8 M-1.7,26.4l13.8,7.1"/>
	<line class="st21" x1="12.3" y1="30.5" x2="0.1" y2="24.1"/>
	<polyline class="st2" points="-0.2,23.9 -0.5,23.8 -0.6,24.1 	"/>
	<line class="st22" x1="-0.9" y1="24.6" x2="-1.3" y2="25.4"/>
	<line class="st2" x1="-1.4" y1="25.7" x2="-1.6" y2="26"/>
	<g>
		<path class="st0" d="M6.2,28.4c0-0.5-0.4-0.8-0.8-0.8c-0.5,0-0.8,0.4-0.8,0.8c0,0.5,0.4,0.8,0.8,0.8C5.8,29.2,6.2,28.9,6.2,28.4"
			/>
		<circle class="st2" cx="5.4" cy="28.4" r="0.8"/>
	</g>
	<line class="st23" x1="47.5" y1="2.9" x2="65.3" y2="3"/>
	<line class="st2" x1="37.3" y1="66.6" x2="36.3" y2="66.6"/>
	<g>
		<path class="st0" d="M36.8,66.5c0-0.5-0.4-0.8-0.8-0.8c-0.5,0-0.8,0.4-0.8,0.8c0,0.5,0.4,0.8,0.8,0.8
			C36.4,67.3,36.8,66.9,36.8,66.5"/>
		<circle class="st2" cx="36" cy="66.5" r="0.8"/>
		<g>
			<defs>
				<rect id="SVGID_1_" x="44" y="-9.7" width="24.8" height="14.8"/>
			</defs>
			<clipPath id="SVGID_2_">
				<use xlink:href="#SVGID_1_"  style="overflow:visible;"/>
			</clipPath>
		</g>
		<g>
			<defs>
				<line id="SVGID_3_" x1="49" y1="-68.7" x2="24.2" y2="-68.7"/>
			</defs>
			<clipPath id="SVGID_4_">
				<use xlink:href="#SVGID_3_"  style="overflow:visible;"/>
			</clipPath>
		</g>
	</g>
</g>
<path class="st1" d="M22.9,29.5c1.9,0,3.4-1.5,3.4-3.4c0-1.9-1.5-3.4-3.4-3.4c-1.9,0-3.4,1.5-3.4,3.4C19.5,28,21,29.5,22.9,29.5"/>
<path class="st2" d="M19,21.3"/>
<path class="st2" d="M30.6,27.4"/>
<line class="st2" x1="30.6" y1="27.4" x2="19" y2="21.3"/>
</svg>
