<?xml version="1.0" encoding="utf-8"?>
<!-- Generator: Adobe Illustrator 19.1.0, SVG Export Plug-In . SVG Version: 6.00 Build 0)  -->
<svg version="1.1" id="Layer_1" xmlns="http://www.w3.org/2000/svg" xmlns:xlink="http://www.w3.org/1999/xlink" x="0px" y="0px"
	 viewBox="-165 167 100 100" style="enable-background:new -165 167 100 100;" xml:space="preserve">
<style type="text/css">
	.st0{display:none;}
	.st1{display:inline;stroke:#FFFFFF;stroke-miterlimit:10;}
	.st2{display:inline;}
	.st3{fill:#C7C8CA;}
	.st4{fill:none;stroke:#000000;stroke-width:0.2811;stroke-miterlimit:10;}
	.st5{fill:none;stroke:#000000;stroke-width:0.1406;stroke-miterlimit:10;}
	.st6{display:inline;fill:none;stroke:#ED1F24;stroke-width:0.25;stroke-miterlimit:10;}
	.st7{fill:#FFFFFF;}
	.st8{fill:#C6C7C8;}
</style>
<g id="Layer_7" class="st0">
	<rect x="-165" y="167.5" class="st1" width="100" height="99.2"/>
</g>
<g id="_x30_5-suitpocket-patch" class="st0">
	<g class="st2">
		<path class="st3" d="M-107.1,259.8c0,0-5.9-0.6-7.8-14.7c-2.3,14.1-7.8,14.8-7.8,14.8s5.2,0.5,7.8,0.5c2.6,0,7.3-0.4,7.3-0.4"/>
		<path class="st4" d="M-95.9,242.9c-0.9-5.3-1.5-15.2-1.5-15.2c-0.4-7.4,1-21.5,1-21.5s0,0,0,0.1c0.3,3.5,1.5,19,1.5,19
			C-94.9,227.7-95.3,235.9-95.9,242.9L-95.9,242.9L-95.9,242.9z M-133.9,242.8c-0.2-6.8-1-15.2-0.9-17.6c0,0,0.6-14.3,1.3-19v-0.1
			c0,0,1.7,13.7,1,21.5C-132.5,227.7-132.9,237.5-133.9,242.8L-133.9,242.8z M-144,252.7c0,0,2.6,0.9,5.2,0.5c0,0,2-0.1,3.5-0.7
			 M-107.4,259.7c6.9,1.6,13.4-1.2,13.4-1.2c-0.2-0.8-0.7-6.1-0.7-6.1c1.5,0.6,3.5,0.7,3.5,0.7c2.6,0.4,5.2-0.5,5.2-0.5l1.5-26.5
			c0.4-18.6-3.3-39.1-3.3-39.1c-0.4-2.4-0.9-3.5-0.9-3.5c-0.2-1.1-1.5-1.6-1.8-1.9c-0.1-0.1-0.1-0.1-0.1-0.1
			c-7.1-1.5-15.8-5.9-15.8-5.9c-0.2-0.3-4.1-3.6-4.1-3.6c-1.2-1-4.4-1-4.4-1h-0.1c0,0-3.1,0-4.4,0.9c0,0-3.9,3.3-4.1,3.6
			c0,0-10,4.6-15.8,5.9c0,0,0,0-0.1,0.1c-0.3,0.3-1.4,0.8-1.8,1.9c0,0-0.4,1-0.9,3.5c0,0-3.8,20.6-3.4,39.1l1.5,26.7
			c0,0,2.6,0.9,5.2,0.5c0,0,2-0.1,3.5-0.7c0,0-0.5,3.9-0.7,6.1c0,0,6.5,2.7,13.4,1.2c0,0,5.2-0.7,7.6-15
			C-113,259.1-107.4,259.7-107.4,259.7L-107.4,259.7z"/>
		<path class="st4" d="M-122.9,259.8c0,0,5.1,0.4,8,0.4c2.8,0,8-0.4,8-0.4"/>
		<path class="st5" d="M-109.8,202.9c5.3-0.4,9.6-1.3,9.6-1.3v-2.1c-1.8,0.3-3.5,0.5-5,0.7c-1.6,0.2-2.9,0.3-3.7,0.4"/>
		<path class="st5" d="M-125.8,205.6c0,0,0.6,13,0.2,30.2 M-104.3,205.6c0,0-0.6,13-0.2,30.2"/>
		<path class="st4" d="M-94.7,252.5l-1.7-0.8l0.6-8.8 M-133.9,242.6l0.7,9.3l-2,0.5 M-90.6,181.5c0,0-5,15.1-5.8,25.3 M-139.3,181.5
			c0,0,5,15.1,5.8,25.3"/>
		<line class="st4" x1="-114.2" y1="233.3" x2="-112.5" y2="233.3"/>
		<g>
			<path class="st5" d="M-113.3,221c0,0.4-0.4,0.8-0.8,0.8s-0.8-0.4-0.8-0.8s0.4-0.8,0.8-0.8S-113.3,220.6-113.3,221"/>
		</g>
		<line class="st4" x1="-113.4" y1="221" x2="-112.3" y2="221"/>
		<g>
			<path class="st4" d="M-123.5,175.6l-3.5,5.8l3,2.3l-2.5,2.8c0,0,3.1,13.6,10.2,29.2l-0.1,2.3c7.8-16.7,12.9-31.5,12.9-31.5
				l-2.5-2.8l3-2.3l-3.4-5.8"/>
			<path class="st4" d="M-115.4,211.5l-0.8,4.3c0,0-0.5,1-0.1,17c0,0,0.7,7.2,1.4,12.5"/>
			<path class="st3" d="M-114.9,173.2c-2.2,0-4,0.8-4.7,1.1c-0.4,3.5-0.7,10.5,0.8,19.2l3.4,18.3l4.1-18.3
				c1.5-8.7,1.3-15.7,1.1-19.2C-110.9,174-112.7,173.2-114.9,173.2"/>
			<path class="st4" d="M-114.9,173.2c-2.2,0-4,0.8-4.7,1.1c-0.4,3.5-0.7,10.5,0.8,19.2l3.4,18.3l4.1-18.3
				c1.5-8.7,1.3-15.7,1.1-19.2C-110.9,174-112.7,173.2-114.9,173.2z"/>
		</g>
		<line class="st5" x1="-107.2" y1="186.4" x2="-105.7" y2="187.4"/>
		<path class="st4" d="M-119.4,171.9c0,0-0.2,0.8-0.3,2.3"/>
		<path class="st4" d="M-110.3,174.2c-0.1-1.8,0-0.6-0.2-2.3"/>
		<path class="st5" d="M-105.9,183.8l-4.2-3.9 M-124,183.8l4-4"/>
		<path class="st5" d="M-141.1,245.5c0,0.3-0.3,0.6-0.6,0.6s-0.6-0.3-0.6-0.6c0-0.3,0.3-0.6,0.6-0.6S-141.1,245.2-141.1,245.5"/>
		<path class="st5" d="M-141.1,247.1c0,0.3-0.3,0.6-0.6,0.6s-0.6-0.3-0.6-0.6c0-0.3,0.3-0.6,0.6-0.6S-141.1,246.8-141.1,247.1"/>
		<path class="st5" d="M-141.1,248.8c0,0.3-0.3,0.6-0.6,0.6s-0.6-0.3-0.6-0.6s0.3-0.6,0.6-0.6C-141.4,248.1-141.1,248.4-141.1,248.8
			"/>
		<path class="st5" d="M-141.1,250.4c0,0.3-0.3,0.6-0.6,0.6s-0.6-0.3-0.6-0.6c0-0.3,0.3-0.6,0.6-0.6S-141.1,250.1-141.1,250.4"/>
		<path class="st5" d="M-89,245.5c0,0.3,0.3,0.6,0.6,0.6c0.3,0,0.6-0.3,0.6-0.6c0-0.3-0.3-0.6-0.6-0.6S-89,245.2-89,245.5"/>
		<path class="st5" d="M-89,247.1c0,0.3,0.3,0.6,0.6,0.6c0.3,0,0.6-0.3,0.6-0.6c0-0.3-0.3-0.6-0.6-0.6S-89,246.8-89,247.1"/>
		<path class="st5" d="M-89,248.8c0,0.3,0.3,0.6,0.6,0.6c0.3,0,0.6-0.3,0.6-0.6s-0.3-0.6-0.6-0.6C-88.7,248.1-89,248.4-89,248.8"/>
		<path class="st5" d="M-89,250.4c0,0.3,0.3,0.6,0.6,0.6c0.3,0,0.6-0.3,0.6-0.6c0-0.3-0.3-0.6-0.6-0.6S-89,250.1-89,250.4"/>
		<line class="st5" x1="-142.9" y1="252.9" x2="-143.7" y2="238.5"/>
		<line class="st5" x1="-87.1" y1="252.9" x2="-86.4" y2="238.5"/>
		<path class="st4" d="M-96.8,235.2c-2.7,0.5-5.8,0.8-9.1,0.6c0,0.7-0.8,17,1,18.6s6.3,1.4,10.5,0.6"/>
		<path class="st4" d="M-133.1,235.2c2.7,0.5,5.7,0.8,9,0.6c0,0.7,0.8,16.9-1,18.5c-1.4,1.3-4.3,1.6-10.5,0.7"/>
	</g>
</g>
<g id="_x30_6-suitpocket-patch-3" class="st0">
	<g class="st2">
		<path class="st3" d="M-107.1,260.5c0,0-5.9-0.6-7.8-14.8c-2.3,14.2-7.8,14.9-7.8,14.9s5.2,0.5,7.8,0.5c2.6,0,7.3-0.4,7.3-0.4"/>
		<path class="st4" d="M-95.7,243.4c-0.9-5.3-1.5-15.3-1.5-15.3c-0.4-7.4,1-21.6,1-21.6s0,0,0,0.1c0.3,3.5,1.5,19.1,1.5,19.1
			C-94.7,228.1-95.1,236.3-95.7,243.4L-95.7,243.4L-95.7,243.4z M-134,243.3c-0.2-6.8-1-15.3-0.9-17.7c0,0,0.6-14.4,1.3-19.1v-0.1
			c0,0,1.7,13.8,1,21.6C-132.6,228.1-132.9,238-134,243.3L-134,243.3z M-144.1,253.3c0,0,2.7,0.9,5.3,0.5c0,0,2.1-0.1,3.5-0.7
			 M-107.2,260.4c7,1.6,13.5-1.2,13.5-1.2c-0.2-0.8-0.7-6.1-0.7-6.1c1.5,0.6,3.5,0.7,3.5,0.7c2.6,0.4,5.2-0.5,5.2-0.5l1.5-26.6
			c0.4-18.7-3.3-39.4-3.3-39.4c-0.4-2.4-0.9-3.5-0.9-3.5c-0.2-1.1-1.5-1.6-1.8-1.9c-0.1-0.1-0.1-0.1-0.1-0.1c-7.1-1.5-15.9-6-15.9-6
			c-0.3-0.3-4.2-3.7-4.2-3.7c-1.3-1-4.4-0.9-4.4-0.9h-0.2c0,0-3.1,0-4.4,0.9c0,0-3.9,3.4-4.2,3.7c0,0-10.1,4.7-15.9,6
			c0,0,0,0-0.1,0.1c-0.3,0.3-1.4,0.8-1.8,1.9c0,0-0.4,1-0.9,3.5c0,0-3.9,20.7-3.4,39.4l1.6,26.6c0,0,2.7,0.9,5.3,0.5
			c0,0,2.1-0.1,3.5-0.7c0,0-0.5,3.9-0.7,6.1c0,0,6.6,2.7,13.5,1.2c0,0,5.2-0.7,7.6-15.1C-112.9,259.8-107.3,260.4-107.2,260.4
			L-107.2,260.4z"/>
		<path class="st4" d="M-122.9,260.5c0,0,5.2,0.4,8,0.4c2.9,0,8-0.4,8-0.4"/>
		<path class="st5" d="M-125.8,206c0,0,0.6,13.1,0.2,30.4 M-104.4,213c-0.1,5.2-0.1,16,0.1,23.4"/>
		<path class="st4" d="M-94.4,253.1l-1.7-0.8l0.6-8.9 M-134,243.2l0.7,9.3l-2,0.6 M-90.3,181.7c0,0-5.1,15.2-5.8,25.4 M-139.4,181.7
			c0,0,5.1,15.2,5.8,25.4"/>
		<line class="st4" x1="-114.1" y1="233.8" x2="-112.4" y2="233.8"/>
		<g>
			<path class="st4" d="M-104.2,236.4"/>
			<path class="st5" d="M-113.2,221.4c0,0.4-0.4,0.8-0.8,0.8s-0.8-0.4-0.8-0.8c0-0.4,0.4-0.8,0.8-0.8S-113.2,221-113.2,221.4"/>
		</g>
		<line class="st4" x1="-113.3" y1="221.4" x2="-112.2" y2="221.4"/>
		<g>
			<path class="st4" d="M-123.5,175.7l-3.5,5.9l3,2.3l-2.5,2.8c0,0,3.1,13.7,10.2,29.3l-0.1,2.4c7.8-16.8,13-31.7,13-31.7l-2.5-2.8
				l3-2.3l-3.4-5.9"/>
			<path class="st4" d="M-110.4,172.1"/>
			<path class="st4" d="M-115.3,211.8l-0.8,4.4c0,0-0.5,1-0.1,17.1c0,0,0.7,7.3,1.4,12.6"/>
			<path class="st3" d="M-114.8,173.3c-2.2,0-4,0.8-4.8,1.1c-0.4,3.5-0.7,10.5,0.8,19.3l3.4,18.4l4.2-18.4
				c1.6-8.8,1.3-15.8,1.1-19.3C-110.8,174.1-112.6,173.3-114.8,173.3"/>
			<path class="st4" d="M-114.9,173.3c-2.2,0-4,0.8-4.8,1.1c-0.3,3.5-0.7,10.6,0.9,19.3l3.4,18.4l4.2-18.4
				c1.6-8.8,1.3-15.8,1.1-19.3C-110.8,174.1-112.6,173.3-114.9,173.3z"/>
		</g>
		<line class="st4" x1="-107" y1="186.6" x2="-105.6" y2="187.6"/>
		<g>
			<path class="st4" d="M-119.3,172c0,0-0.2,0.9-0.3,2.3"/>
			<path class="st4" d="M-110.1,174.3c-0.2-1.4-0.3-2.3-0.3-2.3"/>
			<path class="st5" d="M-105.7,184l-4.3-4 M-124,184l4-4.1"/>
		</g>
		<path class="st5" d="M-141.2,246.1c0,0.4-0.3,0.6-0.6,0.6c-0.4,0-0.6-0.3-0.6-0.6c0-0.3,0.3-0.6,0.6-0.6S-141.2,245.7-141.2,246.1
			"/>
		<path class="st5" d="M-141.2,247.7c0,0.4-0.3,0.6-0.6,0.6c-0.4,0-0.6-0.3-0.6-0.6c0-0.4,0.3-0.6,0.6-0.6S-141.2,247.4-141.2,247.7
			"/>
		<path class="st5" d="M-141.2,249.4c0,0.4-0.3,0.6-0.6,0.6c-0.4,0-0.6-0.3-0.6-0.6c0-0.4,0.3-0.6,0.6-0.6
			C-141.5,248.7-141.2,249-141.2,249.4"/>
		<path class="st5" d="M-141.2,251c0,0.4-0.3,0.6-0.6,0.6c-0.4,0-0.6-0.3-0.6-0.6c0-0.4,0.3-0.6,0.6-0.6S-141.2,250.7-141.2,251"/>
		<path class="st5" d="M-88.7,246.1c0,0.4,0.3,0.6,0.6,0.6c0.3,0,0.6-0.3,0.6-0.6c0-0.3-0.3-0.6-0.6-0.6
			C-88.5,245.5-88.7,245.7-88.7,246.1"/>
		<path class="st5" d="M-88.7,247.7c0,0.4,0.3,0.6,0.6,0.6c0.3,0,0.6-0.3,0.6-0.6c0-0.4-0.3-0.6-0.6-0.6
			C-88.5,247.1-88.7,247.4-88.7,247.7"/>
		<path class="st5" d="M-88.7,249.4c0,0.4,0.3,0.6,0.6,0.6c0.3,0,0.6-0.3,0.6-0.6c0-0.4-0.3-0.6-0.6-0.6
			C-88.5,248.7-88.7,249-88.7,249.4"/>
		<path class="st5" d="M-88.7,251c0,0.4,0.3,0.6,0.6,0.6c0.3,0,0.6-0.3,0.6-0.6c0-0.4-0.3-0.6-0.6-0.6
			C-88.5,250.4-88.7,250.7-88.7,251"/>
		<line class="st5" x1="-143" y1="253.6" x2="-143.8" y2="239.1"/>
		<line class="st5" x1="-86.8" y1="253.6" x2="-86.1" y2="239.1"/>
		<path class="st4" d="M-96.6,235.7c-2.7,0.5-5.8,0.8-9.2,0.6c0,0.7-0.8,17.1,1,18.7c1.9,1.6,6.3,1.4,10.6,0.6"/>
		<path class="st4" d="M-133.1,235.7c2.7,0.5,5.8,0.8,9.1,0.6c0,0.7,0.8,17.1-1,18.6c-1.5,1.3-4.3,1.6-10.6,0.7"/>
		<path class="st5" d="M-100.3,211.7c1.7-1.2,0.5-10.7,0.2-11.3c-2.5,0.9-4.8,2.1-8.7,3.5c0,0.5-0.8,7.2,0.4,8.3
			C-107,213.5-102.2,213.1-100.3,211.7z"/>
	</g>
</g>
<g id="guide" class="st0">
	<rect x="-139.7" y="181.7" class="st6" width="49.3" height="79.7"/>
</g>
<path class="st7" d="M-87.8,187c-0.4-2.4-0.9-3.5-0.9-3.5c-0.2-1.1-1.5-1.6-1.8-1.9c-0.1-0.1-0.1-0.1-0.1-0.1
	c-7.1-1.5-15.8-5.9-15.8-5.9c-0.2-0.3-3.9-3.5-4.1-3.6v-0.1v0.1l0,0c-1.2-1-4.4-1-4.4-1h-0.1c0,0-3.1,0-4.4,0.9c0,0-3.9,3.3-4.1,3.6
	c0,0-10,4.6-15.8,5.9c0,0,0,0-0.1,0.1c-0.3,0.3-1.4,0.8-1.8,1.9c0,0-0.4,1-0.9,3.5c0,0-3.8,20.6-3.4,39.1l1.5,26.7
	c0,0,2.6,0.9,5.2,0.5c0,0,2-0.1,3.5-0.7c0,0-0.5,3.9-0.7,6.1c0,0,6.4,2.7,13.3,1.2c0.1,0,0.2,0,0.3,0c-0.2,0.1-0.3,0.1-0.3,0.1
	s5.2,0.5,7.8,0.5s7.3-0.4,7.3-0.4l0.5-0.2c0.2,0,0.2,0,0.2,0h-0.2c0,0-0.3,0-0.7-0.2c0.2,0.1,0.4,0.1,0.4,0.1
	c6.9,1.6,13.4-1.2,13.4-1.2c-0.2-0.8-0.7-6.1-0.7-6.1c1.5,0.6,3.5,0.7,3.5,0.7c2.6,0.4,5.2-0.5,5.2-0.5l1.5-26.5
	C-84.1,207.5-87.8,187-87.8,187z M-132.5,227.6c0,0.1-0.2,3.9-0.5,8h-0.1c0,0,0,0,0.1,0c-0.2,2.5-0.5,5.1-0.9,7.1v-0.1l0,0
	c-0.2-6.8-1-15.1-0.9-17.4c0,0,0.6-13.6,1.2-18.6l0.1,0.2c0-0.1,0-0.2,0-0.4c0-0.1,0-0.2,0-0.2v-0.1
	C-133.5,206.1-131.8,219.8-132.5,227.6z M-122.3,259.8h-0.3c0,0,5.2-0.7,7.6-15c0,0.2,0,0.3,0.1,0.5
	C-116.9,257-121.1,259.4-122.3,259.8z M-95.9,243L-95.9,243c-0.9-5.4-1.5-15.3-1.5-15.3c-0.4-7.4,1-21.5,1-21.5s0,0,0,0.1
	c0,0.1,0,0.2,0,0.3c0,0.1,0,0.2,0,0.2v-0.1c0.3,4.1,1.5,18.6,1.5,18.6C-94.9,227.7-95.3,235.9-95.9,243z"/>
<path class="st8" d="M-107.1,259.8c0,0-5.9-0.6-7.8-14.7c-2.3,14.1-7.8,14.8-7.8,14.8s5.2,0.5,7.8,0.5c2.6,0,7.3-0.4,7.3-0.4"/>
<path class="st4" d="M-95.9,242.9c-0.9-5.3-1.5-15.2-1.5-15.2c-0.4-7.4,1-21.5,1-21.5s0,0,0,0.1c0.3,3.5,1.5,19,1.5,19
	C-94.9,227.7-95.3,235.9-95.9,242.9L-95.9,242.9L-95.9,242.9z M-133.9,242.8c-0.2-6.8-1-15.2-0.9-17.6c0,0,0.6-14.3,1.3-19v-0.1
	c0,0,1.7,13.7,1,21.5C-132.5,227.7-132.9,237.5-133.9,242.8L-133.9,242.8z M-144,252.7c0,0,2.6,0.9,5.2,0.5c0,0,2-0.1,3.5-0.7
	 M-107.4,259.7c6.9,1.6,13.4-1.2,13.4-1.2c-0.2-0.8-0.7-6.1-0.7-6.1c1.5,0.6,3.5,0.7,3.5,0.7c2.6,0.4,5.2-0.5,5.2-0.5l1.5-26.5
	c0.4-18.6-3.3-39.1-3.3-39.1c-0.4-2.4-0.9-3.5-0.9-3.5c-0.2-1.1-1.5-1.6-1.8-1.9c-0.1-0.1-0.1-0.1-0.1-0.1
	c-7.1-1.5-15.8-5.9-15.8-5.9c-0.2-0.3-4.1-3.6-4.1-3.6c-1.2-1-4.4-1-4.4-1h-0.1c0,0-3.1,0-4.4,0.9c0,0-3.9,3.3-4.1,3.6
	c0,0-10,4.6-15.8,5.9c0,0,0,0-0.1,0.1c-0.3,0.3-1.4,0.8-1.8,1.9c0,0-0.4,1-0.9,3.5c0,0-3.8,20.6-3.4,39.1l1.5,26.7
	c0,0,2.6,0.9,5.2,0.5c0,0,2-0.1,3.5-0.7c0,0-0.5,3.9-0.7,6.1c0,0,6.5,2.7,13.4,1.2c0,0,5.2-0.7,7.6-15
	C-113,259.1-107.4,259.7-107.4,259.7L-107.4,259.7z"/>
<path class="st4" d="M-122.9,259.8c0,0,5.1,0.4,8,0.4c2.8,0,8-0.4,8-0.4"/>
<path class="st5" d="M-109.8,202.9c5.3-0.4,9.6-1.3,9.6-1.3v-2.1c-1.8,0.3-3.5,0.5-5,0.7c-1.6,0.2-2.9,0.3-3.7,0.4"/>
<path class="st5" d="M-125.8,205.6c0,0,0.6,6,0.2,23.2 M-104.3,205.6c0,0-0.6,11.7-0.2,28.9"/>
<path class="st4" d="M-94.7,252.5l-1.7-0.8l0.6-8.8 M-133.9,242.6l0.7,9.3l-2,0.5 M-90.6,181.5c0,0-5,15.1-5.8,25.3 M-139.3,181.5
	c0,0,5,15.1,5.8,25.3"/>
<line class="st4" x1="-114.2" y1="233.3" x2="-112.5" y2="233.3"/>
<path class="st5" d="M-113.3,221c0,0.4-0.4,0.8-0.8,0.8s-0.8-0.4-0.8-0.8s0.4-0.8,0.8-0.8S-113.3,220.6-113.3,221"/>
<line class="st4" x1="-113.4" y1="221" x2="-112.3" y2="221"/>
<path class="st4" d="M-123.5,175.6l-3.5,5.8l3,2.3l-2.5,2.8c0,0,3.1,13.6,10.2,29.2l-0.1,2.3c7.8-16.7,12.9-31.5,12.9-31.5l-2.5-2.8
	l3-2.3l-3.4-5.8"/>
<path class="st4" d="M-115.4,211.5l-0.8,4.3c0,0-0.5,1-0.1,17c0,0,0.7,7.2,1.4,12.5"/>
<path class="st8" d="M-114.9,173.2c-2.2,0-4,0.8-4.7,1.1c-0.4,3.5-0.7,10.5,0.8,19.2l3.4,18.3l4.1-18.3c1.5-8.7,1.3-15.7,1.1-19.2
	C-110.9,174-112.7,173.2-114.9,173.2"/>
<path class="st4" d="M-114.9,173.2c-2.2,0-4,0.8-4.7,1.1c-0.4,3.5-0.7,10.5,0.8,19.2l3.4,18.3l4.1-18.3c1.5-8.7,1.3-15.7,1.1-19.2
	C-110.9,174-112.7,173.2-114.9,173.2z"/>
<line class="st5" x1="-107.2" y1="186.4" x2="-105.7" y2="187.4"/>
<path class="st4" d="M-119.4,171.9c0,0-0.2,0.8-0.3,2.3"/>
<path class="st4" d="M-110.3,174.2c-0.1-1.8,0-0.6-0.2-2.3"/>
<path class="st5" d="M-105.9,183.8l-4.2-3.9 M-124,183.8l4-4"/>
<path class="st5" d="M-141.1,245.5c0,0.3-0.3,0.6-0.6,0.6s-0.6-0.3-0.6-0.6c0-0.3,0.3-0.6,0.6-0.6S-141.1,245.2-141.1,245.5"/>
<path class="st5" d="M-141.1,247.1c0,0.3-0.3,0.6-0.6,0.6s-0.6-0.3-0.6-0.6c0-0.3,0.3-0.6,0.6-0.6S-141.1,246.8-141.1,247.1"/>
<path class="st5" d="M-141.1,248.8c0,0.3-0.3,0.6-0.6,0.6s-0.6-0.3-0.6-0.6s0.3-0.6,0.6-0.6C-141.4,248.1-141.1,248.4-141.1,248.8"
	/>
<path class="st5" d="M-141.1,250.4c0,0.3-0.3,0.6-0.6,0.6s-0.6-0.3-0.6-0.6c0-0.3,0.3-0.6,0.6-0.6S-141.1,250.1-141.1,250.4"/>
<path class="st5" d="M-89,245.5c0,0.3,0.3,0.6,0.6,0.6c0.3,0,0.6-0.3,0.6-0.6c0-0.3-0.3-0.6-0.6-0.6S-89,245.2-89,245.5"/>
<path class="st5" d="M-89,247.1c0,0.3,0.3,0.6,0.6,0.6c0.3,0,0.6-0.3,0.6-0.6c0-0.3-0.3-0.6-0.6-0.6S-89,246.8-89,247.1"/>
<path class="st5" d="M-89,248.8c0,0.3,0.3,0.6,0.6,0.6c0.3,0,0.6-0.3,0.6-0.6s-0.3-0.6-0.6-0.6C-88.7,248.1-89,248.4-89,248.8"/>
<path class="st5" d="M-89,250.4c0,0.3,0.3,0.6,0.6,0.6c0.3,0,0.6-0.3,0.6-0.6c0-0.3-0.3-0.6-0.6-0.6S-89,250.1-89,250.4"/>
<line class="st5" x1="-142.9" y1="252.9" x2="-143.7" y2="238.5"/>
<line class="st5" x1="-87.1" y1="252.9" x2="-86.4" y2="238.5"/>
<g>
	<path class="st4" d="M-133.2,236.6c5.6-0.8,4.9-0.9,8.5-1.4"/>
	<path class="st4" d="M-133,235.8c5.3-0.7,4.9-0.9,8.2-1.4l-0.1,4.2c0,1.2-0.8,2.4-2.1,2.7c0,0-1.7,0.5-6.8,0.7"/>
</g>
<g>
	<path class="st4" d="M-96.7,236.6c-5.6-0.8-4.7-0.9-8.3-1.4"/>
	<path class="st4" d="M-96.8,235.8c-5.3-0.7-4.9-0.9-8.2-1.4l0.1,4.2c0,1.2,0.8,2.4,2.1,2.7c0,0,1.7,0.5,6.8,0.7"/>
</g>
<path class="st4" d="M-132.8,231l7.9-1.4"/>
<path class="st4" d="M-132.8,230.2l7.9-1.4l0,2.2c0,1.2-0.8,2.4-2.1,2.7l-5.9,0.9"/>
</svg>
