<?xml version="1.0" encoding="utf-8"?>
<!-- Generator: Adobe Illustrator 19.1.0, SVG Export Plug-In . SVG Version: 6.00 Build 0)  -->
<svg version="1.1" id="Layer_1" xmlns="http://www.w3.org/2000/svg" xmlns:xlink="http://www.w3.org/1999/xlink" x="0px" y="0px"
	 viewBox="0 0 100 100" style="enable-background:new 0 0 100 100;" xml:space="preserve">
<style type="text/css">
	.st0{fill:#FFFFFF;}
	.st1{fill:#C7C8C9;}
	.st2{fill:none;stroke:#010101;stroke-width:0.2811;stroke-miterlimit:10;}
	.st3{fill:none;stroke:#010101;stroke-width:0.25;stroke-miterlimit:10;}
	.st4{fill:none;stroke:#010101;stroke-width:0.1406;stroke-miterlimit:10;}
</style>
<path class="st0" d="M77.2,20c-0.4-2.4-0.9-3.5-0.9-3.5c-0.2-1.1-1.5-1.6-1.8-1.9c-0.1-0.1-0.1-0.1-0.1-0.1
	C67.3,13,58.6,8.6,58.6,8.6C58.4,8.3,54.5,5,54.5,5c-1.2-1-4.4-1-4.4-1H50c0,0-3.1,0-4.4,0.9c0,0-3.9,3.3-4.1,3.6
	c0,0-10,4.6-15.8,5.9c0,0,0,0-0.1,0.1c-0.3,0.3-1.4,0.8-1.8,1.9c0,0-0.4,1-0.9,3.5c0,0-3.8,20.6-3.4,39.1L21,85.7
	c0,0,2.6,0.9,5.2,0.5c0,0,2-0.1,3.5-0.7c0,0-0.5,3.9-0.7,6.1c0,0,6.4,2.7,13.3,1.2c0.1,0,0.2,0,0.3,0c-0.2,0.1-0.3,0.1-0.3,0.1
	s5.2,0.5,7.8,0.5s7.3-0.4,7.3-0.4l0.5-0.2c0.2,0,0.2,0,0.2,0l0,0c6.7,1.4,12.9-1.3,12.9-1.3c-0.2-0.8-0.7-6.1-0.7-6.1
	c1.5,0.6,3.5,0.7,3.5,0.7c2.6,0.4,5.2-0.5,5.2-0.5l1.5-26.5C80.9,40.5,77.2,20,77.2,20z M30.2,58.2c0,0,0.6-14.3,1.3-19v-0.1
	c0,0,1.7,13.7,1,21.5c0,0.1-0.4,9.8-1.4,15.1v-0.1l0,0C30.9,68.9,30.1,60.6,30.2,58.2z M68.6,39.2L68.6,39.2
	c0.3,3.6,1.5,19.1,1.5,19.1c0,2.4-0.4,10.6-1,17.7v-0.1c-0.9-5.3-1.5-15.2-1.5-15.2C67.2,53.3,68.6,39.2,68.6,39.2z"/>
<path class="st1" d="M57.9,92.8c0,0-5.9-0.6-7.8-14.7c-2.3,14.1-7.8,14.8-7.8,14.8s5.2,0.5,7.8,0.5s7.3-0.4,7.3-0.4"/>
<path class="st2" d="M69.1,75.9c-0.9-5.3-1.5-15.2-1.5-15.2c-0.4-7.4,1-21.5,1-21.5s0,0,0,0.1c0.3,3.5,1.5,19,1.5,19
	C70.1,60.7,69.7,68.9,69.1,75.9L69.1,75.9L69.1,75.9z M31.1,75.8c-0.2-6.8-1-15.2-0.9-17.6c0,0,0.6-14.3,1.3-19v-0.1
	c0,0,1.7,13.7,1,21.5C32.5,60.7,32.1,70.5,31.1,75.8L31.1,75.8z M42.4,92.8c0,0,5.2-0.7,7.6-15c2,14.3,7.6,14.9,7.6,14.9l0,0"/>
<path class="st2" d="M58.1,92.8"/>
<path class="st2" d="M42.1,92.8"/>
<path class="st3" d="M55.2,35.9c5.3-0.4,9.6-1.3,9.6-1.3v-2.1c-1.8,0.3-3.5,0.5-5,0.7c-1.6,0.2-2.9,0.3-3.7,0.4"/>
<path class="st3" d="M39.2,38.6c0,0,0.6,13,0.2,30.2 M60.7,38.6c0,0-0.6,13-0.2,30.2"/>
<path class="st2" d="M70.3,85.5l-1.7-0.8l0.6-8.8 M31.1,75.6l0.7,9.3l-2,0.5 M74.4,14.5c0,0-5,15.1-5.8,25.3 M25.7,14.5
	c0,0,5,15.1,5.8,25.3"/>
<line class="st2" x1="50.8" y1="66.3" x2="52.5" y2="66.3"/>
<path class="st4" d="M51.7,54c0,0.4-0.4,0.8-0.8,0.8c-0.4,0-0.8-0.4-0.8-0.8c0-0.4,0.4-0.8,0.8-0.8S51.7,53.6,51.7,54"/>
<line class="st2" x1="51.6" y1="54" x2="52.7" y2="54"/>
<path class="st2" d="M41.5,8.6L38,14.4l3,2.3l-2.5,2.8c0,0,3.1,13.6,10.2,29.2L48.6,51c7.8-16.7,12.9-31.5,12.9-31.5L59,16.7l3-2.3
	l-3.4-5.8"/>
<path class="st2" d="M49.6,44.5l-0.8,4.3c0,0-0.5,1-0.1,17c0,0,0.7,7.2,1.4,12.5"/>
<path class="st1" d="M50.1,6.2c-2.2,0-4,0.8-4.7,1.1c-0.4,3.5-0.7,10.5,0.8,19.2l3.4,18.3l4.1-18.3c1.5-8.7,1.3-15.7,1.1-19.2
	C54.1,7,52.3,6.2,50.1,6.2"/>
<path class="st2" d="M50.1,6.2c-2.2,0-4,0.8-4.7,1.1c-0.4,3.5-0.7,10.5,0.8,19.2l3.4,18.3l4.1-18.3c1.5-8.7,1.3-15.7,1.1-19.2
	C54.1,7,52.3,6.2,50.1,6.2z"/>
<line class="st4" x1="57.8" y1="19.4" x2="59.3" y2="20.4"/>
<path class="st2" d="M45.6,4.9c0,0-0.2,0.8-0.3,2.3"/>
<path class="st2" d="M54.7,7.2"/>
<path class="st4" d="M59.1,16.8l-4.2-3.9 M41,16.8l4-4"/>
<path class="st4" d="M23.9,78.5c0,0.3-0.3,0.6-0.6,0.6c-0.3,0-0.6-0.3-0.6-0.6c0-0.3,0.3-0.6,0.6-0.6S23.9,78.2,23.9,78.5"/>
<path class="st4" d="M23.9,80.1c0,0.3-0.3,0.6-0.6,0.6c-0.3,0-0.6-0.3-0.6-0.6c0-0.3,0.3-0.6,0.6-0.6S23.9,79.8,23.9,80.1"/>
<path class="st4" d="M23.9,81.8c0,0.3-0.3,0.6-0.6,0.6c-0.3,0-0.6-0.3-0.6-0.6c0-0.3,0.3-0.6,0.6-0.6C23.6,81.1,23.9,81.4,23.9,81.8
	"/>
<path class="st4" d="M23.9,83.4c0,0.3-0.3,0.6-0.6,0.6c-0.3,0-0.6-0.3-0.6-0.6c0-0.3,0.3-0.6,0.6-0.6S23.9,83.1,23.9,83.4"/>
<path class="st4" d="M76,78.5c0,0.3,0.3,0.6,0.6,0.6c0.3,0,0.6-0.3,0.6-0.6c0-0.3-0.3-0.6-0.6-0.6S76,78.2,76,78.5"/>
<path class="st4" d="M76,80.1c0,0.3,0.3,0.6,0.6,0.6c0.3,0,0.6-0.3,0.6-0.6c0-0.3-0.3-0.6-0.6-0.6S76,79.8,76,80.1"/>
<path class="st4" d="M76,81.8c0,0.3,0.3,0.6,0.6,0.6c0.3,0,0.6-0.3,0.6-0.6c0-0.3-0.3-0.6-0.6-0.6C76.3,81.1,76,81.4,76,81.8"/>
<path class="st4" d="M76,83.4c0,0.3,0.3,0.6,0.6,0.6c0.3,0,0.6-0.3,0.6-0.6c0-0.3-0.3-0.6-0.6-0.6S76,83.1,76,83.4"/>
<line class="st4" x1="22.1" y1="85.9" x2="21.3" y2="71.5"/>
<line class="st4" x1="77.9" y1="85.9" x2="78.6" y2="71.5"/>
<path class="st2" d="M68.2,68.2c-2.7,0.5-5.8,0.8-9.1,0.6c0,0.7-0.8,17,1,18.6s6.3,1.4,10.5,0.6"/>
<path class="st2" d="M31.9,68.2c2.7,0.5,5.7,0.8,9,0.6c0,0.7,0.8,16.9-1,18.5c-1.4,1.3-4.3,1.6-10.5,0.7"/>
<path class="st3" d="M77.2,20c-0.4-2.4-0.9-3.5-0.9-3.5c-0.2-1.1-1.5-1.6-1.8-1.9c-0.1-0.1-0.1-0.1-0.1-0.1
	C67.3,13,58.6,8.6,58.6,8.6C58.4,8.3,54.5,5,54.5,5c-1.2-1-4.4-1-4.4-1H50c0,0-3.1,0-4.4,0.9c0,0-3.9,3.3-4.1,3.6
	c0,0-10,4.6-15.8,5.9c0,0,0,0-0.1,0.1c-0.3,0.3-1.4,0.8-1.8,1.9c0,0-0.4,1-0.9,3.5c0,0-3.8,20.6-3.4,39.1L21,85.7
	c0,0,2.6,0.9,5.2,0.5c0,0,2-0.1,3.5-0.7c0,0-0.5,3.9-0.7,6.1c0,0,6.4,2.7,13.3,1.2c0.1,0,0.2,0,0.3,0c-0.2,0.1-0.3,0.1-0.3,0.1
	s5.2,0.5,7.8,0.5s7.3-0.4,7.3-0.4l0.5-0.2c0.2,0,0.2,0,0.2,0l0,0c6.7,1.4,12.9-1.3,12.9-1.3c-0.2-0.8-0.7-6.1-0.7-6.1
	c1.5,0.6,3.5,0.7,3.5,0.7c2.6,0.4,5.2-0.5,5.2-0.5l1.5-26.5C80.9,40.5,77.2,20,77.2,20z"/>
</svg>
