<svg version="1.1" id="Layer_1" xmlns="http://www.w3.org/2000/svg" x="0px" y="0px" width="1000px" height="1000px" viewBox="0 0 1000 1000">
<style type="text/css">
	.st0{fill:#ffffff;stroke:#000000;stroke-width:2.5;}
</style>
<g class="st0">
	<path d="M401,62c25-17,67-22,99-22s77,7,102,24c10,7,17,16,23,24c8,12,10,35,15,58L358,144c4-22,10-43,17-54C380,80,388,70,401,62"/>
	<path d="M128,255C96,278-8,452,18,1227l960,108c40-867-72-1058-105-1083S630,142,630,142c-30-14-218-21-267,0c0,0-203,87-235,112"/>
	<path d="M880,262c0,0-48,64-48,197c0,104-4,518-5,768"/>
	<path d="M125,256c0,0,45,58,45,192c0,40,1,125,1,229l1,185c2,187,3,266,3,365"/>
	<path d="M858,305c-190-49-526-63-710,0"/>
	<line x1="500" y1="129" x2="500" y2="262"/>
</g>
</svg>
