<?xml version="1.0" encoding="utf-8"?>
<!-- Generator: Adobe Illustrator 19.1.0, SVG Export Plug-In . SVG Version: 6.00 Build 0)  -->
<svg version="1.1" id="Layer_1" xmlns="http://www.w3.org/2000/svg" xmlns:xlink="http://www.w3.org/1999/xlink" x="0px" y="0px"
	 viewBox="0 0 100 100" style="enable-background:new 0 0 100 100;" xml:space="preserve">
<style type="text/css">
	.st0{fill:#FFFFFF;}
	.st1{fill:#FFFFFF;stroke:#010101;stroke-width:0.3243;stroke-linejoin:bevel;stroke-miterlimit:10;}
	.st2{fill:#FFFFFF;stroke:#010101;stroke-width:0.1621;stroke-miterlimit:2.613;}
	.st3{fill:none;stroke:#010101;stroke-width:0.3243;stroke-linejoin:bevel;stroke-miterlimit:10;}
	.st4{fill:none;stroke:#010101;stroke-width:0.3243;stroke-miterlimit:2.613;}
	.st5{fill:none;stroke:#010101;stroke-width:0.1621;stroke-miterlimit:2.613;}
	.st6{fill:none;stroke:#010101;stroke-width:0.1621;stroke-linejoin:bevel;stroke-miterlimit:10;}
	.st7{fill:none;stroke:#010101;stroke-width:0.25;stroke-miterlimit:10;}
</style>
<path class="st0" d="M84.7,100V15h0.1V6.9H80c-0.1-0.1-0.1-0.1-0.2-0.1h-1.6c0,0-0.1,0-0.2,0.1H44.7c0-0.1-0.1-0.1-0.2-0.1h-1.6
	c0,0-0.1,0-0.2,0.1H23.5c0-0.1-0.1-0.1-0.2-0.1h-1.6c0,0-0.1,0-0.2,0.1h-2.4V15h0.1c-2,8.2-4.1,13.8-5,25.9
	c-0.6,7.7,2.4,36.1,5.1,59.1H84.7z"/>
<g id="_x30_1-trouser-waistband-standard">
	<path class="st1" d="M84.8,6.9"/>
	<line class="st1" x1="84.8" y1="15" x2="19.1" y2="15"/>
	<path class="st2" d="M23.3,6.8h-1.6c-0.1,0-0.3,0.2-0.3,0.4v8.3c0,0.2,0.1,0.4,0.3,0.4h1.6c0.1,0,0.3-0.2,0.3-0.4V7.2
		C23.6,7,23.5,6.8,23.3,6.8"/>
	<path class="st2" d="M44.5,6.8h-1.6c-0.1,0-0.3,0.2-0.3,0.4v8.3c0,0.2,0.1,0.4,0.3,0.4h1.6c0.1,0,0.3-0.2,0.3-0.4V7.2
		C44.8,7,44.7,6.8,44.5,6.8"/>
	<path class="st2" d="M79.8,6.8h-1.6c-0.1,0-0.3,0.2-0.3,0.4v8.3c0,0.2,0.1,0.4,0.3,0.4h1.6c0.1,0,0.3-0.2,0.3-0.4V7.2
		C80.1,7,79.9,6.8,79.8,6.8"/>
	<path class="st3" d="M84.7,100"/>
	<path class="st3" d="M84.7,14.9"/>
	<path class="st4" d="M19.3,100"/>
	<path class="st4" d="M19.2,15"/>
	<line class="st5" x1="65.4" y1="14.9" x2="55.9" y2="65.1"/>
	<line class="st5" x1="29.2" y1="15" x2="26.7" y2="31.4"/>
	<line class="st5" x1="34.6" y1="14.9" x2="37.1" y2="31.5"/>
	<rect x="17.5" y="31.5" class="st5" width="26.6" height="3.6"/>
	<line class="st5" x1="17.5" y1="33.3" x2="44.1" y2="33.3"/>
	<path class="st5" d="M17.7,35c-1,0-1.8-0.8-1.8-1.8s0.8-1.8,1.8-1.8"/>
	<path class="st5" d="M44,35c1,0,1.8-0.8,1.8-1.8S45,31.4,44,31.4"/>
	<circle class="st5" cx="31.2" cy="37" r="1.4"/>
	<line class="st5" x1="31.2" y1="38.5" x2="31.2" y2="40.5"/>
	<line class="st6" x1="55.8" y1="100" x2="55.8" y2="6.8"/>
</g>
<path class="st7" d="M84.7,100V15h0.1V6.9H80c-0.1-0.1-0.1-0.1-0.2-0.1h-1.6c0,0-0.1,0-0.2,0.1H44.7c0-0.1-0.1-0.1-0.2-0.1h-1.6
	c0,0-0.1,0-0.2,0.1H23.5c0-0.1-0.1-0.1-0.2-0.1h-1.6c0,0-0.1,0-0.2,0.1h-2.4V15h0.1c-2,8.2-4.1,13.8-5,25.9
	c-0.6,7.7,2.4,36.1,5.1,59.1"/>
</svg>
