<?xml version="1.0" encoding="utf-8"?>
<!-- Generator: Adobe Illustrator 19.1.0, SVG Export Plug-In . SVG Version: 6.00 Build 0)  -->
<svg version="1.1" id="Layer_1" xmlns="http://www.w3.org/2000/svg" xmlns:xlink="http://www.w3.org/1999/xlink" x="0px" y="0px"
	 viewBox="0 0 100 100" style="enable-background:new 0 0 100 100;" xml:space="preserve">
<style type="text/css">
	.st0{fill:#FFFFFF;}
	.st1{fill:none;stroke:#010101;stroke-width:0.25;stroke-miterlimit:2.613;}
	.st2{fill:none;stroke:#010101;stroke-width:0.25;stroke-linejoin:bevel;stroke-miterlimit:10;}
	.st3{fill:#FFFFFF;stroke:#010101;stroke-width:0.25;stroke-linejoin:round;stroke-miterlimit:10;}
	.st4{fill:none;stroke:#010101;stroke-width:0.25;stroke-miterlimit:10;}
</style>
<g>
	<path class="st0" d="M84.6,14.8V6.7H19v8.1v0.1c-2,8.2-4,13.7-4.9,25.8c-0.6,7.7,2.4,36.2,5.1,59.3l65.4,0V14.8z"/>
</g>
<g id="_x30_2-trouser-waistband-tabbed_1_">
	<line class="st1" x1="84.6" y1="14.8" x2="19" y2="14.8"/>
	<path class="st2" d="M84.6,100"/>
	<path class="st2" d="M84.6,14.8"/>
	<path class="st1" d="M19.2,100"/>
	<path class="st1" d="M19,14.9"/>
	<line class="st1" x1="65.3" y1="14.7" x2="55.8" y2="64.9"/>
	<line class="st1" x1="29.2" y1="14.9" x2="26.7" y2="31.2"/>
	<line class="st1" x1="34.5" y1="14.9" x2="36.9" y2="31.2"/>
	<rect x="17.4" y="31.3" class="st1" width="26.5" height="3.6"/>
	<line class="st1" x1="17.4" y1="33.1" x2="44" y2="33.1"/>
	<path class="st1" d="M17.6,34.9c-1,0-1.8-0.8-1.8-1.8s0.8-1.8,1.8-1.8"/>
	<path class="st1" d="M43.9,34.9c1,0,1.8-0.8,1.8-1.8s-0.8-1.8-1.8-1.8"/>
	<circle class="st1" cx="31.1" cy="36.9" r="1.4"/>
	<line class="st1" x1="31.1" y1="38.3" x2="31.1" y2="40.3"/>
	<line class="st2" x1="55.7" y1="100" x2="55.7" y2="6.8"/>
	<polyline class="st3" points="55.8,7.6 63.2,7.6 65.2,10.7 63.2,13.9 55.8,13.9 	"/>
	<circle class="st1" cx="61.8" cy="10.7" r="1.4"/>
	<circle class="st1" cx="68.4" cy="10.7" r="1.4"/>
	<line class="st1" x1="60.4" y1="10.7" x2="58.4" y2="10.7"/>
</g>
<g>
	<path class="st4" d="M84.6,100V14.8V6.7H19v8.1v0.1c-2,8.2-4,13.7-4.9,25.8c-0.6,7.7,2.4,36.2,5.1,59.3"/>
</g>
</svg>
